<svg xmlns="http://www.w3.org/2000/svg" width="122" height="122" viewBox="0 0 122 122"><defs><style>.a,.f{fill:none;}.a{stroke:#35495e;stroke-width:3px;}.b{fill:#47ae99;}.c{fill:#304051;}.d{fill:#fff;}.e{stroke:none;}</style></defs><g class="a"><circle class="e" cx="61" cy="61" r="61"/><circle class="f" cx="61" cy="61" r="59.5"/></g><g transform="translate(14.505 21.897)"><g transform="translate(0 16.783)"><path class="b" d="M1212.955,1308.542l.967,13.293c1.987.134,3.907.265,5.826.393s3.855.231,5.779.392a3.181,3.181,0,0,1,3.172,2.774q1.678,8.706,3.285,17.426a3,3,0,0,1-2.253,3.5,2.535,2.535,0,0,1-3.36-1.713c-.78-2.224-1.334-4.53-1.936-6.813-.547-2.075-1.036-4.165-1.533-6.252a.883.883,0,0,0-1.028-.784q-5.8.044-11.591,0a15,15,0,0,1-2.6-.2,5.67,5.67,0,0,1-4.951-5.409c-.31-3.661-.486-7.333-.741-11-.182-2.609-.423-5.215-.594-7.824-.309-4.7,2.816-7.507,7.463-6.609a13.517,13.517,0,0,1,3.633,1.371c1.761.925,3.393,2.1,5.159,3.012a7.038,7.038,0,0,0,2.82.728c2.176.1,4.362.009,6.543.037,2.382.031,3.921,2.019,3.143,4.053a3,3,0,0,1-2.991,2c-3.053.014-6.115.048-9.155-.173a11.352,11.352,0,0,1-3.353-1.313C1214.122,1309.207,1213.622,1308.9,1212.955,1308.542Z" transform="translate(-1191.753 -1285.043)"/><path class="b" d="M1448.553,1341.6c-2.087,0-4.175.037-6.261-.02a1.02,1.02,0,0,0-1.22.913q-1.2,5.132-2.443,10.252a16.442,16.442,0,0,1-.72,2.311c-.7,1.728-1.969,2.406-3.518,1.958a2.951,2.951,0,0,1-2.195-3.673c.3-1.62.645-3.232.95-4.852.734-3.912,1.473-7.823,2.178-11.741a3.541,3.541,0,0,1,3.709-3.338c3.325-.209,6.65-.437,9.978-.594.939-.045,1.218-.368,1.271-1.318.257-4.566.522-9.135.955-13.687a5.313,5.313,0,0,1,5.787-4.99,5.457,5.457,0,0,1,5.188,5.376c.056,2.45-.24,4.908-.368,7.363-.172,3.3-.241,6.6-.52,9.888-.343,4.04-2.622,6.061-6.7,6.13-2.024.034-4.05.006-6.075.006Z" transform="translate(-1379.261 -1295.818)"/><path class="c" d="M1321.736,1373.049q7.759,0,15.519,0a2.382,2.382,0,0,1,2.525,2.027,2.287,2.287,0,0,1-1.557,2.391,4.537,4.537,0,0,1-1.29.14c-2.96.013-5.92.009-8.881.01-.81,0-1.622.034-2.43-.01-.781-.042-1,.275-.995,1.039.026,6.544.014,13.088.012,19.632,0,1.122.018,2.244-.01,3.365-.024.982-.4,1.339-1.377,1.357-.9.017-1.807.007-2.711.009-1.394,0-1.72-.308-1.723-1.678q-.009-3.926,0-7.853c0-4.861-.019-9.723.02-14.583.007-.877-.216-1.177-1.135-1.166-3.833.048-7.666.027-11.5.015a2.307,2.307,0,0,1-2.552-2.536,2.351,2.351,0,0,1,2.569-2.16c4.363-.012,8.725-.007,13.088-.009h2.431Z" transform="translate(-1274.859 -1344.761)"/><path class="c" d="M1169.112,1378.294a20.481,20.481,0,0,1-7.532-1.092,13.9,13.9,0,0,1-9.3-11.624q-1.1-7.136-2.2-14.27a2.672,2.672,0,0,1,2.174-3.178,2.625,2.625,0,0,1,2.877,2.323c.756,4.752,1.547,9.5,2.225,14.262.69,4.851,4.064,8.1,8.974,8.234,3.227.09,6.461-.069,9.692-.145,1.247-.029,2.377.14,3.056,1.347a2.5,2.5,0,0,1-2.033,3.758C1174.4,1378.06,1171.755,1378.168,1169.112,1378.294Z" transform="translate(-1150.036 -1324.489)"/><path class="c" d="M1501.327,1378.163c-3.267-.163-5.72-.291-8.175-.406a2.635,2.635,0,0,1-2.692-2.537,2.675,2.675,0,0,1,2.688-2.579c1.74,0,3.481.236,5.22.216a38.353,38.353,0,0,0,7.138-.379,8.225,8.225,0,0,0,6.771-7.1c.863-4.891,1.542-9.814,2.276-14.726a2.919,2.919,0,0,1,2.049-2.712,2.546,2.546,0,0,1,3.029,2.844c-.49,3.378-1.03,6.748-1.569,10.118a60.84,60.84,0,0,1-1.152,6.594c-1.518,5.491-5.281,8.74-10.759,9.992A46.639,46.639,0,0,1,1501.327,1378.163Z" transform="translate(-1426.667 -1324.317)"/><path class="b" d="M1204.459,1233.683a5.63,5.63,0,0,1-5.751-5.73,5.766,5.766,0,1,1,11.53.044A5.588,5.588,0,0,1,1204.459,1233.683Z" transform="translate(-1189.587 -1222.115)"/><path class="b" d="M1540.389,1235.881a5.647,5.647,0,0,1,5.669,5.8,5.734,5.734,0,0,1-11.468-.116A5.666,5.666,0,0,1,1540.389,1235.881Z" transform="translate(-1462.528 -1233.301)"/></g><path class="b" d="M1453.475,1206.951c-.328-.215-.616-.4-.9-.588-1.172-.8-2.334-1.611-3.519-2.39a1.66,1.66,0,0,0-.836-.253c-1.312-.026-2.625-.007-3.938-.013a3.121,3.121,0,0,1-3.334-3.353q-.006-3.011,0-6.021a3.132,3.132,0,0,1,3.36-3.331q4.323,0,8.646,0a3.151,3.151,0,0,1,3.339,3.359q0,2.965,0,5.93a3.121,3.121,0,0,1-2.379,3.313.43.43,0,0,0-.344.487c-.006.829-.028,1.659-.047,2.488C1453.523,1206.678,1453.5,1206.779,1453.475,1206.951Z" transform="translate(-1386.432 -1180.047)"/><path class="b" d="M1275.758,1156.479c0-1.228-.031-2.341.012-3.451.024-.619-.166-.88-.8-1.051a4.7,4.7,0,0,1-3.431-4.531q-.017-5.086,0-10.172a4.707,4.707,0,0,1,4.679-4.7q7.155-.031,14.311-.006a4.664,4.664,0,0,1,4.722,4.719q.029,5.016,0,10.032a4.71,4.71,0,0,1-4.876,4.869c-2.315.026-4.63-.01-6.944.03a2.9,2.9,0,0,0-1.379.379c-1.887,1.125-3.741,2.306-5.607,3.466C1276.26,1156.179,1276.066,1156.293,1275.758,1156.479Z" transform="translate(-1248.767 -1132.553)"/><circle class="d" cx="2.217" cy="2.217" r="2.217" transform="translate(25.928 6.999)"/><circle class="d" cx="2.217" cy="2.217" r="2.217" transform="translate(32.418 6.999)"/><circle class="d" cx="2.217" cy="2.217" r="2.217" transform="translate(38.908 6.971)"/></g></svg>