<svg xmlns="http://www.w3.org/2000/svg" width="23.755" height="27.148" viewBox="0 0 23.755 27.148">
  <g id="Component_68_4" data-name="Component 68 – 4" transform="translate(0.001)">
    <path id="Icon_awesome-shopping-bag" data-name="Icon awesome-shopping-bag" d="M18.664,8.484v-1.7a6.787,6.787,0,0,0-13.574,0v1.7H0V22.906a4.242,4.242,0,0,0,4.242,4.242h15.27a4.242,4.242,0,0,0,4.242-4.242V8.484Zm-10.18-1.7a3.393,3.393,0,1,1,6.787,0v1.7H8.484Zm8.484,6.363a1.273,1.273,0,1,1,1.273-1.273A1.273,1.273,0,0,1,16.967,13.15Zm-10.18,0a1.273,1.273,0,1,1,1.273-1.273A1.273,1.273,0,0,1,6.787,13.15Z" transform="translate(-0.001)"/>
  </g>
</svg>
