<svg id="Component_63_1" data-name="Component 63 – 1" xmlns="http://www.w3.org/2000/svg" width="210.495" height="155.203" viewBox="0 0 210.495 155.203">
  <g id="Group_3137" data-name="Group 3137" opacity="0.4">
    <rect id="Rectangle_815" data-name="Rectangle 815" width="3.607" height="12.201" transform="translate(72.684 114.916)" fill="#3b5d78"/>
    <rect id="Rectangle_816" data-name="Rectangle 816" width="21.165" height="1.803" transform="translate(57.193 122.092)" fill="#3b5d78"/>
    <rect id="Rectangle_817" data-name="Rectangle 817" width="3.607" height="12.201" transform="translate(59.258 114.916)" fill="#3b5d78"/>
    <rect id="Rectangle_818" data-name="Rectangle 818" width="3.607" height="12.201" transform="translate(66.354 114.916)" fill="#3b5d78"/>
    <g id="Group_3091" data-name="Group 3091" transform="translate(53.736 92.655)">
      <rect id="Rectangle_819" data-name="Rectangle 819" width="1.154" height="24.957" fill="#3b5d78"/>
      <rect id="Rectangle_820" data-name="Rectangle 820" width="4.066" height="1.418" transform="translate(0.578 2.158)" fill="#3b5d78"/>
      <rect id="Rectangle_821" data-name="Rectangle 821" width="4.066" height="1.42" transform="translate(0.578 5.38)" fill="#3b5d78"/>
      <rect id="Rectangle_822" data-name="Rectangle 822" width="4.066" height="1.42" transform="translate(0.578 8.603)" fill="#3b5d78"/>
      <rect id="Rectangle_823" data-name="Rectangle 823" width="4.066" height="1.419" transform="translate(0.578 11.827)" fill="#3b5d78"/>
      <rect id="Rectangle_824" data-name="Rectangle 824" width="4.066" height="1.42" transform="translate(0.578 15.049)" fill="#3b5d78"/>
      <rect id="Rectangle_825" data-name="Rectangle 825" width="4.066" height="1.421" transform="translate(0.578 18.271)" fill="#3b5d78"/>
      <rect id="Rectangle_826" data-name="Rectangle 826" width="4.066" height="1.421" transform="translate(0.578 21.493)" fill="#3b5d78"/>
    </g>
    <rect id="Rectangle_827" data-name="Rectangle 827" width="3.607" height="12.201" transform="translate(42.751 114.916)" fill="#3b5d78"/>
    <rect id="Rectangle_828" data-name="Rectangle 828" width="21.163" height="1.803" transform="translate(27.263 122.092)" fill="#3b5d78"/>
    <rect id="Rectangle_829" data-name="Rectangle 829" width="3.607" height="12.201" transform="translate(29.327 114.916)" fill="#3b5d78"/>
    <rect id="Rectangle_830" data-name="Rectangle 830" width="3.607" height="12.201" transform="translate(36.423 114.916)" fill="#3b5d78"/>
    <g id="Group_3092" data-name="Group 3092" transform="translate(23.89 91.889)">
      <rect id="Rectangle_831" data-name="Rectangle 831" width="1.154" height="24.957" fill="#3b5d78"/>
      <rect id="Rectangle_832" data-name="Rectangle 832" width="4.066" height="1.419" transform="translate(0.576 2.158)" fill="#3b5d78"/>
      <rect id="Rectangle_833" data-name="Rectangle 833" width="4.066" height="1.419" transform="translate(0.576 5.38)" fill="#3b5d78"/>
      <rect id="Rectangle_834" data-name="Rectangle 834" width="4.066" height="1.421" transform="translate(0.576 8.603)" fill="#3b5d78"/>
      <rect id="Rectangle_835" data-name="Rectangle 835" width="4.066" height="1.42" transform="translate(0.576 11.827)" fill="#3b5d78"/>
      <rect id="Rectangle_836" data-name="Rectangle 836" width="4.066" height="1.42" transform="translate(0.576 15.049)" fill="#3b5d78"/>
      <rect id="Rectangle_837" data-name="Rectangle 837" width="4.066" height="1.42" transform="translate(0.576 18.271)" fill="#3b5d78"/>
      <rect id="Rectangle_838" data-name="Rectangle 838" width="4.066" height="1.42" transform="translate(0.576 21.495)" fill="#3b5d78"/>
    </g>
    <rect id="Rectangle_839" data-name="Rectangle 839" width="42.803" height="4.91" transform="translate(56.744 56.828)" fill="#c70021"/>
    <rect id="Rectangle_840" data-name="Rectangle 840" width="21.165" height="24.957" transform="translate(57.193 91.889)" fill="#ffbb12"/>
    <g id="Group_3094" data-name="Group 3094" transform="translate(27.263 78.175)">
      <g id="Group_3093" data-name="Group 3093">
        <path id="Path_4129" data-name="Path 4129" d="M286.048,249.916,275.464,263.63h21.165Z" transform="translate(-245.534 -249.916)" fill="#ffbb12"/>
        <path id="Path_4130" data-name="Path 4130" d="M245.534,263.63v24.957H266.7V263.63l-10.58-13.714Z" transform="translate(-245.534 -249.916)" fill="#ffbb12"/>
      </g>
    </g>
    <g id="Group_3096" data-name="Group 3096" transform="translate(184.689)">
      <g id="Group_3095" data-name="Group 3095">
        <path id="Path_4131" data-name="Path 4131" d="M411.573,181.185a2.865,2.865,0,1,1-2.864-2.864A2.865,2.865,0,0,1,411.573,181.185Z" transform="translate(-402.96 -171.741)" fill="#709ba7"/>
        <path id="Path_4132" data-name="Path 4132" d="M415.665,179.342a2.865,2.865,0,1,1-2.865-2.861A2.865,2.865,0,0,1,415.665,179.342Z" transform="translate(-402.96 -171.741)" fill="#709ba7"/>
        <path id="Path_4133" data-name="Path 4133" d="M413.824,181.9a1.944,1.944,0,1,1-1.944-1.944A1.944,1.944,0,0,1,413.824,181.9Z" transform="translate(-402.96 -171.741)" fill="#709ba7"/>
        <path id="Path_4134" data-name="Path 4134" d="M409.679,176.481a2.863,2.863,0,1,1-2.863-2.866A2.862,2.862,0,0,1,409.679,176.481Z" transform="translate(-402.96 -171.741)" fill="#709ba7"/>
        <path id="Path_4135" data-name="Path 4135" d="M413.618,177.094a2.864,2.864,0,1,1-2.864-2.865A2.863,2.863,0,0,1,413.618,177.094Z" transform="translate(-402.96 -171.741)" fill="#709ba7"/>
        <path id="Path_4136" data-name="Path 4136" d="M406.708,173.615a1.874,1.874,0,1,1-1.874-1.874A1.874,1.874,0,0,1,406.708,173.615Z" transform="translate(-402.96 -171.741)" fill="#709ba7"/>
        <path id="Path_4137" data-name="Path 4137" d="M415.971,183.129a1.432,1.432,0,1,1-1.43-1.43A1.431,1.431,0,0,1,415.971,183.129Z" transform="translate(-402.96 -171.741)" fill="#709ba7"/>
      </g>
      <path id="Path_4138" data-name="Path 4138" d="M409.085,252.19h15.552L424,240.871H409.723Z" transform="translate(-402.96 -171.741)" fill="#c70021"/>
      <path id="Path_4139" data-name="Path 4139" d="M420.952,186.814h-8.185L411.5,209.356h10.725Z" transform="translate(-402.96 -171.741)" fill="#c70021"/>
      <path id="Path_4140" data-name="Path 4140" d="M409.723,240.871H424l-.59-10.5H410.313Z" transform="translate(-402.96 -171.741)" fill="#709ba7"/>
      <path id="Path_4141" data-name="Path 4141" d="M410.906,219.86l-.592,10.506h13.094l-.594-10.506Z" transform="translate(-402.96 -171.741)" fill="#c70021"/>
      <path id="Path_4142" data-name="Path 4142" d="M422.223,209.356H411.5l-.592,10.5h11.907Z" transform="translate(-402.96 -171.741)" fill="#709ba7"/>
      <rect id="Rectangle_841" data-name="Rectangle 841" width="13.298" height="6.547" transform="translate(7.251 20.695)" fill="#709ba7"/>
    </g>
    <rect id="Rectangle_842" data-name="Rectangle 842" width="53.405" height="70.287" transform="translate(88.408 84.916)" fill="#3b5d78"/>
    <rect id="Rectangle_843" data-name="Rectangle 843" width="23.464" height="77.194" transform="translate(187.031 78.009)" fill="#3b5d78"/>
    <path id="Path_4143" data-name="Path 4143" d="M306.679,326.944H218.271V312.669l13.659-13.963h74.749Z" transform="translate(-218.271 -171.741)" fill="#3b5d78"/>
    <g id="Group_3097" data-name="Group 3097" transform="translate(35.366 56.828)">
      <path id="Path_4144" data-name="Path 4144" d="M258.549,253.466h-4.912v-6.589a6.467,6.467,0,0,1,6.459-6.459h21.646v4.911H260.1a1.548,1.548,0,0,0-1.547,1.548Z" transform="translate(-253.637 -228.569)" fill="#c70021"/>
      <path id="Path_4145" data-name="Path 4145" d="M273.984,241.617h-4.909v-6.589a6.464,6.464,0,0,1,6.457-6.459h11.48v4.91h-11.48a1.55,1.55,0,0,0-1.548,1.549Z" transform="translate(-253.637 -228.569)" fill="#c70021"/>
      <path id="Path_4146" data-name="Path 4146" d="M288.813,253.466H283.9v-6.589a1.55,1.55,0,0,0-1.55-1.548H260.709v-4.911h21.643a6.468,6.468,0,0,1,6.461,6.459Z" transform="translate(-253.637 -228.569)" fill="#c70021"/>
    </g>
    <rect id="Rectangle_844" data-name="Rectangle 844" width="39.742" height="33.252" transform="translate(93.159 51.664)" fill="#3b5d78"/>
    <g id="Group_3101" data-name="Group 3101" transform="translate(15.557 131.889)">
      <g id="Group_3098" data-name="Group 3098">
        <rect id="Rectangle_845" data-name="Rectangle 845" width="5.588" height="2.987" fill="#fff"/>
        <rect id="Rectangle_846" data-name="Rectangle 846" width="5.588" height="2.987" transform="translate(9.133)" fill="#fff"/>
        <rect id="Rectangle_847" data-name="Rectangle 847" width="5.588" height="2.987" transform="translate(18.265)" fill="#fff"/>
        <rect id="Rectangle_848" data-name="Rectangle 848" width="5.59" height="2.987" transform="translate(27.398)" fill="#fff"/>
        <rect id="Rectangle_849" data-name="Rectangle 849" width="5.588" height="2.987" transform="translate(36.531)" fill="#fff"/>
        <rect id="Rectangle_850" data-name="Rectangle 850" width="5.588" height="2.987" transform="translate(45.665)" fill="#fff"/>
        <rect id="Rectangle_851" data-name="Rectangle 851" width="5.588" height="2.987" transform="translate(54.798)" fill="#fff"/>
        <rect id="Rectangle_852" data-name="Rectangle 852" width="5.588" height="2.987" transform="translate(63.931)" fill="#fff"/>
      </g>
      <g id="Group_3099" data-name="Group 3099" transform="translate(0 8.416)">
        <rect id="Rectangle_853" data-name="Rectangle 853" width="5.588" height="2.986" fill="#fff"/>
        <rect id="Rectangle_854" data-name="Rectangle 854" width="5.588" height="2.986" transform="translate(9.133)" fill="#fff"/>
        <rect id="Rectangle_855" data-name="Rectangle 855" width="5.588" height="2.986" transform="translate(18.265)" fill="#fff"/>
        <rect id="Rectangle_856" data-name="Rectangle 856" width="5.59" height="2.986" transform="translate(27.398)" fill="#fff"/>
        <rect id="Rectangle_857" data-name="Rectangle 857" width="5.588" height="2.986" transform="translate(36.531)" fill="#fff"/>
        <rect id="Rectangle_858" data-name="Rectangle 858" width="5.588" height="2.986" transform="translate(45.665)" fill="#fff"/>
        <rect id="Rectangle_859" data-name="Rectangle 859" width="5.588" height="2.986" transform="translate(54.798)" fill="#fff"/>
        <rect id="Rectangle_860" data-name="Rectangle 860" width="5.588" height="2.986" transform="translate(63.931)" fill="#fff"/>
      </g>
      <g id="Group_3100" data-name="Group 3100" transform="translate(0 16.829)">
        <rect id="Rectangle_861" data-name="Rectangle 861" width="5.588" height="2.988" fill="#fff"/>
        <rect id="Rectangle_862" data-name="Rectangle 862" width="5.588" height="2.988" transform="translate(9.133)" fill="#fff"/>
        <rect id="Rectangle_863" data-name="Rectangle 863" width="5.588" height="2.988" transform="translate(18.265)" fill="#fff"/>
        <rect id="Rectangle_864" data-name="Rectangle 864" width="5.59" height="2.988" transform="translate(27.398)" fill="#fff"/>
        <rect id="Rectangle_865" data-name="Rectangle 865" width="5.588" height="2.988" transform="translate(36.531)" fill="#fff"/>
        <rect id="Rectangle_866" data-name="Rectangle 866" width="5.588" height="2.988" transform="translate(45.665)" fill="#fff"/>
        <rect id="Rectangle_867" data-name="Rectangle 867" width="5.588" height="2.988" transform="translate(54.798)" fill="#fff"/>
        <rect id="Rectangle_868" data-name="Rectangle 868" width="5.588" height="2.988" transform="translate(63.931)" fill="#fff"/>
      </g>
    </g>
    <g id="Group_3110" data-name="Group 3110" transform="translate(141.713 112.767)">
      <g id="Group_3105" data-name="Group 3105">
        <g id="Group_3102" data-name="Group 3102">
          <rect id="Rectangle_869" data-name="Rectangle 869" width="22.573" height="10.407" transform="translate(0.615 0.616)" fill="#bfbfbf"/>
          <path id="Path_4147" data-name="Path 4147" d="M383.786,296.144h-23.8V284.508h23.8Zm-22.573-1.227h21.345v-9.18H361.213Z" transform="translate(-359.984 -284.508)" fill="#3b5d78"/>
        </g>
        <g id="Group_3103" data-name="Group 3103" transform="translate(0.194 0.169)">
          <rect id="Rectangle_870" data-name="Rectangle 870" width="15.354" height="1.227" transform="translate(0 10.399) rotate(-42.631)" fill="#3b5d78"/>
        </g>
        <g id="Group_3104" data-name="Group 3104" transform="translate(11.485 0.164)">
          <rect id="Rectangle_871" data-name="Rectangle 871" width="1.228" height="15.353" transform="translate(0 0.903) rotate(-47.318)" fill="#3b5d78"/>
        </g>
      </g>
      <g id="Group_3109" data-name="Group 3109" transform="translate(22.574)">
        <g id="Group_3106" data-name="Group 3106">
          <rect id="Rectangle_872" data-name="Rectangle 872" width="22.577" height="10.407" transform="translate(0.614 0.616)" fill="#bfbfbf"/>
          <path id="Path_4148" data-name="Path 4148" d="M406.361,296.144h-23.8V284.508h23.8Zm-22.575-1.227h21.347v-9.18H383.786Z" transform="translate(-382.558 -284.508)" fill="#3b5d78"/>
        </g>
        <g id="Group_3107" data-name="Group 3107" transform="translate(0.199 0.162)">
          <rect id="Rectangle_873" data-name="Rectangle 873" width="15.355" height="1.228" transform="translate(0 10.412) rotate(-42.698)" fill="#3b5d78"/>
        </g>
        <g id="Group_3108" data-name="Group 3108" transform="translate(11.486 0.165)">
          <rect id="Rectangle_874" data-name="Rectangle 874" width="1.227" height="15.354" transform="translate(0 0.902) rotate(-47.323)" fill="#3b5d78"/>
        </g>
      </g>
    </g>
    <g id="Group_3114" data-name="Group 3114" transform="translate(113.712 41.743)">
      <g id="Group_3111" data-name="Group 3111" transform="translate(0.614 0.612)">
        <path id="Path_4149" data-name="Path 4149" d="M350.861,214.1H332.6V223.4h18.264l9.131-9.309Z" transform="translate(-332.597 -214.096)" fill="#bfbfbf"/>
        <path id="Path_4150" data-name="Path 4150" d="M398.844,253.092l-12.912-12.914L373.02,227.263,360.1,214.351l-8.931,8.935L364.085,236.2,377,249.111l12.914,12.914,15.39,15.709V259.547Z" transform="translate(-332.597 -214.096)" fill="#bfbfbf"/>
      </g>
      <g id="Group_3112" data-name="Group 3112">
        <path id="Path_4151" data-name="Path 4151" d="M405.916,259.294l-7.072-7.071h0L386.8,240.178h0l-12.912-12.915h0l-.289-.288-.578-.579h0L360.1,213.484l-.079.078-.033-.078H332.6l-.614.612V223.4l.431.176.183.438h18.264l.052-.123,13.172,13.17,12.045,12.045.867.867L389.4,262.385l16.511,16.851ZM381.031,244.21l-3.125,3.124L379.889,235l5.175,5.176Zm10.616,3.165-2.15,13.368-11.214-11.216Zm-12.874.829,7.159-7.159,5.173,5.173Zm20.071,5.755,5.176,5.174-12.332,1.983Zm-8.024,6.29,1.985-12.33,5.171,5.172Zm-17.8-32.116,5.173,5.173-12.332,1.983,3.125-3.124ZM360.1,215.219l5.174,5.173-12.33,1.985Zm5.717,6.329-2.152,13.365L352.454,223.7Zm2.3,9.748-3.126,3.125,1.985-12.33,5.173,5.172ZM351.473,221.9V214.71h7.055Zm-1.227,0-7.054-7.193h7.054Zm-17.035-7.193h7.054l-4.224,4.308-2.83,2.885Zm.85,8.081,7.667-7.818,7.669,7.818Zm31.308,13.822,13.364-2.151-2.15,13.367Zm25.812,25.829,13.508-2.175V276.23Z" transform="translate(-331.983 -213.484)" fill="#3b5d78"/>
      </g>
      <g id="Group_3113" data-name="Group 3113" transform="translate(72.706 46.063)">
        <rect id="Rectangle_875" data-name="Rectangle 875" width="1.227" height="18.187" fill="#3b5d78"/>
      </g>
    </g>
    <g id="Group_3124" data-name="Group 3124" transform="translate(93.618 95.864)">
      <g id="Group_3115" data-name="Group 3115">
        <rect id="Rectangle_876" data-name="Rectangle 876" width="5.076" height="11.137" fill="#bfbfbf"/>
        <rect id="Rectangle_877" data-name="Rectangle 877" width="5.078" height="11.137" transform="translate(6.663)" fill="#bfbfbf"/>
      </g>
      <g id="Group_3116" data-name="Group 3116" transform="translate(15.623)">
        <rect id="Rectangle_878" data-name="Rectangle 878" width="5.076" height="11.137" fill="#bfbfbf"/>
        <rect id="Rectangle_879" data-name="Rectangle 879" width="5.076" height="11.137" transform="translate(6.662)" fill="#bfbfbf"/>
      </g>
      <g id="Group_3117" data-name="Group 3117" transform="translate(31.053)">
        <rect id="Rectangle_880" data-name="Rectangle 880" width="5.076" height="11.137" fill="#bfbfbf"/>
        <rect id="Rectangle_881" data-name="Rectangle 881" width="5.076" height="11.137" transform="translate(6.662)" fill="#bfbfbf"/>
      </g>
      <g id="Group_3118" data-name="Group 3118" transform="translate(0.097 18.627)">
        <rect id="Rectangle_882" data-name="Rectangle 882" width="5.076" height="11.135" fill="#bfbfbf"/>
        <rect id="Rectangle_883" data-name="Rectangle 883" width="5.076" height="11.135" transform="translate(6.662)" fill="#bfbfbf"/>
      </g>
      <g id="Group_3119" data-name="Group 3119" transform="translate(15.72 18.627)">
        <rect id="Rectangle_884" data-name="Rectangle 884" width="5.076" height="11.135" fill="#bfbfbf"/>
        <rect id="Rectangle_885" data-name="Rectangle 885" width="5.076" height="11.135" transform="translate(6.661)" fill="#bfbfbf"/>
      </g>
      <g id="Group_3120" data-name="Group 3120" transform="translate(31.149 18.627)">
        <rect id="Rectangle_886" data-name="Rectangle 886" width="5.076" height="11.135" fill="#bfbfbf"/>
        <rect id="Rectangle_887" data-name="Rectangle 887" width="5.078" height="11.135" transform="translate(6.663)" fill="#bfbfbf"/>
      </g>
      <g id="Group_3121" data-name="Group 3121" transform="translate(0.193 37.254)">
        <rect id="Rectangle_888" data-name="Rectangle 888" width="5.076" height="11.137" fill="#bfbfbf"/>
        <rect id="Rectangle_889" data-name="Rectangle 889" width="5.076" height="11.137" transform="translate(6.662)" fill="#bfbfbf"/>
      </g>
      <g id="Group_3122" data-name="Group 3122" transform="translate(15.814 37.254)">
        <rect id="Rectangle_890" data-name="Rectangle 890" width="5.078" height="11.137" fill="#bfbfbf"/>
        <rect id="Rectangle_891" data-name="Rectangle 891" width="5.076" height="11.137" transform="translate(6.663)" fill="#bfbfbf"/>
      </g>
      <g id="Group_3123" data-name="Group 3123" transform="translate(31.246 37.254)">
        <rect id="Rectangle_892" data-name="Rectangle 892" width="5.076" height="11.137" fill="#bfbfbf"/>
        <rect id="Rectangle_893" data-name="Rectangle 893" width="5.074" height="11.137" transform="translate(6.662)" fill="#bfbfbf"/>
      </g>
    </g>
    <g id="Group_3130" data-name="Group 3130" transform="translate(192.798 118.586)">
      <g id="Group_3125" data-name="Group 3125">
        <rect id="Rectangle_894" data-name="Rectangle 894" width="5.076" height="6.464" fill="#fff"/>
        <rect id="Rectangle_895" data-name="Rectangle 895" width="5.076" height="6.464" transform="translate(6.662)" fill="#fff"/>
      </g>
      <g id="Group_3127" data-name="Group 3127" transform="translate(0.095 10.813)">
        <g id="Group_3126" data-name="Group 3126">
          <rect id="Rectangle_896" data-name="Rectangle 896" width="5.074" height="6.463" fill="#fff"/>
          <rect id="Rectangle_897" data-name="Rectangle 897" width="5.076" height="6.463" transform="translate(6.66)" fill="#fff"/>
        </g>
      </g>
      <g id="Group_3129" data-name="Group 3129" transform="translate(0.191 21.625)">
        <g id="Group_3128" data-name="Group 3128">
          <rect id="Rectangle_898" data-name="Rectangle 898" width="5.076" height="6.464" fill="#fff"/>
          <rect id="Rectangle_899" data-name="Rectangle 899" width="5.076" height="6.464" transform="translate(6.663)" fill="#fff"/>
        </g>
      </g>
    </g>
    <g id="Group_3134" data-name="Group 3134" transform="translate(192.798 86.539)">
      <g id="Group_3131" data-name="Group 3131">
        <rect id="Rectangle_900" data-name="Rectangle 900" width="5.076" height="6.464" fill="#fff"/>
        <rect id="Rectangle_901" data-name="Rectangle 901" width="5.076" height="6.464" transform="translate(6.662)" fill="#fff"/>
      </g>
      <g id="Group_3132" data-name="Group 3132" transform="translate(0.095 10.811)">
        <rect id="Rectangle_902" data-name="Rectangle 902" width="5.074" height="6.466" fill="#fff"/>
        <rect id="Rectangle_903" data-name="Rectangle 903" width="5.076" height="6.466" transform="translate(6.66)" fill="#fff"/>
      </g>
      <g id="Group_3133" data-name="Group 3133" transform="translate(0.191 21.625)">
        <rect id="Rectangle_904" data-name="Rectangle 904" width="5.076" height="6.463" fill="#fff"/>
        <rect id="Rectangle_905" data-name="Rectangle 905" width="5.076" height="6.463" transform="translate(6.663)" fill="#fff"/>
      </g>
    </g>
    <rect id="Rectangle_906" data-name="Rectangle 906" width="21.163" height="5.679" transform="translate(27.263 91.916)" fill="#b5b5b5"/>
    <rect id="Rectangle_907" data-name="Rectangle 907" width="21.163" height="5.681" transform="translate(27.263 105.516)" fill="#b5b5b5"/>
    <rect id="Rectangle_908" data-name="Rectangle 908" width="21.165" height="5.68" transform="translate(57.193 91.868)" fill="#b5b5b5"/>
    <rect id="Rectangle_909" data-name="Rectangle 909" width="21.165" height="5.678" transform="translate(57.193 105.47)" fill="#b5b5b5"/>
    <rect id="Rectangle_910" data-name="Rectangle 910" width="45.218" height="22.702" transform="translate(141.812 132.502)" fill="#3b5d78"/>
    <rect id="Rectangle_911" data-name="Rectangle 911" width="11.663" height="14.473" transform="translate(152.299 138.686)" fill="#fff"/>
    <rect id="Rectangle_912" data-name="Rectangle 912" width="11.664" height="14.473" transform="translate(164.883 138.686)" fill="#fff"/>
    <g id="Group_3136" data-name="Group 3136" transform="translate(96.222 45.047)">
      <g id="Group_3135" data-name="Group 3135">
        <path id="Path_4152" data-name="Path 4152" d="M318,216.788a3.51,3.51,0,0,0-3.508,3.509v3.18h7.015V220.3A3.509,3.509,0,0,0,318,216.788Z" transform="translate(-314.493 -216.788)" fill="#3b5d78"/>
        <path id="Path_4153" data-name="Path 4153" d="M329.525,220.3a3.507,3.507,0,1,0-7.014,0v3.18h7.014Z" transform="translate(-314.493 -216.788)" fill="#3b5d78"/>
      </g>
    </g>
    <rect id="Rectangle_913" data-name="Rectangle 913" width="27.662" height="2.456" transform="translate(99.198 56.828)" fill="#bfbfbf"/>
    <rect id="Rectangle_914" data-name="Rectangle 914" width="27.662" height="2.456" transform="translate(99.198 62.649)" fill="#bfbfbf"/>
    <rect id="Rectangle_915" data-name="Rectangle 915" width="27.662" height="2.456" transform="translate(99.198 68.47)" fill="#bfbfbf"/>
    <rect id="Rectangle_916" data-name="Rectangle 916" width="27.662" height="2.455" transform="translate(99.198 74.291)" fill="#bfbfbf"/>
  </g>
  <g id="Group_3138" data-name="Group 3138" transform="translate(62.816 64.628)">
    <path id="Path_4154" data-name="Path 4154" d="M323.775,296.708c.006,0-2.374-4.9-2.374-4.9a4.721,4.721,0,0,0-2.755-.743l-.865-.306-1.1,3.1a1.572,1.572,0,0,1,.457.691,8.245,8.245,0,0,0,3.6,3.173l.185.161a.417.417,0,0,0,.586-.039.4.4,0,0,0,.09-.211l.078.068a.415.415,0,0,0,.585-.038.4.4,0,0,0,.084-.159l.064.056a.416.416,0,0,0,.585-.038.4.4,0,0,0,.09-.346l.062.054a.416.416,0,0,0,.585-.038A.411.411,0,0,0,323.775,296.708Z" transform="translate(-281.087 -236.369)" fill="#d8a063"/>
    <path id="Path_4155" data-name="Path 4155" d="M325,292.715a5.829,5.829,0,0,1-3.213-1.444s-2.677.535-2.588,1.5,2.329,0,2.329,0l2.272,3.894,2.464-1.005Z" transform="translate(-281.087 -236.369)" fill="#f9d6ae"/>
    <rect id="Rectangle_917" data-name="Rectangle 917" width="0.958" height="1.78" rx="0.389" transform="matrix(0.728, 0.686, -0.686, 0.728, 37.509, 58.051)" fill="#f9d6ae"/>
    <rect id="Rectangle_918" data-name="Rectangle 918" width="0.958" height="1.78" rx="0.389" transform="matrix(0.728, 0.686, -0.686, 0.728, 38.206, 58.708)" fill="#f9d6ae"/>
    <rect id="Rectangle_919" data-name="Rectangle 919" width="0.958" height="1.78" rx="0.389" transform="matrix(0.728, 0.686, -0.686, 0.728, 38.968, 59.296)" fill="#f9d6ae"/>
    <rect id="Rectangle_920" data-name="Rectangle 920" width="0.958" height="1.78" rx="0.389" transform="translate(39.665 59.952) rotate(43.271)" fill="#f9d6ae"/>
    <rect id="Rectangle_921" data-name="Rectangle 921" width="8.674" height="6.448" transform="translate(73.938 33.007) rotate(180)" fill="#e69b66"/>
    <path id="Path_4156" data-name="Path 4156" d="M344.079,252.25l.13.452.05.171,1.222,4.245-.467,3.428-.442,3.236s3.41,4.866,11.6-.575l1.356-4.125s.245-.336.6-.861c.93-1.362,2.612-3.992,2.7-5.28a1.86,1.86,0,0,0-.3-.927c-1.449-2.619-7.958-7.987-15.271-3.46Z" transform="translate(-281.087 -236.369)" fill="#fcaa70"/>
    <path id="Path_4157" data-name="Path 4157" d="M344.572,263.782s3.41,4.866,11.6-.575l-2.44-4.386s-4.081,2.36-8.275.875l-.446.85Z" transform="translate(-281.087 -236.369)" fill="#121212"/>
    <path id="Path_4158" data-name="Path 4158" d="M351.11,256.5a5.283,5.283,0,0,1,1.381-.324c.491-.062,1-.088,1.432-.1.635-.017,1.1,0,1.1,0L355,254.558c-.834-1.312-3.878-.908-4.215-.213S351.11,256.5,351.11,256.5Z" transform="translate(-281.087 -236.369)" fill="#f0fdff"/>
    <path id="Path_4159" data-name="Path 4159" d="M346.144,257.212a5.275,5.275,0,0,1,1.4-.327c.224-.027.452-.049.674-.064a8.779,8.779,0,0,0,.438-1.751c.034-.244.054-.443.065-.571-1.189-.251-2.678.088-2.906.562C345.476,255.755,346.144,257.212,346.144,257.212Z" transform="translate(-281.087 -236.369)" fill="#f0fdff"/>
    <path id="Path_4160" data-name="Path 4160" d="M347.1,260.787a7.182,7.182,0,0,0,5.178-.542,1.767,1.767,0,0,1-.924,1.988,5.79,5.79,0,0,1-3.374.238l.311-.737-.687-.669Z" transform="translate(-281.087 -236.369)" fill="#f0975b"/>
    <path id="Path_4161" data-name="Path 4161" d="M346.922,255.735a1.073,1.073,0,0,0,.621,1.15c.224-.027.452-.049.674-.064.032-.083.061-.164.089-.247a9.062,9.062,0,0,0,.285-1.118c.025-.137.046-.268.064-.386a1.086,1.086,0,0,0-1.733.665Z" transform="translate(-281.087 -236.369)" fill="#2ea0ff"/>
    <path id="Path_4162" data-name="Path 4162" d="M351.951,255.026a1.2,1.2,0,0,0,.54,1.146c.491-.062,1-.088,1.432-.1a1.182,1.182,0,0,0,.407-.764,1.2,1.2,0,1,0-2.379-.282Z" transform="translate(-281.087 -236.369)" fill="#2ea0ff"/>
    <path id="Path_4163" data-name="Path 4163" d="M352.333,255.071a.814.814,0,1,0,.9-.713A.812.812,0,0,0,352.333,255.071Z" transform="translate(-281.087 -236.369)" fill="#222"/>
    <path id="Path_4164" data-name="Path 4164" d="M352.029,255.649a.353.353,0,1,1,.407-.29A.353.353,0,0,1,352.029,255.649Z" transform="translate(-281.087 -236.369)" fill="#fffff5"/>
    <path id="Path_4165" data-name="Path 4165" d="M353.979,255.042a.353.353,0,1,1,.407-.29A.354.354,0,0,1,353.979,255.042Z" transform="translate(-281.087 -236.369)" fill="#fffff5"/>
    <path id="Path_4166" data-name="Path 4166" d="M347.418,255.813a.688.688,0,0,0,.567.785.679.679,0,0,0,.321-.024,9.062,9.062,0,0,0,.285-1.118.679.679,0,0,0-.381-.2A.686.686,0,0,0,347.418,255.813Z" transform="translate(-281.087 -236.369)" fill="#222"/>
    <path id="Path_4167" data-name="Path 4167" d="M348.855,254.162l-1.194,3.888,1.9.495-1.21-.922Z" transform="translate(-281.087 -236.369)" fill="#f0975b"/>
    <path id="Path_4168" data-name="Path 4168" d="M347.377,256.526a.353.353,0,1,1,.407-.29A.354.354,0,0,1,347.377,256.526Z" transform="translate(-281.087 -236.369)" fill="#fffff5"/>
    <path id="Path_4169" data-name="Path 4169" d="M356.656,255.967l1.477,2.254c.93-1.362,2.612-3.992,2.7-5.28a1.86,1.86,0,0,0-.3-.927l-2.657-.051-.814,1.825Z" transform="translate(-281.087 -236.369)" fill="#121212"/>
    <path id="Path_4170" data-name="Path 4170" d="M361.835,250.783a10.137,10.137,0,0,1-.678,3.535l-4.771-2.106c-1.669.119-3.167.182-4.513.2-1.158.016-2.2,0-3.148-.04-.052,0-.106-.006-.163-.008s-.131-.006-.2-.01-.112,0-.167-.009c-6.834-.38-7.946-2.128-7.946-2.128.006-.448.447-.822,1.049-.937a1.907,1.907,0,0,1,.267-.035,10.182,10.182,0,0,1,20.266,1.537Z" transform="translate(-281.087 -236.369)" fill="#f1bf4f"/>
    <path id="Path_4171" data-name="Path 4171" d="M361.835,250.783a10.137,10.137,0,0,1-.678,3.535l-4.771-2.106c-1.669.119-3.167.182-4.513.2l-.421-1.783s3.321.623,3.656-1.555c.279-1.8,1.189-4.732,3.184-6.139A10.155,10.155,0,0,1,361.835,250.783Z" transform="translate(-281.087 -236.369)" fill="#d3a745"/>
    <path id="Path_4172" data-name="Path 4172" d="M349.8,249.2s-1.463,1.828-5.282.362c0,0,.818,1.5,4.842,1.115l.985-.206c.244-3.58,4.781-9.389,4.781-9.389C352.132,243.336,350.508,247.121,349.8,249.2Z" transform="translate(-281.087 -236.369)" fill="#d3a745"/>
    <path id="Path_4173" data-name="Path 4173" d="M351.159,241.241a11.7,11.7,0,0,0-6.036,7.9s-.329.126-.246-.7A10.35,10.35,0,0,1,351.159,241.241Z" transform="translate(-281.087 -236.369)" fill="#f6d487"/>
    <path id="Path_4174" data-name="Path 4174" d="M348.2,252.346c-6.834-.38-7.946-2.128-7.946-2.128.006-.448.447-.822,1.049-.937-.053.038-.831.617-.438,1.078S344.894,252.136,348.2,252.346Z" transform="translate(-281.087 -236.369)" fill="#f6d487"/>
    <path id="Path_4175" data-name="Path 4175" d="M357.035,256.956a1.732,1.732,0,1,0,1.924-1.517A1.733,1.733,0,0,0,357.035,256.956Z" transform="translate(-281.087 -236.369)" fill="#fcaa70"/>
    <path id="Path_4176" data-name="Path 4176" d="M357.672,257.729a1.026,1.026,0,0,0,.071.23,1.043,1.043,0,0,1,2-.37,1.016,1.016,0,0,0-.017-.239,1.042,1.042,0,1,0-2.05.379Z" transform="translate(-281.087 -236.369)" fill="#3a3027" opacity="0.33"/>
    <path id="Path_4177" data-name="Path 4177" d="M349.242,252.96l4.708-.637,3.255,1.357-2.769-2.468S350.632,251.706,349.242,252.96Z" transform="translate(-281.087 -236.369)" fill="#222"/>
    <path id="Path_4178" data-name="Path 4178" d="M344.209,252.7l.05.171,1.541-.346,2.694.861a7.646,7.646,0,0,0-2.864-1.563Z" transform="translate(-281.087 -236.369)" fill="#222"/>
    <path id="Path_4179" data-name="Path 4179" d="M360.887,310.421l-.078,3.357-.048,2.032-.022.924-.235,10.21h-6.481l-1.759-9.129-.5,2.114-1.655,7.015h-6.116l-.176-10.347-.063-3.662-.035-2.119-.007-.4Z" transform="translate(-281.087 -236.369)" fill="#202626"/>
    <path id="Path_4180" data-name="Path 4180" d="M343.713,310.422l.043,2.513c3.345.907,11.119,2.836,17.006,2.875l.125-5.388Z" transform="translate(-281.087 -236.369)" fill="#010508"/>
    <path id="Path_4181" data-name="Path 4181" d="M363.379,313.633c-7.05.956-20.675-3.1-20.675-3.1l.09-2.54-1.225-12.473-.671-2.986c-.368.122-.84.256-1.388.4-4.305,1.12-13.247,2.73-13.247,2.73L325,292.715c2.367-1.363,11.857-4.924,11.857-4.924-.314-6.122,2.441-15.074,2.556-15.437a.043.043,0,0,0,0-.016l6.812-6.812a5.534,5.534,0,0,0,2.034,3.586c5.677-.058,6.87-4.24,6.87-4.24a7.328,7.328,0,0,0,1.122,2.04,14.905,14.905,0,0,0,5.571,4.413c5.254,2.569,5.174,5.353,1.53,14.783-.224.58-.465,1.193-.715,1.825-.032.08-.064.16-.1.243C358.122,299.293,363.379,313.633,363.379,313.633Z" transform="translate(-281.087 -236.369)" fill="#202626"/>
    <path id="Path_4182" data-name="Path 4182" d="M342.853,283.6c.057.193.118.38.179.563a14.835,14.835,0,0,0,2.033,4.1s-.161-1,1.248-3.671q.119-.227.258-.47a44.9,44.9,0,0,1,4.141-6.03c4.55-5.762,5.4-9.624,5.543-11.187-.072-.1-.14-.193-.2-.287a6.9,6.9,0,0,1-.918-1.749s-1.194,4.184-6.87,4.241a5.53,5.53,0,0,1-2.033-3.585l-2.122,2.122c-.14.337-.276.674-.4,1A22.849,22.849,0,0,0,342.853,283.6Z" transform="translate(-281.087 -236.369)" fill="#ebf1f1"/>
    <path id="Path_4183" data-name="Path 4183" d="M355.74,268.292s-.367,4.5-5.745,5.738l-.373-2.549Z" transform="translate(-281.087 -236.369)" fill="#dbdde2"/>
    <path id="Path_4184" data-name="Path 4184" d="M345.492,272.692l-.071-1.348c-.364-.338-1.711-1.656-1.711-2.689l1.22.2.6,1.816.185-.437.33.1a3.691,3.691,0,0,0-.334.3l-.018,2.087c-1.247,2.789-2.316,9.214-2.66,11.448-.061-.183-.122-.37-.179-.563C343.175,281.545,344.3,274.847,345.492,272.692Z" transform="translate(-281.087 -236.369)" fill="#dbdde2"/>
    <path id="Path_4185" data-name="Path 4185" d="M343.71,268.655a8.055,8.055,0,0,0,1.692,2.313,3.128,3.128,0,0,1,.308-.337,4.733,4.733,0,0,1,2.449-1.255,4.43,4.43,0,0,1,1.463,2.1,13.315,13.315,0,0,1,.642,2.154c4.94-1.05,5.675-5.783,5.787-7.013a6.9,6.9,0,0,1-.918-1.749s-1.194,4.184-6.87,4.241a5.53,5.53,0,0,1-2.033-3.585l-2.122,2.122C343.968,267.988,343.832,268.325,343.71,268.655Z" transform="translate(-281.087 -236.369)" fill="#ebf1f1"/>
    <path id="Path_4186" data-name="Path 4186" d="M346.313,284.6q.119-.227.258-.47c-.757-2.739,1.563-10.985,1.563-10.985l1.553-1.438-.065-.222-1.678.76-.057.81S345.477,281.362,346.313,284.6Z" transform="translate(-281.087 -236.369)" fill="#dbdde2"/>
    <path id="Path_4187" data-name="Path 4187" d="M345.065,288.267s-.161-1,1.248-3.671c-.836-3.234,1.574-11.545,1.574-11.545l1.735-1.57a4.43,4.43,0,0,0-1.463-2.1,4.779,4.779,0,0,0-2.115.957,3.691,3.691,0,0,0-.334.3l-.018,2.087c-1.247,2.789-2.316,9.214-2.66,11.448A14.835,14.835,0,0,0,345.065,288.267Z" transform="translate(-281.087 -236.369)" fill="#f21826"/>
    <path id="Path_4188" data-name="Path 4188" d="M343.227,288.267l-3.9-11.339,3.525,11.563Z" transform="translate(-281.087 -236.369)" fill="#010508"/>
    <path id="Path_4189" data-name="Path 4189" d="M341.151,274.314l-1.046-.956v.583l.9.852Z" transform="translate(-281.087 -236.369)" fill="#010508"/>
    <path id="Path_4190" data-name="Path 4190" d="M345.193,291.534a33.049,33.049,0,0,1,13.168-14.605v.47a34.783,34.783,0,0,0-12.317,13.52Z" transform="translate(-281.087 -236.369)" fill="#010508"/>
    <path id="Path_4191" data-name="Path 4191" d="M359.206,272.1v.828l-3.031,2.123-.434-.531Z" transform="translate(-281.087 -236.369)" fill="#010508"/>
    <rect id="Rectangle_922" data-name="Rectangle 922" width="8.321" height="0.657" transform="translate(76.504 69.437) rotate(180)" fill="#525254"/>
    <path id="Path_4192" data-name="Path 4192" d="M352.264,317.815l-.454-2.365-.045,4.482Z" transform="translate(-281.087 -236.369)" fill="#010508"/>
    <path id="Path_4193" data-name="Path 4193" d="M349.081,309.931a4.36,4.36,0,0,0-.529,3.042c.228.685.917-.089.917-.089Z" transform="translate(-281.087 -236.369)" fill="#d8a063"/>
    <path id="Path_4194" data-name="Path 4194" d="M361.728,318.24a1.642,1.642,0,0,0-.989-1.506,1.624,1.624,0,0,0-.656-.136h-4.3v-3.575a1.562,1.562,0,0,0-1.561-1.564H346.5a1.521,1.521,0,0,0-.262.023,1.562,1.562,0,0,0-1.3,1.541V316.6h-4.273a1.635,1.635,0,0,0-1.16.48,1.668,1.668,0,0,0-.156.179c-.031.043-.061.085-.088.131s-.052.091-.076.139a1.617,1.617,0,0,0-.163.711v8.706h22.708Zm-6.96-1.642h-8.817v-3.346a.779.779,0,0,1,.778-.778h7.261a.779.779,0,0,1,.778.761Z" transform="translate(-281.087 -236.369)" fill="#a57c50"/>
    <path id="Path_4195" data-name="Path 4195" d="M340.663,316.6a1.635,1.635,0,0,0-1.16.48,1.484,1.484,0,0,0-.156.179c-.031.043-.061.085-.088.131s-.052.091-.076.139a1.617,1.617,0,0,0-.163.711v8.706h1.5v-8.706a1.642,1.642,0,0,1,1.643-1.64Z" transform="translate(-281.087 -236.369)" fill="#835838"/>
    <path id="Path_4196" data-name="Path 4196" d="M346.534,319.108a1.165,1.165,0,1,1-1.165-1.165A1.165,1.165,0,0,1,346.534,319.108Z" transform="translate(-281.087 -236.369)" fill="#835838"/>
    <path id="Path_4197" data-name="Path 4197" d="M356.516,319.108a1.165,1.165,0,1,1-1.166-1.165A1.165,1.165,0,0,1,356.516,319.108Z" transform="translate(-281.087 -236.369)" fill="#835838"/>
    <path id="Path_4198" data-name="Path 4198" d="M352.853,313.258h-3.336l-.436-3.326a4.774,4.774,0,0,1,1.751-2.034l.513-.689,2.406,1.607a1.36,1.36,0,0,0-.007.74A6.941,6.941,0,0,1,352.853,313.258Z" transform="translate(-281.087 -236.369)" fill="#d8a063"/>
    <path id="Path_4199" data-name="Path 4199" d="M349.884,313.692a.476.476,0,0,1-.475-.476v-.582h.95v.582A.475.475,0,0,1,349.884,313.692Z" transform="translate(-281.087 -236.369)" fill="#d8a063"/>
    <path id="Path_4200" data-name="Path 4200" d="M350.835,313.717a.476.476,0,0,1-.476-.475v-.583h.951v.583A.475.475,0,0,1,350.835,313.717Z" transform="translate(-281.087 -236.369)" fill="#d8a063"/>
    <path id="Path_4201" data-name="Path 4201" d="M351.785,313.717a.475.475,0,0,1-.475-.475v-.583h.951v.583A.476.476,0,0,1,351.785,313.717Z" transform="translate(-281.087 -236.369)" fill="#d8a063"/>
    <path id="Path_4202" data-name="Path 4202" d="M355.025,283.3v8.874l-3.68,15.033,2.406,1.607,5.455-10.974,2.7-10.157Z" transform="translate(-281.087 -236.369)" fill="#202626"/>
    <path id="Path_4203" data-name="Path 4203" d="M353.751,308.816h.9L359.546,298l3.02-10.477-3.36,10.317Z" transform="translate(-281.087 -236.369)" fill="#010508"/>
    <path id="Path_4204" data-name="Path 4204" d="M355.025,292.175l-.611-8.526.611-.347Z" transform="translate(-281.087 -236.369)" fill="#010508"/>
    <path id="Path_4205" data-name="Path 4205" d="M345.594,293.031a.655.655,0,1,1-.655-.655A.656.656,0,0,1,345.594,293.031Z" transform="translate(-281.087 -236.369)" fill="#525254"/>
    <path id="Path_4206" data-name="Path 4206" d="M346.137,297.515a.655.655,0,1,1-.655-.655A.655.655,0,0,1,346.137,297.515Z" transform="translate(-281.087 -236.369)" fill="#525254"/>
    <path id="Path_4207" data-name="Path 4207" d="M340.9,292.529c-.368.122-.84.256-1.388.4l.215-4.766Z" transform="translate(-281.087 -236.369)" fill="#010508"/>
    <rect id="Rectangle_923" data-name="Rectangle 923" width="8.566" height="6.978" transform="translate(11.038 22.177)" fill="#c39059"/>
    <path id="Path_4208" data-name="Path 4208" d="M302.935,248l-.128.446-.05.169-1.207,4.192.436,5.094a1.967,1.967,0,0,1-1.791,2.12,11.558,11.558,0,0,0-2.514.549c-2.265.741-3.8.173-6.693-1.749l-1.339-4.074s-.241-.332-.594-.849c-.918-1.346-2.58-3.944-2.667-5.215a1.836,1.836,0,0,1,.3-.915c1.431-2.587,7.859-7.889,15.082-3.418Z" transform="translate(-281.087 -236.369)" fill="#d8a063"/>
    <path id="Path_4209" data-name="Path 4209" d="M290.514,251.671l-1.459,2.227c-.918-1.346-2.58-3.944-2.667-5.215a1.836,1.836,0,0,1,.3-.915l2.623-.051.8,1.8Z" transform="translate(-281.087 -236.369)" fill="#775839"/>
    <path id="Path_4210" data-name="Path 4210" d="M285.4,246.552a10.027,10.027,0,0,0,.669,3.49l4.712-2.08c1.648.118,3.128.18,4.457.2,1.144.016,2.177,0,3.109-.04l.161-.007c.065,0,.129-.006.194-.01s.111-.006.165-.009c6.749-.375,7.847-2.1,7.847-2.1-.005-.442-.441-.812-1.036-.925a1.872,1.872,0,0,0-.263-.034,10.056,10.056,0,0,0-20.015,1.518Z" transform="translate(-281.087 -236.369)" fill="#f1bf4f"/>
    <path id="Path_4211" data-name="Path 4211" d="M285.4,246.552a10.027,10.027,0,0,0,.669,3.49l4.712-2.08c1.648.118,3.128.18,4.457.2l.417-1.761s-3.28.616-3.612-1.536c-.275-1.777-1.174-4.673-3.144-6.062A10.025,10.025,0,0,0,285.4,246.552Z" transform="translate(-281.087 -236.369)" fill="#d3a745"/>
    <path id="Path_4212" data-name="Path 4212" d="M297.284,244.987s1.445,1.806,5.217.358c0,0-.808,1.483-4.782,1.1l-.972-.2c-.242-3.535-4.722-9.273-4.722-9.273C294.982,239.2,296.586,242.934,297.284,244.987Z" transform="translate(-281.087 -236.369)" fill="#d3a745"/>
    <path id="Path_4213" data-name="Path 4213" d="M295.943,237.128a11.553,11.553,0,0,1,5.96,7.8s.325.124.243-.688A10.215,10.215,0,0,0,295.943,237.128Z" transform="translate(-281.087 -236.369)" fill="#f6d487"/>
    <path id="Path_4214" data-name="Path 4214" d="M298.866,248.1c6.749-.375,7.847-2.1,7.847-2.1-.005-.442-.441-.812-1.036-.925.052.038.821.609.433,1.065S302.13,247.888,298.866,248.1Z" transform="translate(-281.087 -236.369)" fill="#f6d487"/>
    <path id="Path_4215" data-name="Path 4215" d="M290.14,252.648a1.711,1.711,0,1,1-1.9-1.5A1.711,1.711,0,0,1,290.14,252.648Z" transform="translate(-281.087 -236.369)" fill="#d8a063"/>
    <path id="Path_4216" data-name="Path 4216" d="M289.51,253.412a1.008,1.008,0,0,1-.07.226,1.03,1.03,0,0,0-1.971-.365,1.047,1.047,0,0,1,.016-.236,1.03,1.03,0,1,1,2.025.375Z" transform="translate(-281.087 -236.369)" fill="#3a3027" opacity="0.33"/>
    <path id="Path_4217" data-name="Path 4217" d="M297.948,249.211l-5.162-1-2.732,1.183,2.722-2S296.662,247.883,297.948,249.211Z" transform="translate(-281.087 -236.369)" fill="#775839"/>
    <path id="Path_4218" data-name="Path 4218" d="M302.807,248.446l-.05.169-1.622-.153-2.56.662a14.316,14.316,0,0,1,2.587-1.543Z" transform="translate(-281.087 -236.369)" fill="#775839"/>
    <path id="Path_4219" data-name="Path 4219" d="M306.345,307.873l2.172-.764s1.4,2.677.723,4.223c-.379.862-1.784,1.149-1.784,1.149a.36.36,0,0,1-.1-.556l.69-.569a1.31,1.31,0,0,0,.1-1.4c-.091-.218-.2-.526-.433-.548,0,0,.575,1.453-.062,1.631s-1-1.5-.978-2.277S306.345,307.873,306.345,307.873Z" transform="translate(-281.087 -236.369)" fill="#d8a063"/>
    <path id="Path_4220" data-name="Path 4220" d="M303.324,306.441l-.007.394-.037,2.121-.3,17.988h-5.109l-2.6-10.993-.5-2.116-2.526,13.109h-5.622l-.351-15.113-.046-2.031-.078-3.359Z" transform="translate(-281.087 -236.369)" fill="#414143"/>
    <path id="Path_4221" data-name="Path 4221" d="M291.671,326.944h-1.84c-.231-.29-.377-.454-.377-.454A6.958,6.958,0,0,1,291.671,326.944Z" transform="translate(-281.087 -236.369)" fill="#1c262e"/>
    <path id="Path_4222" data-name="Path 4222" d="M303.324,306.442l-.043,2.513c-3.345.907-11.118,2.836-17.006,2.876l-.125-5.389Z" transform="translate(-281.087 -236.369)" fill="#010508"/>
    <path id="Path_4223" data-name="Path 4223" d="M316.672,294.058,307.8,292l.259,3.17.968,11.828-2.528,1.129-.821.366-1.434-4.482.089,2.539s-13.624,4.066-20.673,3.108c0,0,5.256-14.341.835-25.456-.032-.082-.064-.165-.1-.244-.251-.634-.492-1.244-.718-1.825-3.642-9.433-3.721-12.212,1.531-14.782a14.856,14.856,0,0,0,5.572-4.418,7.282,7.282,0,0,0,1.122-2.036s1.194,4.184,6.87,4.241a5.53,5.53,0,0,0,2.033-3.585l2.122,2.123,4.69,4.689s1.793,11.993-.76,16.984l11.158,5.307Z" transform="translate(-281.087 -236.369)" fill="#414143"/>
    <path id="Path_4224" data-name="Path 4224" d="M304.184,279.623c-.057.194-.118.38-.179.563a14.834,14.834,0,0,1-2.033,4.1s.162-1-1.247-3.672c-.079-.15-.165-.308-.259-.47a44.973,44.973,0,0,0-4.141-6.03c-4.55-5.762-5.4-9.623-5.543-11.187.072-.1.14-.193.2-.286a6.923,6.923,0,0,0,.917-1.75s1.194,4.184,6.87,4.241a5.53,5.53,0,0,0,2.033-3.585l2.122,2.123c.14.337.277.674.4,1A22.845,22.845,0,0,1,304.184,279.623Z" transform="translate(-281.087 -236.369)" fill="#ebf1f1"/>
    <path id="Path_4225" data-name="Path 4225" d="M291.3,264.312s.367,4.5,5.745,5.739l.373-2.55Z" transform="translate(-281.087 -236.369)" fill="#dbdde2"/>
    <path id="Path_4226" data-name="Path 4226" d="M301.546,268.713l.07-1.349c.364-.337,1.711-1.655,1.711-2.688l-1.22.194-.6,1.816-.185-.437-.33.1a3.7,3.7,0,0,1,.334.3l.018,2.087c1.247,2.789,2.316,9.214,2.66,11.448.061-.183.122-.369.179-.563C303.862,277.565,302.736,270.868,301.546,268.713Z" transform="translate(-281.087 -236.369)" fill="#dbdde2"/>
    <path id="Path_4227" data-name="Path 4227" d="M303.327,264.676a8.059,8.059,0,0,1-1.692,2.312,3.132,3.132,0,0,0-.308-.337,4.743,4.743,0,0,0-2.449-1.255,4.43,4.43,0,0,0-1.463,2.105,13.306,13.306,0,0,0-.642,2.155c-4.94-1.051-5.675-5.784-5.786-7.013a6.923,6.923,0,0,0,.917-1.75s1.194,4.184,6.87,4.241a5.53,5.53,0,0,0,2.033-3.585l2.122,2.123C303.069,264.009,303.206,264.346,303.327,264.676Z" transform="translate(-281.087 -236.369)" fill="#ebf1f1"/>
    <path id="Path_4228" data-name="Path 4228" d="M300.725,280.616c-.079-.15-.165-.308-.259-.47.757-2.739-1.563-10.985-1.563-10.985l-1.552-1.438.064-.222,1.678.76.057.81S301.56,277.382,300.725,280.616Z" transform="translate(-281.087 -236.369)" fill="#dbdde2"/>
    <path id="Path_4229" data-name="Path 4229" d="M301.972,284.288s.162-1-1.247-3.672c.835-3.234-1.575-11.545-1.575-11.545l-1.735-1.57a4.43,4.43,0,0,1,1.463-2.105,4.779,4.779,0,0,1,2.115.957,3.7,3.7,0,0,1,.334.3l.018,2.087c1.247,2.789,2.316,9.214,2.66,11.448A14.834,14.834,0,0,1,301.972,284.288Z" transform="translate(-281.087 -236.369)" fill="#6fa1d4"/>
    <path id="Path_4230" data-name="Path 4230" d="M308.057,295.166c-10.416-2.23-20.538-8.992-23.66-11.212-.251-.634-.492-1.244-.718-1.825C290.983,289.436,307.8,292,307.8,292Z" transform="translate(-281.087 -236.369)" fill="#010508"/>
    <path id="Path_4231" data-name="Path 4231" d="M303.81,284.288l3.9-11.339-3.524,11.563Z" transform="translate(-281.087 -236.369)" fill="#010508"/>
    <path id="Path_4232" data-name="Path 4232" d="M305.886,270.334l1.046-.956v.583l-.9.852Z" transform="translate(-281.087 -236.369)" fill="#010508"/>
    <path id="Path_4233" data-name="Path 4233" d="M298.536,283.063s-4.661-7.56-9.86-10.114v.47s4.613,1.681,9.21,9.42Z" transform="translate(-281.087 -236.369)" fill="#010508"/>
    <path id="Path_4234" data-name="Path 4234" d="M287.831,268.117v.828l3.031,2.123.434-.531Z" transform="translate(-281.087 -236.369)" fill="#010508"/>
    <path id="Path_4235" data-name="Path 4235" d="M306.5,308.123l-.821.366-1.434-4.482v-7.8Z" transform="translate(-281.087 -236.369)" fill="#010508"/>
    <rect id="Rectangle_924" data-name="Rectangle 924" width="8.321" height="0.657" transform="translate(8.359 64.8)" fill="#525254"/>
    <path id="Path_4236" data-name="Path 4236" d="M294.773,313.835l.454-2.365.045,4.482Z" transform="translate(-281.087 -236.369)" fill="#010508"/>
    <path id="Path_4237" data-name="Path 4237" d="M300.395,256.248a6.869,6.869,0,0,1-5.979-.177S297.936,258.961,300.395,256.248Z" transform="translate(-281.087 -236.369)" fill="#b48653"/>
    <path id="Path_4238" data-name="Path 4238" d="M298.91,257.654a3.1,3.1,0,0,1-2.458-.2S297.7,259.089,298.91,257.654Z" transform="translate(-281.087 -236.369)" fill="#b48653"/>
    <path id="Path_4239" data-name="Path 4239" d="M295.929,252.152a6.3,6.3,0,0,0-.741-.2,9.349,9.349,0,0,0-1.078-.17,12.494,12.494,0,0,0-2.046-.042l.029-1.5c.824-1.3,3.829-.9,4.163-.212S295.929,252.152,295.929,252.152Z" transform="translate(-281.087 -236.369)" fill="#f0fdff"/>
    <path id="Path_4240" data-name="Path 4240" d="M300.836,252.859a9.366,9.366,0,0,0-2.049-.387,8.631,8.631,0,0,1-.431-1.729c-.034-.241-.054-.438-.065-.564,1.174-.247,2.645.087,2.87.555C301.494,251.419,300.836,252.859,300.836,252.859Z" transform="translate(-281.087 -236.369)" fill="#f0fdff"/>
    <path id="Path_4241" data-name="Path 4241" d="M296,250.827a1.179,1.179,0,0,1-.808,1.12,9.349,9.349,0,0,0-1.078-.17,1.169,1.169,0,0,1-.481-.95,1.184,1.184,0,0,1,2.367,0Z" transform="translate(-281.087 -236.369)" fill="#7f3f19"/>
    <path id="Path_4242" data-name="Path 4242" d="M294.906,251.527a.7.7,0,1,1,.7-.7A.7.7,0,0,1,294.906,251.527Z" transform="translate(-281.087 -236.369)" fill="#222"/>
    <path id="Path_4243" data-name="Path 4243" d="M295.7,251.942a.349.349,0,1,0-.4-.286A.349.349,0,0,0,295.7,251.942Z" transform="translate(-281.087 -236.369)" fill="#fffff5"/>
    <path id="Path_4244" data-name="Path 4244" d="M293.916,250.27a.349.349,0,1,0-.4-.286A.349.349,0,0,0,293.916,250.27Z" transform="translate(-281.087 -236.369)" fill="#fffff5"/>
    <circle id="Ellipse_520" data-name="Ellipse 520" cx="1.017" cy="1.017" r="1.017" transform="translate(17.946 14.026)" fill="#7f3f19"/>
    <path id="Path_4245" data-name="Path 4245" d="M299.436,250.908a.349.349,0,1,0-.4-.286A.349.349,0,0,0,299.436,250.908Z" transform="translate(-281.087 -236.369)" fill="#fffff5"/>
    <path id="Path_4246" data-name="Path 4246" d="M298.218,249.888l1.119,4.009-1.82.319,1.12-.891Z" transform="translate(-281.087 -236.369)" fill="#b48653"/>
    <path id="Path_4247" data-name="Path 4247" d="M300.127,251.974a.616.616,0,1,1,.616-.615A.617.617,0,0,1,300.127,251.974Z" transform="translate(-281.087 -236.369)" fill="#222"/>
    <path id="Path_4248" data-name="Path 4248" d="M300.506,252.6a.349.349,0,1,0-.4-.286A.35.35,0,0,0,300.506,252.6Z" transform="translate(-281.087 -236.369)" fill="#fffff5"/>
  </g>
</svg>
