<svg id="Component_59_1" data-name="Component 59 – 1" xmlns="http://www.w3.org/2000/svg" xmlns:xlink="http://www.w3.org/1999/xlink" width="186.05" height="146.651" viewBox="0 0 186.05 146.651">
  <defs>
    <radialGradient id="radial-gradient" cx="0.5" cy="0.5" r="0.478" gradientUnits="objectBoundingBox">
      <stop offset="0" stop-color="#ffc8af"/>
      <stop offset="1" stop-color="#ffbb9c"/>
    </radialGradient>
    <radialGradient id="radial-gradient-2" cx="0.506" cy="0.49" r="0.451" xlink:href="#radial-gradient"/>
    <radialGradient id="radial-gradient-3" cx="0.5" cy="0.5" r="0.531" xlink:href="#radial-gradient"/>
    <radialGradient id="radial-gradient-4" cx="0.5" cy="0.5" r="0.511" xlink:href="#radial-gradient"/>
    <radialGradient id="radial-gradient-5" cx="1.47" cy="-0.006" r="4.151" xlink:href="#radial-gradient"/>
    <radialGradient id="radial-gradient-6" cx="0.183" cy="0.438" r="1.813" xlink:href="#radial-gradient"/>
    <linearGradient id="linear-gradient" x1="47.484" y1="-44.772" x2="45.995" y2="-43.988" gradientUnits="objectBoundingBox">
      <stop offset="0" stop-color="#606bf1"/>
      <stop offset="1" stop-color="#58479f"/>
    </linearGradient>
    <linearGradient id="linear-gradient-2" x1="100.991" y1="-64.285" x2="99.639" y2="-63.492" xlink:href="#linear-gradient"/>
    <linearGradient id="linear-gradient-3" x1="73.446" y1="-45.112" x2="71.788" y2="-44.339" xlink:href="#linear-gradient"/>
  </defs>
  <g id="Group_3033" data-name="Group 3033" transform="translate(25.668)">
    <g id="Group_3002" data-name="Group 3002" transform="translate(13.309 8.332)">
      <g id="Group_2965" data-name="Group 2965">
        <rect id="Rectangle_774" data-name="Rectangle 774" width="42.022" height="39.222" fill="#112b46"/>
      </g>
      <g id="Group_2966" data-name="Group 2966" style="mix-blend-mode: screen;isolation: isolate">
        <rect id="Rectangle_775" data-name="Rectangle 775" width="42.022" height="4.148" fill="#1d262d"/>
      </g>
      <g id="Group_2970" data-name="Group 2970" transform="translate(31.418 1.36)">
        <g id="Group_2967" data-name="Group 2967">
          <path id="Path_3959" data-name="Path 3959" d="M706.712,25.517a.76.76,0,1,1-.76-.761A.76.76,0,0,1,706.712,25.517Z" transform="translate(-705.191 -24.756)" fill="#606bf1"/>
        </g>
        <g id="Group_2968" data-name="Group 2968" transform="translate(3.175)">
          <path id="Path_3960" data-name="Path 3960" d="M709.887,25.517a.76.76,0,1,1-.761-.761A.761.761,0,0,1,709.887,25.517Z" transform="translate(-708.366 -24.756)" fill="#fbd15b"/>
        </g>
        <g id="Group_2969" data-name="Group 2969" transform="translate(6.123 0.08)">
          <path id="Path_3961" data-name="Path 3961" d="M712.835,25.6a.76.76,0,1,1-.76-.761A.76.76,0,0,1,712.835,25.6Z" transform="translate(-711.314 -24.836)" fill="#ff8578"/>
        </g>
      </g>
      <g id="Group_2994" data-name="Group 2994" transform="translate(7.472 8.004)">
        <g id="Group_2980" data-name="Group 2980">
          <g id="Group_2971" data-name="Group 2971">
            <rect id="Rectangle_776" data-name="Rectangle 776" width="5.952" height="0.5" fill="#ff8578"/>
          </g>
          <g id="Group_2972" data-name="Group 2972" transform="translate(6.986)">
            <rect id="Rectangle_777" data-name="Rectangle 777" width="5.952" height="0.5" fill="#fbd15b"/>
          </g>
          <g id="Group_2973" data-name="Group 2973" transform="translate(1.841 2.695)">
            <rect id="Rectangle_778" data-name="Rectangle 778" width="9.229" height="0.5" fill="#606bf1"/>
          </g>
          <g id="Group_2974" data-name="Group 2974" transform="translate(12.596 2.695)">
            <rect id="Rectangle_779" data-name="Rectangle 779" width="4.691" height="0.5" fill="#ff8578"/>
          </g>
          <g id="Group_2975" data-name="Group 2975" transform="translate(5.043 5.389)">
            <rect id="Rectangle_780" data-name="Rectangle 780" width="4.054" height="0.5" fill="#fbd15b"/>
          </g>
          <g id="Group_2976" data-name="Group 2976" transform="translate(11.439 5.389)">
            <rect id="Rectangle_781" data-name="Rectangle 781" width="13.447" height="0.5" fill="#fbd15b"/>
          </g>
          <g id="Group_2977" data-name="Group 2977" transform="translate(8.191 8.084)">
            <rect id="Rectangle_782" data-name="Rectangle 782" width="15.368" height="0.5" fill="#606bf1"/>
          </g>
          <g id="Group_2978" data-name="Group 2978" transform="translate(4.349 10.779)">
            <rect id="Rectangle_783" data-name="Rectangle 783" width="4.73" height="0.5" fill="#ff8578"/>
          </g>
          <g id="Group_2979" data-name="Group 2979" transform="translate(11.102 10.779)">
            <rect id="Rectangle_784" data-name="Rectangle 784" width="4.73" height="0.5" fill="#606bf1"/>
          </g>
        </g>
        <g id="Group_2993" data-name="Group 2993" transform="translate(0 13.981)">
          <g id="Group_2981" data-name="Group 2981" transform="translate(0 10.779)">
            <rect id="Rectangle_785" data-name="Rectangle 785" width="6.881" height="0.5" fill="#ff8578"/>
          </g>
          <g id="Group_2982" data-name="Group 2982" transform="translate(9.29 10.779)">
            <rect id="Rectangle_786" data-name="Rectangle 786" width="6.881" height="0.5" fill="#fbd15b"/>
          </g>
          <g id="Group_2983" data-name="Group 2983" transform="translate(18.331 10.779)">
            <rect id="Rectangle_787" data-name="Rectangle 787" width="6.881" height="0.5" fill="#ff8578"/>
          </g>
          <g id="Group_2984" data-name="Group 2984" transform="translate(1.841 8.084)">
            <rect id="Rectangle_788" data-name="Rectangle 788" width="13.447" height="0.5" fill="#606bf1"/>
          </g>
          <g id="Group_2985" data-name="Group 2985" transform="translate(17.385 8.084)">
            <rect id="Rectangle_789" data-name="Rectangle 789" width="13.447" height="0.5" fill="#ff8578"/>
          </g>
          <g id="Group_2986" data-name="Group 2986" transform="translate(5.043 5.389)">
            <rect id="Rectangle_790" data-name="Rectangle 790" width="13.344" height="0.5" fill="#ff8578"/>
          </g>
          <g id="Group_2987" data-name="Group 2987" transform="translate(19.55 5.389)">
            <rect id="Rectangle_791" data-name="Rectangle 791" width="3.714" height="0.5" fill="#fbd15b"/>
          </g>
          <g id="Group_2988" data-name="Group 2988" transform="translate(4.171 2.695)">
            <rect id="Rectangle_792" data-name="Rectangle 792" width="5.023" height="0.5" fill="#fbd15b"/>
          </g>
          <g id="Group_2989" data-name="Group 2989" transform="translate(11.862 2.695)">
            <rect id="Rectangle_793" data-name="Rectangle 793" width="5.023" height="0.5" fill="#606bf1"/>
          </g>
          <g id="Group_2990" data-name="Group 2990" transform="translate(20.117 2.695)">
            <rect id="Rectangle_794" data-name="Rectangle 794" width="5.023" height="0.5" fill="#ff8578"/>
          </g>
          <g id="Group_2991" data-name="Group 2991" transform="translate(9.994)">
            <rect id="Rectangle_795" data-name="Rectangle 795" width="7.044" height="0.5" fill="#fbd15b"/>
          </g>
          <g id="Group_2992" data-name="Group 2992" transform="translate(0.293)">
            <rect id="Rectangle_796" data-name="Rectangle 796" width="7.044" height="0.5" fill="#606bf1"/>
          </g>
        </g>
      </g>
      <g id="Group_3001" data-name="Group 3001" transform="translate(3.577 7.524)">
        <g id="Group_2996" data-name="Group 2996" transform="translate(0)">
          <g id="Group_2995" data-name="Group 2995">
            <rect id="Rectangle_797" data-name="Rectangle 797" width="0.64" height="0.64" fill="#f9fbfc"/>
          </g>
        </g>
        <g id="Group_2998" data-name="Group 2998" transform="translate(0 2.599)">
          <g id="Group_2997" data-name="Group 2997">
            <path id="Path_3962" data-name="Path 3962" d="M677.99,54.413h-.64v-1.3h.64Zm0-3.264h-.64V49.843h.64Zm0-3.265h-.64V46.578h.64Zm0-3.265h-.64V43.313h.64Zm0-3.265h-.64V40.048h.64Zm0-3.265h-.64V36.783h.64Zm0-3.264h-.64V33.519h.64Z" transform="translate(-677.35 -33.519)" fill="#f9fbfc"/>
          </g>
        </g>
        <g id="Group_3000" data-name="Group 3000" transform="translate(0 25.453)">
          <g id="Group_2999" data-name="Group 2999">
            <rect id="Rectangle_798" data-name="Rectangle 798" width="0.64" height="0.64" fill="#f9fbfc"/>
          </g>
        </g>
      </g>
    </g>
    <g id="Group_3005" data-name="Group 3005" transform="translate(64.373)">
      <g id="Group_3003" data-name="Group 3003">
        <rect id="Rectangle_799" data-name="Rectangle 799" width="34.603" height="21.329" fill="#1f3c88"/>
      </g>
      <g id="Group_3004" data-name="Group 3004" transform="translate(7.963 4.193)">
        <path id="Path_3963" data-name="Path 3963" d="M738.276,23.642,734.159,25.4l4.117,1.731-.539,1.244-4.937-2.2V24.643l4.937-2.219Z" transform="translate(-732.8 -19.256)" fill="#f9fbfc"/>
        <path id="Path_3964" data-name="Path 3964" d="M744.343,19.577l-2.988,11.478-1.423-.334,3-11.465Z" transform="translate(-732.8 -19.256)" fill="#f9fbfc"/>
        <path id="Path_3965" data-name="Path 3965" d="M751.488,24.643v1.526l-4.938,2.2-.538-1.244,4.1-1.731-4.1-1.757.538-1.218Z" transform="translate(-732.8 -19.256)" fill="#f9fbfc"/>
      </g>
    </g>
    <g id="Group_3008" data-name="Group 3008" transform="translate(97.787 41.321)">
      <g id="Group_3006" data-name="Group 3006">
        <rect id="Rectangle_800" data-name="Rectangle 800" width="19.709" height="14.041" fill="#606bf1"/>
      </g>
      <g id="Group_3007" data-name="Group 3007" transform="translate(5.517 2.105)">
        <path id="Path_3966" data-name="Path 3966" d="M766.495,59.415c-.634,0-.845.171-.845.644v2.113a1.078,1.078,0,0,1-.916,1.238,1.058,1.058,0,0,1,.916,1.218v2.113c0,.473.222.644.845.644v.926c-1.6,0-2.053-.513-2.053-1.58v-2c0-.573-.15-.795-.674-.795V62.877c.524,0,.674-.232.674-.805v-2c0-1.077.453-1.58,2.053-1.58Z" transform="translate(-763.768 -58.489)" fill="#f1f2f2"/>
        <path id="Path_3967" data-name="Path 3967" d="M771.769,60.069v2c0,.573.151.805.684.805v1.056c-.533,0-.684.222-.684.795v2c0,1.067-.453,1.58-2.053,1.58v-.926c.624,0,.845-.171.845-.644V64.628a1.058,1.058,0,0,1,.916-1.218,1.078,1.078,0,0,1-.916-1.238V60.059c0-.473-.211-.644-.845-.644v-.926C771.316,58.489,771.769,58.992,771.769,60.069Z" transform="translate(-763.768 -58.489)" fill="#f1f2f2"/>
      </g>
    </g>
    <g id="Group_3032" data-name="Group 3032" transform="translate(0 26.049)">
      <g id="Group_3012" data-name="Group 3012" transform="translate(66.237)">
        <path id="Path_3968" data-name="Path 3968" d="M746.827,63.8c-.048.489-.716,5.589-5.96,5.589-5.506,0-4.584-5.451-4.584-5.451l-.007-.035A5.5,5.5,0,0,1,738,63.823V61.242l6.249-3.5h.227v6.022A11.386,11.386,0,0,1,746.827,63.8Z" transform="translate(-726.701 -41.112)" fill="url(#radial-gradient)"/>
        <g id="Group_3011" data-name="Group 3011">
          <g id="Group_3010" data-name="Group 3010" transform="translate(3.788 2.846)">
            <g id="Group_3009" data-name="Group 3009">
              <path id="Path_3969" data-name="Path 3969" d="M743.792,46.225a7.14,7.14,0,0,1,1.878,3.483,15.937,15.937,0,0,1-.732,8,4.043,4.043,0,0,1-.551,1.244,4.347,4.347,0,0,1-.685.691q-1.667,1.452-3.332,2.907c-.752.659-5.38,1.207-6.263.575-3.4-2.433-4.058-9.484-3.377-13.089C731.86,44.056,739.546,41.918,743.792,46.225Z" transform="translate(-730.489 -43.958)" fill="url(#radial-gradient-2)"/>
            </g>
          </g>
          <path id="Path_3970" data-name="Path 3970" d="M741.88,53.878c.046-.576.638-1.206,1.231-.833.615.387.471,1.409.216,1.972-.2.441-.869.924-1.321.514-.38-.344.21-.75.229-1.064.018-.282-.547-.485-.316-.787" transform="translate(-726.701 -41.112)" fill="#f7b094"/>
          <path id="Path_3971" data-name="Path 3971" d="M741.989,56.539a1.756,1.756,0,0,0,1.937-1.151,6.619,6.619,0,0,0,.238-1.85,4.44,4.44,0,0,1,.152,2.04c-.161,1.259-.6,2.458-1.59,2.474S741.989,56.539,741.989,56.539Z" transform="translate(-726.701 -41.112)" fill="#f7b094"/>
          <path id="Path_3972" data-name="Path 3972" d="M741.228,55.644a.233.233,0,0,1-.069.021c-.384.053-.538-.411-.595-.7a12.959,12.959,0,0,1-.136-2.054,1.538,1.538,0,0,0-.062-.549c-.216-.494-.791-.815-.966-1.326-.2-.593.372-1.186.143-1.835-.35-1-1.628-1.225-2.553-1.214a29.173,29.173,0,0,0-4.108.486c-1.445.224-3.293.437-4.566-.477-1.535-1.1-2.176-3.972-1.031-5.544a3.725,3.725,0,0,1,2.846-1.337c1.1-.025,2.029.631,3.038.961.8.262,1.58-.506,2.331-.656.944-.189,1.345.842,2.18.87.811.027,1.607-.606,2.4-.75,1.572-.287,1.48,1.292,2.535,1.831.655.336,1.5.133,2.166.473.5.259.574.714.684,1.23a12,12,0,0,0,.247,1.383,3.133,3.133,0,0,0,.7.919,3.377,3.377,0,0,1,.585,1.112,6.921,6.921,0,0,1,.29,2.824,19.185,19.185,0,0,1-1.181,4.646,16.478,16.478,0,0,1-1,2.9c-.142.246-.774.967-1.008.43a.773.773,0,0,1-.034-.371c.07-1,1-7.446-1.441-6.672a1.732,1.732,0,0,0-1.047,1.075,4.187,4.187,0,0,0-.216,1.784c0,.088.007.176,0,.264A.3.3,0,0,1,741.228,55.644Z" transform="translate(-726.701 -41.112)" fill="#3d3d7a"/>
        </g>
      </g>
      <path id="Path_3973" data-name="Path 3973" d="M738,63.232a8.407,8.407,0,0,0,4.609-2.639,5.061,5.061,0,0,1-4.776,3.892Z" transform="translate(-660.464 -41.112)" fill="#f7b094"/>
      <g id="Group_3014" data-name="Group 3014" transform="translate(63.46 72.506)">
        <path id="Rectangle_801" data-name="Rectangle 801" d="M1.626,0h.723A1.626,1.626,0,0,1,3.974,1.626V38.833a0,0,0,0,1,0,0H0a0,0,0,0,1,0,0V1.626A1.626,1.626,0,0,1,1.626,0Z" transform="translate(22.612 38.833) rotate(180)" fill="#0a2033"/>
        <path id="Rectangle_802" data-name="Rectangle 802" d="M3.184,0H18.674a3.184,3.184,0,0,1,3.184,3.184v.133a0,0,0,0,1,0,0H0a0,0,0,0,1,0,0V3.184A3.184,3.184,0,0,1,3.184,0Z" transform="translate(31.554 3.862) rotate(180)" fill="#30475e"/>
        <g id="Group_3013" data-name="Group 3013" transform="translate(0 31.35)">
          <path id="Rectangle_803" data-name="Rectangle 803" d="M1.626,0h.722A1.626,1.626,0,0,1,3.974,1.626V9.537a0,0,0,0,1,0,0H0a0,0,0,0,1,0,0V1.626A1.626,1.626,0,0,1,1.626,0Z" transform="translate(22.612 12.499) rotate(180)" fill="#0a2033"/>
          <path id="Path_3974" data-name="Path 3974" d="M723.924,155.141a2.326,2.326,0,1,0,2.326-2.326A2.326,2.326,0,0,0,723.924,155.141Z" transform="translate(-723.924 -144.969)" fill="#0a2033"/>
          <path id="Path_3975" data-name="Path 3975" d="M760.521,155.141a2.326,2.326,0,1,0,2.326-2.326A2.326,2.326,0,0,0,760.521,155.141Z" transform="translate(-723.924 -144.969)" fill="#0a2033"/>
          <rect id="Rectangle_804" data-name="Rectangle 804" width="7.996" height="6.987" transform="translate(24.623 6.987) rotate(180)" fill="#30475e"/>
          <path id="Rectangle_805" data-name="Rectangle 805" d="M0,0H41.249a0,0,0,0,1,0,0V.132a3.156,3.156,0,0,1-3.156,3.156H3.156A3.156,3.156,0,0,1,0,.132V0A0,0,0,0,1,0,0Z" transform="translate(41.249 8.631) rotate(180)" fill="#fbd15b"/>
        </g>
        <rect id="Rectangle_806" data-name="Rectangle 806" width="1.379" height="26.082" transform="translate(19.246 4.645)" fill="#30475e"/>
      </g>
      <path id="Path_3976" data-name="Path 3976" d="M760.164,85.978a1.622,1.622,0,0,0-1.675,1.712c.273,4.734-.73,16.282-5.14,20.223-5.391,4.817-20.671,4.161-20.671,4.161s-2.524,3.1,2.523,3.786,19.271.229,22.712-2.983c3.331-3.109,5.308-11.254,3.818-25.431a1.632,1.632,0,0,0-1.567-1.468Z" transform="translate(-660.464 -41.112)" fill="#fbd15b"/>
      <g id="Group_3016" data-name="Group 3016" transform="translate(39.317 27.012)">
        <g id="Group_3015" data-name="Group 3015">
          <path id="Path_3977" data-name="Path 3977" d="M731.535,144.345l1.817,4.143-5.568,2.443-1.824-4.157Z" transform="translate(-699.781 -68.124)" fill="url(#radial-gradient-3)"/>
          <path id="Path_3978" data-name="Path 3978" d="M757.79,98.3c-.344.688-25.082.014-27.419.227,0,0-15.141,7.227-17.315,13.992a7.388,7.388,0,0,0-.214,2.656c.606,9.526,11.452,32.333,11.452,32.333l1.666-.729,5.575-2.43.791-.344s-8.6-25.636-6.882-27.013,21.218-4.817,27.983-6.648S757.79,98.3,757.79,98.3Z" transform="translate(-699.781 -68.124)" fill="#56548c"/>
          <path id="Path_3979" data-name="Path 3979" d="M710.308,145.411l.435,6.224h-6.077l-.435-6.238Z" transform="translate(-699.781 -68.124)" fill="url(#radial-gradient-4)"/>
          <path id="Path_3980" data-name="Path 3980" d="M730.248,98.31l-.221.1s-25.347,3.558-29.476,10.668c-2.684,4.625,2.511,38.419,2.511,38.419l8.967.02s-1.341-28.15-.893-29.719a4.055,4.055,0,0,1,1.706-2.623,7.388,7.388,0,0,1,.214-2.656c2.174-6.765,17.315-13.992,17.315-13.992A.431.431,0,0,1,730.248,98.31Z" transform="translate(-699.781 -68.124)" fill="#3d3d7a"/>
          <path id="Path_3981" data-name="Path 3981" d="M754.73,74.89l-1.7.234a83.267,83.267,0,0,1-1.424,9.167l-21.177,8.038-.289,1.535-.262-.021c.007.317.007.627.021.916a15.207,15.207,0,0,0,.351,3.551.43.43,0,0,0,.124.213c.575.469,8.065-.44,16.162,2.533,7.023,2.579,10.959,5.395,11.141,5.017C759.883,101.485,755.866,83.479,754.73,74.89Z" transform="translate(-699.781 -68.124)" fill="#ff8578"/>
          <path id="Path_3982" data-name="Path 3982" d="M752.521,85.392c-.564,2.711-2.024,8.107-4.886,8.83-3.738.95-10.964.9-17.736.537-.014-.289-.014-.6-.021-.916l.262.021.289-1.535,21.177-8.038a83.267,83.267,0,0,0,1.424-9.167.583.583,0,0,0,.007.075A45.525,45.525,0,0,1,752.521,85.392Z" transform="translate(-699.781 -68.124)" fill="#f4675d"/>
          <path id="Path_3983" data-name="Path 3983" d="M731.294,68.124c-.379.688-.923,8.053-1.218,15.362l-4.329-4.04C727.584,75.887,731.294,68.124,731.294,68.124Z" transform="translate(-699.781 -68.124)" fill="#f4675d"/>
          <path id="Path_3984" data-name="Path 3984" d="M728.7,88.826c-3.654.633-7.013,1.177-7.013,1.177l-.007.179c-4.067-3.248-10.254-12.45-10.254-12.45s1.851-2.223,2.312-2.808c.069-.09,10.158,6.855,10.674,6.793a9.9,9.9,0,0,0,1.336-2.271l4.329,4.04c-.069,1.741-.124,3.475-.159,5.12C729.511,88.682,729.1,88.75,728.7,88.826Z" transform="translate(-699.781 -68.124)" fill="#f7b094"/>
          <path id="Path_3985" data-name="Path 3985" d="M721.686,90l-.089,3.014H710.585s1.094-4.3,4.074-4.3,4.13,1.576,4.13,1.576Z" transform="translate(-699.781 -68.124)" fill="url(#radial-gradient-5)"/>
          <path id="Path_3986" data-name="Path 3986" d="M713.654,74.855l.083.069c-.461.585-2.312,2.808-2.312,2.808l-1.15-.812a2.856,2.856,0,0,1-2.739-.035c-1.535-.832-.585-2.821-.506-3.056-.3.083-2.137,1.57-2.426,1.412s-.5-.682,1.556-2.712,4.845.578,4.927.578Z" transform="translate(-699.781 -68.124)" fill="#f7b094"/>
          <path id="Path_3987" data-name="Path 3987" d="M707.776,76.54a.84.84,0,0,0,.345,1.192,7.841,7.841,0,0,0,2.982.558c.659-.063,1.183-.986,1.183-.986l-2-1.873h-1.6Z" transform="translate(-699.781 -68.124)" fill="#f7b094"/>
          <path id="Path_3988" data-name="Path 3988" d="M707.657,76.948c.119-.408,1.252-.19,1.955-.174.518.013.8-.123.961-.517s-.591-1.023-.739-.826.271.475.283.736-.739.348-1.319.348a14.071,14.071,0,0,0-1.578.151Z" transform="translate(-699.781 -68.124)" fill="#e8987c"/>
        </g>
      </g>
      <path id="Path_3989" data-name="Path 3989" d="M750.53,88.2l-10.785-3.82c-.784,1.466-1.624,2.567-2.457,2.788-1.259.33-4.3.9-7.371,1.438-.406.076-.812.144-1.218.22-3.654.633-7.013,1.177-7.013,1.177l-.007.179V90.3l-.082,2.718v.69a76.334,76.334,0,0,1,8.279.136c6.462.461,14.8.737,17.557-.564,1.293-.613,2.326-2.622,3.138-5.1Z" transform="translate(-660.464 -41.112)" fill="url(#radial-gradient-6)"/>
      <path id="Path_3990" data-name="Path 3990" d="M739.745,84.38,750.53,88.2l-.488,1.441-10.674-4.579Z" transform="translate(-660.464 -41.112)" fill="#f7b094"/>
      <path id="Path_3991" data-name="Path 3991" d="M739.745,84.38c-.784,1.466-1.624,2.567-2.457,2.788-1.259.33-4.3.9-7.371,1.438.035-1.645.09-3.379.159-5.12.295-7.309.839-14.674,1.218-15.362.619-1.149,2.312-3.647,4.982-4.219l.007.035s-.922,5.451,4.584,5.451c5.244,0,5.912-5.1,5.96-5.589,2.7.3,6.834,1.652,7.4,7.075.117,1.074.282,2.45.5,4.013l-1.7.234a71.884,71.884,0,0,1-2.457,13.055l-.041.021Z" transform="translate(-660.464 -41.112)" fill="#ff8578"/>
      <path id="Path_3992" data-name="Path 3992" d="M739.634,83.386l4.306-10.425-3.172,10.846Z" transform="translate(-660.464 -41.112)" fill="#6d4b35" style="mix-blend-mode: screen;isolation: isolate"/>
      <path id="Path_3993" data-name="Path 3993" d="M746.827,63.8H744.48s-3.34,3.667-5.487,3.667S738,63.823,738,63.823h-1.047a5.921,5.921,0,0,0-5.882,5.249c-.039.342-.074.667-.105.961-.229,2.218,8.757,3.833,8.757,3.833l4.628-.259,2.81-5.483.559-2.245Z" transform="translate(-660.464 -41.112)" fill="#ff8578"/>
      <g id="Group_3020" data-name="Group 3020" transform="translate(58.036 107.009)">
        <g id="Group_3019" data-name="Group 3019">
          <g id="Group_3018" data-name="Group 3018">
            <g id="Group_3017" data-name="Group 3017">
              <path id="Path_3994" data-name="Path 3994" d="M718.508,155.7a1.827,1.827,0,0,0,2.108,1.71l14.947-2.788a.7.7,0,0,0,.557-.813l-.247-1.326s-15.721,2.751-17.373,3.209Z" transform="translate(-718.5 -148.121)" fill="#f1f2f2"/>
              <path id="Path_3995" data-name="Path 3995" d="M722.955,151.937c.156-.135.306-.27.462-.4.3-.268.6-.53.879-.782l.439-.4.76-.679.46-.417.61-.547a.339.339,0,0,1,.445-.009c.615.517,2.6,1.7,6.2-.528a.344.344,0,0,1,.489.127l2.176,4.181s-15.721,2.751-17.373,3.209C719.043,155.353,721.05,153.617,722.955,151.937Z" transform="translate(-718.5 -148.121)" fill="#3d3d7a"/>
            </g>
          </g>
        </g>
      </g>
      <g id="Group_3024" data-name="Group 3024" transform="translate(34.496 108.771)">
        <g id="Group_3023" data-name="Group 3023">
          <g id="Group_3022" data-name="Group 3022">
            <g id="Group_3021" data-name="Group 3021">
              <path id="Path_3996" data-name="Path 3996" d="M694.967,155.554c.027,1.14.668,2.051,1.808,2.023l15.2-.371a.7.7,0,0,0,.679-.713l-.033-1.349s-15.958.211-17.662.4Z" transform="translate(-694.96 -149.883)" fill="#f1f2f2"/>
              <path id="Path_3997" data-name="Path 3997" d="M699.956,152.547c.176-.109.345-.218.521-.326l.992-.633c.17-.108.339-.217.5-.319l.859-.55c.188-.121.363-.236.521-.338l.689-.443a.339.339,0,0,1,.441.062c.524.608,2.3,2.091,6.2.466a.346.346,0,0,1,.463.2l1.481,4.474s-15.958.211-17.662.4C695.55,155.3,697.808,153.9,699.956,152.547Z" transform="translate(-694.96 -149.883)" fill="#3d3d7a"/>
            </g>
          </g>
        </g>
      </g>
      <g id="Group_3026" data-name="Group 3026" transform="translate(15.571 30.943)">
        <path id="Path_3998" data-name="Path 3998" d="M684.153,93.707l-8.118-21.651h23.112l8.118,21.651Z" transform="translate(-676.035 -72.056)" fill="#abb5ba"/>
        <path id="Path_3999" data-name="Path 3999" d="M708.694,93.707h-1.429l-8.118-21.651,1.3.058,7.509,19.6Z" transform="translate(-676.035 -72.056)" fill="#8495a0"/>
        <path id="Path_4000" data-name="Path 4000" d="M677.279,91.367h29.1" transform="translate(-676.035 -72.056)" fill="none"/>
        <g id="Group_3025" data-name="Group 3025" transform="translate(31.898 20.286)">
          <path id="Path_4001" data-name="Path 4001" d="M708.245,93.707h15.272l-.041-1.365H707.933" transform="translate(-707.933 -92.342)" fill="#8495a0"/>
        </g>
      </g>
      <g id="Group_3031" data-name="Group 3031" transform="translate(0 52.595)">
        <g id="Group_3027" data-name="Group 3027" transform="translate(109.167 4.129)">
          <rect id="Rectangle_807" data-name="Rectangle 807" width="3.677" height="60.407" fill="#8495a0"/>
        </g>
        <g id="Group_3028" data-name="Group 3028" transform="translate(89.209 4.129)">
          <rect id="Rectangle_808" data-name="Rectangle 808" width="3.677" height="60.407" fill="#abb5ba"/>
        </g>
        <g id="Group_3029" data-name="Group 3029" transform="translate(25.268 4.129)">
          <rect id="Rectangle_809" data-name="Rectangle 809" width="3.677" height="60.407" fill="#8495a0"/>
        </g>
        <g id="Group_3030" data-name="Group 3030" transform="translate(5.309 4.129)">
          <rect id="Rectangle_810" data-name="Rectangle 810" width="3.677" height="60.407" fill="#abb5ba"/>
        </g>
        <rect id="Rectangle_811" data-name="Rectangle 811" width="118.311" height="4.359" rx="2.092" fill="#141b56"/>
      </g>
      <path id="Path_4002" data-name="Path 4002" d="M679.894,74.332l.4,1.054h4.6l-.4-1.054Z" transform="translate(-660.464 -41.112)" fill="#8495a0"/>
      <path id="Path_4003" data-name="Path 4003" d="M725.747,79.446l-.33.639,4.659,4.815V83.486Z" transform="translate(-660.464 -41.112)" fill="#e8987c"/>
    </g>
  </g>
  <g id="Group_3038" data-name="Group 3038" transform="translate(0 87.56)">
    <rect id="Rectangle_812" data-name="Rectangle 812" width="186.05" height="4.248" transform="translate(0 54.843)" fill="#a5b7c6"/>
    <g id="Group_3037" data-name="Group 3037" transform="translate(130.764)">
      <g id="Group_3034" data-name="Group 3034" transform="translate(16.087 6.775)">
        <path id="Path_4004" data-name="Path 4004" d="M791.349,125.957c-.739,3.586-.517,9.695-5.261,10.662a3.466,3.466,0,0,1-3.254-1.639c-.972-1.328-1.2-4.139-1.187-5.747.013-1.274.448-2.695.587-3.981.151-1.388.274-2.779.436-4.167a15.021,15.021,0,0,1,7.614-11.687A23.737,23.737,0,0,0,792.093,114a16.36,16.36,0,0,1,.8,2.229,7.794,7.794,0,0,1-.4,3.958C792.014,122.08,791.742,124.048,791.349,125.957Z" transform="translate(-781.646 -109.398)" fill="url(#linear-gradient)"/>
        <path id="Path_4005" data-name="Path 4005" d="M785.285,136.74c.034-.3.071-.6.111-.9a3.865,3.865,0,0,0,1.633-.57,8.679,8.679,0,0,0,2.142-1.7c.035-.035-.023-.092-.06-.061a9.638,9.638,0,0,1-2.087,1.428,5.868,5.868,0,0,1-1.585.59c.05-.358.1-.717.164-1.074a4.508,4.508,0,0,0,1.631-.757,18.69,18.69,0,0,0,2.337-1.784c.009-.007,0-.021-.01-.014-1.159.841-2.449,2.039-3.915,2.3.078-.448.16-.9.254-1.338l.015-.07c1.7-.429,2.843-1.759,4.142-2.834.021-.018,0-.054-.024-.036a13.2,13.2,0,0,1-4.061,2.608c.137-.635.28-1.268.423-1.9a9.054,9.054,0,0,0,3.833-2.717c.017-.021-.012-.05-.031-.03a11.691,11.691,0,0,1-3.741,2.476c.142-.626.283-1.252.416-1.88a14.04,14.04,0,0,0,1.976-.954,5.4,5.4,0,0,0,1.536-1.558.03.03,0,0,0-.051-.033c-.858,1.234-2.153,1.618-3.4,2.268.122-.585.236-1.172.338-1.762,1.394-.768,2.909-1.48,3.7-2.951.008-.014-.012-.029-.021-.014-.837,1.351-2.3,1.934-3.628,2.669.018-.1.037-.209.053-.315.086-.547.166-1.1.244-1.643a13.483,13.483,0,0,0,2.286-1.243,4.363,4.363,0,0,0,1.393-1.187c.021-.033-.028-.067-.05-.035-.748,1.072-2.385,1.691-3.6,2.227q.119-.831.235-1.661c1.342-.812,2.921-1.261,3.747-2.725a.039.039,0,0,0-.066-.041c-.855,1.337-2.361,1.749-3.644,2.508q.075-.515.151-1.029a8.1,8.1,0,0,0,3.9-3.056.065.065,0,0,0-.109-.07,8.132,8.132,0,0,1-3.747,2.854c.086-.555.175-1.11.274-1.663a.169.169,0,0,0,.022-.049,8.288,8.288,0,0,0,1.855-1,5.063,5.063,0,0,0,1.745-1.59c.047-.076-.077-.146-.121-.068a6.349,6.349,0,0,1-3.436,2.358c.038-.2.074-.4.114-.606q.09-.452.183-.9c.517-.358,1.175-.529,1.695-.907a9.585,9.585,0,0,0,1.234-1.124.044.044,0,0,0-.06-.063,8.132,8.132,0,0,1-1.7,1.308c-.357.191-.764.3-1.11.51.1-.492.2-.985.3-1.478l.018,0,.018,0a.1.1,0,0,0,.086-.026,3.847,3.847,0,0,0,1.715-1.3.013.013,0,1,0-.018-.018,4.689,4.689,0,0,1-1.725,1.164l-.008,0-.05-.008q.115-.6.217-1.206a.092.092,0,0,0,.084-.1,7.416,7.416,0,0,0,1.03-.883.026.026,0,0,0-.035-.038,5.931,5.931,0,0,1-1.03.727,24.54,24.54,0,0,0,.28-2.514c.005-.078-.114-.079-.121,0-.073.813-.191,1.619-.331,2.421a7.482,7.482,0,0,1-1.058-1.618c-.013-.03-.061-.018-.05.014a4.63,4.63,0,0,0,.514,1,6.2,6.2,0,0,0,.546.879c-.078.431-.163.86-.251,1.288a2.21,2.21,0,0,1-2.091-2.125c-.006-.078-.129-.077-.121,0a2.677,2.677,0,0,0,.688,1.577,2.519,2.519,0,0,0,1.487.724q-.156.743-.319,1.484a11.458,11.458,0,0,1-1.214-.9,16.628,16.628,0,0,1-1.534-1.656c-.054-.056-.143.025-.089.082a17.234,17.234,0,0,0,1.428,1.609,8.261,8.261,0,0,0,1.37,1.044l-.017.078-.017.014a.08.08,0,0,0-.011.111c-.1.473-.208.946-.308,1.421l-.018.089c-1.1-.5-2.752-1.383-2.9-2.663a.086.086,0,1,0-.168.036c.326,1.449,1.919,2.091,3.016,2.881q-.162.805-.3,1.614a6.545,6.545,0,0,1-1.988-1.025,4.516,4.516,0,0,1-1.56-1.625c-.007-.021-.039-.007-.031.013.227.667.917,1.125,1.42,1.58a5.317,5.317,0,0,0,2.11,1.3.147.147,0,0,0,0,.072c-.056.341-.11.684-.163,1.026a6.122,6.122,0,0,1-3.9-2.134s-.01,0-.007.005a4.4,4.4,0,0,0,1.97,1.618,5.431,5.431,0,0,0,1.91.69c-.1.634-.189,1.269-.284,1.9-.581-.217-1.2-.321-1.773-.551a4.39,4.39,0,0,1-2.012-1.713c-.03-.046-.106-.008-.076.04.927,1.475,2.262,1.908,3.826,2.46q-.118.782-.246,1.56a5.628,5.628,0,0,1-3.582-2.138c-.047-.081-.177-.014-.13.069a4.149,4.149,0,0,0,1.833,1.525,5.622,5.622,0,0,0,1.847.742l-.008.051c-.127.747-.274,1.491-.434,2.232-1.43-.359-2.354-1.419-3.392-2.41-.073-.069-.186.037-.114.107,1.059,1.042,1.988,2.135,3.459,2.52q-.2.9-.418,1.8a6.6,6.6,0,0,1-3.21-2.2c-.056-.071-.154.025-.1.094a7.107,7.107,0,0,0,3.255,2.335c-.158.644-.322,1.287-.487,1.928a4.734,4.734,0,0,1-2.984-1.963c-.018-.023-.059.007-.042.031a4.652,4.652,0,0,0,2.966,2.167l-.159.615c-.032.123-.065.249-.1.375a7.1,7.1,0,0,1-2.6-1.252c-.022-.018-.047.016-.026.035a6.763,6.763,0,0,0,2.571,1.406c-.1.385-.216.782-.325,1.186a5.113,5.113,0,0,0-.716-.3,5.163,5.163,0,0,1-1.182-.684c-.037-.022-.079.031-.042.055a5.376,5.376,0,0,0,1.02.689c.3.114.588.26.881.39a12.852,12.852,0,0,0-.6,4.843c.046.341.618.432.707.069A27.49,27.49,0,0,0,785.285,136.74Z" transform="translate(-781.646 -109.398)" fill="#747ded"/>
      </g>
      <g id="Group_3035" data-name="Group 3035" transform="translate(0 7.745)">
        <path id="Path_4006" data-name="Path 4006" d="M776.335,124.931c.844,3.563,3.624,9.006-.269,11.886a3.467,3.467,0,0,1-3.642-.113c-1.442-.794-2.839-3.244-3.5-4.709-.526-1.161-.732-2.632-1.147-3.857-.449-1.322-.925-2.635-1.364-3.961a15.02,15.02,0,0,1,1.97-13.809,23.776,23.776,0,0,0,3.584,3.413,16.235,16.235,0,0,1,1.666,1.683,7.79,7.79,0,0,1,1.308,3.757C775.3,121.135,775.886,123.033,776.335,124.931Z" transform="translate(-765.559 -110.368)" fill="url(#linear-gradient-2)"/>
        <path id="Path_4007" data-name="Path 4007" d="M775.389,137.265c-.1-.287-.19-.575-.281-.864a3.862,3.862,0,0,0,1.24-1.206,8.674,8.674,0,0,0,1.226-2.443c.017-.046-.06-.073-.08-.029a9.674,9.674,0,0,1-1.289,2.175,5.907,5.907,0,0,1-1.188,1.2q-.159-.521-.305-1.044a4.489,4.489,0,0,0,1.159-1.374,18.539,18.539,0,0,0,1.366-2.6.009.009,0,0,0-.015-.008c-.7,1.252-1.36,2.882-2.578,3.738-.119-.439-.233-.878-.335-1.321l-.015-.069c1.356-1.1,1.835-2.795,2.558-4.317.012-.025-.024-.048-.037-.023a13.208,13.208,0,0,1-2.58,4.079c-.144-.634-.282-1.268-.419-1.9a9.056,9.056,0,0,0,2.328-4.081.022.022,0,0,0-.041-.014,11.68,11.68,0,0,1-2.346,3.823c-.135-.627-.272-1.254-.416-1.879a14.115,14.115,0,0,0,1.388-1.7,5.412,5.412,0,0,0,.735-2.062.03.03,0,0,0-.06-.008c-.257,1.482-1.269,2.376-2.129,3.493q-.2-.873-.438-1.74c.94-1.284,2.013-2.569,2.109-4.236,0-.016-.024-.021-.026,0-.188,1.579-1.269,2.724-2.162,3.951-.029-.1-.056-.205-.085-.308-.154-.532-.313-1.062-.473-1.592a13.468,13.468,0,0,0,1.548-2.092,4.359,4.359,0,0,0,.762-1.664.03.03,0,0,0-.06-.01c-.226,1.287-1.449,2.539-2.319,3.536-.162-.536-.326-1.07-.488-1.6.874-1.3,2.116-2.377,2.247-4.052a.039.039,0,0,0-.078-.009c-.211,1.572-1.4,2.582-2.245,3.811q-.15-.5-.3-1a8.1,8.1,0,0,0,2.245-4.416.065.065,0,0,0-.129-.018,8.131,8.131,0,0,1-2.192,4.169c-.156-.54-.309-1.08-.453-1.623a.2.2,0,0,0,0-.054A8.31,8.31,0,0,0,772,118.191a5.062,5.062,0,0,0,.911-2.178.069.069,0,0,0-.138-.011,6.356,6.356,0,0,1-2.12,3.588c-.052-.2-.1-.4-.153-.6-.073-.3-.144-.6-.215-.9.318-.543.842-.975,1.154-1.537a9.655,9.655,0,0,0,.644-1.54.044.044,0,0,0-.081-.032,8.152,8.152,0,0,1-.991,1.9c-.243.324-.567.6-.792.931-.116-.489-.232-.978-.353-1.465l.015-.012.019,0a.1.1,0,0,0,.066-.06,3.849,3.849,0,0,0,1.006-1.9.013.013,0,0,0-.024-.009,4.692,4.692,0,0,1-1.073,1.783h-.008l-.049.014c-.1-.4-.2-.792-.312-1.185a.091.091,0,0,0,.032-.129,7.346,7.346,0,0,0,.562-1.235.026.026,0,0,0-.048-.02,6.009,6.009,0,0,1-.627,1.094,24.752,24.752,0,0,0-.807-2.4c-.029-.072-.137-.023-.111.05.277.768.51,1.548.721,2.334a7.5,7.5,0,0,1-1.642-1.02c-.023-.022-.062.009-.039.034a4.628,4.628,0,0,0,.89.691,6.16,6.16,0,0,0,.865.567q.167.635.316,1.274a2.38,2.38,0,0,1-1.388.087,2.353,2.353,0,0,1-1.405-1.132c-.037-.067-.148-.015-.109.052a2.677,2.677,0,0,0,1.289,1.138,2.524,2.524,0,0,0,1.654.03q.173.738.337,1.48a11.748,11.748,0,0,1-1.481-.305,16.6,16.6,0,0,1-2.089-.854.061.061,0,0,0-.046.112,17.381,17.381,0,0,0,1.973.856,8.213,8.213,0,0,0,1.683.368l.017.078-.009.02a.079.079,0,0,0,.037.105q.158.709.32,1.418c.007.03.015.059.022.089-1.214.007-3.079-.092-3.752-1.191-.064-.1-.214,0-.136.1.907,1.175,2.621,1.085,3.949,1.339q.194.8.411,1.588a6.518,6.518,0,0,1-2.236-.089,4.511,4.511,0,0,1-2.1-.816c-.016-.015-.038.01-.023.026a4.393,4.393,0,0,0,1.954.832,5.311,5.311,0,0,0,2.461.286.144.144,0,0,0,.028.066q.141.5.286,1a6.123,6.123,0,0,1-4.436-.289c-.005,0-.009,0,0,.008a4.386,4.386,0,0,0,2.468.635,5.42,5.42,0,0,0,2.022-.181q.271.924.546,1.846c-.618.049-1.22.214-1.839.248a4.388,4.388,0,0,1-2.548-.7c-.046-.028-.1.039-.052.069,1.464.946,2.856.775,4.507.616q.223.757.436,1.517a5.627,5.627,0,0,1-4.15-.426c-.077-.054-.166.063-.089.117a4.156,4.156,0,0,0,2.306.61,5.644,5.644,0,0,0,1.987-.108l.014.05c.2.731.381,1.467.549,2.207-1.448.277-2.732-.293-4.092-.753-.1-.032-.153.111-.058.145,1.4.5,2.7,1.1,4.2.824q.2.9.383,1.812a6.612,6.612,0,0,1-3.838-.636c-.08-.041-.128.087-.051.128a7.1,7.1,0,0,0,3.936.743q.193.977.373,1.954a4.743,4.743,0,0,1-3.535-.52c-.026-.014-.05.031-.024.045a4.653,4.653,0,0,0,3.6.713c.038.208.077.416.115.624.024.126.046.254.069.382a7.108,7.108,0,0,1-2.883-.038c-.027-.007-.035.034-.009.042a6.772,6.772,0,0,0,2.925.189c.067.394.134.8.205,1.212a5.355,5.355,0,0,0-.778.026,5.134,5.134,0,0,1-1.359-.121c-.043,0-.059.062-.015.068a5.346,5.346,0,0,0,1.215.194c.323-.024.643-.013.963-.019a12.862,12.862,0,0,0,1.5,4.646c.186.29.742.131.669-.236A27.331,27.331,0,0,0,775.389,137.265Z" transform="translate(-765.559 -110.368)" fill="#747ded"/>
      </g>
      <g id="Group_3036" data-name="Group 3036" transform="translate(6.922)">
        <path id="Path_4008" data-name="Path 4008" d="M784.557,122.169c.2,4.527,2.32,11.788-3.079,14.388-1.454.7-3.2.011-4.4-.981-1.568-1.3-2.7-4.6-3.167-6.535-.37-1.533-.279-3.37-.5-4.954-.24-1.712-.514-3.419-.741-5.133a18.589,18.589,0,0,1,5.593-16.331,29.315,29.315,0,0,0,3.567,4.979,20.348,20.348,0,0,1,1.635,2.432c.838,1.491.722,3.24.72,4.87C784.18,117.315,784.451,119.758,784.557,122.169Z" transform="translate(-772.481 -102.623)" fill="url(#linear-gradient-3)"/>
        <path id="Path_4009" data-name="Path 4009" d="M780.551,136.945c-.051-.371-.1-.743-.141-1.116a4.773,4.773,0,0,0,1.787-1.179,10.754,10.754,0,0,0,2.056-2.686c.031-.052-.056-.1-.091-.054a11.933,11.933,0,0,1-2.071,2.346,7.285,7.285,0,0,1-1.723,1.189q-.074-.669-.128-1.34a5.561,5.561,0,0,0,1.727-1.4,23.049,23.049,0,0,0,2.263-2.85c.009-.011-.008-.023-.016-.013-1.135,1.361-2.321,3.189-4,3.948-.043-.561-.08-1.122-.1-1.683l0-.088c1.905-1.029,2.878-2.973,4.11-4.657.02-.027-.018-.063-.039-.036-1.234,1.58-2.332,3.3-4.082,4.361-.028-.8-.049-1.606-.069-2.408a11.2,11.2,0,0,0,3.775-4.423.027.027,0,0,0-.047-.027,14.462,14.462,0,0,1-3.736,4.106c-.02-.794-.041-1.588-.071-2.382a17.335,17.335,0,0,0,2.08-1.744,6.675,6.675,0,0,0,1.372-2.336.037.037,0,0,0-.071-.023c-.656,1.741-2.093,2.594-3.4,3.753-.031-.739-.073-1.478-.13-2.217,1.44-1.344,3.042-2.657,3.544-4.661.005-.02-.024-.031-.03-.011-.595,1.875-2.173,3.017-3.544,4.3-.011-.132-.019-.263-.032-.394-.063-.683-.133-1.365-.2-2.046a16.594,16.594,0,0,0,2.365-2.185,5.392,5.392,0,0,0,1.312-1.846.037.037,0,0,0-.07-.026c-.573,1.512-2.35,2.751-3.638,3.761q-.111-1.032-.222-2.064c1.364-1.381,3.123-2.4,3.67-4.4a.048.048,0,0,0-.092-.029c-.621,1.863-2.3,2.814-3.612,4.113q-.067-.641-.13-1.28a10.025,10.025,0,0,0,3.751-4.849.081.081,0,0,0-.153-.05,10.056,10.056,0,0,1-3.63,4.56c-.065-.693-.126-1.385-.175-2.079a.206.206,0,0,0,.011-.065,10.278,10.278,0,0,0,1.924-1.759,6.269,6.269,0,0,0,1.611-2.437c.033-.105-.136-.151-.165-.045-.424,1.574-2.023,2.961-3.408,3.871-.016-.254-.034-.507-.047-.761-.02-.38-.037-.76-.055-1.139.513-.586,1.25-.991,1.759-1.6a11.845,11.845,0,0,0,1.14-1.723.054.054,0,0,0-.09-.058,10.076,10.076,0,0,1-1.647,2.086c-.371.338-.826.592-1.177.948-.028-.621-.057-1.242-.091-1.863l.021-.01.024,0a.112.112,0,0,0,.094-.057,4.757,4.757,0,0,0,1.664-2.08.016.016,0,1,0-.027-.017,5.823,5.823,0,0,1-1.718,1.92h-.009l-.063.006c-.029-.505-.063-1.01-.1-1.513a.115.115,0,0,0,.069-.15,9.107,9.107,0,0,0,.969-1.371.032.032,0,0,0-.054-.035,7.472,7.472,0,0,1-1.015,1.184,31.016,31.016,0,0,0-.426-3.1c-.019-.1-.161-.06-.146.034.158,1,.26,2,.336,3a9.253,9.253,0,0,1-1.76-1.62c-.024-.033-.078,0-.056.032a5.762,5.762,0,0,0,.921,1.046,7.666,7.666,0,0,0,.921.89c.037.54.066,1.08.09,1.621a2.733,2.733,0,0,1-3.154-1.916c-.03-.091-.177-.054-.145.037a3.318,3.318,0,0,0,1.3,1.683,3.124,3.124,0,0,0,2,.419c.026.625.047,1.251.067,1.876a14.228,14.228,0,0,1-1.73-.713,20.554,20.554,0,0,1-2.342-1.521c-.082-.051-.164.073-.082.125a21.3,21.3,0,0,0,2.2,1.5,10.164,10.164,0,0,0,1.96.838l0,.1-.016.022a.1.1,0,0,0,.021.135c.018.6.037,1.2.061,1.8,0,.037,0,.075.006.112-1.477-.271-3.722-.824-4.285-2.316a.107.107,0,1,0-.191.1c.831,1.639,2.937,1.927,4.492,2.542q.05,1.014.131,2.026a8.062,8.062,0,0,1-2.7-.626,5.581,5.581,0,0,1-2.364-1.477c-.016-.023-.049,0-.034.025a5.445,5.445,0,0,0,2.183,1.465,6.572,6.572,0,0,0,2.925.917.188.188,0,0,0,.02.087q.054.642.116,1.281a7.574,7.574,0,0,1-5.327-1.378c-.005-.005-.011,0-.007.008a5.435,5.435,0,0,0,2.854,1.344,6.712,6.712,0,0,0,2.5.249q.115,1.185.236,2.369c-.763-.083-1.534-.021-2.294-.123a5.429,5.429,0,0,1-2.933-1.446c-.051-.045-.13.024-.08.072,1.56,1.488,3.293,1.6,5.337,1.792q.1.972.178,1.945c-1.61.094-3.832-.341-4.946-1.478-.082-.084-.217.037-.135.121a5.129,5.129,0,0,0,2.661,1.275,6.942,6.942,0,0,0,2.441.329l.006.064c.075.936.123,1.872.156,2.81-1.824,0-3.254-.988-4.8-1.862-.107-.061-.211.1-.1.162,1.585.929,3.032,1.959,4.914,1.975q.036,1.145.045,2.291a8.17,8.17,0,0,1-4.517-1.662c-.089-.068-.177.077-.093.144a8.8,8.8,0,0,0,4.613,1.815q.009,1.23,0,2.461a5.864,5.864,0,0,1-4.176-1.451c-.029-.022-.068.027-.04.05,1.11.935,2.685,1.941,4.215,1.7q0,.393,0,.786,0,.237-.006.48a8.779,8.779,0,0,1-3.495-.715c-.032-.014-.051.034-.021.05a8.4,8.4,0,0,0,3.512.907c-.009.494-.022,1-.031,1.521a6.468,6.468,0,0,0-.952-.148,6.416,6.416,0,0,1-1.624-.462c-.052-.016-.087.06-.034.078a6.632,6.632,0,0,0,1.432.518c.4.045.785.133,1.175.2a15.9,15.9,0,0,0,.744,6c.159.4.873.33.869-.132A34.087,34.087,0,0,0,780.551,136.945Z" transform="translate(-772.481 -102.623)" fill="#747ded"/>
      </g>
      <path id="Path_4010" data-name="Path 4010" d="M787.537,138.641l-.2,3.68-.313,5.73-.513,9.415H773.765l-.513-9.415-.313-5.73-.2-3.68Z" transform="translate(-765.559 -102.623)" fill="#95a8b5"/>
      <path id="Path_4011" data-name="Path 4011" d="M787.337,142.321l-.041.738-.041.764-.231,4.228H773.253l-.231-4.228-.041-.764-.041-.738Z" transform="translate(-765.559 -102.623)" fill="#a5b7c6"/>
      <path id="Path_4012" data-name="Path 4012" d="M787.3,143.059l-.041.764H773.022l-.041-.764Z" transform="translate(-765.559 -102.623)" fill="#95a8b5"/>
    </g>
  </g>
</svg>
