<svg id="Component_56_1" data-name="Component 56 – 1" xmlns="http://www.w3.org/2000/svg" width="203.715" height="143.286" viewBox="0 0 203.715 143.286">
  <ellipse id="Ellipse_504" data-name="Ellipse 504" cx="71.165" cy="5.101" rx="71.165" ry="5.101" transform="translate(35.715 133.084)" fill="#dfedfa"/>
  <g id="Group_2794" data-name="Group 2794" transform="translate(113.654 15.031)">
    <g id="Group_2791" data-name="Group 2791" transform="translate(0 0)">
      <g id="Group_2790" data-name="Group 2790" transform="translate(10.644 10.634)">
        <path id="Path_3592" data-name="Path 3592" d="M552.516,255.758c-.266-3.433-.391-6.878-.357-10.322s.223-6.863.587-10.276a94.07,94.07,0,0,1,1.642-10.176,84.071,84.071,0,0,1,2.779-9.832,74.817,74.817,0,0,1,4.043-9.432q.293-.57.6-1.135c.2-.371-.365-.71-.566-.335a75.558,75.558,0,0,0-4.227,9.4,82.764,82.764,0,0,0-2.964,9.866,94.182,94.182,0,0,0-1.8,10.224c-.415,3.436-.651,6.894-.726,10.354s.011,6.922.243,10.375q.043.64.092,1.28c.032.419.69.437.658.015Z" transform="translate(-551.496 -204.087)" fill="#324797"/>
      </g>
      <path id="Path_3593" data-name="Path 3593" d="M566.5,199.1a14.587,14.587,0,0,1,2.125-8.745,7,7,0,0,1,2.465-2.554,3.484,3.484,0,0,1,3.426-.068,3.541,3.541,0,0,1,1.452,3.389,7.632,7.632,0,0,1-1.544,3.522A12.906,12.906,0,0,1,566.5,199.1" transform="translate(-546.332 -187.309)" fill="#324797"/>
      <path id="Path_3594" data-name="Path 3594" d="M558.112,207.927a14.312,14.312,0,0,1-6.582-5.884,6.866,6.866,0,0,1-1.069-3.315,3.418,3.418,0,0,1,1.527-2.995,3.475,3.475,0,0,1,3.6.312,7.484,7.484,0,0,1,2.333,2.965,12.664,12.664,0,0,1,.188,8.916" transform="translate(-540.473 -190.257)" fill="#324797"/>
      <path id="Path_3595" data-name="Path 3595" d="M562.582,211.9a14.313,14.313,0,0,1,7.094-5.256,6.869,6.869,0,0,1,3.462-.376,3.418,3.418,0,0,1,2.624,2.1,3.474,3.474,0,0,1-1.034,3.466,7.483,7.483,0,0,1-3.376,1.685,12.661,12.661,0,0,1-8.77-1.619" transform="translate(-544.911 -194.219)" fill="#324797"/>
      <path id="Path_3596" data-name="Path 3596" d="M548.531,230.175a17.881,17.881,0,0,1-8.885-6.539,8.568,8.568,0,0,1-1.723-4,4.271,4.271,0,0,1,1.544-3.906,4.342,4.342,0,0,1,4.519-.039,9.357,9.357,0,0,1,3.253,3.412c1.8,2.9,2.2,8.114,1.292,11.068" transform="translate(-535.873 -197.478)" fill="#324797"/>
      <path id="Path_3597" data-name="Path 3597" d="M554.739,234.128a17.881,17.881,0,0,1,8.2-7.379,8.578,8.578,0,0,1,4.262-.878,4.272,4.272,0,0,1,3.513,2.3,4.34,4.34,0,0,1-.877,4.434,9.345,9.345,0,0,1-4,2.5c-3.207,1.18-8.392.515-11.1-.974" transform="translate(-542.04 -201.418)" fill="#324797"/>
      <path id="Path_3598" data-name="Path 3598" d="M545.773,256.129a15.014,15.014,0,0,1-8.585-3.479,7.2,7.2,0,0,1-2.23-2.894,3.586,3.586,0,0,1,.447-3.5,3.645,3.645,0,0,1,3.669-.968,7.859,7.859,0,0,1,3.354,2.1,13.283,13.283,0,0,1,3.345,8.738" transform="translate(-534.703 -208.49)" fill="#324797"/>
      <path id="Path_3599" data-name="Path 3599" d="M552.225,257.069a15.018,15.018,0,0,1,5.144-7.7,7.2,7.2,0,0,1,3.286-1.6,3.587,3.587,0,0,1,3.336,1.145,3.644,3.644,0,0,1,.206,3.789,7.855,7.855,0,0,1-2.737,2.86,13.287,13.287,0,0,1-9.234,1.508" transform="translate(-541.119 -209.43)" fill="#324797"/>
    </g>
    <g id="Group_2792" data-name="Group 2792" transform="translate(15.092 44.568)">
      <path id="Path_3600" data-name="Path 3600" d="M609.436,279.854l4.785,3.428a50.507,50.507,0,0,0,12.225-11.244l-2.66-3.132,4.253.977a43.108,43.108,0,0,0,5.835-11.4c-20.623,11.117-61.922,27.484-74.24,32.294,11.967,2.226,22.077,2.375,30.61,1.176l-1.207-3.8,4.532,3.247a58,58,0,0,0,17.554-6.246Z" transform="translate(-558.924 -257.939)" fill="#1e97c6"/>
      <path id="Path_3601" data-name="Path 3601" d="M633.483,258.105a100.252,100.252,0,0,0-15.393-.323l-3.9,5.746-.243-5.412a82.507,82.507,0,0,0-17.078,3.586l-.528,4.88-2.3-3.9a75.591,75.591,0,0,0-16.634,8.594l-.628,5.794-2.212-3.747c-11.083,8.392-16.05,17.014-16.05,17.014.24.046.472.084.711.128,12.318-4.81,53.617-21.176,74.24-32.294Z" transform="translate(-558.514 -257.624)" fill="#4eabe2"/>
    </g>
    <g id="Group_2793" data-name="Group 2793" transform="translate(11.568 6.492)">
      <path id="Path_3602" data-name="Path 3602" d="M594.545,227.362l5.787,1.08a50.511,50.511,0,0,0,6.314-15.363l-3.736-1.712,4.266-.917a43.086,43.086,0,0,0,.459-12.8c-13.975,18.8-44.458,51.119-53.58,60.693,11.784-3.052,21.006-7.2,28.228-11.9l-2.7-2.927,5.481,1.022a57.975,57.975,0,0,0,13.257-13.092Z" transform="translate(-553.357 -197.589)" fill="#f4cb82"/>
      <path id="Path_3603" data-name="Path 3603" d="M607.222,197.551a100.108,100.108,0,0,0-14.081,6.225l-1.1,6.857-2.511-4.8a82.522,82.522,0,0,0-13.953,10.48l1.588,4.645-3.739-2.559a75.584,75.584,0,0,0-11.43,14.829l1.885,5.515-3.591-2.458c-6.487,12.3-7.335,22.21-7.335,22.21.237-.06.463-.124.7-.185,9.123-9.574,39.606-41.889,53.58-60.693Z" transform="translate(-552.954 -197.551)" fill="#ffe4b7"/>
    </g>
  </g>
  <g id="Group_2799" data-name="Group 2799" transform="translate(0 61.529)">
    <g id="Group_2796" data-name="Group 2796" transform="translate(3.936 27.384)">
      <g id="Group_2795" data-name="Group 2795" transform="translate(12.017 4.406)">
        <path id="Path_3604" data-name="Path 3604" d="M431.19,310.855q-4.6,2.137-9.371,3.877c-3.168,1.149-6.389,2.154-9.653,2.993a92.373,92.373,0,0,1-9.923,1.988,82.605,82.605,0,0,1-10,.825,73.434,73.434,0,0,1-10.065-.475q-.626-.073-1.249-.158c-.411-.055-.528.58-.114.636a74.065,74.065,0,0,0,10.1.657,81.3,81.3,0,0,0,10.093-.666,92.406,92.406,0,0,0,10.022-1.86c3.3-.8,6.564-1.77,9.772-2.891s6.362-2.39,9.458-3.79q.573-.261,1.145-.526c.375-.174.165-.785-.212-.61Z" transform="translate(-380.56 -310.824)" fill="#324797"/>
      </g>
      <path id="Path_3605" data-name="Path 3605" d="M374.859,322.391a14.32,14.32,0,0,1-8.773,1.053,6.862,6.862,0,0,1-3.2-1.389,3.419,3.419,0,0,1-1.24-3.127,3.477,3.477,0,0,1,2.618-2.5,7.5,7.5,0,0,1,3.77.209,12.675,12.675,0,0,1,6.822,5.755" transform="translate(-361.6 -308.411)" fill="#324797"/>
      <path id="Path_3606" data-name="Path 3606" d="M386.552,326.412a14.051,14.051,0,0,1-3.148,8.077,6.741,6.741,0,0,1-2.681,2.123,3.357,3.357,0,0,1-3.279-.375,3.41,3.41,0,0,1-.951-3.421,7.345,7.345,0,0,1,1.925-3.165,12.433,12.433,0,0,1,8.135-3.239" transform="translate(-367.012 -312.124)" fill="#324797"/>
      <path id="Path_3607" data-name="Path 3607" d="M387.312,319.7a14.053,14.053,0,0,1-7.273-4.718,6.742,6.742,0,0,1-1.537-3.055,3.357,3.357,0,0,1,1.031-3.136,3.41,3.41,0,0,1,3.543-.24,7.343,7.343,0,0,1,2.71,2.526,12.432,12.432,0,0,1,1.526,8.622" transform="translate(-367.77 -305.448)" fill="#324797"/>
      <path id="Path_3608" data-name="Path 3608" d="M410.116,325.489a17.559,17.559,0,0,1-2.959,10.42,8.422,8.422,0,0,1-3.083,2.958,4.194,4.194,0,0,1-4.124-.077,4.262,4.262,0,0,1-1.59-4.143,9.173,9.173,0,0,1,2.02-4.165c2.048-2.657,6.705-4.815,9.735-4.994" transform="translate(-375.042 -311.788)" fill="#324797"/>
      <path id="Path_3609" data-name="Path 3609" d="M409.977,317.533a17.558,17.558,0,0,1-9.606-5.005,8.424,8.424,0,0,1-2.274-3.618,4.194,4.194,0,0,1,.91-4.023,4.26,4.26,0,0,1,4.378-.718,9.175,9.175,0,0,1,3.671,2.821c2.187,2.544,3.359,7.541,2.921,10.544" transform="translate(-374.905 -303.873)" fill="#324797"/>
      <path id="Path_3610" data-name="Path 3610" d="M435.033,319.69a14.745,14.745,0,0,1-.249,9.092,7.072,7.072,0,0,1-1.9,3.046,3.522,3.522,0,0,1-3.371.792,3.579,3.579,0,0,1-2.152-3.042,7.708,7.708,0,0,1,.78-3.807,13.042,13.042,0,0,1,6.887-6.08" transform="translate(-385.671 -309.665)" fill="#324797"/>
      <path id="Path_3611" data-name="Path 3611" d="M432.552,314.133a14.75,14.75,0,0,1-8.854-2.082,7.073,7.073,0,0,1-2.6-2.473,3.52,3.52,0,0,1-.094-3.462,3.579,3.579,0,0,1,3.414-1.492,7.707,7.707,0,0,1,3.571,1.535,13.044,13.044,0,0,1,4.562,7.974" transform="translate(-383.201 -304.141)" fill="#324797"/>
    </g>
    <g id="Group_2797" data-name="Group 2797">
      <path id="Path_3612" data-name="Path 3612" d="M387.933,266.717l-1.474-5.7a50.509,50.509,0,0,0-16.591.79l.032,4.109-2.637-3.477a43.081,43.081,0,0,0-11.785,5.006c22.954,4.691,65.14,18.611,77.677,22.817-7.757-9.381-15.419-15.977-22.736-20.529l-1.508,3.686-1.4-5.4a57.988,57.988,0,0,0-17.475-6.461Z" transform="translate(-355.422 -260.67)" fill="#1e97c6"/>
      <path id="Path_3613" data-name="Path 3613" d="M355.39,271.4A100.228,100.228,0,0,0,367,281.516l6.677-1.909-3.284,4.309a82.568,82.568,0,0,0,15.4,8.2l3.535-3.406-.734,4.471a75.58,75.58,0,0,0,18.275,4.07l4.2-4.044-.7,4.294c13.886.666,23.225-2.767,23.225-2.767-.155-.189-.309-.366-.463-.553-12.537-4.207-54.724-18.126-77.677-22.817Z" transform="translate(-355.39 -264.585)" fill="#4eabe2"/>
    </g>
    <g id="Group_2798" data-name="Group 2798" transform="translate(30.213 27.433)">
      <path id="Path_3614" data-name="Path 3614" d="M416.558,324.719l-4.517-1.454a40.7,40.7,0,0,0-6.616,11.641l2.812,1.75-3.505.3a34.737,34.737,0,0,0-1.673,10.186c13.093-13.612,40.766-36.343,49.037-43.068A76.567,76.567,0,0,0,428.31,310.7l1.861,2.616-4.278-1.377a46.754,46.754,0,0,0-11.936,9.117Z" transform="translate(-403.057 -303.994)" fill="#f4cb82"/>
      <path id="Path_3615" data-name="Path 3615" d="M403.061,347.148a80.745,80.745,0,0,0,11.9-3.542l1.58-5.37,1.519,4.095a66.563,66.563,0,0,0,12.227-6.958l-.8-3.876,2.729,2.428a60.916,60.916,0,0,0,10.653-10.692l-.945-4.6,2.621,2.332a51.984,51.984,0,0,0,8.131-17.012c-.2.023-.383.052-.577.077-8.271,6.726-35.944,29.457-49.037,43.068Z" transform="translate(-403.058 -303.95)" fill="#ffe4b7"/>
    </g>
  </g>
  <g id="Group_2800" data-name="Group 2800" transform="translate(99.59 36.5)">
    <path id="Path_3616" data-name="Path 3616" d="M528.026,222.426a1.245,1.245,0,1,1-1.245-1.245A1.244,1.244,0,0,1,528.026,222.426Z" transform="translate(-517.282 -221.181)" fill="#4eabe2"/>
    <path id="Path_3617" data-name="Path 3617" d="M513.937,233.929a.834.834,0,1,1-1.18,0A.835.835,0,0,1,513.937,233.929Z" transform="translate(-512.513 -225.759)" fill="#324797"/>
    <path id="Path_3618" data-name="Path 3618" d="M533.548,235.163a.834.834,0,1,1-1.18,0A.834.834,0,0,1,533.548,235.163Z" transform="translate(-519.694 -226.211)" fill="#324797"/>
  </g>
  <g id="Group_2801" data-name="Group 2801" transform="translate(158.186 97.809)">
    <path id="Path_3619" data-name="Path 3619" d="M606.811,318.063a1.245,1.245,0,1,1-1.692.484A1.245,1.245,0,0,1,606.811,318.063Z" transform="translate(-604.961 -317.906)" fill="#324797"/>
    <path id="Path_3620" data-name="Path 3620" d="M608.059,331.022a.834.834,0,1,1-.574,1.031A.835.835,0,0,1,608.059,331.022Z" transform="translate(-605.874 -322.697)" fill="#324797"/>
    <path id="Path_3621" data-name="Path 3621" d="M620.541,319.752a.835.835,0,1,1-.573,1.031A.835.835,0,0,1,620.541,319.752Z" transform="translate(-610.444 -318.571)" fill="#324797"/>
  </g>
  <g id="Group_2802" data-name="Group 2802" transform="translate(41.727 52.347)">
    <path id="Path_3622" data-name="Path 3622" d="M423.072,246.338a1.245,1.245,0,1,1-1.692.483A1.244,1.244,0,0,1,423.072,246.338Z" transform="translate(-421.222 -246.181)" fill="#c4dffa"/>
    <path id="Path_3623" data-name="Path 3623" d="M424.32,259.3a.834.834,0,1,1-.573,1.031A.834.834,0,0,1,424.32,259.3Z" transform="translate(-422.135 -250.972)" fill="#c4dffa"/>
    <path id="Path_3624" data-name="Path 3624" d="M436.8,248.027a.834.834,0,1,1-.573,1.031A.834.834,0,0,1,436.8,248.027Z" transform="translate(-426.706 -246.845)" fill="#c4dffa"/>
  </g>
  <g id="Group_2806" data-name="Group 2806" transform="translate(54.943 51.993)">
    <path id="Path_3625" data-name="Path 3625" d="M529.245,259.981c.027-.314.046-.631.046-.951,0-7.4-7.458-13.406-16.657-13.406s-16.657,6-16.657,13.406c0,.321.018.637.046.951Z" transform="translate(-461.812 -245.624)" fill="none" stroke="#51a9de" stroke-width="7"/>
    <g id="Group_2805" data-name="Group 2805" transform="translate(0 12.306)">
      <g id="Group_2803" data-name="Group 2803">
        <rect id="Rectangle_737" data-name="Rectangle 737" width="98.845" height="74.02" rx="10.677" transform="translate(0 0)" fill="#c4dffa"/>
        <path id="Path_3626" data-name="Path 3626" d="M538.485,323.787c-2.113,8-4.784,17.632-12.659,21.815-7.678,4.079-16.741,4.061-25.162,5.028-12.223,1.4-24.366,1.809-36.646,2.193-6.83.214-13.9,1.18-20.782.7a6.392,6.392,0,0,0,5.659,3.42H534.95a6.4,6.4,0,0,0,6.395-6.395V313.886C540.285,317.15,539.371,320.436,538.485,323.787Z" transform="translate(-442.5 -282.925)" fill="#afd2ef"/>
        <path id="Path_3627" data-name="Path 3627" d="M535.761,297.508,491.894,306.9a5.888,5.888,0,0,1-2.514-.009l-42.189-9.354a6.835,6.835,0,0,1-5.116-6.81V271.99a6.69,6.69,0,0,1,6.395-6.951h86.056a6.69,6.69,0,0,1,6.395,6.951v18.7A6.831,6.831,0,0,1,535.761,297.508Z" transform="translate(-442.075 -265.039)" fill="#afd2ef"/>
        <path id="Path_3628" data-name="Path 3628" d="M535.761,294.912l-43.868,8.642a6.391,6.391,0,0,1-2.514-.008l-42.189-8.606a6.394,6.394,0,0,1-5.116-6.265v-17.24a6.4,6.4,0,0,1,6.395-6.395h86.056a6.4,6.4,0,0,1,6.395,6.395v17.2A6.4,6.4,0,0,1,535.761,294.912Z" transform="translate(-442.075 -265.039)" fill="#dfedfa"/>
      </g>
      <g id="Group_2804" data-name="Group 2804" transform="translate(43.5 28.211)">
        <path id="Path_3629" data-name="Path 3629" d="M518.027,328.7h0a7.322,7.322,0,0,1-7.322-7.322v-4.508a7.322,7.322,0,0,1,7.322-7.322h0a7.322,7.322,0,0,1,7.322,7.322v4.508A7.322,7.322,0,0,1,518.027,328.7Z" transform="translate(-510.705 -309.547)" fill="#51a9de"/>
        <path id="Path_3630" data-name="Path 3630" d="M525.5,317.595a10.05,10.05,0,0,1-13.44,10.169,7.321,7.321,0,0,0,13.785-3.439v-4.508A7.324,7.324,0,0,0,525.5,317.595Z" transform="translate(-511.201 -312.494)" fill="#3099ce"/>
      </g>
    </g>
  </g>
  <g id="Group_2823" data-name="Group 2823" transform="translate(57.561)">
    <g id="Group_2810" data-name="Group 2810" transform="translate(5.297 42.805)">
      <g id="Group_2807" data-name="Group 2807" transform="translate(58.572 47.689)">
        <path id="Path_3631" data-name="Path 3631" d="M546.97,309.081a10.351,10.351,0,0,1,1.638,2.784c.485,1.415.714,2.71,2.939,2.157s1.321-1.755,6.874-3.424a12.276,12.276,0,0,0,4.179-3.046s.62-1.564-1.186-.782a40.339,40.339,0,0,1-8.492,1.86c-1.213.014-2.189-.034-3.127-2.264" transform="translate(-546.97 -306.366)" fill="#fbb88e"/>
        <path id="Path_3632" data-name="Path 3632" d="M562.284,306.877a23.418,23.418,0,0,1-3.473,1,2.9,2.9,0,0,1-.654.8,13.229,13.229,0,0,1-8.327,3.032,4.713,4.713,0,0,1-.48-.065c.044.108.092.216.13.326.485,1.415.714,2.709,2.938,2.157s1.322-1.755,6.874-3.424a12.278,12.278,0,0,0,4.179-3.046S564.09,306.1,562.284,306.877Z" transform="translate(-547.841 -306.473)"/>
      </g>
      <g id="Group_2808" data-name="Group 2808" transform="translate(25.549 49.392)">
        <path id="Path_3633" data-name="Path 3633" d="M496.92,309.053a10.35,10.35,0,0,1-1.136,3.024c-.8,1.268-1.657,2.259.171,3.641s2.2-.076,6.984,3.192a12.278,12.278,0,0,0,5,1.334s1.605-.5-.138-1.414a40.361,40.361,0,0,1-6.786-5.433c-.773-.935-1.35-1.723-.205-3.856" transform="translate(-494.87 -309.053)" fill="#fbb88e"/>
        <path id="Path_3634" data-name="Path 3634" d="M507.8,320.4a23.486,23.486,0,0,1-2.962-2.073,2.891,2.891,0,0,1-1.036,0,13.232,13.232,0,0,1-7.593-4.569,4.588,4.588,0,0,1-.252-.415c-.056.1-.11.208-.172.306-.8,1.268-1.657,2.259.171,3.641s2.2-.076,6.984,3.192a12.277,12.277,0,0,0,5,1.334S509.542,321.313,507.8,320.4Z" transform="translate(-494.87 -310.623)"/>
      </g>
      <g id="Group_2809" data-name="Group 2809">
        <path id="Path_3635" data-name="Path 3635" d="M474.493,238.1s2.007,7.314,6.044,7.962c5.421.869,23.264,1.689,21.391,8.052S489.7,284.452,489.7,284.452l-4.519-1s2.435-15.718,5.175-22.152,3.819-3.792-8.42-6.542-18.583-9.705-17.721-16.175" transform="translate(-458.069 -233.681)" fill="#152675"/>
        <path id="Path_3636" data-name="Path 3636" d="M457.548,235.6s-5.783,10.962-1.254,17.336c4.972,7,37.558,2.613,38.851,5.308,4.645,9.677,10.136,14.881,18.332,23.651l3.127-2.516S504.579,258,499.782,251.453c-3.816-5.21-25.375-4.467-25.772-9.478a62.987,62.987,0,0,0-2.318-10.849" transform="translate(-454.561 -231.127)" fill="#33499b"/>
        <path id="Path_3637" data-name="Path 3637" d="M482.112,250.218s-12.381-2.442-13.306-1.176.849,1.936,2.156,2.2.623,1.105,1.083,2.079,2.141,1.54,3.843.548S482.112,250.218,482.112,250.218Z" transform="translate(-459.683 -237.554)" fill="#152675"/>
      </g>
    </g>
    <g id="Group_2822" data-name="Group 2822" transform="translate(0)">
      <g id="Group_2811" data-name="Group 2811" transform="translate(18.483 1.665)">
        <path id="Path_3638" data-name="Path 3638" d="M477.111,166.221a6.083,6.083,0,0,1,4.667,2.931c1.2,2.037,1.088,4.547,1.507,6.871.444,2.464,1.509,4.788,1.9,7.262s-.075,5.332-2.076,6.836a3.65,3.65,0,0,1-2.423.782,4.432,4.432,0,0,1-2.585-1.3,8.688,8.688,0,0,1-2.648-7.508" transform="translate(-475.365 -166.221)" fill="#202600"/>
        <path id="Path_3639" data-name="Path 3639" d="M476.277,178.808l-.826,7.9a8.688,8.688,0,0,0,2.648,7.508,4.432,4.432,0,0,0,2.585,1.3,3.654,3.654,0,0,0,2.423-.782,5.594,5.594,0,0,0,2.01-3.439C478.778,189.849,477.957,184.191,476.277,178.808Z" transform="translate(-475.365 -170.83)"/>
      </g>
      <g id="Group_2812" data-name="Group 2812" transform="translate(9.889 12.94)">
        <path id="Path_3640" data-name="Path 3640" d="M472.159,184.944c-.25.222-.2.61-.3.93-1.938,6.11-.832,6.279.546,9.309.066.143.026-.156,0,0-.03.184.6.62-1.286,1.116-4.029,1.057-5.2,1.56-9.314.905a14.367,14.367,0,0,0,2.45-12.539" transform="translate(-461.807 -184.25)" fill="#f2a479"/>
        <path id="Path_3641" data-name="Path 3641" d="M467.426,187.923a6.414,6.414,0,0,0,4.739.616l.138-.1a28.161,28.161,0,0,1,.853-3.215c.1-.319.047-.707.3-.93l-7.9-.279c.375,1.322-.18,1.535-.21,2.906A16.975,16.975,0,0,1,467.426,187.923Z" transform="translate(-463.101 -184.01)" fill="#e59065"/>
      </g>
      <g id="Group_2817" data-name="Group 2817" transform="translate(3.434 20.84)">
        <path id="Path_3642" data-name="Path 3642" d="M481.437,201.32s3.167.9,4.106,6.294-.571,12.469,4.12,20.657l2.422,5.069s-6.056-.463-6.728-.933c-2.423-1.694-3.278-6.852-4.851-13.849C477.208,203.894,481.437,201.32,481.437,201.32Z" transform="translate(-461.738 -198.248)" fill="#ffe4b7"/>
        <path id="Path_3643" data-name="Path 3643" d="M463.214,196.474s3.615,3.591,6.272.238c0,0,5.59,6.83,6.018,13.653s-.417,5.493-.645,16.308a19.758,19.758,0,0,1-17.388-1.183,73.308,73.308,0,0,0,.706-14.3C457.693,204.417,463.214,196.474,463.214,196.474Z" transform="translate(-453.764 -196.474)" fill="#ffe4b7"/>
        <path id="Path_3644" data-name="Path 3644" d="M467.552,225.142a8.951,8.951,0,0,1-4.1-5.521c-1.574-5.224.909-11.944-2.447-16.479-.051-.07-.093-.139-.139-.209-1.435,2.91-2.948,6.939-2.684,10.624a73.308,73.308,0,0,1-.706,14.3,19.758,19.758,0,0,0,17.388,1.183c.013-.616.063-2.229.08-2.769C472.486,225.569,469.839,226.487,467.552,225.142Z" transform="translate(-453.764 -198.839)" fill="#f4cb82"/>
        <path id="Path_3645" data-name="Path 3645" d="M480.471,224.286l-14.243,3.4a.925.925,0,0,1-1.14-.928l.732-24.15a.925.925,0,0,1,.776-.885l14.707-2.405a.926.926,0,0,1,1.074.962l-1.2,23.158A.925.925,0,0,1,480.471,224.286Z" transform="translate(-456.553 -197.509)" fill="#314c9a"/>
        <path id="Path_3646" data-name="Path 3646" d="M465.69,196.474s3.689,2.371,6.272.238l1.458,2.013s-1.523,1.54-3.865-.6c0,0-1.412,3.028-5.32.683l1.149-1.876" transform="translate(-456.241 -196.474)" fill="#f4cb82"/>
        <g id="Group_2816" data-name="Group 2816" transform="translate(0 1.639)">
          <g id="Group_2815" data-name="Group 2815" transform="translate(15.264 11.46)">
            <path id="Path_3647" data-name="Path 3647" d="M475.7,223.929a5.807,5.807,0,0,0,3.13-2.63c.822-1.846,1.843-2.219,2.651-3.409,1.237-1.824,1.066.06-.17,1.694,0,0,.041.608,2.6-1.217,1.87-1.332,1.919-.12,1.708.588s-1.529,2.98-5.949,4.853a8.792,8.792,0,0,0-3.588,2.563" transform="translate(-475.705 -217.141)" fill="#fbb88e"/>
            <g id="Group_2813" data-name="Group 2813" transform="translate(6.305 1.033)">
              <path id="Path_3648" data-name="Path 3648" d="M485.7,221.007l.044-.015c.041-.015.082-.03.124-.047.069-.027.137-.056.2-.086q.131-.058.26-.122c.107-.053.213-.108.318-.166q.184-.1.363-.212c.137-.085.272-.173.4-.264q.223-.155.437-.321c.157-.121.309-.247.458-.378s.319-.288.472-.441l.115-.116c.036-.037-.021-.094-.057-.056q-.228.234-.472.454-.224.2-.46.391-.212.17-.433.327-.2.144-.411.276c-.122.078-.247.153-.373.224-.108.061-.217.12-.328.176-.09.046-.181.09-.273.132l-.115.051-.027.011-.006,0c.012-.005,0,0,0,0l-.013.006-.046.019-.142.055-.063.022h0c-.049.015-.028.093.022.077Z" transform="translate(-485.652 -218.772)" fill="#f2a479"/>
            </g>
            <g id="Group_2814" data-name="Group 2814" transform="translate(7.261 1.485)">
              <path id="Path_3649" data-name="Path 3649" d="M487.22,221.87l.034-.017.1-.055c.053-.03.1-.061.155-.094.069-.044.137-.089.2-.136q.129-.091.253-.188c.1-.075.19-.152.283-.232s.208-.186.309-.283.224-.223.331-.34.234-.262.345-.4q.184-.226.354-.463l.085-.121a.04.04,0,0,0-.015-.055.041.041,0,0,0-.055.014c-.057.083-.116.165-.176.245s-.112.148-.171.222c-.111.141-.226.277-.345.411s-.219.237-.333.351-.207.2-.315.3-.19.165-.288.243l-.067.053-.016.012h0l-.009.007-.032.024-.123.091c-.071.051-.142.1-.215.147-.054.035-.11.07-.167.1-.037.022-.074.043-.112.063l-.05.026h0a.04.04,0,0,0-.014.055.041.041,0,0,0,.055.014Z" transform="translate(-487.16 -219.484)" fill="#f2a479"/>
            </g>
          </g>
          <path id="Path_3650" data-name="Path 3650" d="M458.306,199.442s1.919,1.727,1.193,6.979-2.471,9.653-.606,11.918c0,0,6.62-1.89,9.976-2.9l1.041,3.082a28.92,28.92,0,0,1-14.418,5.866,2.632,2.632,0,0,1-2.651-1.661c-1.029-2.616-2.265-8.4.312-18.679C453.151,204.049,455.106,197.427,458.306,199.442Z" transform="translate(-451.622 -199.06)" fill="#ffe4b7"/>
        </g>
      </g>
      <g id="Group_2821" data-name="Group 2821">
        <g id="Group_2819" data-name="Group 2819" transform="translate(10.251 2.329)">
          <path id="Path_3651" data-name="Path 3651" d="M471.544,167.269c1.742.925,3.179,2.31,3.279,4.28.144,2.84.739,4.06.234,5.966a10.251,10.251,0,0,1-2.09,3.975,2.491,2.491,0,0,1-2.565,1.075,9.217,9.217,0,0,1-3.451-1.707c-2.54-1.9-3.6-4.449-4.574-7.47" transform="translate(-462.378 -167.269)" fill="#fbb88e"/>
          <path id="Path_3652" data-name="Path 3652" d="M477.416,178.7s-.48.569.472,2.67a2.144,2.144,0,0,1-1.183.3" transform="translate(-467.624 -171.455)" fill="none" stroke="#f2a479" stroke-width="4"/>
          <g id="Group_2818" data-name="Group 2818" transform="translate(9.869 5.208)">
            <path id="Path_3653" data-name="Path 3653" d="M478.189,176.212c.02-.012.04-.023.061-.034.056-.03.112-.059.169-.086s.089-.041.135-.06l-.038.016c.091-.038.183-.072.276-.1a3.061,3.061,0,0,1,.326-.087c.066-.015.133-.026.2-.035l-.042.006a2.258,2.258,0,0,1,.434-.017c.042,0,.084.007.126.013l-.042-.006a1.719,1.719,0,0,1,.328.077c.031.011.061.023.092.035l-.039-.016a1.541,1.541,0,0,1,.34.2l-.032-.025a1.762,1.762,0,0,1,.2.186.16.16,0,0,0,.226,0,.161.161,0,0,0,.047-.113.172.172,0,0,0-.047-.113,1.837,1.837,0,0,0-.347-.29,1.76,1.76,0,0,0-.376-.177,1.879,1.879,0,0,0-.392-.082,1.967,1.967,0,0,0-.351-.008,2.842,2.842,0,0,0-.374.049c-.1.021-.207.048-.309.079s-.18.06-.267.1-.168.069-.25.108c-.049.023-.1.048-.147.075-.023.012-.046.025-.067.038l0,0a.164.164,0,0,0-.074.1.162.162,0,0,0,.016.124.16.16,0,0,0,.1.074.165.165,0,0,0,.124-.016Z" transform="translate(-477.948 -175.486)" fill="#89502f"/>
          </g>
          <path id="Path_3654" data-name="Path 3654" d="M474.5,185.044h3S476.359,187.38,474.5,185.044Z" transform="translate(-466.816 -173.778)" fill="#fff"/>
          <path id="Path_3655" data-name="Path 3655" d="M480.56,178.621a.449.449,0,1,1-.434-.567A.513.513,0,0,1,480.56,178.621Z" transform="translate(-468.719 -171.218)" fill="#89502f"/>
        </g>
        <g id="Group_2820" data-name="Group 2820">
          <path id="Path_3656" data-name="Path 3656" d="M467.332,165.555c-1.692-2.146-5.637-2.182-7.021-1.73a8.366,8.366,0,0,0-5.625,4.418c-1.242,2.059-1.242,6.412-3.079,7.965A21.5,21.5,0,0,0,447.96,180a9.288,9.288,0,0,0-1.683,6.469,7.728,7.728,0,0,0,3.972,5.638,5.529,5.529,0,0,0,6.227-1.1,9.705,9.705,0,0,0,3.122-7.815c-.084-1.617-.492-3.348.259-4.784.7-1.346,2.163-2.084,3.359-3.02,3.88-3.036,5.013-7.271,4.117-9.835" transform="translate(-446.205 -163.594)" fill="#202600"/>
          <path id="Path_3657" data-name="Path 3657" d="M461.97,179.561a13.716,13.716,0,0,0-5.632,6.276c-2.2,4.321-4.541,6.563-8.538,7.446a7.434,7.434,0,0,0,3.032,2.961,5.529,5.529,0,0,0,6.227-1.1,9.705,9.705,0,0,0,3.122-7.815c-.084-1.618-.492-3.348.259-4.784.7-1.346,2.163-2.084,3.359-3.02a11.929,11.929,0,0,0,3.657-4.631A16.351,16.351,0,0,1,461.97,179.561Z" transform="translate(-446.789 -167.733)"/>
        </g>
      </g>
    </g>
  </g>
</svg>
