<svg id="Component_58_1" data-name="Component 58 – 1" xmlns="http://www.w3.org/2000/svg" width="144.575" height="148.745" viewBox="0 0 144.575 148.745">
  <g id="Group_2949" data-name="Group 2949" transform="translate(5.84)">
    <g id="Group_2946" data-name="Group 2946" transform="translate(100.503 25.881)">
      <g id="Group_2945" data-name="Group 2945">
        <path id="Path_3918" data-name="Path 3918" d="M617.141,48.592a2.263,2.263,0,0,1-.154.817h-8.774l-.015-.018a.043.043,0,0,1-.006.018s-.236,0-.661.007c-4.344.024-28.622.159-28.622-.055a4.357,4.357,0,0,1,4.225-4.479,4,4,0,0,1,1.545.308,2.49,2.49,0,0,1,1.624-.6,2.568,2.568,0,0,1,2.146,1.192l.018-.039a5,5,0,0,1,2.475-2.306,7.451,7.451,0,0,1,3.151-.676,7.938,7.938,0,0,1,.984.061,7.216,7.216,0,0,1,6.387-4.027A7.391,7.391,0,0,1,608.593,45a2.474,2.474,0,0,1,1.364-.411,2.58,2.58,0,0,1,2.309,1.485,4.186,4.186,0,0,1,1.422-.244,3.611,3.611,0,0,1,3.1,1.551A2.321,2.321,0,0,1,617.141,48.592Z" transform="translate(-578.909 -38.791)" fill="#dee5f8"/>
      </g>
      <path id="Path_3919" data-name="Path 3919" d="M616.791,47.378A12.9,12.9,0,0,0,613.3,47.1l-7.839.09c-3.13.036-5.919-1.754-9.118-1.464-1.533.142-3.094.767-4.567.854a4.66,4.66,0,0,1-3.311-.845,5,5,0,0,1,2.475-2.306,7.451,7.451,0,0,1,3.151-.676,7.938,7.938,0,0,1,.984.061,7.216,7.216,0,0,1,6.387-4.027A7.391,7.391,0,0,1,608.593,45a2.474,2.474,0,0,1,1.364-.411,2.58,2.58,0,0,1,2.309,1.485,4.186,4.186,0,0,1,1.422-.244A3.611,3.611,0,0,1,616.791,47.378Z" transform="translate(-578.909 -38.791)" fill="#fff" opacity="0.4"/>
    </g>
    <g id="Group_2947" data-name="Group 2947" transform="translate(0 45.998)">
      <path id="Path_3920" data-name="Path 3920" d="M503.509,65.343a1.473,1.473,0,0,1-.1.537h-5.759a.023.023,0,0,1-.012-.012l0,.012s-19.227.124-19.227-.033a2.86,2.86,0,0,1,2.774-2.94,2.658,2.658,0,0,1,1.014.2,1.649,1.649,0,0,1,1.066-.4,1.688,1.688,0,0,1,1.409.782,3.647,3.647,0,0,1,2.677-1.878,4.989,4.989,0,0,1,1.03-.1,5.1,5.1,0,0,1,.646.039,4.735,4.735,0,0,1,4.192-2.644,4.855,4.855,0,0,1,4.681,4.075,1.618,1.618,0,0,1,.9-.269,1.7,1.7,0,0,1,1.515.975,2.743,2.743,0,0,1,.935-.163A2.082,2.082,0,0,1,503.509,65.343Z" transform="translate(-478.406 -58.908)" fill="#dee5f8"/>
      <path id="Path_3921" data-name="Path 3921" d="M503.509,65.343a1.473,1.473,0,0,1-.1.537h-3.339a7.791,7.791,0,0,0-.6-.969c-1.141-1.3-3.517-.259-4.893-1.31-.25-.19-.453-.44-.712-.615-.8-.532-1.862-.2-2.789.054a3.774,3.774,0,0,1-2.867-.091,1.838,1.838,0,0,1-.861-1.331,4.989,4.989,0,0,1,1.03-.1,5.1,5.1,0,0,1,.646.039,4.735,4.735,0,0,1,4.192-2.644,4.855,4.855,0,0,1,4.681,4.075,1.618,1.618,0,0,1,.9-.269,1.7,1.7,0,0,1,1.515.975,2.743,2.743,0,0,1,.935-.163A2.082,2.082,0,0,1,503.509,65.343Z" transform="translate(-478.406 -58.908)" fill="#fff" opacity="0.4"/>
    </g>
    <g id="Group_2948" data-name="Group 2948" transform="translate(6.133)">
      <path id="Path_3922" data-name="Path 3922" d="M521.595,23.154c0,.229-28.384.045-28.384.045a.027.027,0,0,1,0-.015l-.018.015h-8.5a2.2,2.2,0,0,1-.148-.791c0-1.482,1.5-2.68,3.345-2.68a4.081,4.081,0,0,1,1.379.235,2.508,2.508,0,0,1,2.24-1.436,2.4,2.4,0,0,1,1.319.4,7.164,7.164,0,0,1,6.911-6.012.586.586,0,0,1,.073,0,6.985,6.985,0,0,1,6.118,3.9,7.61,7.61,0,0,1,.954-.06c2.535,0,4.693,1.222,5.469,2.928a2.49,2.49,0,0,1,2.079-1.153,2.42,2.42,0,0,1,1.576.585,3.879,3.879,0,0,1,1.5-.3,4.086,4.086,0,0,1,3.706,2.493A4.508,4.508,0,0,1,521.595,23.154Z" transform="translate(-484.539 -12.91)" fill="#dee5f8"/>
      <path id="Path_3923" data-name="Path 3923" d="M521.205,21.306a13.917,13.917,0,0,1-4.08.513c-3.191.07-6.583.088-9.3-1.587a22.927,22.927,0,0,0-2.786-1.787c-1.7-.733-3.875-.537-5.125-1.9a2.869,2.869,0,0,1-.335-3.327,2.259,2.259,0,0,1,.224-.31,6.985,6.985,0,0,1,6.118,3.9,7.61,7.61,0,0,1,.954-.06c2.535,0,4.693,1.222,5.469,2.928a2.49,2.49,0,0,1,2.079-1.153,2.42,2.42,0,0,1,1.576.585,3.879,3.879,0,0,1,1.5-.3A4.086,4.086,0,0,1,521.205,21.306Z" transform="translate(-484.539 -12.91)" fill="#fff" opacity="0.4"/>
    </g>
  </g>
  <g id="Group_2963" data-name="Group 2963" transform="translate(0 0.882)">
    <g id="Group_2950" data-name="Group 2950" transform="translate(0 98.927)">
      <path id="Path_3924" data-name="Path 3924" d="M612.537,160.932l-113.88.589-26.09.134,11.571-23.143,11.933-10.487,16.272-5.062,7.532-10.244h34.233L567.52,123.9l20.065,6.509,11.723,11,.278.412,12.595,18.594Z" transform="translate(-472.567 -112.719)" fill="#1f3c88"/>
      <path id="Path_3925" data-name="Path 3925" d="M612.182,160.411l-8.715-.926-20.492-13.5-25.612-3.858L549.408,131.1l-1.146-8.017-10.4-2.626-4.024-7.737h20.272L567.52,123.9l20.065,6.509,11.723,11,.278.412Z" transform="translate(-472.567 -112.719)" fill="#dee5f8" opacity="0.1"/>
      <path id="Path_3926" data-name="Path 3926" d="M520.359,129.834l-16.875,9.884-4.827,21.8-26.09.134,11.571-23.143,11.933-10.487,16.272-5.062,7.532-10.244Z" transform="translate(-472.567 -112.719)" fill="#102048"/>
    </g>
    <g id="Group_2962" data-name="Group 2962" transform="translate(49.398)">
      <g id="Group_2951" data-name="Group 2951" transform="translate(21.142 92.28)">
        <path id="Path_3927" data-name="Path 3927" d="M547.472,108.886l.032-2.814-4.077.288-.117,2.326A14.166,14.166,0,0,0,547.472,108.886Z" transform="translate(-543.107 -106.072)" fill="#f9b384"/>
        <path id="Path_3928" data-name="Path 3928" d="M551.884,112.7a5.47,5.47,0,0,0-4.42-2.643l.008-1.174a14.166,14.166,0,0,1-4.162-.2l-.2,4.017Z" transform="translate(-543.107 -106.072)" fill="#102048"/>
      </g>
      <g id="Group_2952" data-name="Group 2952" transform="translate(0 92.376)">
        <path id="Path_3929" data-name="Path 3929" d="M527.239,109.16l-.373.852a8.484,8.484,0,0,0-4.9,2.691h8.553l.91-3.533A12.04,12.04,0,0,1,527.239,109.16Z" transform="translate(-521.965 -106.168)" fill="#102048"/>
        <path id="Path_3930" data-name="Path 3930" d="M531.428,109.17l.724-2.81-3.6-.192-1.309,2.992A12.04,12.04,0,0,0,531.428,109.17Z" transform="translate(-521.965 -106.168)" fill="#f9b384"/>
      </g>
      <path id="Path_3931" data-name="Path 3931" d="M549.354,65.181a115.4,115.4,0,0,1-1.442,41.9h-5.125c.612-9.107,1.079-19.932-.353-27.1l-9.778,27.22h-5.6l9.226-38.753,3.171-6.214,7.432-.9Z" transform="translate(-521.965 -13.792)" fill="#102048"/>
      <path id="Path_3932" data-name="Path 3932" d="M556.177,35.39l1.377-4.132,3.729.871c.281,1.383-1.394,3.483-2.64,5.055Z" transform="translate(-521.965 -13.792)" fill="#f9b384"/>
      <path id="Path_3933" data-name="Path 3933" d="M543.6,50.139l-4.294.05-.427-5.624-.05-.673,4.313-.038.154,2.133Z" transform="translate(-521.965 -13.792)" fill="#f9b384"/>
      <path id="Path_3934" data-name="Path 3934" d="M543.275,45.6c-1.405,1-3.243.378-4.392-1.035l-.05-.673,4.313-.039Z" transform="translate(-521.965 -13.792)" fill="#102048"/>
      <path id="Path_3935" data-name="Path 3935" d="M542.273,45.13a5.357,5.357,0,0,1-5.572-2.756l-.13-3.332,1.22-1.73,5.188.447c-.024.006-.021.078,0,.2.06.323.26,1.011.444,1.841C543.876,41.822,544.238,44.68,542.273,45.13Z" transform="translate(-521.965 -13.792)" fill="#f9b384"/>
      <path id="Path_3936" data-name="Path 3936" d="M538.622,48.011s3.2,2.563,5.991-1.089L549.9,64.476c-3.236,2.287-7.327,3.077-12.237,2.435Z" transform="translate(-521.965 -13.792)" fill="#fff"/>
      <g id="Group_2953" data-name="Group 2953" transform="translate(17.344 35.442)" opacity="0.3">
        <path id="Path_3937" data-name="Path 3937" d="M539.309,50.189a5.816,5.816,0,0,0,1.35.307,4.479,4.479,0,0,0,1.349-.054A4.358,4.358,0,0,0,543.28,50a6.037,6.037,0,0,0,.591-.351c.2-.123.368-.281.567-.413a6.724,6.724,0,0,1-.468.535,3.858,3.858,0,0,1-.564.445,3.583,3.583,0,0,1-1.34.543A3.693,3.693,0,0,1,539.309,50.189Z" transform="translate(-539.309 -49.234)" fill="#1f3c88"/>
      </g>
      <path id="Path_3938" data-name="Path 3938" d="M556.033,34.621c-2.9,4.894-5.725,9.194-8.28,11.244a1.983,1.983,0,0,1-1.348.415,10.735,10.735,0,0,0-3.058.33c.232,8.781,1.065,16.916,4.053,21.9a15.623,15.623,0,0,0,5.189-2.371c-.983-3.337-2.146-8.121-3.011-12.3l9.578-17.106Z" transform="translate(-521.965 -13.792)" fill="#1f3c88"/>
      <path id="Path_3939" data-name="Path 3939" d="M543.423,39.8c-3.3,1.878-6.04-1.543-6.04-1.543l5.6-.3C543.039,38.284,543.239,38.972,543.423,39.8Z" transform="translate(-521.965 -13.792)" fill="#e28b6d"/>
      <path id="Path_3940" data-name="Path 3940" d="M537.437,41.733c.4-.524.589-1.4.224-3.172,1.2,1.359,2.988,1.677,5.606.513a2.124,2.124,0,0,0,1.314-2.4c-.353-1.569-1.666-2.4-2.691-1.121-2.326-.679-4.613-.8-5.638,1.313,0,0-3.267,1.7-.481,4.453Z" transform="translate(-521.965 -13.792)" fill="#102048"/>
      <g id="Group_2954" data-name="Group 2954" transform="translate(5.772 59.808)">
        <path id="Path_3941" data-name="Path 3941" d="M532.673,78l-.563-.125.587-2.631-3.882-.944-.515,2.4-.564-.121.639-2.981,5.007,1.218Z" transform="translate(-527.737 -73.6)" fill="#1f3c88"/>
      </g>
      <path id="Path_3942" data-name="Path 3942" d="M530.39,69.706c-.1.134-.449,2.843-.449,2.843s-1.569,1.472-.512,2.375a2.152,2.152,0,0,0,2.947.2,3.963,3.963,0,0,0-.032-2.342l.608-3.01Z" transform="translate(-521.965 -13.792)" fill="#f9b384"/>
      <path id="Path_3943" data-name="Path 3943" d="M535.546,77.82,534,84.382l-.6,2.533-10.06-3.779,1.326-5.532.63-2.637Z" transform="translate(-521.965 -13.792)" fill="#acbfee"/>
      <g id="Group_2957" data-name="Group 2957" transform="translate(26.532 6.309)">
        <path id="Path_3944" data-name="Path 3944" d="M563.736,34.192l-5.342,3.238-.239-1.878,4.027-2.441Z" transform="translate(-548.497 -20.101)" fill="#6f3428"/>
        <path id="Path_3945" data-name="Path 3945" d="M560.854,33.916l-1.37.83-3.251-4.622L558.26,28.9Z" transform="translate(-548.497 -20.101)" fill="#bb9132"/>
        <path id="Path_3946" data-name="Path 3946" d="M558.534,28.733l-2.573,1.56a1.358,1.358,0,0,1-1.75-.3l-4.3-5.207,6.551-3.971,2.625,6.225A1.359,1.359,0,0,1,558.534,28.733Z" transform="translate(-548.497 -20.101)" fill="#fbc343"/>
        <g id="Group_2955" data-name="Group 2955" transform="translate(7.719)">
          <path id="Path_3947" data-name="Path 3947" d="M558.219,25.449l-.355-.148c.988-2.38.816-4.314.09-4.74-.378-.222-.9.04-1.436.718l-.3-.239c.947-1.2,1.667-.967,1.932-.811C559.033,20.749,559.3,22.843,558.219,25.449Z" transform="translate(-556.216 -20.101)" fill="#fbc343"/>
        </g>
        <g id="Group_2956" data-name="Group 2956" transform="translate(0 4.645)">
          <path id="Path_3948" data-name="Path 3948" d="M553.093,28.56c-2.811-.245-4.544-1.452-4.6-2.476-.015-.308.111-1.054,1.613-1.338l.071.377c-.848.161-1.322.5-1.3.942.042.841,1.677,1.888,4.244,2.112Z" transform="translate(-548.497 -24.746)" fill="#fbc343"/>
        </g>
        <path id="Path_3949" data-name="Path 3949" d="M555.479,24.19c-.225-.391-.214-.82.026-.958s.617.066.843.457.214.82-.026.958S555.705,24.581,555.479,24.19Z" transform="translate(-548.497 -20.101)" fill="#fff" opacity="0.6"/>
      </g>
      <path id="Path_3950" data-name="Path 3950" d="M561.28,32.031a1.09,1.09,0,0,1-1.215,1.261c-.555,0-1.332-.762-1.5-1.666a1.186,1.186,0,0,1,.678-1.451C559.787,29.953,561.1,30.774,561.28,32.031Z" transform="translate(-521.965 -13.792)" fill="#f9b384"/>
      <g id="Group_2961" data-name="Group 2961" transform="translate(22.14)">
        <g id="Group_2958" data-name="Group 2958" transform="translate(0 6.126)">
          <rect id="Rectangle_771" data-name="Rectangle 771" width="0.604" height="4.904" transform="translate(0 0.576) rotate(-72.512)" fill="#fbc343"/>
        </g>
        <g id="Group_2959" data-name="Group 2959" transform="translate(9.34)">
          <rect id="Rectangle_772" data-name="Rectangle 772" width="4.903" height="0.603" transform="translate(0 4.829) rotate(-79.986)" fill="#fbc343"/>
        </g>
        <g id="Group_2960" data-name="Group 2960" transform="translate(3.8 1.271)">
          <rect id="Rectangle_773" data-name="Rectangle 773" width="0.603" height="4.903" transform="matrix(0.842, -0.539, 0.539, 0.842, 0, 0.325)" fill="#fbc343"/>
        </g>
      </g>
      <path id="Path_3951" data-name="Path 3951" d="M535.932,58.967l-.769,11.6a19.83,19.83,0,0,0,7.175-1.6,52.5,52.5,0,0,0-3.255-21.631c-6.958,2.586-8.92,11.153-9.952,23.883l4.075.472Z" transform="translate(-521.965 -13.792)" fill="#1f3c88"/>
      <path id="Path_3952" data-name="Path 3952" d="M537.5,42.886c-1.309.467-2.145.361-2.215-.89a.989.989,0,0,1,1.352-.987,2.222,2.222,0,0,1,.8.724Z" transform="translate(-521.965 -13.792)" fill="#f9b384"/>
      <path id="Path_3953" data-name="Path 3953" d="M534,84.382l-.6,2.533-10.06-3.779,1.326-5.531A12.333,12.333,0,0,0,534,84.382Z" transform="translate(-521.965 -13.792)" fill="#102048" opacity="0.15"/>
      <path id="Path_3954" data-name="Path 3954" d="M548.706,49.884c.173.551.324,1.106.469,1.663s.282,1.115.413,1.675.252,1.122.362,1.687.215,1.13.294,1.7l-.147.034c-.177-.549-.327-1.1-.475-1.661s-.279-1.116-.407-1.677-.249-1.122-.356-1.688-.216-1.13-.3-1.7Z" transform="translate(-521.965 -13.792)" fill="#102048"/>
      <path id="Path_3955" data-name="Path 3955" d="M536.135,55.062c.019.558.016,1.114.007,1.67s-.028,1.112-.051,1.667-.058,1.11-.1,1.665-.095,1.108-.173,1.661l-.15-.007c-.024-.558-.019-1.114-.012-1.67s.029-1.112.056-1.667.061-1.11.11-1.665.094-1.108.167-1.661Z" transform="translate(-521.965 -13.792)" fill="#102048"/>
      <path id="Path_3956" data-name="Path 3956" d="M541.5,82.39c.172-.634.367-1.261.566-1.886s.416-1.245.622-1.868.441-1.235.67-1.85.472-1.225.736-1.827l.142.049c-.168.636-.364,1.263-.561,1.889s-.413,1.245-.627,1.865-.438,1.237-.676,1.849-.471,1.225-.731,1.829Z" transform="translate(-521.965 -13.792)" fill="#708cd5"/>
      <path id="Path_3957" data-name="Path 3957" d="M536.717,42.191c-.068-.094-.13-.191-.2-.28a1.413,1.413,0,0,0-.208-.24.235.235,0,0,0-.214-.08c-.079.01-.159.1-.247.167l-.074-.047a.519.519,0,0,1,.256-.305.408.408,0,0,1,.426.1,1.212,1.212,0,0,1,.339.656Z" transform="translate(-521.965 -13.792)" fill="#102048"/>
      <path id="Path_3958" data-name="Path 3958" d="M558.515,32.23c.14-.53.068-1.009-.161-1.07s-.581.188-.721.718-.3,1.293.06,1.464C558.333,33.644,558.375,32.76,558.515,32.23Z" transform="translate(-521.965 -13.792)" fill="#f9b384"/>
    </g>
  </g>
</svg>
