<svg id="Component_60_1" data-name="Component 60 – 1" xmlns="http://www.w3.org/2000/svg" width="154.021" height="147.53" viewBox="0 0 154.021 147.53">
  <g id="Group_2891" data-name="Group 2891" transform="translate(62.717)">
    <g id="Group_2889" data-name="Group 2889" transform="translate(0)">
      <path id="Path_3826" data-name="Path 3826" d="M297.7,229.443a31.744,31.744,0,0,0-7.017-12.193,37.791,37.791,0,0,0-13.727-9.2q-8.694-3.635-22.094-3.635a86.446,86.446,0,0,0-21.787,2.883,64.742,64.742,0,0,0-19.278,8.238l7.092,19.471-3.8,3.079,5.513,1.62a81.029,81.029,0,0,1,14.872-6.2,51.425,51.425,0,0,1,14.246-1.922q7.538,0,11.415,3.635a11.6,11.6,0,0,1,3.873,8.774,16.836,16.836,0,0,1-3.976,11.016q-3.988,4.815-8.8,9.735-3.345,3.415-6.492,7.054a50.6,50.6,0,0,0-5.551,7.813,42.51,42.51,0,0,0-3.874,8.983,36.872,36.872,0,0,0-1.466,10.8c0,1.288.027,2.82.1,4.6.012.329.03.649.049.966h-5.212l5.687,3.846h27.652a18.384,18.384,0,0,1-.212-2.995v-2.569a18.579,18.579,0,0,1,1.466-7.166,37.1,37.1,0,0,1,3.669-6.741,49.748,49.748,0,0,1,4.924-6.093q2.72-2.893,5.237-5.459,3.345-3.416,6.908-7.27a57.187,57.187,0,0,0,6.287-8.126,45.687,45.687,0,0,0,4.5-9.31,32.774,32.774,0,0,0,1.787-11.016A44.06,44.06,0,0,0,297.7,229.443Z" transform="translate(-208.39 -203.933)" fill="#e49b31"/>
      <path id="Path_3827" data-name="Path 3827" d="M242.587,229.93a51.818,51.818,0,0,0-14.078,1.86,80.989,80.989,0,0,0-14.7,6l-8.7-23.392a64.714,64.714,0,0,1,19.052-7.973,87.149,87.149,0,0,1,21.531-2.79q13.243,0,21.835,3.517a37.391,37.391,0,0,1,13.566,8.9,30.573,30.573,0,0,1,6.935,11.8A41.828,41.828,0,0,1,290,240.072a31.117,31.117,0,0,1-1.766,10.661,43.84,43.84,0,0,1-4.448,9.01,55.489,55.489,0,0,1-6.214,7.864q-3.518,3.731-6.827,7.036-2.486,2.487-5.175,5.284a48.471,48.471,0,0,0-4.866,5.9,35.67,35.67,0,0,0-3.625,6.523,17.656,17.656,0,0,0-1.449,6.935v2.487a17.438,17.438,0,0,0,.209,2.9H228.508a28.93,28.93,0,0,1-.519-4.657c-.074-1.725-.1-3.207-.1-4.454a34.982,34.982,0,0,1,1.449-10.452,40.65,40.65,0,0,1,3.828-8.694,49.018,49.018,0,0,1,5.486-7.562q3.1-3.518,6.416-6.827,4.761-4.761,8.7-9.421a16.09,16.09,0,0,0,3.929-10.661,11.123,11.123,0,0,0-3.828-8.491Q250.037,229.929,242.587,229.93Z" transform="translate(-205.11 -203.64)" fill="#fbc343"/>
    </g>
    <g id="Group_2890" data-name="Group 2890" transform="translate(21.639 116.094)">
      <path id="Path_3828" data-name="Path 3828" d="M280.139,405.845q0,7.478-4.842,11.546a16.759,16.759,0,0,1-21.9,0q-4.834-4.071-4.836-11.546t4.836-11.546a16.827,16.827,0,0,1,18.137-2.185A15.549,15.549,0,0,1,280.139,405.845Z" transform="translate(-243.148 -390.225)" fill="#e49b31"/>
      <path id="Path_3829" data-name="Path 3829" d="M271.45,405.737q0,7.478-4.842,11.546a16.759,16.759,0,0,1-21.9,0q-4.834-4.071-4.836-11.546T244.7,394.19a16.759,16.759,0,0,1,21.9,0Q271.45,398.27,271.45,405.737Z" transform="translate(-239.868 -390.117)" fill="#fbc343"/>
    </g>
  </g>
  <g id="Group_2910" data-name="Group 2910" transform="translate(0 30.294)">
    <g id="Group_2894" data-name="Group 2894" transform="translate(8.599)">
      <circle id="Ellipse_505" data-name="Ellipse 505" cx="2.978" cy="2.978" r="2.978" transform="matrix(0.184, -0.983, 0.983, 0.184, 19.074, 32.573)" fill="#d3dfff"/>
      <ellipse id="Ellipse_506" data-name="Ellipse 506" cx="1.675" cy="1.687" rx="1.675" ry="1.687" transform="translate(23.275 37.362) rotate(-79.386)" fill="#d3dfff"/>
      <g id="Group_2893" data-name="Group 2893">
        <circle id="Ellipse_507" data-name="Ellipse 507" cx="11.725" cy="11.725" r="11.725" transform="translate(0 21.826) rotate(-68.548)" fill="#d3dfff"/>
        <g id="Group_2892" data-name="Group 2892" transform="translate(9.222 13.724)">
          <circle id="Ellipse_508" data-name="Ellipse 508" cx="1.477" cy="1.477" r="1.477" fill="#fff"/>
          <circle id="Ellipse_509" data-name="Ellipse 509" cx="1.477" cy="1.477" r="1.477" transform="translate(4.502)" fill="#fff"/>
          <circle id="Ellipse_510" data-name="Ellipse 510" cx="1.477" cy="1.477" r="1.477" transform="translate(9.004)" fill="#fff"/>
        </g>
      </g>
    </g>
    <g id="Group_2909" data-name="Group 2909" transform="translate(0 40.827)">
      <g id="Group_2897" data-name="Group 2897" transform="translate(6.867 46.641)">
        <g id="Group_2895" data-name="Group 2895" transform="translate(8.461 19.204)">
          <path id="Path_3830" data-name="Path 3830" d="M129.064,428.141l1.1,4.224a2.421,2.421,0,0,0,2.529,1.766c3.592-.244,11.056-1.124,15.339-4.281l-1.218-6.087c-5.889-.333-11.4-.006-16.167,1.6A2.333,2.333,0,0,0,129.064,428.141Z" transform="translate(-128.992 -423.644)" fill="#102048"/>
          <path id="Path_3831" data-name="Path 3831" d="M139.156,432.9a.142.142,0,0,1-.137-.1l-1.471-5.267a.143.143,0,0,1,.275-.077l1.471,5.267a.143.143,0,0,1-.137.181Z" transform="translate(-132.219 -425.043)" fill="#fff"/>
          <path id="Path_3832" data-name="Path 3832" d="M144.262,431.758a.142.142,0,0,1-.137-.1l-1.471-5.267a.142.142,0,0,1,.274-.077l1.471,5.268a.142.142,0,0,1-.1.175A.137.137,0,0,1,144.262,431.758Z" transform="translate(-134.147 -424.611)" fill="#fff"/>
        </g>
        <path id="Path_3833" data-name="Path 3833" d="M142.872,393.668l-13.689,4.063,10.166,13.929,14.595,1.161,20.13-8.512-7.65-11.511Z" transform="translate(-120.603 -392.797)" fill="#33499b"/>
        <path id="Path_3834" data-name="Path 3834" d="M168.352,396.206c30.062-8.9,34.893,17.669-12.011,22.506a22.693,22.693,0,0,1-4.362-7.8l24.769-11.446Z" transform="translate(-129.207 -393.401)" fill="#33499b"/>
        <path id="Path_3835" data-name="Path 3835" d="M175.731,427.076a13,13,0,0,1-2.753-1.34l-4.831,1.515,1.107,5.256,5.019,1.02A10.785,10.785,0,0,0,175.731,427.076Z" transform="translate(-135.309 -405.229)" fill="#f9b384"/>
        <path id="Path_3836" data-name="Path 3836" d="M152.022,413.508l-.215-.369c5.167-3,18.4-10.218,29.68-12.345l.079.42C170.354,403.328,157.17,410.516,152.022,413.508Z" transform="translate(-129.142 -395.815)" fill="#152675"/>
        <path id="Path_3837" data-name="Path 3837" d="M137.67,393.775c-27.981-5.32-35.228,21.571,11.676,26.407a17.039,17.039,0,0,0,3.724-6.771,213.467,213.467,0,0,0-24.09-13.768Z" transform="translate(-115.402 -392.904)" fill="#33499b"/>
        <path id="Path_3838" data-name="Path 3838" d="M159.348,416.136c-1.331-.847-2.718-1.743-4.186-2.691-7.371-4.759-15.726-10.153-22.824-13.229l.17-.392c7.13,3.09,15.5,8.494,22.886,13.263,1.467.948,2.854,1.843,4.184,2.689Z" transform="translate(-121.794 -395.449)" fill="#152675"/>
        <path id="Path_3839" data-name="Path 3839" d="M117.969,413.176l-.374-.207a7.852,7.852,0,0,1,5-3.812l.114.411A7.346,7.346,0,0,0,117.969,413.176Z" transform="translate(-116.229 -398.972)" fill="#152675"/>
        <path id="Path_3840" data-name="Path 3840" d="M209.128,410.575a7.344,7.344,0,0,0-4.74-3.607l.114-.411a7.852,7.852,0,0,1,5,3.812Z" transform="translate(-148.988 -397.991)" fill="#152675"/>
        <path id="Path_3841" data-name="Path 3841" d="M165.527,431.366l-.312-.291a16,16,0,0,0,4.2-7.737l.418.088A16.409,16.409,0,0,1,165.527,431.366Z" transform="translate(-134.203 -404.324)" fill="#152675"/>
        <g id="Group_2896" data-name="Group 2896" transform="translate(38.964 19.593)">
          <path id="Path_3842" data-name="Path 3842" d="M193.4,424.956c-3.585-2.214-10.535,1.612-12.279,1.806a4.216,4.216,0,0,1-1.676-.24,10.785,10.785,0,0,1-1.458,6.451l.852.173a25.1,25.1,0,0,0,12.146.9A5.054,5.054,0,0,0,193.4,424.956Z" transform="translate(-177.987 -424.269)" fill="#102048"/>
          <path id="Path_3843" data-name="Path 3843" d="M194.421,433.256a.129.129,0,0,1-.043-.007.142.142,0,0,1-.093-.178,7.3,7.3,0,0,0-.622-5.784.142.142,0,1,1,.234-.163,7.6,7.6,0,0,1,.659,6.031A.142.142,0,0,1,194.421,433.256Z" transform="translate(-183.894 -425.323)" fill="#fff"/>
          <path id="Path_3844" data-name="Path 3844" d="M189.905,434.113a.146.146,0,0,1-.043-.006.143.143,0,0,1-.093-.179,7.3,7.3,0,0,0-.622-5.784.142.142,0,0,1,.234-.162,7.6,7.6,0,0,1,.659,6.031A.143.143,0,0,1,189.905,434.113Z" transform="translate(-182.19 -425.647)" fill="#fff"/>
        </g>
      </g>
      <g id="Group_2905" data-name="Group 2905">
        <g id="Group_2899" data-name="Group 2899" transform="translate(15.864 0.251)">
          <path id="Path_3845" data-name="Path 3845" d="M138.175,330.871s7.047-5.992,6.786-7.131c-.187-.814-2.183.379-2.183.379s2.8-3.321,2.657-3.725c-.255-.72-2.191.623-2.191.623s1.309-1.883.683-2.19-1.99.854-1.99.854.8-1.045.423-1.32-1.99.854-1.99.854.58-1.319-.652-.819-9.866,8.424-9.866,8.424Z" transform="translate(-129.853 -318.282)" fill="#f9b384"/>
          <g id="Group_2898" data-name="Group 2898" transform="translate(7.931 0.79)">
            <path id="Path_3846" data-name="Path 3846" d="M145.866,325.814a.142.142,0,0,1-.1-.037,6.47,6.47,0,0,0-3.078-1.784.142.142,0,0,1,.084-.272,6.688,6.688,0,0,1,3.186,1.846.143.143,0,0,1,.009.2A.141.141,0,0,1,145.866,325.814Z" transform="translate(-142.592 -321.122)" fill="#e28b6d"/>
            <path id="Path_3847" data-name="Path 3847" d="M144.354,330.962l-.019,0a.142.142,0,0,1-.121-.161,2.385,2.385,0,0,1,.954-1.893,1.847,1.847,0,0,1,1.663.073.142.142,0,0,1-.113.262,1.588,1.588,0,0,0-1.411-.087,2.174,2.174,0,0,0-.811,1.684A.143.143,0,0,1,144.354,330.962Z" transform="translate(-143.203 -323.02)" fill="#e28b6d"/>
            <path id="Path_3848" data-name="Path 3848" d="M143.821,321.5a.142.142,0,0,1-.1-.246l1.768-1.667a.142.142,0,0,1,.2.207l-1.768,1.667A.142.142,0,0,1,143.821,321.5Z" transform="translate(-143.002 -319.551)" fill="#e28b6d"/>
            <path id="Path_3849" data-name="Path 3849" d="M146.45,322.354a.14.14,0,0,1-.1-.04.142.142,0,0,1,0-.2l1.7-1.77a.142.142,0,0,1,.205.2l-1.7,1.769A.142.142,0,0,1,146.45,322.354Z" transform="translate(-143.994 -319.833)" fill="#e28b6d"/>
            <path id="Path_3850" data-name="Path 3850" d="M149.137,324.161a.142.142,0,0,1-.1-.239l1.332-1.43a.142.142,0,0,1,.209.194l-1.333,1.43A.142.142,0,0,1,149.137,324.161Z" transform="translate(-145.008 -320.644)" fill="#e28b6d"/>
          </g>
        </g>
        <g id="Group_2900" data-name="Group 2900" transform="translate(0 7.21)">
          <path id="Path_3851" data-name="Path 3851" d="M168.632,382.287l-25.765,1L140.02,359.8s8.626-8.181,11.944-11.194l5.6-.287C174.948,356.215,172.1,366.083,168.632,382.287Z" transform="translate(-117.826 -336.576)" fill="#ffe4b7"/>
          <path id="Path_3852" data-name="Path 3852" d="M168.2,348.314s19.885,1.7,26.155,15.325c6.134,13.331-19.075,18.078-19.075,18.078Z" transform="translate(-128.464 -336.576)" fill="#ffe4b7"/>
          <path id="Path_3853" data-name="Path 3853" d="M121.38,344.117l8.218-10-7.684-4.657a100.194,100.194,0,0,0-14.658,12.994,10.856,10.856,0,0,0-2.521,4.359,9.376,9.376,0,0,0-.241,4.092h0a7.9,7.9,0,0,0,6.982,6.614c3.13.367,15.089-.569,24.769-3.416l2.847-10.988C137.628,342.284,126.755,342.14,121.38,344.117Z" transform="translate(-104.371 -329.46)" fill="#ffe4b7"/>
        </g>
        <g id="Group_2901" data-name="Group 2901" transform="translate(4.2 10.518)" opacity="0.8">
          <path id="Path_3854" data-name="Path 3854" d="M188.957,354.62l.128-.03-.27-.157a43.046,43.046,0,0,1-4.443.857c-.891.107-3.867.3-4.737-1.679a3.107,3.107,0,0,1,.384-2.854l-.213-.061a3.3,3.3,0,0,0-.367,3c.929,2.119,4.03,1.917,4.958,1.805A44.031,44.031,0,0,0,188.957,354.62Z" transform="translate(-136.822 -340.783)" fill="#fff"/>
          <path id="Path_3855" data-name="Path 3855" d="M205.874,381.277a6.6,6.6,0,0,0-2.963-.649,4.158,4.158,0,0,0-3.453,3.989,6.258,6.258,0,0,0,1.472,4.108l.182-.115a6.051,6.051,0,0,1-1.44-3.983,3.94,3.94,0,0,1,3.259-3.787,6.375,6.375,0,0,1,2.866.636c.346.134.7.268,1.055.383.019-.068.036-.138.053-.207C206.556,381.54,206.213,381.409,205.874,381.277Z" transform="translate(-144.458 -352.075)" fill="#fff"/>
          <path id="Path_3856" data-name="Path 3856" d="M123.132,370.149a5.931,5.931,0,0,0-5.292-.753,9.136,9.136,0,0,0-4.626,2.739c.073.024.145.05.219.072a8.954,8.954,0,0,1,4.461-2.6,5.725,5.725,0,0,1,5.1.71,4.642,4.642,0,0,1,1.254,1.728l.22-.025A4.874,4.874,0,0,0,123.132,370.149Z" transform="translate(-111.908 -347.736)" fill="#fff"/>
          <path id="Path_3857" data-name="Path 3857" d="M111.117,343.063a25.773,25.773,0,0,0,6.69-2.6,7.307,7.307,0,0,0,2.313-1.889,3.245,3.245,0,0,0,.594-2.891,2.254,2.254,0,0,0-.579-.914l-.164.135a2.056,2.056,0,0,1,.54.845,3.031,3.031,0,0,1-.563,2.7,7.113,7.113,0,0,1-2.247,1.832,25.239,25.239,0,0,1-6.305,2.493Z" transform="translate(-111.117 -334.773)" fill="#fff"/>
        </g>
        <g id="Group_2903" data-name="Group 2903" transform="translate(25.559)">
          <path id="Path_3858" data-name="Path 3858" d="M166.768,339.707l0,.365-.058,5.663-.007.614a3.527,3.527,0,0,1-7.053,0l-.068-7Z" transform="translate(-150.767 -325.982)" fill="#f9b384"/>
          <path id="Path_3859" data-name="Path 3859" d="M168.392,340.512l-.058,5.663a8.972,8.972,0,0,1-4.443-4.689Z" transform="translate(-152.395 -326.421)" fill="#102048"/>
          <path id="Path_3860" data-name="Path 3860" d="M167.569,324.337c1.128,1.353,4.422,9.023,1.083,11.64-3.757,2.945-9.475-1.894-9.475-1.894l-.767-8.934,4.963-1.309Z" transform="translate(-150.326 -320.129)" fill="#f9b384"/>
          <path id="Path_3861" data-name="Path 3861" d="M150.98,323.847s-11.008,5.742-2.032,22.292a4.508,4.508,0,0,0,5.891,2.016h0a4.465,4.465,0,0,0,1.958-6.236c-1.468-2.609-2.885-5.967-2.28-8.466Z" transform="translate(-145.425 -320.131)" fill="#102048"/>
          <circle id="Ellipse_511" data-name="Ellipse 511" cx="2.978" cy="2.978" r="2.978" transform="translate(3.617 3.456)" fill="#fbc343"/>
          <path id="Path_3862" data-name="Path 3862" d="M158.566,327.89c-.322-1.858-.517-3.132,1.36-4.089,0,0,6.617,1.2,7.88-1.294s-.662-6.437-4.692-3.7c-10.317-2.015-11.7,7.64-8.573,10.859l3.088-.474A1.124,1.124,0,0,0,158.566,327.89Z" transform="translate(-148.308 -317.879)" fill="#102048"/>
          <g id="Group_2902" data-name="Group 2902" transform="translate(13.313 6.623)">
            <circle id="Ellipse_512" data-name="Ellipse 512" cx="0.44" cy="0.44" r="0.44" transform="translate(1.628 2.954)" fill="#102048"/>
            <circle id="Ellipse_513" data-name="Ellipse 513" cx="0.44" cy="0.44" r="0.44" transform="translate(4.606 1.488)" fill="#102048"/>
            <path id="Path_3863" data-name="Path 3863" d="M173.844,334.912a.125.125,0,0,1-.09-.21c.176-.186.37-.446.288-.636s-.441-.281-.6-.281c-.351,0-.52-.624-.55-.75a.125.125,0,1,1,.242-.059c.064.263.209.558.308.558.167,0,.682.08.833.433.108.252,0,.557-.337.906A.124.124,0,0,1,173.844,334.912Z" transform="translate(-169.103 -330.163)" fill="#102048"/>
            <path id="Path_3864" data-name="Path 3864" d="M173.292,338.493a.121.121,0,0,1-.07-.022,1.667,1.667,0,0,0-1.673-.085.125.125,0,0,1-.125-.216,1.9,1.9,0,0,1,1.937.1.125.125,0,0,1-.07.228Z" transform="translate(-168.529 -332.075)" fill="#102048"/>
            <path id="Path_3865" data-name="Path 3865" d="M168.685,330.783c.251.471-.186.565-.7.837s-1.034.37-1.154.146.2-.627.709-.9S168.492,330.418,168.685,330.783Z" transform="translate(-166.81 -329.294)" fill="#102048"/>
            <path id="Path_3866" data-name="Path 3866" d="M172.808,329.155c.11.421.423.237.88.117s.824-.349.772-.549-.465-.266-.921-.147S172.723,328.83,172.808,329.155Z" transform="translate(-169.069 -328.516)" fill="#102048"/>
          </g>
          <circle id="Ellipse_514" data-name="Ellipse 514" cx="1.297" cy="1.297" r="1.297" transform="translate(12.054 10.773)" fill="#eb5d60" opacity="0.4"/>
          <ellipse id="Ellipse_515" data-name="Ellipse 515" cx="1.757" cy="1.996" rx="1.757" ry="1.996" transform="matrix(0.611, -0.792, 0.792, 0.611, 5.772, 12.246)" fill="#f9b384"/>
          <path id="Path_3867" data-name="Path 3867" d="M159.231,337.441a.124.124,0,0,1-.125-.125,1.092,1.092,0,0,0-.479-.91.881.881,0,0,0-.819-.109.124.124,0,1,1-.094-.23,1.127,1.127,0,0,1,1.052.133,1.341,1.341,0,0,1,.59,1.116A.124.124,0,0,1,159.231,337.441Z" transform="translate(-150.034 -324.715)" fill="#102048"/>
        </g>
        <g id="Group_2904" data-name="Group 2904" transform="translate(12.41 21.77)">
          <rect id="Rectangle_750" data-name="Rectangle 750" width="6.621" height="0.285" transform="translate(0 4.862) rotate(-47.248)" fill="#102048"/>
          <path id="Path_3868" data-name="Path 3868" d="M182.336,382.736l-.083-.272c3.272-1,6.448-2.19,9.325-5.789l.222.178C188.872,380.515,185.653,381.726,182.336,382.736Z" transform="translate(-146.176 -361.841)" fill="#102048"/>
        </g>
      </g>
      <g id="Group_2908" data-name="Group 2908" transform="translate(20.913 31.641)">
        <g id="Group_2906" data-name="Group 2906">
          <path id="Path_3869" data-name="Path 3869" d="M167.609,368.7H139.774a1.891,1.891,0,0,0-1.812,1.961v19.873a1.891,1.891,0,0,0,1.812,1.96h27.834a1.891,1.891,0,0,0,1.812-1.96V370.663A1.891,1.891,0,0,0,167.609,368.7Z" transform="translate(-137.962 -368.702)" fill="#d3dfff"/>
        </g>
        <g id="Group_2907" data-name="Group 2907" transform="translate(13.499 10.072)">
          <path id="Path_3870" data-name="Path 3870" d="M163.345,385.45a.2.2,0,0,1,.191.207v2.1a.2.2,0,0,1-.191.207h-2.939a.2.2,0,0,1-.191-.207v-2.1a.2.2,0,0,1,.191-.207h2.939m0-.57h-2.939a.77.77,0,0,0-.761.776v2.1a.77.77,0,0,0,.761.777h2.939a.77.77,0,0,0,.761-.777v-2.1a.77.77,0,0,0-.761-.776Z" transform="translate(-159.645 -384.88)" fill="#1f3c88"/>
        </g>
      </g>
    </g>
  </g>
</svg>
