<svg id="Component_61_1" data-name="Component 61 – 1" xmlns="http://www.w3.org/2000/svg" width="157.463" height="140.714" viewBox="0 0 157.463 140.714">
  <path id="Path_3737" data-name="Path 3737" d="M443.327,63.313l-1.51.463L440.8,61.43l-2.291.405L437.468,60.2l-.826.529,1.4,2.183,2.171-.384,1.055,2.441,2.272-.7Z" transform="translate(-393.168 -36.173)" fill="#40bfa9"/>
  <path id="Path_3738" data-name="Path 3738" d="M540.133,147.713l-1.51.463-1.014-2.346-2.291.405-1.046-1.632-.826.529,1.4,2.183,2.171-.384,1.055,2.441,2.271-.7Z" transform="translate(-393.168 -36.173)" fill="#40bfa9"/>
  <g id="Group_2855" data-name="Group 2855" transform="translate(32.094 76.058)">
    <g id="Group_2854" data-name="Group 2854">
      <path id="Path_3739" data-name="Path 3739" d="M434.026,175.494s-8.055-27.3-8.7-33.325,3.858-4.156,3.858-4.156-3.789-11.476-1.049-14.2,5.211,2.353,5.211,2.353.83-13.931,3.751-13.936c5.441-.01,5.334,15.193,5.334,15.193s1.389-5.952,4.3-4.32c4.394,2.46-1.907,14.388-1.907,14.388s5.6,0,7.566,2.827C455.92,145.384,434.026,175.494,434.026,175.494Z" transform="translate(-425.261 -112.231)" fill="#4eabe2"/>
    </g>
  </g>
  <g id="Group_2857" data-name="Group 2857" transform="translate(1.709 95.534)">
    <g id="Group_2856" data-name="Group 2856">
      <path id="Path_3740" data-name="Path 3740" d="M436.66,171.88s-23.222-3.883-28.273-8-.052-5.97-.052-5.97-11.665-5.98-11.53-10.047,5.93-2,5.93-2-9.829-11.208-7.5-13.337c4.334-3.964,15.7,7.687,15.7,7.687s-3.374-5.541.18-6.418c5.359-1.322,9.314,12.34,9.314,12.34s-1.005-5.4,2.69-4.676C429.744,142.752,436.66,171.88,436.66,171.88Z" transform="translate(-394.877 -131.707)" fill="#4eabe2"/>
    </g>
    <path id="Path_3741" data-name="Path 3741" d="M423.114,141.463c-3.7-.67-2.69,4.676-2.69,4.676s-3.955-13.662-9.314-12.34c-3.554.877-.18,6.418-.18,6.418s-11.363-11.651-15.7-7.687l41.348,39.357C435.845,168.128,429.325,142.585,423.114,141.463Z" transform="translate(-394.877 -131.707)" fill="#1e97c6"/>
  </g>
  <g id="Group_2858" data-name="Group 2858" transform="translate(0 119.711)">
    <path id="Path_3742" data-name="Path 3742" d="M443.266,175.084s-12.229-12.437-18.388-13.732-5.05,3.086-5.05,3.086-12.219-10.685-15.051-8.1.232,5.088.232,5.088-10.178-1.8-11.635,1.537c-2.239,5.132,14.5,7.925,14.5,7.925s-7.014.486-5.388,3.7C404.939,179.449,443.266,175.084,443.266,175.084Z" transform="translate(-393.168 -155.884)" fill="#2a4689"/>
    <path id="Path_3743" data-name="Path 3743" d="M393.374,162.967c1.457-3.34,11.635-1.537,11.635-1.537s-3.063-2.5-.232-5.088,14.671,6.643,14.671,6.643-2.792-5.335,3.367-4.04,20.451,16.139,20.451,16.139Z" transform="translate(-393.168 -155.884)" fill="#375db6"/>
  </g>
  <g id="Group_2866" data-name="Group 2866" transform="translate(60.732 4.188)">
    <path id="Path_3744" data-name="Path 3744" d="M462.736,46.819a4.719,4.719,0,0,0-1.917,8.5,3.144,3.144,0,0,1,1.221,1.817l.623,2.514a1.368,1.368,0,0,0,1.55,1.021l1.56-.257a1.369,1.369,0,0,0,1.142-1.464c-.217-2.595-.484-3.536.359-4.693A4.719,4.719,0,0,0,462.736,46.819Z" transform="translate(-453.9 -40.36)" fill="#f7c76b"/>
    <g id="Group_2859" data-name="Group 2859" transform="translate(6.996 9.519)">
      <path id="Path_3745" data-name="Path 3745" d="M463.156,57.8c-.268-2.223-.645-4.569-.773-5.235-2.359.13-1.462-2.357-.373-1.346a2.063,2.063,0,0,1,.553,1.108,6.118,6.118,0,0,0,2.248-.655,2.906,2.906,0,0,1,.062-1.315c.231-.53.9-.674,1.175-.158a.826.826,0,0,1,.047.648,2.1,2.1,0,0,1-1.05.954c.124,1.768.3,3.548.513,5.3l-.223.028c-.213-1.726-.383-3.477-.507-5.216a6.341,6.341,0,0,1-2.219.633c.161.851.518,3.138.769,5.225Zm-1.893-5.759a1.321,1.321,0,0,0,1.073.3,1.819,1.819,0,0,0-.479-.959C461.271,50.841,460.911,51.664,461.263,52.043Zm3.815-1.594a2.52,2.52,0,0,0-.05,1.107,1.776,1.776,0,0,0,.856-.784.511.511,0,0,0-.262-.659C465.594,50.107,465.169,50.242,465.078,50.449Z" transform="translate(-460.896 -49.88)" fill="#fada9e"/>
    </g>
    <path id="Path_3746" data-name="Path 3746" d="M462.022,57.07c.005.021.013.041.018.062l.623,2.514a1.368,1.368,0,0,0,1.55,1.021l1.56-.257a1.369,1.369,0,0,0,1.142-1.464c-.1-1.154-.2-1.981-.217-2.645Z" transform="translate(-453.9 -40.36)" fill="#84d9ca"/>
    <g id="Group_2860" data-name="Group 2860" transform="translate(4.497 1.67)">
      <path id="Path_3747" data-name="Path 3747" d="M459.684,44.942l-1.231-2.247a.449.449,0,0,1,.788-.431l1.231,2.247a.449.449,0,0,1-.788.431Z" transform="translate(-458.398 -42.03)" fill="#fada9e"/>
    </g>
    <g id="Group_2861" data-name="Group 2861" transform="translate(0 8.886)">
      <path id="Path_3748" data-name="Path 3748" d="M456.994,50.377l-2.684-.235a.449.449,0,1,1,.079-.894l2.683.235a.449.449,0,1,1-.078.894Z" transform="translate(-453.9 -49.246)" fill="#fada9e"/>
    </g>
    <g id="Group_2862" data-name="Group 2862" transform="translate(0.303 15.774)">
      <path id="Path_3749" data-name="Path 3749" d="M454.333,58.6a.45.45,0,0,1,0-.635,14.662,14.662,0,0,1,2.156-1.758.449.449,0,1,1,.5.746,13.768,13.768,0,0,0-2.024,1.651A.45.45,0,0,1,454.333,58.6Z" transform="translate(-454.204 -56.134)" fill="#fada9e"/>
    </g>
    <g id="Group_2863" data-name="Group 2863" transform="translate(12.08)">
      <path id="Path_3750" data-name="Path 3750" d="M466.314,44.821a.45.45,0,0,1-.318-.55,17.08,17.08,0,0,0,.553-3.486.449.449,0,0,1,.9.048,18.019,18.019,0,0,1-.583,3.67A.449.449,0,0,1,466.314,44.821Z" transform="translate(-465.981 -40.36)" fill="#fada9e"/>
    </g>
    <g id="Group_2864" data-name="Group 2864" transform="translate(15.157 6.49)">
      <path id="Path_3751" data-name="Path 3751" d="M469.077,48.27a.449.449,0,0,1,.3-.56l2.789-.84a.449.449,0,1,1,.26.859l-2.79.841A.449.449,0,0,1,469.077,48.27Z" transform="translate(-469.058 -46.851)" fill="#fada9e"/>
    </g>
    <g id="Group_2865" data-name="Group 2865" transform="translate(16.605 13.35)">
      <path id="Path_3752" data-name="Path 3752" d="M473.659,55.692a.433.433,0,0,1-.122-.017,14.018,14.018,0,0,1-2.793-1.12.448.448,0,1,1,.421-.792,13.253,13.253,0,0,0,2.615,1.048.449.449,0,0,1-.121.881Z" transform="translate(-470.506 -53.71)" fill="#fada9e"/>
    </g>
  </g>
  <path id="Path_3753" data-name="Path 3753" d="M514.516,75.539l-1.407-3.328-3.539-.727a.5.5,0,0,1-.226-.862l2.731-2.366-.4-3.591a.5.5,0,0,1,.75-.481l3.1,1.865,3.29-1.492a.5.5,0,0,1,.689.565l-.817,3.519,2.436,2.669a.5.5,0,0,1-.325.83l-3.6.31-1.786,3.141A.5.5,0,0,1,514.516,75.539Z" transform="translate(-393.168 -36.173)" fill="#f7c76b"/>
  <path id="Path_3754" data-name="Path 3754" d="M536.919,64.12l-.579,2.33-3.851-.517-1.266,3.3-2.945.085.043,1.491,3.939-.113,1.2-3.129,4.007.538.87-3.506Z" transform="translate(-393.168 -36.173)" fill="#b53926"/>
  <path id="Path_3755" data-name="Path 3755" d="M502.606,175.8H434.9a4.772,4.772,0,0,1-4.682-4.857v-2.887A4.772,4.772,0,0,1,434.9,163.2h67.7a9.592,9.592,0,0,0-.125,12.454Z" transform="translate(-393.168 -36.173)" fill="#b74e33"/>
  <path id="Path_3756" data-name="Path 3756" d="M501.56,164.643H464.01a4.772,4.772,0,0,0-4.682,4.857h0a4.771,4.771,0,0,0,4.682,4.856h37.554A9.634,9.634,0,0,1,501.56,164.643Z" transform="translate(-393.168 -36.173)" fill="#fada9e"/>
  <path id="Path_3757" data-name="Path 3757" d="M478.821,154.449a.281.281,0,0,0-.278-.4H442.72a4.85,4.85,0,0,0-5.084,4.576h0a4.849,4.849,0,0,0,5.084,4.575h35.832a.282.282,0,0,0,.28-.4h0A8.766,8.766,0,0,1,478.821,154.449Z" transform="translate(-393.168 -36.173)" fill="#419716"/>
  <path id="Path_3758" data-name="Path 3758" d="M478.6,154.9H460.842c-3.3,0-5.967,1.716-5.967,3.834s2.671,3.834,5.967,3.834h17.87A8.753,8.753,0,0,1,478.6,154.9Z" transform="translate(-393.168 -36.173)" fill="#f7c76b"/>
  <g id="Group_2867" data-name="Group 2867" transform="translate(77.631 120.546)">
    <path id="Path_3759" data-name="Path 3759" d="M474.01,156.719H471.7c-.5,0-.9.167-.9.373v.034h3.212Z" transform="translate(-470.798 -156.719)" fill="#b74e33"/>
    <path id="Path_3760" data-name="Path 3760" d="M475.983,157.655c0-.517-.6-.936-1.349-.936h-2.967c.565,0,1.023.318,1.023.71l-.014,10.024,1.639-1.289,1.671,1.289Z" transform="translate(-470.798 -156.719)" fill="#f46844"/>
  </g>
  <g id="Group_2869" data-name="Group 2869" transform="translate(42.117 109.19)">
    <path id="Path_3761" data-name="Path 3761" d="M472.235,153.72H451.392c-1.848,0-3.347-1.778-3.347-3.972h0c0-2.194,1.5-3.972,3.347-3.972h20.843a6.988,6.988,0,0,0-.148,7.719Z" transform="translate(-435.285 -145.364)" fill="#fada9e"/>
    <path id="Path_3762" data-name="Path 3762" d="M448.047,149.748h0a3.729,3.729,0,0,1,3.426-3.972h21.16a.193.193,0,0,0,.177-.208h0a.193.193,0,0,0-.177-.2H439.066c-2.088,0-3.781,1.963-3.781,4.384h0c0,2.421,1.693,4.384,3.781,4.384h33.567a.193.193,0,0,0,.177-.2h0a.194.194,0,0,0-.177-.208h-21.16A3.729,3.729,0,0,1,448.047,149.748Z" transform="translate(-435.285 -145.364)" fill="#375db6"/>
    <g id="Group_2868" data-name="Group 2868" transform="translate(30.098 2.364)">
      <path id="Path_3763" data-name="Path 3763" d="M468.6,147.728h-2.312c-.5,0-.9.164-.9.366v.033H468.6Z" transform="translate(-465.383 -147.728)" fill="#114055"/>
      <path id="Path_3764" data-name="Path 3764" d="M470.568,148.645c0-.506-.6-.917-1.349-.917h-2.967c.565,0,1.023.312,1.023.7l-.014,9.83,1.64-1.264,1.671,1.264Z" transform="translate(-465.383 -147.728)" fill="#308f7f"/>
    </g>
  </g>
  <g id="Group_2872" data-name="Group 2872" transform="translate(47.043 27.718)">
    <g id="Group_2871" data-name="Group 2871" transform="translate(38.182 22.292)">
      <path id="Path_3765" data-name="Path 3765" d="M505.445,87l3.078-.81-2.086,27.817-3.692.123,1.862-26.119A1.13,1.13,0,0,1,505.445,87Z" transform="translate(-478.393 -86.183)" fill="#114055"/>
      <g id="Group_2870" data-name="Group 2870">
        <path id="Path_3766" data-name="Path 3766" d="M506.713,114.8a1,1,0,0,1-.211,0,1.233,1.233,0,0,1-1.01-1.358l2.048-26.156a1.122,1.122,0,0,1,1.2-1.1,1.234,1.234,0,0,1,1.011,1.358L507.7,113.7A1.149,1.149,0,0,1,506.713,114.8Z" transform="translate(-478.393 -86.183)" fill="#243e9a"/>
        <path id="Path_3767" data-name="Path 3767" d="M478.393,116.2c0,.019,0,.039,0,.058h0a1.82,1.82,0,0,0,1.841,1.777l25.987-2.325a1.816,1.816,0,0,0,1.492-2.076c0-.045-.01-.09-.016-.134Z" transform="translate(-478.393 -86.183)" fill="#243e9a"/>
      </g>
    </g>
    <path id="Path_3768" data-name="Path 3768" d="M496.489,144.291c-1.7.944-6.9-.711-6.9-.86-.075,1.421-5.825,15.334-5.825,15.334l.005,4.281s11.847.565,11.677-.482-.808-.366-3.171-2.343c-.21-.176-3.528-.946-2.63-2.91C491.45,153.355,495.291,146.76,496.489,144.291Z" transform="translate(-440.211 -63.891)" fill="#fbae79"/>
    <path id="Path_3769" data-name="Path 3769" d="M483.377,163.2l12.968,0c.468-.048.577-.428.412-.66-.34-.477-2.826-1.6-4.5-2.346-2.91.34-8.026-.779-8.494-1.443C482.535,160.4,483.115,163.145,483.377,163.2Z" transform="translate(-440.211 -63.891)" fill="#162b35"/>
    <path id="Path_3770" data-name="Path 3770" d="M480.532,134.3c-.176-.527,11.165-5.339,11.673-4.789.9.972-6.136,19.23-6.136,19.23l8.081,2.47s8.4-21.094,8.051-24.952-4.56-8.243-13.679-5.437S480.532,134.3,480.532,134.3Z" transform="translate(-440.211 -63.891)" fill="#0f1e75"/>
    <path id="Path_3771" data-name="Path 3771" d="M504.013,146.691a42.8,42.8,0,0,0-6.382-.482c.234,1.768,1.371,10.838,1.163,11.4a6.808,6.808,0,0,1-2.71,3.314s8.806,7.945,9.338,7.027-.392-.794-.968-3.822a40.07,40.07,0,0,1-1.4-6.773C502.9,153,503.947,149.1,504.013,146.691Z" transform="translate(-440.211 -63.891)" fill="#fbae79"/>
    <path id="Path_3772" data-name="Path 3772" d="M501.187,117.021c-1.228-.655-4.417-.678-7.924-.451a80.527,80.527,0,0,0-20.09,3.943l-4.352,1.442.014-4.462s-13.845-2.317-14.326,1.115c-.726,5.167.174,15.658,4.787,18,14.329,7.273,34.408-11.587,34.48-9.119.1,3.314,2.892,15.645,3.606,21.044a39.754,39.754,0,0,0,6.879-.307C504.549,137.649,504.684,118.887,501.187,117.021Z" transform="translate(-440.211 -63.891)" fill="#263b9b"/>
    <path id="Path_3773" data-name="Path 3773" d="M495.816,161.1l9.9,7.907c.392.26.718.035.737-.249.039-.585-1.171-3.029-1.991-4.665-2.467-1.581-5.719-5.705-5.661-6.515C497.757,158.463,495.648,160.9,495.816,161.1Z" transform="translate(-440.211 -63.891)" fill="#162b35"/>
    <path id="Path_3774" data-name="Path 3774" d="M473.41,73.892c-.333-3.04-.683-6.091-3.2-8.319a6.812,6.812,0,0,0-7.2-1.144c-7.263,2.733-3.521,9.184-12.783,15.689-2.878,2.021-6.05,3.4-8.217,6.125-3.033,3.81-1.888,8.392.877,11.451,13.226,14.638,27.992-5.131,29.052-9.876C472.728,84.288,473.623,75.848,473.41,73.892Z" transform="translate(-440.211 -63.891)" fill="#162b35"/>
    <path id="Path_3775" data-name="Path 3775" d="M470.724,90.985a40.352,40.352,0,0,0-2.194-3.572c-1.12-1.993-4.015-3-4.015-3s-.969.019-2.081.074a.886.886,0,0,1-.209.369c-.418.314-2.813-.091-4.36.959-5.185,4.445-3.751,25.988-3.343,32.793l15.791.149s-1.991-14.641,1.217-18.4C473.764,97.735,472.327,93.939,470.724,90.985Z" transform="translate(-440.211 -63.891)" fill="#ffdea2"/>
    <path id="Path_3776" data-name="Path 3776" d="M463.606,77.125a64.232,64.232,0,0,1-1.474,7.705c-.607,1.507,3.333,4.728,6.611,5.706s-1-3.327-.866-4.938.732-9.235.732-9.235Z" transform="translate(-440.211 -63.891)" fill="#fbae79"/>
    <path id="Path_3777" data-name="Path 3777" d="M468.443,78.55c.1-1.262.166-2.187.166-2.187l-5,.762s-.126.728-.266,1.758A4.112,4.112,0,0,0,468.443,78.55Z" transform="translate(-440.211 -63.891)" fill="#f46844"/>
    <path id="Path_3778" data-name="Path 3778" d="M465.175,65.8a5.683,5.683,0,0,0-3.19,2.3c-1.217,1.858-2.053,7.329,1.958,9.882s7.128-1.059,7.18-4.581S470.42,65.18,465.175,65.8Z" transform="translate(-440.211 -63.891)" fill="#fbae79"/>
    <path id="Path_3779" data-name="Path 3779" d="M472.041,72.3c-.342.85-1.021,1.378-1.516,1.178s-.619-1.05-.277-1.9,1.021-1.377,1.516-1.178S472.383,71.452,472.041,72.3Z" transform="translate(-440.211 -63.891)" fill="#fbae79"/>
    <path id="Path_3780" data-name="Path 3780" d="M461.921,73c.291.916.025,1.817-.594,2.014s-1.357-.387-1.647-1.3-.025-1.818.594-2.014S461.631,72.085,461.921,73Z" transform="translate(-440.211 -63.891)" fill="#fbae79"/>
    <path id="Path_3781" data-name="Path 3781" d="M490.166,113.711c-.947-.343-2.358-.385-2.334-.51.1-.507,4.281,1.117,3.715.378-.314-.411-3.447-1.868-4.209-1.627-.738.233-5.589,1.594-5.589,1.594l-13.258-3.107s-3.346-7.6-3.673-14.137a18.217,18.217,0,0,0-7.054,2.392c1.16,6.247,3.978,16.375,7.093,18.275,1.31.8,16.957-.956,16.957-.956a35.534,35.534,0,0,0,4.012-.461c.427-.164,1.528-.784,2.126-.953,1.361-.386,3.784.582,3.792.315A2.621,2.621,0,0,0,490.166,113.711Z" transform="translate(-440.211 -63.891)" fill="#fbae79"/>
    <path id="Path_3782" data-name="Path 3782" d="M464.9,89.321c-.127-2.01-.889-3.951-3.028-4.576a4.329,4.329,0,0,0-3.872.848,5.258,5.258,0,0,0-1.607,4.244,60.766,60.766,0,0,0,.9,10.722,22.947,22.947,0,0,1,7.977-2.51C465.272,98.028,465.068,91.978,464.9,89.321Z" transform="translate(-440.211 -63.891)" fill="#84d9ca"/>
    <path id="Path_3783" data-name="Path 3783" d="M465.77,65.69a27.889,27.889,0,0,1-1.3,2.48c-.07.13-.15.26-.23.39-.91,1.48-2.09,3.02-3.2,3.27-2.1.48-2.17,3.09-2.17,3.32.01-.42.12-6.58,2.12-8.04A8.69,8.69,0,0,1,465.77,65.69Z" transform="translate(-440.211 -63.891)" fill="#1e2600"/>
  </g>
  <g id="Group_2873" data-name="Group 2873" transform="translate(9.354 36.231)">
    <rect id="Rectangle_745" data-name="Rectangle 745" width="15.585" height="22.428" rx="0.76" transform="translate(0 16.744) rotate(-79.452)" fill="#f7c76b"/>
    <rect id="Rectangle_746" data-name="Rectangle 746" width="3.661" height="7.885" rx="0.76" transform="matrix(0.183, -0.983, 0.983, 0.183, 4.514, 3.599)" fill="#f7c76b"/>
    <path id="Path_3784" data-name="Path 3784" d="M424.758,92.586a.76.76,0,0,1-.871.541L403.2,89.274a.76.76,0,0,1-.618-.813l1.083-12.395a.759.759,0,0,1,.9-.681l22.983,4.279a.76.76,0,0,1,.592.954Z" transform="translate(-402.521 -72.404)" fill="#fada9e"/>
  </g>
  <g id="Group_2874" data-name="Group 2874" transform="translate(121.586 7.615)">
    <path id="Path_3785" data-name="Path 3785" d="M519.032,47.3l-3.52.961-.758-4.265,1.152-.2.534,3,2.284-.624Z" transform="translate(-514.754 -43.789)" fill="#40bfa9"/>
  </g>
  <g id="Group_2875" data-name="Group 2875" transform="translate(13.104 68.872)">
    <path id="Path_3786" data-name="Path 3786" d="M406.9,105.874a5.431,5.431,0,0,1,2.841.728,4.107,4.107,0,0,1,1.515,1.564l-.164.113a3.693,3.693,0,0,0-1.893-1.164,4.548,4.548,0,0,0-2.112-.021Z" transform="translate(-406.271 -105.045)" fill="#2a4689"/>
    <path id="Path_3787" data-name="Path 3787" d="M411.174,108.223s-5.37.9-4.87,5.091,6.167,7.46,11.223,4.865c6.8-3.491,4.116-12.365-.726-13.051S411.174,108.223,411.174,108.223Z" transform="translate(-406.271 -105.045)" fill="#d82f3e"/>
    <path id="Path_3788" data-name="Path 3788" d="M413.452,106.376s1.4-1.439,4.471-.13,3.292,7.411.554,7.056S411.263,107.256,413.452,106.376Z" transform="translate(-406.271 -105.045)" fill="#b53926"/>
  </g>
  <g id="Group_2878" data-name="Group 2878" transform="translate(28.855)">
    <rect id="Rectangle_747" data-name="Rectangle 747" width="26.188" height="14.872" rx="1.369" transform="translate(0 8.799) rotate(-19.632)" fill="#729df2"/>
    <path id="Path_3789" data-name="Path 3789" d="M435.757,47.7a4.378,4.378,0,1,1-5.594-2.652A4.378,4.378,0,0,1,435.757,47.7Z" transform="translate(-422.024 -36.173)" fill="#fff"/>
    <path id="Path_3790" data-name="Path 3790" d="M432.261,47.09a1.29,1.29,0,1,1-1.649-.782A1.289,1.289,0,0,1,432.261,47.09Z" transform="translate(-422.024 -36.173)" fill="#729df2"/>
    <path id="Rectangle_748" data-name="Rectangle 748" d="M1.992,0h.141A1.992,1.992,0,0,1,4.125,1.992v0a0,0,0,0,1,0,0H0a0,0,0,0,1,0,0v0A1.992,1.992,0,0,1,1.992,0Z" transform="translate(7.786 14.025) rotate(-19.632)" fill="#729df2"/>
    <g id="Group_2876" data-name="Group 2876" transform="translate(13.719 4.579)">
      <path id="Path_3791" data-name="Path 3791" d="M436.3,45.313a.558.558,0,0,1-.187-1.084l9.655-3.444a.551.551,0,0,1,.188-.033.558.558,0,0,1,.187,1.084l-9.655,3.445A.576.576,0,0,1,436.3,45.313Z" transform="translate(-435.743 -40.752)" fill="#fff"/>
    </g>
    <g id="Group_2877" data-name="Group 2877" transform="translate(16.326 7.74)">
      <path id="Path_3792" data-name="Path 3792" d="M438.908,47.72a.558.558,0,0,1-.188-1.084l7.541-2.69a.552.552,0,0,1,.188-.033A.558.558,0,0,1,446.636,45l-7.541,2.69A.546.546,0,0,1,438.908,47.72Z" transform="translate(-438.349 -43.913)" fill="#fff"/>
    </g>
  </g>
  <path id="Path_3793" data-name="Path 3793" d="M484.716,136.846H431.383a3,3,0,0,0-3,3v2.523a3,3,0,0,0,3,3h53.333l-.028-.03A6.106,6.106,0,0,1,484.716,136.846Z" transform="translate(-393.168 -36.173)" fill="#f46844"/>
  <path id="Path_3794" data-name="Path 3794" d="M483.772,138.107H455.261a3,3,0,0,0-3,3h0a3,3,0,0,0,3,3h28.51A6.115,6.115,0,0,1,483.772,138.107Z" transform="translate(-393.168 -36.173)" fill="#fada9e"/>
  <g id="Group_2882" data-name="Group 2882" transform="translate(130.787 83.316)">
    <g id="Group_2880" data-name="Group 2880">
      <rect id="Rectangle_749" data-name="Rectangle 749" width="17.65" height="12.908" rx="0.995" transform="matrix(0.929, -0.37, 0.37, 0.929, 0, 6.535)" fill="#fada9e"/>
      <path id="Path_3795" data-name="Path 3795" d="M542.089,131.226l-3.632-9.114a.285.285,0,0,1,.159-.371h0a.286.286,0,0,1,.371.159l3.632,9.115a.286.286,0,0,1-.159.371h0A.287.287,0,0,1,542.089,131.226Z" transform="translate(-523.955 -119.489)" fill="#375db6"/>
      <path id="Path_3796" data-name="Path 3796" d="M540.358,130.026l-2.982-7.484a.285.285,0,0,1,.159-.37h0a.285.285,0,0,1,.371.159l2.983,7.483a.285.285,0,0,1-.16.371h0A.287.287,0,0,1,540.358,130.026Z" transform="translate(-523.955 -119.489)" fill="#375db6"/>
      <path id="Path_3797" data-name="Path 3797" d="M539.928,132.088l-3.633-9.115a.285.285,0,0,1,.16-.37h0a.284.284,0,0,1,.37.159l3.633,9.114a.285.285,0,0,1-.159.371h0A.286.286,0,0,1,539.928,132.088Z" transform="translate(-523.955 -119.489)" fill="#375db6"/>
      <path id="Path_3798" data-name="Path 3798" d="M538.018,130.439l-2.8-7.035a.286.286,0,0,1,.159-.371h0a.286.286,0,0,1,.371.16l2.8,7.034a.285.285,0,0,1-.16.371h0A.286.286,0,0,1,538.018,130.439Z" transform="translate(-523.955 -119.489)" fill="#375db6"/>
      <g id="Group_2879" data-name="Group 2879" transform="translate(16.343 1.382)">
        <path id="Path_3799" data-name="Path 3799" d="M541.992,121.14l-.073-.184a.129.129,0,0,0-.164-.076l-1.381.55a.127.127,0,0,0-.066.168l.073.184a.127.127,0,0,0,.164.076l1.38-.55A.128.128,0,0,0,541.992,121.14Z" transform="translate(-540.298 -120.872)" fill="#2a4689"/>
        <path id="Path_3800" data-name="Path 3800" d="M542.3,121.925l-.074-.184a.128.128,0,0,0-.163-.076l-1.381.55a.128.128,0,0,0-.066.168l.073.184a.126.126,0,0,0,.163.076l1.381-.55A.129.129,0,0,0,542.3,121.925Z" transform="translate(-540.298 -120.872)" fill="#2a4689"/>
        <path id="Path_3801" data-name="Path 3801" d="M542.617,122.71l-.073-.184a.128.128,0,0,0-.163-.076L541,123a.128.128,0,0,0-.066.168l.073.184a.127.127,0,0,0,.163.076l1.381-.55A.127.127,0,0,0,542.617,122.71Z" transform="translate(-540.298 -120.872)" fill="#2a4689"/>
        <path id="Path_3802" data-name="Path 3802" d="M542.93,123.5l-.073-.184a.128.128,0,0,0-.164-.076l-1.38.55a.128.128,0,0,0-.067.168l.073.184a.128.128,0,0,0,.164.076l1.381-.55A.127.127,0,0,0,542.93,123.5Z" transform="translate(-540.298 -120.872)" fill="#2a4689"/>
        <path id="Path_3803" data-name="Path 3803" d="M543.243,124.28l-.073-.184a.128.128,0,0,0-.164-.076l-1.38.55a.129.129,0,0,0-.067.169l.073.183a.127.127,0,0,0,.164.076l1.381-.55A.128.128,0,0,0,543.243,124.28Z" transform="translate(-540.298 -120.872)" fill="#2a4689"/>
        <path id="Path_3804" data-name="Path 3804" d="M543.556,125.065l-.073-.183a.128.128,0,0,0-.164-.077l-1.38.55a.129.129,0,0,0-.067.169l.073.183a.127.127,0,0,0,.164.076l1.381-.55A.128.128,0,0,0,543.556,125.065Z" transform="translate(-540.298 -120.872)" fill="#2a4689"/>
        <path id="Path_3805" data-name="Path 3805" d="M543.869,125.85l-.073-.183a.128.128,0,0,0-.164-.077l-1.381.55a.129.129,0,0,0-.066.169l.073.183a.128.128,0,0,0,.164.077l1.381-.551A.128.128,0,0,0,543.869,125.85Z" transform="translate(-540.298 -120.872)" fill="#2a4689"/>
        <path id="Path_3806" data-name="Path 3806" d="M544.182,126.635l-.073-.184a.129.129,0,0,0-.164-.076l-1.381.55a.129.129,0,0,0-.066.169l.073.183a.127.127,0,0,0,.164.076l1.381-.55A.128.128,0,0,0,544.182,126.635Z" transform="translate(-540.298 -120.872)" fill="#2a4689"/>
        <path id="Path_3807" data-name="Path 3807" d="M544.495,127.42l-.073-.183a.129.129,0,0,0-.164-.077l-1.381.55a.129.129,0,0,0-.066.169l.073.183a.128.128,0,0,0,.164.077l1.38-.551A.127.127,0,0,0,544.495,127.42Z" transform="translate(-540.298 -120.872)" fill="#2a4689"/>
        <path id="Path_3808" data-name="Path 3808" d="M544.808,128.205l-.073-.183a.129.129,0,0,0-.164-.077l-1.381.55a.129.129,0,0,0-.066.169l.073.183a.128.128,0,0,0,.164.077l1.38-.551A.127.127,0,0,0,544.808,128.205Z" transform="translate(-540.298 -120.872)" fill="#2a4689"/>
        <path id="Path_3809" data-name="Path 3809" d="M545.121,128.99l-.074-.184a.127.127,0,0,0-.163-.076l-1.381.55a.128.128,0,0,0-.066.169l.073.183a.128.128,0,0,0,.164.077l1.38-.551A.127.127,0,0,0,545.121,128.99Z" transform="translate(-540.298 -120.872)" fill="#2a4689"/>
        <path id="Path_3810" data-name="Path 3810" d="M545.433,129.775l-.073-.183a.127.127,0,0,0-.163-.077l-1.381.55a.128.128,0,0,0-.066.169l.073.183a.127.127,0,0,0,.163.077l1.381-.551A.127.127,0,0,0,545.433,129.775Z" transform="translate(-540.298 -120.872)" fill="#2a4689"/>
      </g>
    </g>
    <g id="Group_2881" data-name="Group 2881" transform="translate(18.889 9.381)">
      <path id="Path_3811" data-name="Path 3811" d="M549.248,128.967l-5.774,8.222a.212.212,0,0,0-.03.06l-.588,1.806a.226.226,0,0,0,.351.251l1.545-1.165a.2.2,0,0,0,.049-.051l5.789-8.242a.227.227,0,0,0-.063-.321l-.972-.62A.226.226,0,0,0,549.248,128.967Z" transform="translate(-542.844 -128.871)" fill="#b74e33"/>
      <path id="Path_3812" data-name="Path 3812" d="M544.795,138.1l-.014.021-1.491,1.123-.407-.272.558-1.712A6.953,6.953,0,0,1,544.795,138.1Z" transform="translate(-542.844 -128.871)" fill="#f7c76b"/>
    </g>
  </g>
  <g id="Group_2883" data-name="Group 2883" transform="translate(92.377 2.382)">
    <path id="Path_3813" data-name="Path 3813" d="M490.755,39.963c.832.663,2.277,2.8,4.122,4.3,1.079.877,1.91.654,3.287.82,6.535.79,4.764,2.126,5.548,2.257-.222.513-2.258,4.84-2.639,5.715a1.6,1.6,0,0,1-1.836,1.047c-1.352-.187-2.716-.326-4.046-.615-3.411-.739-5.308-2.445-7.753-4.517a1.6,1.6,0,0,1-.472-2.012A55.683,55.683,0,0,1,490.755,39.963Z" transform="translate(-485.544 -38.554)" fill="#375db6"/>
    <path id="Path_3814" data-name="Path 3814" d="M504.42,52.543c-.029,1.424.08,1.709-.532,1.493a8.623,8.623,0,0,1-1.072-.478c-.246-.127-.255-.294-.056-.494.29-.292.588-.575.879-.858a1.258,1.258,0,0,1,.553-1.514c.107-.063.029.07.939-2.025-3.01-.371-5.133-.62-8.805-1.072a4.939,4.939,0,0,1-2.614-1.137q-3.935-3.292-7.866-6.586a.725.725,0,0,1-.118-1.07.821.821,0,0,1,.81-.231c.838.1,9.054,1.126,9.888,1.223a5.4,5.4,0,0,1,2.908,1.251q3.865,3.236,7.74,6.461c.354.295.449.566.325.9a.693.693,0,0,1-.886.436c-.325-.07-.469.028-.581.329-.506,1.362-.859,1.664-.737,2.161A1.373,1.373,0,0,1,504.42,52.543Z" transform="translate(-485.544 -38.554)" fill="#729df2"/>
  </g>
  <g id="Group_2885" data-name="Group 2885" transform="translate(124.852 109.263)">
    <path id="Path_3815" data-name="Path 3815" d="M518.05,149.286l1.5,1.428a39.8,39.8,0,0,1,8.519,11.8l.23.486s3.921.347,4.468-3.2h0a59.288,59.288,0,0,1-8.609-12.643l-.708-1.658Z" transform="translate(-518.02 -145.435)" fill="#375db6"/>
    <path id="Path_3816" data-name="Path 3816" d="M523.444,145.5c.193.276-.859,1.342-2.349,2.381s-2.86,1.67-3.052,1.394.866-1.354,2.356-2.393S523.252,145.225,523.444,145.5Z" transform="translate(-518.02 -145.435)" fill="#729df2"/>
    <path id="Path_3817" data-name="Path 3817" d="M523.451,145.511l-.005-.005s-2.985,2.526-4.215,2.784l.38.517a15.846,15.846,0,0,0,1.484-.925C522.568,146.855,523.612,145.8,523.451,145.511Z" transform="translate(-518.02 -145.435)" fill="#2a4689"/>
    <g id="Group_2884" data-name="Group 2884" transform="translate(1.807 7.411)">
      <path id="Path_3818" data-name="Path 3818" d="M527.438,152.846c.005.435-.161,2.315-3.289,3.1q.309.42.607.848a5.026,5.026,0,0,0,3.27-2.375c.063-.123.139-.287.19-.414Q527.82,153.43,527.438,152.846Z" transform="translate(-519.828 -152.846)" fill="#b74e33"/>
      <path id="Path_3819" data-name="Path 3819" d="M524.43,155.39l-4.6-.164,1.091.926-.652,1.183,4.356-1.111Z" transform="translate(-519.828 -152.846)" fill="#b74e33"/>
      <path id="Path_3820" data-name="Path 3820" d="M524.849,156.46l-1.635,2.849,1.15-.438.443.9.769-3Z" transform="translate(-519.828 -152.846)" fill="#b74e33"/>
      <path id="Path_3821" data-name="Path 3821" d="M525.474,157.232a1.512,1.512,0,1,1,1.357-1.611A1.489,1.489,0,0,1,525.474,157.232Z" transform="translate(-519.828 -152.846)" fill="#f46844"/>
    </g>
  </g>
  <g id="Group_2887" data-name="Group 2887" transform="translate(132.035 40.993)">
    <path id="Path_3822" data-name="Path 3822" d="M535.243,92.6l-9.692-8.649a1.43,1.43,0,0,1,.5-2.21l7.736-4.38a1.207,1.207,0,0,1,1.412.066l9.692,8.649a1.43,1.43,0,0,1-.5,2.21l-7.736,4.38A1.207,1.207,0,0,1,535.243,92.6Z" transform="translate(-525.204 -77.166)" fill="#87aef9"/>
    <g id="Group_2886" data-name="Group 2886" transform="translate(8.769 1.278)">
      <path id="Path_3823" data-name="Path 3823" d="M534.784,85.719l-.808-6.645a.6.6,0,0,1,.414-.607.385.385,0,0,1,.526.314l.744,6.115,7.349,1.777a.406.406,0,0,1,.247.577.57.57,0,0,1-.623.367Z" transform="translate(-533.973 -78.444)" fill="#fff"/>
    </g>
  </g>
  <path id="Path_3824" data-name="Path 3824" d="M408.218,55.282l1,1.982,2.263-.073.966,2.3,2.387-.821,1.207,2.554,2.291-.485,1.563,2.267-.858.592-1.169-1.7-2.418.512-1.16-2.455-2.427.835L410.8,58.256l-2.21.072-.929-1.837-1.442.351-.246-1.013Z" transform="translate(-393.168 -36.173)" fill="#f7c76b"/>
  <path id="Path_3825" data-name="Path 3825" d="M529.43,105.981l2.057.836,1.658-1.542,2.24,1.1,1.26-2.187,2.588,1.133,1.409-1.871,2.668.683-.258,1.01-1.995-.51-1.486,1.974-2.487-1.089-1.281,2.224-2.472-1.214-1.62,1.506-1.907-.775-.857,1.211-.851-.6Z" transform="translate(-393.168 -36.173)" fill="#40bfa9"/>
</svg>
