<svg xmlns="http://www.w3.org/2000/svg" xmlns:xlink="http://www.w3.org/1999/xlink" width="469.307" height="285.174" viewBox="0 0 469.307 285.174"><defs><style>.a,.l{fill:#1a2e35;}.a,.h,.j,.k,.l,.n,.t{stroke:#000;}.a,.h,.k,.l,.n,.t{stroke-miterlimit:10;}.a{stroke-width:3px;}.b{fill:#234554;}.c,.j{fill:#fff;}.d{fill:#3c0;}.e{fill:#efac25;}.f{fill:#f80492;}.g{fill:#eea886;}.h,.k,.x{fill:#ffb27d;}.h{stroke-width:0.5px;}.i{fill:#292c47;}.j{stroke-linecap:round;stroke-linejoin:round;}.m{fill:#a77860;}.n{fill:#6e6760;stroke-width:2px;}.o{fill:#e2d2ca;}.p{fill:#706865;}.q{fill:#ccbdb7;}.r{fill:url(#a);}.s{fill:#b59074;}.t{fill:#e8505b;}.u{fill:#ead8cf;}.v{fill:#da9b5b;}.w{fill:#424773;}.y{fill:#323657;}.z{fill:#3a3f47;}.aa{fill:#736a67;}.ab{fill:#5e5854;}.ac{fill:#bfb2ac;}.ad{fill:url(#b);}.ae{fill:#f5f7ff;}.af{fill:#ffc655;}.ag{fill:#918783;}.ah{fill:#dfe1e8;}.ai{fill:#5c747a;}.aj{fill:url(#c);}.ak{fill:#3a7d8d;}.al{fill:#deccc5;}.am{fill:url(#d);}.an{fill:#8187e3;}.ao{fill:#c5d2de;}.ap{fill:url(#e);}.aq{fill:url(#f);}.ar{fill:#cfbfb8;}.as{fill:#25354d;}.at{fill:#2f4563;}.au{fill:#eddad3;}.av{fill:#c4c4c4;}</style><linearGradient id="a" x1="0.5" y1="0.527" x2="0.5" y2="1.056" gradientUnits="objectBoundingBox"><stop offset="0.083" stop-color="#bcd7e8"/><stop offset="1" stop-color="#e6e7e8"/></linearGradient><linearGradient id="b" x1="-37.002" y1="0.5" x2="-36.002" y2="0.5" xlink:href="#a"/><linearGradient id="c" x1="0.5" y1="1.175" x2="0.5" y2="-0.491" gradientUnits="objectBoundingBox"><stop offset="0" stop-color="#3076a1"/><stop offset="1" stop-color="#639c38"/></linearGradient><linearGradient id="d" x1="-80.087" y1="0.5" x2="-78.838" y2="0.5" gradientUnits="objectBoundingBox"><stop offset="0" stop-color="#7f90de"/><stop offset="1" stop-color="#8f55ff"/></linearGradient><linearGradient id="e" x1="0.5" y1="1.056" x2="0.5" y2="-0.775" xlink:href="#c"/><linearGradient id="f" x1="-0.169" y1="0.5" x2="1.08" y2="0.5" xlink:href="#d"/></defs><g transform="translate(0 1.5)"><g transform="translate(98.637)"><rect class="a" width="299.594" height="215.44" rx="8.429" transform="translate(299.594 215.44) rotate(180)"/><g transform="translate(5.431 6.525)"><path class="b" d="M602.8,1899.675v192.891c0,2.182-1.5,3.952-3.344,3.952h-283.8c-1.847,0-3.345-1.77-3.345-3.952V1899.675c0-2.182,1.5-3.951,3.345-3.951h283.8C601.307,1895.724,602.8,1897.493,602.8,1899.675Z" transform="translate(-312.311 -1895.724)"/></g><g transform="translate(101.043 14.674)"><rect class="b" width="184.838" height="175.721"/><g transform="translate(8.773 9.686)"><path class="c" d="M440.441,2005.47l.156,8.2,158.529-.663.337-8.281Z" transform="translate(-439.07 -1932.593)"/><path class="c" d="M556.627,1917.332l-117.846,1.044.165,8.651,117.472-.981Z" transform="translate(-438.78 -1917.332)"/><path class="c" d="M488.762,1941.1l-49.54.384.163,8.531,49.383-.358Z" transform="translate(-438.857 -1921.483)"/><path class="d" d="M514.656,1940.819l-.033,8.564,99.617-.724.351-8.616Z" transform="translate(-452.024 -1921.298)"/><g transform="translate(1.042 54.577)"><path class="e" d="M514.074,1984.042l-74.032.422.158,8.31,73.8-.383Z" transform="translate(-440.042 -1983.558)"/><path class="c" d="M544.976,1983.874l-.111,8.354,73.211-.381.342-8.392Z" transform="translate(-458.346 -1983.456)"/></g><path class="c" d="M441.744,2073.888l.149,7.859,155.159-.14.323-7.932Z" transform="translate(-439.298 -1944.633)"/><path class="f" d="M489.212,2053.611l-47.85.111.152,7.961,47.7-.089Z" transform="translate(-439.231 -1941.129)"/><path class="c" d="M514.22,2053.53l-.03,7.99,96.2-.182.327-8.033Z" transform="translate(-451.948 -1941.076)"/><g transform="translate(0.702 36.781)"><path class="c" d="M439.631,1962.975l.161,8.419,160.621-1,.346-8.5Z" transform="translate(-439.631 -1961.895)"/><g transform="translate(2.061 108.866)"><g transform="translate(0 0.031)"><path class="c" d="M513.663,2093.832l-71.535.029.148,7.761,71.32,0Z" transform="translate(-442.128 -2093.832)"/></g><g transform="translate(83.602)"><path class="d" d="M543.52,2093.819l-.1,7.8,70.725,0,.319-7.826Z" transform="translate(-543.417 -2093.794)"/></g></g></g></g></g></g><g transform="translate(109.958 45.257)"><path class="g" d="M458.1,2112.368c-.039.02-.087.039-.125.058-.232-.405-.4-.7-.473-.839C457.6,2111.713,457.806,2111.982,458.1,2112.368Z" transform="translate(-343.554 -1972.15)"/><path class="g" d="M460.882,2110.511a.278.278,0,0,1-.058.048c-.31-.473-.522-.781-.579-.878C460.323,2109.778,460.544,2110.067,460.882,2110.511Z" transform="translate(-344.033 -1971.817)"/><path class="g" d="M463.357,2108v.009a1.427,1.427,0,0,1-.116.135l-.483-.724C462.827,2107.472,463.039,2107.685,463.357,2108Z" transform="translate(-344.472 -1971.423)"/><path class="h" d="M468.6,2111.679c.029.965-.464,1.351-1.217.637-.608-.579-5.289-5.164-7-6.824v-.009c-.319-.319-.531-.531-.6-.58l.483.724c1.66,2.48,6.843,10.29,7.017,10.936.116.454-.792,1.255-1.236.917-.357-.29-5.791-7.384-7.7-9.883-.338-.444-.56-.734-.637-.83.058.1.27.405.579.878,1.67,2.519,6.206,9.429,6.177,10a.917.917,0,0,1-1.612.444c-.454-.58-5.087-6.689-6.814-8.967-.29-.386-.492-.656-.6-.781.077.135.241.434.473.839,1.168,2.076,3.851,6.959,3.543,7.433-.242.356-.995,1.09-2.076-.946s-4.179-6.563-4.179-6.563a.728.728,0,0,1-.135-.106c-2.664-2.413-3.774-6.756-4.333-7.084a33.1,33.1,0,0,1-3.012-3.793l5.975-5.125s1.863,4.256,3.648,3.726a15.92,15.92,0,0,1,5.26-.29c1.11.126,4.729-.724,4.517.628s-5.907,1.67-7.094,1.959c-1.033.261,2.094,2.6,3.1,3.967,0,.01.009.019.019.029C462.38,2104.306,468.567,2110.82,468.6,2111.679Z" transform="translate(-341.497 -1968.903)"/><g transform="translate(20.021 119.907)"><path class="i" d="M396.435,2130.27H372.867c-.52-2.735-.985-4.39-1.324-4.351s-1.009,1.686-1.852,4.351H343.7c1.2-10.183,2.727-21.542,3.917-30.567.078-.559.149-1.1.22-1.624.41-3.082.717-5.352.867-6.439.063-.473.094-.726.094-.726.568-.26,1.159-.5,1.774-.717,14.724-5.289,43.115.307,43.115.307s.016.142.047.4c.04.315.095.819.173,1.466.166,1.395.41,3.484.686,5.9,0,.024.008.04.008.056l.023.221c.993,8.607,1.482,13.328,2.262,22.511C396.932,2121.584,396.743,2125.162,396.435,2130.27Z" transform="translate(-343.704 -2087.924)"/></g><g transform="translate(0 40.371)"><path class="j" d="M376.214,1992.606s24.11,5.119,26.121,11.819,5.911,22.436,11.341,39.55c3.249,10.239,19.751,33.558,19.751,33.558s-9.443,6.96-9.443,6.022-22.237-30.611-22.5-34.229-7.006-22.121-7.006-22.121-3.192,35.573-3.192,41.067.363,16.62.363,16.62-8.934,3.423-26.282,2.518c0,0-27.611-.948-22.9-9.364,3.564-6.363,1.379-49.171.844-49.439s-10.161,11.788-9.224,14.109,25.849,10.646,25.849,10.646.728,2.683-3.142,8.76c0,0-37.209-10.873-37.343-13.151s15.477-46.52,20.574-48.836c7.34-3.334,26.533-8.576,26.533-8.576Z" transform="translate(-319.447 -1991.561)"/></g><path class="k" d="M384.473,1981.947s-.994,5.444.716,9.163c0,0,1.739,8.665-7.132,9.053s-9.075-7.56-9.075-7.56,2.122-2.85.706-10.6S384.473,1981.947,384.473,1981.947Z" transform="translate(-328.097 -1948.917)"/><g transform="translate(37.399 1.435)"><path class="k" d="M378.342,1944.5s11.352,1.831,9.623,20.018-11.747,16.7-12.417,16.678-10.057.332-10.789-21.874C364.759,1959.321,364.439,1942.9,378.342,1944.5Z" transform="translate(-364.758 -1944.389)"/></g><g transform="translate(60.122 15.827)"><path class="k" d="M392.948,1962.424s1.243-1.359,1.7.016-1.619,7.305-1.773,7.8c0,0-.227.534-.525.24S392.948,1962.424,392.948,1962.424Z" transform="translate(-392.289 -1961.825)"/></g><g transform="translate(35.902 15.576)"><path class="k" d="M364.718,1962.141s-1.217-1.384-1.7-.017,1.526,7.6,1.625,7.836c0,0,.216.538.521.25S364.718,1962.141,364.718,1962.141Z" transform="translate(-362.945 -1961.521)"/></g><g transform="translate(36.336)"><path class="l" d="M387.91,1961.866l-1.625,2.224a45.453,45.453,0,0,0-.215-5.642c-.261-.766.308-3.429.09-3.979s-7.763,1.5-20.139.239c0,0,1.376,4.394.57,4.706s-.411,5.713-.411,5.713l-1.336-1.543s-1.509-9.225-1.363-10.765c.2-2.05-.5-11.622,16.914-9.979a10.529,10.529,0,0,1,5.5,2.161,7.871,7.871,0,0,1,3.461,6.571A100.424,100.424,0,0,1,387.91,1961.866Z" transform="translate(-363.471 -1942.649)"/></g><path class="m" d="M371.585,1986.71s4.683,5.467,12.117,0c0,0-2.084,4.147-6.455,4.245S371.585,1986.71,371.585,1986.71Z" transform="translate(-328.551 -1950.344)"/><rect class="n" width="36.525" height="55.002" transform="matrix(0.96, 0.279, -0.279, 0.96, 21.591, 62.733)"/><path class="k" d="M377.2,2072.786a2.736,2.736,0,0,1-.81,2.269s.039,1.438-.714,1.824a4.71,4.71,0,0,1-1.486.135s-.878-.261-1.515-.415a3.359,3.359,0,0,0-.493-.086,8.827,8.827,0,0,1-2.692-.454c-1.139-.444-4.98-2.423-4.98-2.423l1.1-3.572.83-2.828s6.5-1.728,7.6-1.438a2.847,2.847,0,0,1,.309.1.341.341,0,0,1,.106.048c.483-.019,2.268-.077,2.876-.164.695-.106.261,1.342-.541,1.651.531.357,1.265.907,1.322,1.274a1.836,1.836,0,0,1-.511,1.708A4.393,4.393,0,0,1,377.2,2072.786Z" transform="translate(-327.316 -1964.148)"/><path class="j" d="M350.564,2019.648,344.6,2030.92s-2.951,6.314-9.088,16.7c0,0,3.777,3.587,25.849,10.645a13.455,13.455,0,0,1-3.142,8.761s-27.324-8.525-30.578-9.806" transform="translate(-320.878 -1956.095)"/><path class="c" d="M329.889,2053.483c-2.98-1.188,10.831-38.411,10.831-38.411l10.162,3.509Z" transform="translate(-321.197 -1955.296)"/><path class="j" d="M385.841,1992.713l-.588-1.854s-4.057,1.888-15.816.58l-.721,2.052" transform="translate(-328.05 -1951.068)"/><path class="c" d="M368.3,1993.883l-1.95,5.551s10.092,8.793,21.01-.236l-1.934-6.092" transform="translate(-327.638 -1951.46)"/></g><g transform="translate(0 94.711)"><g transform="translate(59.691 78.567)"><rect class="o" width="36.751" height="2.181"/></g><g transform="translate(64.617 86.426)"><rect class="p" width="3.22" height="99.215" transform="translate(3.22 99.215) rotate(180)"/></g><g transform="translate(90.691 77.949)"><rect class="q" width="25.545" height="3.115"/></g><g transform="translate(98.627 51.367)"><rect class="r" width="9.674" height="29.382"/></g><g transform="translate(46.508 80.785)"><rect class="s" width="108.126" height="5.641"/></g><g transform="translate(7.848 37.165)"><path class="t" d="M207.229,2057.07s-1.548,21.708,2.694,24.307c2.657,1.628,13.251,7.117,12.937,8.146s-5.982,9.16-5.982,9.16-20.35-13.4-21.007-17.624c-.641-4.126,1-31.786,3.8-33.061,2.095-.954,3.2-.165,5.841,1.8C209.217,2052.545,207.229,2057.07,207.229,2057.07Z" transform="translate(-195.733 -2047.594)"/></g><g transform="translate(52.485 47.051)"><path class="u" d="M253.762,2065.359l1.793-.664s-2.237-5.25-3.213-5.122a24.318,24.318,0,0,0-2.528.518Z" transform="translate(-249.814 -2059.571)"/></g><g transform="translate(45.373 46.7)"><path class="v" d="M252.667,2066.191c-.229-.171-3.813-7.046-3.813-7.046l-7.656,1.04,4.137,8.143Z" transform="translate(-241.198 -2059.146)"/></g><g transform="translate(36.067 171.528)"><path class="w" d="M238.237,2210.951s-.632,4.392-.711,5.052-7.04-.388-7.04-.388l-.564-5.229S237.367,2210.331,238.237,2210.951Z" transform="translate(-229.922 -2210.384)"/></g><g transform="translate(34.979 176.29)"><path class="i" d="M237.369,2216.451a18.792,18.792,0,0,0,4.338,3.8c2.133,1.155,5.485,1.61,6.747,2.8.91.863,3.315,4.573-5.543,4.5s-13.13.525-14.079-.9,1.373-10.5,1.373-10.5S232.3,2216.909,237.369,2216.451Z" transform="translate(-228.604 -2216.154)"/></g><g transform="translate(80.662 171.569)"><path class="w" d="M292.269,2211s-.633,4.393-.712,5.053-7.04-.388-7.04-.388l-.564-5.23S291.4,2210.381,292.269,2211Z" transform="translate(-283.953 -2210.434)"/></g><g transform="translate(79.575 176.333)"><path class="i" d="M291.4,2216.5a18.8,18.8,0,0,0,4.338,3.8c2.133,1.153,9.983,2.1,11.244,3.3.91.862,2.425,4.332-10.041,4.008-8.855-.231-13.13.524-14.079-.9s1.373-10.5,1.373-10.5S286.213,2217.011,291.4,2216.5Z" transform="translate(-282.635 -2216.205)"/></g><g transform="translate(15.621 96.218)"><path class="i" d="M211.461,2119.141s25.306,4.282,31.022,5.18,36.707,8.609,40.582,10.959c3.085,1.871-1.618,46.794-2.716,63.933H268.142l-.886-51.413c-14.648.365-25.1-3.427-35.768-1.807s-19.559,3.923-26.337-5.168C205.152,2140.825,204.9,2121.127,211.461,2119.141Z" transform="translate(-205.15 -2119.141)"/></g><g transform="translate(10.644 101.691)"><path class="i" d="M235.351,2200.413l-11.9-.736-1.16-50.719a72.317,72.317,0,0,1-13.571-.862l-9.6-22.325c8.417,1.683,35.386,8.484,38.983,10.665C241.188,2138.308,236.449,2183.272,235.351,2200.413Z" transform="translate(-199.121 -2125.772)"/></g><g transform="translate(27.209 0.917)"><path class="k" d="M225.562,2004.121s9.276-2.564,12.816,4.638,1.935,20.854-2.74,22.138-11.4-.195-13.34-4.677-3.489-10.851-3.024-14.976S223.1,2005.107,225.562,2004.121Z" transform="translate(-219.19 -2003.678)"/></g><g transform="translate(28.816 20.388)"><path class="x" d="M222.165,2028.444c-.343-4.443,11.566,5.136,11.566,5.136" transform="translate(-221.315 -2027.268)"/><path class="k" d="M233.553,2033.829s-.1,5.478.5,6.644-12.918.875-12.918.875,2.131-6.576.922-12.18a3.534,3.534,0,0,1-.072-.475" transform="translate(-221.137 -2027.517)"/></g><g transform="translate(26.67)"><path class="l" d="M220.877,2022.532s.722,1.469,4.223,1.232,8.116-4.459,9.6-4.837,1.575-1.223,1.575-1.223l.786,1.4,1.523.232s-1.035-4.232,1.219-5.722-1.015-13.492-12.428-10.6c0,0-8.709,1.6-8.827,6.459S219.186,2019.956,220.877,2022.532Z" transform="translate(-218.538 -2002.567)"/></g><g transform="translate(28.993 29.603)"><path class="j" d="M234.8,2042.033s-.038-2.231-1.049-2.445-10.628-1.537-11.87-1.049l-.532,2.946S223.743,2042.957,234.8,2042.033Z" transform="translate(-221.352 -2038.432)"/></g><g transform="translate(41.334 11.664)"><path class="g" d="M240.2,2019.174c-.26-1.829-2.338-3.928-3.529-1.081s.8,7,2.139,6.773S240.55,2021.655,240.2,2019.174Z" transform="translate(-236.304 -2016.698)"/></g><g transform="translate(82.711 59.56)"><path class="y" d="M286.451,2074.729a.026.026,0,0,0-.016,0C286.5,2074.758,286.515,2074.761,286.451,2074.729Z" transform="translate(-286.435 -2074.727)"/></g><g transform="translate(25.207 2.665)"><path class="z" d="M222.432,2005.8s-11.31-.532-1.973,17.126Z" transform="translate(-216.765 -2005.795)"/></g><g transform="translate(5.673 168.907)"><path class="aa" d="M193.1,2220.65l.841,2.367L229.491,2212l-1.7-4.793Z" transform="translate(-193.098 -2207.208)"/></g><g transform="translate(39.245 133.361)"><rect class="aa" width="4.041" height="38.652"/></g><g transform="translate(29.348 131.308)"><rect class="ab" width="23.833" height="2.277"/></g><g transform="translate(40.777 168.606)"><path class="aa" d="M272.022,2220.586l-.841,2.367-35.552-11.016,1.562-5.094Z" transform="translate(-235.629 -2206.844)"/></g><g transform="translate(40.777 168.606)"><path class="aa" d="M246.973,2222.7v2.754l-11.345-13.516,1.562-5.094Z" transform="translate(-235.629 -2206.844)"/></g><g transform="translate(73.847 182.318)"><ellipse class="ac" cx="3.322" cy="3.322" rx="3.322" ry="3.322"/></g><g transform="translate(45.758 182.318)"><path class="ac" d="M248.31,2226.781a3.323,3.323,0,1,1-3.323-3.323A3.323,3.323,0,0,1,248.31,2226.781Z" transform="translate(-241.664 -2223.457)"/></g><g transform="translate(2.35 182.318)"><path class="ac" d="M195.717,2226.781a3.323,3.323,0,1,1-3.322-3.323A3.322,3.322,0,0,1,195.717,2226.781Z" transform="translate(-189.072 -2223.457)"/></g><g transform="translate(13.19 122.68)"><path class="aa" d="M1.466,0H55a1.467,1.467,0,0,1,1.467,1.467V7.161A1.466,1.466,0,0,1,55,8.627H1.466A1.466,1.466,0,0,1,0,7.161V1.466A1.466,1.466,0,0,1,1.466,0Z"/></g><g transform="translate(138.34 86.426)"><rect class="p" width="2.46" height="99.215"/></g><g transform="translate(61.698 6.593)"><path class="ad" d="M2.61,0H80.921a2.61,2.61,0,0,1,2.61,2.61V56.317a2.61,2.61,0,0,1-2.61,2.61H2.611A2.611,2.611,0,0,1,0,56.316V2.61A2.61,2.61,0,0,1,2.61,0Z"/></g><g transform="translate(64.969 9.778)"><rect class="ae" width="76.988" height="46.507"/></g><g transform="translate(98.637 73.289)"><path class="af" d="M327.849,2098.932v-1.048s-1.474-6.523-11.9-6.523-10.217,7.571-10.217,7.571Z" transform="translate(-305.731 -2091.361)"/></g><g transform="translate(96.207 70.218)"><path class="k" d="M305.09,2091.68a10.3,10.3,0,0,0,3.1-.676c.829-.5,5.795-3.841,6.961-3.307s8.929,2.913,8.659,4.048-.987,1.026-1.535.825-6.184-1.384-6.681-1.185c0,0,5.537,2.019,5.559,3.493s-1.159,1.833-1.684,2.39-1.156,1.941-2.582,2.048-8.388-2.316-9.821-2.427-4.086.089-4.266-.145S305.09,2091.68,305.09,2091.68Z" transform="translate(-302.786 -2087.64)"/></g><g transform="translate(10.056 32.656)"><path class="t" d="M245.622,2045.771c-7.223-1.27-14.825-3.092-14.825-3.092l-13.452-.548s-12.345,2.717-17.207,4.914c-.461.208-.463,11.014-1.729,13.847l4.031,8.5s2.329,16.846,2.812,24.338c.222,3.44-.627,33.24-.627,33.24s1.208.6,10.389,1.608,32.12-.366,32.264-1.45-4.442-40.376-4.646-42.411c-.311-3.123.9-17.554.9-17.554,1.729,2.323,6.139,12.816,10.736,17.809,2.7,2.937,16.092,4.738,18.615,4.822,5.494.182,15.515,1.277,15.808.742.234-.32.873-8.9.245-9.1-.551-.184-19.159-1.255-23.926-3.784-1.744-.925-6.958-12.294-6.958-12.294S249.607,2047.561,245.622,2045.771Z" transform="translate(-198.408 -2042.131)"/></g><g transform="translate(0 62.709)"><rect class="aa" width="38.938" height="53.928" rx="6.842"/></g><g transform="translate(11.74 97.137)"><path class="ag" d="M220.747,2152.277c-5.74,0-10.4-1.927-13.84-5.729-7.784-8.594-6.385-23.7-6.322-24.34a2.166,2.166,0,0,1,4.311.426c-.016.173-1.256,13.865,5.23,21.014,2.624,2.891,6.1,4.3,10.62,4.3a2.166,2.166,0,1,1,0,4.332Z" transform="translate(-200.448 -2120.255)"/></g><g transform="translate(70.428 13.483)"><rect class="ah" width="22.552" height="2.457" rx="1.051"/></g><g transform="translate(70.428 18.753)"><rect class="ah" width="22.552" height="2.457" rx="1.051"/></g><g transform="translate(70.428 24.797)"><rect class="ah" width="22.552" height="27.784" rx="1.563"/></g><g transform="translate(97.532 13.483)"><path class="ah" d="M1.567,0H38.594a1.567,1.567,0,0,1,1.567,1.567V37.531A1.568,1.568,0,0,1,38.593,39.1H1.568A1.568,1.568,0,0,1,0,37.531V1.567A1.567,1.567,0,0,1,1.567,0Z"/></g><g transform="translate(72.209 16.098)"><rect class="ai" width="11.064" height="1.353" transform="translate(27.466)"/><rect class="ai" width="18.123" height="1.353" transform="translate(43.692)"/><rect class="ai" width="12.117" height="0.948" transform="translate(27.466 6.2)"/><rect class="ai" width="12.117" height="0.948" transform="translate(27.466 11.494)"/><rect class="ai" width="15.12" height="0.948" transform="translate(45.879 6.148)"/><rect class="ai" width="15.12" height="0.948" transform="translate(45.879 11.442)"/><rect class="ai" width="29.784" height="0.948" transform="translate(27.466 22.509)"/><rect class="ai" width="29.784" height="0.948" transform="translate(27.466 27.906)"/><rect class="ai" width="29.784" height="0.948" transform="translate(27.185 16.807)"/><rect class="ai" width="16.771" height="0.948" transform="translate(0 10.967)"/><rect class="ai" width="16.771" height="0.948" transform="translate(0 15.858)"/><rect class="ai" width="16.771" height="0.948" transform="translate(0 20.477)"/><rect class="ai" width="16.771" height="0.948" transform="translate(0 24.27)"/><rect class="ai" width="16.771" height="0.948" transform="translate(0 28.854)"/><rect class="ai" width="16.771" height="0.948" transform="translate(0 33.372)"/><path class="ai" d="M307.275,2063.451v-.948h15.12v.948" transform="translate(-279.572 -2029.131)"/></g></g><g transform="translate(309.629 73.73)"><g transform="translate(39.408 187.61)"><path class="aj" d="M11.166,0h85.9a0,0,0,0,1,0,0V22.333a0,0,0,0,1,0,0h-85.9A11.167,11.167,0,0,1,0,11.166v0A11.166,11.166,0,0,1,11.166,0Z"/><path class="ak" d="M731.921,2206.749v17.736h2.128v2.3H645.692c-4.665,0-8.447-1.876-8.447-4.19V2208.64c0-2.314,3.782-4.19,8.447-4.19h88.357v2.3Z" transform="translate(-614.02 -2204.45)"/><path class="c" d="M8.868,0H88.182a0,0,0,0,1,0,0V17.736a0,0,0,0,1,0,0H8.868A8.868,8.868,0,0,1,0,8.868v0A8.868,8.868,0,0,1,8.868,0Z" transform="translate(29.717 2.298)"/><rect class="al" width="34.361" height="0.439" transform="translate(69.389 11.077)"/><rect class="al" width="36.691" height="0.439" transform="translate(53.282 12.411)"/></g><g transform="translate(32.673 168.415)"><path class="am" d="M9.6,0H98.879a0,0,0,0,1,0,0V19.194a0,0,0,0,1,0,0H9.6A9.6,9.6,0,0,1,0,9.6v0A9.6,9.6,0,0,1,9.6,0Z" transform="translate(121.846 19.194) rotate(180)"/><path class="an" d="M603.075,2183.17v15.242h-2.128v1.976h88.032c4.845,0,8.773-2.168,8.773-4.844v-9.506c0-2.675-3.928-4.844-8.773-4.844H600.947v1.976Z" transform="translate(-600.947 -2181.193)"/><path class="c" d="M7.621,0H89.79a0,0,0,0,1,0,0V15.243a0,0,0,0,1,0,0H7.621A7.621,7.621,0,0,1,0,7.621v0A7.621,7.621,0,0,1,7.621,0Z" transform="translate(91.921 17.218) rotate(-180)"/><rect class="ao" width="26.619" height="0.292" transform="translate(64.183 6.894) rotate(180)"/><rect class="ao" width="28.425" height="0.292" transform="translate(76.662 7.782) rotate(180)"/></g><g transform="translate(28.969 144.334)"><path class="ap" d="M10.3,0h97.441a0,0,0,0,1,0,0V24.081a0,0,0,0,1,0,0H10.3A10.3,10.3,0,0,1,0,13.779V10.3A10.3,10.3,0,0,1,10.3,0Z"/><path class="ak" d="M732.214,2154.5v19.124h2.128v2.48H642.818a5.282,5.282,0,0,1-5.281-5.282V2157.3a5.281,5.281,0,0,1,5.281-5.282h91.524v2.479Z" transform="translate(-603.631 -2152.017)"/><path class="c" d="M8.181,0h82.24a0,0,0,0,1,0,0V19.124a0,0,0,0,1,0,0H8.181A8.181,8.181,0,0,1,0,10.943V8.181A8.181,8.181,0,0,1,8.181,0Z" transform="translate(38.159 2.478)"/><rect class="al" width="34.36" height="0.683" transform="translate(80.07 6.562)"/><rect class="al" width="36.691" height="0.473" transform="translate(63.962 13.383)"/></g><g transform="translate(49.588 120.252)"><path class="aq" d="M10.3,0H84.978a0,0,0,0,1,0,0V24.081a0,0,0,0,1,0,0H10.3A10.3,10.3,0,0,1,0,13.779V10.3A10.3,10.3,0,0,1,10.3,0Z"/><path class="an" d="M728.193,2125.319v19.124h1.548v2.48H664.608a5.289,5.289,0,0,1-5.289-5.289v-13.5a5.289,5.289,0,0,1,5.289-5.289H729.74v2.478Z" transform="translate(-628.055 -2122.84)"/><path class="c" d="M8.182,0h57.6a0,0,0,0,1,0,0V19.124a0,0,0,0,1,0,0H8.181A8.181,8.181,0,0,1,0,10.943V8.182A8.182,8.182,0,0,1,8.182,0Z" transform="translate(34.358 2.479)"/><rect class="ao" width="24.996" height="0.683" transform="translate(64.847 6.562)"/><rect class="ao" width="26.691" height="0.473" transform="translate(53.129 13.384)"/></g><path class="ar" d="M595.406,2115.287a16.13,16.13,0,0,1-2.006-4.147,4.915,4.915,0,0,0-1.146-2.409s-6.533-.95-9.044-3.281-7.83-8.679-10.34-6.776,1.82,9.907,4.383,12.326,6.033,6.657,9.184,6.344S593.882,2115.532,595.406,2115.287Z" transform="translate(-563.239 -1998.307)"/><path class="as" d="M599.667,2112.378l-3.152-6.156s15.085-2.764,19.5-5.421c1.106-.667,2.205-1.335,3.231-1.967a58.414,58.414,0,0,0,4.944-3.262c2.178-1.853,10.909-8.039,13.27-10.311s5.142-.887,8.819-.85,17,3.728,20.981,4.258,18.375,3.2,18.375,3.2C683.1,2098.792,599.667,2112.378,599.667,2112.378Z" transform="translate(-567.5 -1995.799)"/><path class="at" d="M683.972,2093.273s-8.118,1.17-10.206,1.329c-2.136.162-14.225,1.135-20.055,1.7s-17.28.225-19.552,1.223-15.4,5.449-19.7,6.837-32.223,6.5-32.223,6.5a9.442,9.442,0,0,0,1.993,6.688s12.309-1.1,18.8-.144,17.841-.5,24.727-3.624,17.8-.274,23.9,1.869,29.423,3.866,32.333,3.212a28.95,28.95,0,0,0,12.92-8.028C701.122,2106.258,683.972,2093.273,683.972,2093.273Z" transform="translate(-565 -1997.425)"/><path class="au" d="M580.591,2118.087a16.123,16.123,0,0,1-.943-4.51,4.059,4.059,0,0,0-.378-2.3s-6.26-2.815-8.133-5.684-5.5-10.315-8.394-9.077-.63,10.054,1.271,13.022,3.077,10.86,6.213,11.318S579.053,2117.956,580.591,2118.087Z" transform="translate(-561.361 -1997.967)"/><path class="at" d="M718.774,2086.977s10.261,23.283-5.666,28.929c-12.7,4.5-36.122.357-36.122.357l14.408-22.7Z" transform="translate(-581.552 -1996.326)"/><path class="l" d="M695.513,1979.934c3.906.869,1.577,10.678,4.2,24.392s10.884,15.858,10.884,15.858-3.67-6.081-3.269-12.439c.314-4.968,6.332-18.522.383-27.383-4.6-6.845-12.7-.631-12.7-.631Z" transform="translate(-584.699 -1977.147)"/><path class="k" d="M700.63,2013.656l-7.6,7.818a16.892,16.892,0,0,0-1.138-4.638c-.266-.712-.536-1.357-.754-1.856-.288-.655-.491-1.063-.491-1.063l6.776-7.166Z" transform="translate(-583.938 -1982.317)"/><path class="t" d="M690.231,2021.864a18.817,18.817,0,0,1-2.341,7.227c-2.047,3.469-5.431,9.226-4.951,12.969a9.186,9.186,0,0,0,3.51,6.45c1.439,1.348,5.388,11.075,5.867,14.818a71.767,71.767,0,0,1-.128,17.24s26.638,3.092,29.318-1.563c0,0-3.306-14.966-4.866-18.716s-4.823-26.188-6.223-30-4.7-7.5-6.721-10.15c-1.8-2.364-5.089-6.761-5.089-6.761Z" transform="translate(-582.583 -1983.474)"/><path class="k" d="M685.383,1981.478a11.923,11.923,0,0,0-11.192,12.292,29.093,29.093,0,0,0,1.4,4.358c.833,1.894-.257,7.884.235,8.115a12.761,12.761,0,0,0,2.43.378s2.77,6.086,4.984,5.776,10.414-3.016,13.462-11.337S699.579,1980.53,685.383,1981.478Z" transform="translate(-581.064 -1977.894)"/><path class="l" d="M674.136,1993.431s6.123,3.214,11.845,3.345,10.414,9.305,10.414,9.305,6.93-15.547-1.006-23.434C687.477,1974.783,671.664,1982.781,674.136,1993.431Z" transform="translate(-581.009 -1977.555)"/><path class="g" d="M690.162,1999.937a1.745,1.745,0,0,1,2.888-1.587c1.96,1.283.155,6.746-1.368,6.407S690.26,2001.068,690.162,1999.937Z" transform="translate(-583.852 -1980.772)"/><path class="m" d="M697.6,2011.708c-.106.177-2.894,4.743-4.678,6.2-.266-.712-.537-1.358-.754-1.856C692.17,2016.055,696.151,2013.682,697.6,2011.708Z" transform="translate(-584.203 -1983.182)"/><rect class="av" width="37.884" height="3.297" transform="matrix(-0.983, 0.186, -0.186, -0.983, 93.127, 97.686)"/><rect class="av" width="37.884" height="3.297" transform="translate(55.887 104.716) rotate(-124.438)"/><path class="k" d="M637.7,2096.574c-.184-.827,0-2.209,2.606-3.6s8.232-4.57,10.211-4.646,5.876.237,6.676.233-1.254,4.708-1.254,4.708Z" transform="translate(-574.682 -1996.559)"/><path class="k" d="M659.238,2078.294s10.861-4.274,12.624-5.126,9.988-3.617,10.718-3.982,4.167-20.9,4.471-26.066.608-16.115,6.446-15.629,7.236,4.317,6.506,11.857-5.047,34.541-6.871,35.453-22.767,5.6-33.81,7.8C648.754,2084.709,659.238,2078.294,659.238,2078.294Z" transform="translate(-577.643 -1985.936)"/><path class="t" d="M693.159,2044.487s8.412,1.57,13.262,2.057c0,0,6.035-17.192-2.18-19.938C694.5,2023.349,692.325,2036.673,693.159,2044.487Z" transform="translate(-584.347 -1985.696)"/></g></g></svg>