<svg xmlns="http://www.w3.org/2000/svg" width="122" height="122" viewBox="0 0 122 122"><defs><style>.a,.b,.g{fill:none;}.a,.d,.g{stroke:#35495e;stroke-width:3px;}.c{fill:#ddd;}.d{fill:#fff;}.d,.g{stroke-linecap:round;stroke-linejoin:round;}.e{fill:#47ae99;}.f{fill:#65c0c3;}.h{stroke:none;}</style></defs><g class="a"><circle class="h" cx="61" cy="61" r="61"/><circle class="b" cx="61" cy="61" r="59.5"/></g><g transform="translate(30.03 19.248)"><path class="b" d="M1269.937,651.431l-40.861-.025a4.382,4.382,0,0,1-4.381-4.382l.047-74.719a4.38,4.38,0,0,1,4.387-4.377l53.126.033a4.384,4.384,0,0,1,4.38,4.383L1286.6,634.8Z" transform="translate(-1224.695 -567.927)"/><path class="c" d="M1309.572,709.729l.008-12.772a3.8,3.8,0,0,1,3.8-3.8l12.777.008Z" transform="translate(-1264.256 -626.298)"/><line class="d" x2="8.553" y2="0.005" transform="translate(36.106 16.186)"/><line class="d" x2="17.597" y2="0.011" transform="translate(36.11 9.123)"/><rect class="e" width="23.626" height="21.976" transform="translate(7.851 8.307)"/><rect class="e" width="18.578" height="18.402" transform="translate(35.632 36.628)"/><path class="f" d="M1256.549,601.207V599.68a5.2,5.2,0,0,0,1.281-2.514c0,.031.029-.159.027-.126,1.437.147,2.409-4.276.9-3.74.157-.478.327-1.06.489-1.735.048-.2-.007.192.083.475a3.145,3.145,0,0,0-2.14-4.6c-.763-.916-1.959-1.454-3.956-1.114-1.853.314-3.536,1.032-3.932,3.338.3-.249.551-.349.888-.592-.7.849-.892,1.793-.431,3.991-1.5-.225-.558,3.856.833,3.882a4.934,4.934,0,0,0,1.772,2.736s.021.9,0,1.525c-.01.293-2.5.357-3.318.544a3.42,3.42,0,0,0-2.787,2.368,16.12,16.12,0,0,0,0,2.578l16.433.05a11.82,11.82,0,0,0,0-2.619,3.236,3.236,0,0,0-2.431-2.354C1259.433,601.483,1256.584,601.526,1256.549,601.207Z" transform="translate(-1234.717 -576.454)"/><line class="d" x2="22.295" y2="0.014" transform="translate(8.601 52.32)"/><line class="d" x2="45.08" y2="0.029" transform="translate(8.596 59.705)"/><line class="d" x2="22.294" y2="0.014" transform="translate(8.606 44.936)"/><line class="d" x2="22.295" y2="0.014" transform="translate(8.61 37.551)"/><path class="g" d="M1269.937,651.431l-40.861-.025a4.382,4.382,0,0,1-4.381-4.382l.047-74.719a4.38,4.38,0,0,1,4.387-4.377l53.126.033a4.384,4.384,0,0,1,4.38,4.383L1286.6,634.8Z" transform="translate(-1224.695 -567.927)"/></g></svg>