<svg xmlns="http://www.w3.org/2000/svg" width="86" height="36" viewBox="0 0 86 36">
  <g id="Google" transform="translate(0.389 0.04)">
    <g id="Rectangle_16" data-name="Rectangle 16" transform="translate(-0.389 -0.04)" fill="#fff" stroke="#707070" stroke-width="1">
      <path d="M0,0H76A10,10,0,0,1,86,10V26A10,10,0,0,1,76,36H0a0,0,0,0,1,0,0V0A0,0,0,0,1,0,0Z" stroke="none"/>
      <path d="M1,.5H76A9.5,9.5,0,0,1,85.5,10V26A9.5,9.5,0,0,1,76,35.5H1A.5.5,0,0,1,.5,35V1A.5.5,0,0,1,1,.5Z" fill="none"/>
    </g>
    <g id="google-2" data-name="google" transform="translate(30.611 5.96)">
      <path id="Path_27" data-name="Path 27" d="M5.178,146.077l-.813,3.036-2.972.063a11.7,11.7,0,0,1-.086-10.908h0l2.646.485,1.159,2.63a6.972,6.972,0,0,0,.066,4.694Z" transform="translate(0 -131.959)" fill="#fbbb00"/>
      <path id="Path_28" data-name="Path 28" d="M272.849,208.176a11.677,11.677,0,0,1-4.164,11.292h0l-3.333-.17-.472-2.945a6.962,6.962,0,0,0,3-3.555h-6.246v-4.621h11.221Z" transform="translate(-249.69 -198.677)" fill="#518ef8"/>
      <path id="Path_29" data-name="Path 29" d="M48.111,316.081h0a11.685,11.685,0,0,1-17.6-3.574l3.786-3.1a6.947,6.947,0,0,0,10.011,3.557Z" transform="translate(-29.117 -295.29)" fill="#28b446"/>
      <path id="Path_30" data-name="Path 30" d="M46.456,2.689l-3.784,3.1A6.947,6.947,0,0,0,32.43,9.425L28.625,6.309h0a11.684,11.684,0,0,1,17.832-3.62Z" transform="translate(-27.318)" fill="#f14336"/>
    </g>
  </g>
</svg>
