<svg xmlns="http://www.w3.org/2000/svg" width="1497.778" height="499.337" viewBox="0 0 1497.778 499.337"><defs><style>.a{fill:#fff9fd;}.b{fill:#dbecf7;}.c{fill:#dfe5ea;}.d{fill:#01a0a6;}.e{fill:#b3e3e4;}.f{fill:#002164;}.g{fill:#42c395;}.h{fill:#9070cf;}.i{fill:#7ae5c9;}.j{fill:#6346a8;}.k{fill:#f8f2ed;}.l{fill:#fed44e;}.m{fill:#ffc104;}.n{fill:#98e3ec;}.o{fill:#e2d4ca;}.p{fill:#7270f5;}.q{fill:#353b9a;}.r{fill:#0a7575;}.s{fill:#ffae02;}.t{fill:#d3836a;}.u{fill:#e8a393;}.v{fill:#ffb294;}.w{fill:#1a2e35;}.x{fill:#091619;}.y{fill:#ca0045;}.af,.aq,.y{opacity:0.32;}.af,.aq,.as,.y{isolation:isolate;}.ae,.z{fill:#fff;}.aa{fill:#8494b4;}.ab{fill:#e7e7e7;}.ac,.af{fill:#f9f9f9;}.ad{fill:#ffa77c;}.ae{stroke:#000;stroke-linecap:round;stroke-linejoin:round;stroke-width:0.7px;}.ag{fill:#1e3b76;}.ah{fill:#6d43af;}.ai{fill:#aab5cb;}.aj{fill:#e0e0e0;}.ak{fill:#7695a8;}.al{fill:#b8daf0;}.am{fill:#a1adc6;}.an{fill:#1d3b66;}.ao{fill:#002152;}.ap{fill:#919191;}.aq{fill:#006b98;}.ar{fill:#e8505b;}.as{fill:#0071bc;opacity:0.2;}</style></defs><path class="a" d="M618.15,429.8H611.6v-6.552h-3.687V429.8h-6.549v3.687h6.552v6.552H611.6v-6.552h6.552Z" transform="translate(-141.587 -272.332)"/><g transform="translate(-141.587 -272.332)"><rect class="b" width="401.588" height="225.265" transform="translate(172.649 392.007)"/><path class="c" d="M480.256,673.266c0,4.663-75.814,8.443-169.334,8.443s-169.335-3.78-169.335-8.443,75.814-8.444,169.335-8.444S480.256,668.6,480.256,673.266Z"/><rect class="d" width="57.938" height="39.193" rx="2.633" transform="translate(382.431 340.656)"/><rect class="e" width="52.671" height="32.95" transform="translate(385.065 343.778)"/><path class="d" d="M406,353.414v16.14l15.712-8.07Z"/><path class="e" d="M282.262,361.494h-37.8l11.883,16.547-23.038-16.547h-9.286a2.912,2.912,0,0,1-2.912-2.912h0V321.067a2.912,2.912,0,0,1,2.912-2.912h58.241a2.912,2.912,0,0,1,2.912,2.912h0v37.515A2.912,2.912,0,0,1,282.262,361.494Z"/><path class="f" d="M245.232,349.856h-7.07v-6.641h7.074Z"/><path class="f" d="M256.346,349.856h-7.074v-6.641h7.074Z"/><path class="f" d="M267.462,349.856h-7.075v-6.641h7.075Z"/><path class="g" d="M413.64,522.791v7H334.268v18.274H413.64v7H244.386V522.791Z"/><path class="h" d="M223.908,559.922v-.015h-5.134v-4.839H396.727v22.308H218.774v-4.839h5.134c1.693-.163,3.04-2.919,3.04-6.3S225.6,560.085,223.908,559.922Z"/><rect class="i" width="76.714" height="32.277" transform="translate(244.386 522.791)"/><rect class="j" width="98.218" height="22.309" transform="translate(298.508 555.068)"/><path class="k" d="M413.64,529.792v.023c-2.446.235-4.394,4.219-4.394,9.114s1.948,8.88,4.394,9.115v.023H328.348V529.792Z"/><path class="l" d="M205.262,667.367v-4.9H321.328v-12.79H205.262v-4.9h247.5v22.589Z"/><rect class="m" width="112.181" height="22.589" transform="translate(340.584 644.777)"/><path class="k" d="M205.262,662.467v-.016a6.379,6.379,0,1,0,.011-12.758h-.011v-.016H329.985v12.79Z"/><path class="i" d="M439.508,577.376v7H354.443V602.65h85.065v7h-181.4V577.376Z"/><rect class="n" width="104.401" height="32.276" transform="translate(235.929 577.376)"/><path class="k" d="M439.508,584.377v.023c-2.621.235-4.709,4.219-4.709,9.115s2.088,8.879,4.709,9.114v.023H247.769V584.377Z"/><path class="o" d="M340.062,584.377H439.5v.023c-2.621.235-4.709,4.219-4.709,9.115s2.088,8.879,4.709,9.114v.023H340.062Z"/><path class="p" d="M215.71,644.777v-7.619h96.022V617.272H215.71v-7.619H408.484v35.125Z"/><rect class="q" width="104.858" height="35.125" transform="translate(325.907 609.653)"/><path class="k" d="M215.71,637.158v-.024c2.634-.256,4.731-4.592,4.731-9.919s-2.1-9.663-4.731-9.919v-.024H418.873v19.886Z"/><path class="o" d="M326.171,637.158H215.71v-.024c2.634-.256,4.731-4.592,4.731-9.919s-2.1-9.663-4.731-9.919v-.024H326.171Z"/><rect class="k" width="54.908" height="0.011" transform="translate(223.908 572.537)"/><path class="k" d="M226.948,566.228c0-3.387-1.347-6.143-3.04-6.306v-.015h68.409v12.63H223.908C225.6,572.37,226.948,569.614,226.948,566.228Z"/><path class="i" d="M319.325,422.161s9.8,35.361,14.627,41.147,20.573,14.3,20.573,14.3L350.346,485s-28.625-14.589-33.592-26.521a90.171,90.171,0,0,1-5.787-18.323c-.789-4.377-4.024-15.264-2.41-19.609C309.608,417.723,317.075,416.214,319.325,422.161Z"/><path class="r" d="M319.325,422.161s9.8,35.361,14.627,41.147,20.573,14.3,20.573,14.3L350.346,485s-28.625-14.589-33.592-26.521a90.171,90.171,0,0,1-5.787-18.323c-.789-4.377-4.024-15.264-2.41-19.609C309.608,417.723,317.075,416.214,319.325,422.161Z"/><path class="f" d="M417.562,590.948l7.226-6.751s28.9-2.124,30.583.411-27.4,16.256-31.134,16.007S418.054,593.732,417.562,590.948Z"/><path class="s" d="M364.6,493.193s27.324-6.954,29.574-2.454S424.788,584.2,424.788,584.2l-7.226,6.751s-30.419-75.084-39.228-82.932S360.524,496.29,364.6,493.193Z"/><path class="t" d="M364.6,493.193s27.324-6.954,29.574-2.454S424.788,584.2,424.788,584.2l-7.226,6.751s-30.419-75.084-39.228-82.932S360.524,496.29,364.6,493.193Z"/><path class="s" d="M350.507,476.809a24.31,24.31,0,0,0,5.679-2.279c1.521-.834,2.991-1.629,4.822-1.366,1.3.186,11.8,4.557,9,6.511-.907.634-3.17-.475-4.076-.8-1.288-.462-2.587-1.092-3.823-1.643,1.13-.056,6.808,2.351,6.212,3.678-1.047,2.332-6.8-.784-8.135-1.534,1.021.158,4.577,1.493,4.572,2.789-.007,2.038-4.231.336-5.148-.132a6.235,6.235,0,0,0-1.927-.937,7.648,7.648,0,0,0-2.572.455,15.093,15.093,0,0,1-4.476.086c-.876-.081-2.912.1-3.348-.646a3.235,3.235,0,0,1,.565-3.188A6.431,6.431,0,0,1,350.507,476.809Z"/><path class="u" d="M350.507,476.809a24.31,24.31,0,0,0,5.679-2.279c1.521-.834,2.991-1.629,4.822-1.366,1.3.186,11.8,4.557,9,6.511-.907.634-3.17-.475-4.076-.8-1.288-.462-2.587-1.092-3.823-1.643,1.13-.056,6.808,2.351,6.212,3.678-1.047,2.332-6.8-.784-8.135-1.534,1.021.158,4.577,1.493,4.572,2.789-.007,2.038-4.231.336-5.148-.132a6.235,6.235,0,0,0-1.927-.937,7.648,7.648,0,0,0-2.572.455,15.093,15.093,0,0,1-4.476.086c-.876-.081-2.912.1-3.348-.646a3.235,3.235,0,0,1,.565-3.188A6.431,6.431,0,0,1,350.507,476.809Z"/><path class="f" d="M397.841,429.585l6.427,2.638-22.076,53.271-6.5-3.51Z"/><rect class="f" width="42.031" height="6.529" transform="translate(336.015 481.054)"/><path class="f" d="M261.68,450.688c5.622-3.216,6.561-6.765,3.448-18.527S270.163,408.2,278,404.973c5.759-2.371,10.815-3.417,14.317-9.554s-3.135-19.227,7.956-28.918c8.08-7.063,19.676-1.422,19.676-1.422,2.494-1.38,3.523,13.166,3.7,24.106-14.043,21.5-10.042,49.583-4.925,73.647a11.1,11.1,0,0,0,.514,1.614c-1.1,18.626-1.989,34.045-1.989,34.045s-33.761,19.115-56.723,2.75S250.416,457.133,261.68,450.688Z"/><path class="f" d="M360.953,586.535l8.572,4.929s10.5,27,8.573,29.36-23.575-21.431-24.431-25.074S358.435,587.821,360.953,586.535Z"/><path class="v" d="M350.023,491.6s55.077,3.857,60.22,8.786-41.616,90.565-41.616,90.565l-7.674-4.413s11.572-40.719,14.573-50.148,8.786-20.788,7.715-22.288-56.577,6.858-56.149-8.787S350.023,491.6,350.023,491.6Z"/><path class="t" d="M322.862,398.7s-5.787,15.751-2.251,27.484l-19.287-4.661s7.891-26.36,11.266-30.86S322.862,398.7,322.862,398.7Z"/><path class="t" d="M314.825,412.839c-6.316,0-9.589,4.665-9.891,9.551l-3.61-.872s7.891-26.36,11.266-30.86,10.272,8.037,10.272,8.037a64.955,64.955,0,0,0-3.241,15.291A10.143,10.143,0,0,0,314.825,412.839Z"/><path class="v" d="M324.856,378.164s7.494,3.58,9.284,6.6.224,7.2.373,9.955.91,6.86.492,7.531-3.177,0-3.624.6-4.027,2.833-5.146,5.369-2.609,2.759-5.219,1.491-12.6-14.466-12.714-20.655S317.436,375.629,324.856,378.164Z"/><path class="f" d="M318.51,369.765s3.5,6.993,3.858,9.766-2.291,10.972-3.858,12.057-.241-9.163-4.22-6.028.241,9.042,0,10.248-2.05,5.063-6.149,5.425-10.851-20.014-6.39-25.078S313.807,369.765,318.51,369.765Z"/><path class="w" d="M295.377,474.666l25.546-1.929s13.293,14.846,26.423,14.846h44.9s-2.263,18.683-13.072,33.506c0,0-42.815,3.149-63.6,1.435S275.017,497.886,295.377,474.666Z"/><path class="x" d="M292.99,477.665c.732-1,1.509-2,2.387-3l25.546-1.929s12.94,14.424,25.9,14.811C331.172,489.132,301.272,492.6,292.99,477.665Z"/><path class="y" d="M380.386,490.583c-6.508-.636-12.828-2.19-19.236-3h28.165C386.534,489.012,385.162,491.051,380.386,490.583Z"/><path class="d" d="M303.773,412.621s11.728,4.613,15.7,5.041c0,0,8.261,18.215,11.476,23.144s-8.149,23.788-8.79,31.931c0,0-6.83,6.52-27.523,2.51C294.639,475.247,289.238,424.083,303.773,412.621Z"/><path class="r" d="M300.635,423.5c3.59-1.645,9.83.038,11.576,3.636,2.161,4.452-.059,12.359.2,17.176.276,5.062.593,11.8,1.873,16.728a34.842,34.842,0,0,0,6.741,12.494c-2.651,1.6-10.338,4.82-26.389,1.71,0,0-3.292-31.2,2.185-50.328C298.318,424.409,299.7,423.932,300.635,423.5Z"/><path class="s" d="M346.489,476.809a24.31,24.31,0,0,0,5.679-2.279c1.521-.834,2.991-1.629,4.822-1.366,1.3.186,11.8,4.557,9,6.511-.907.634-3.171-.475-4.076-.8-1.288-.462-2.587-1.092-3.823-1.643,1.129-.056,6.807,2.351,6.211,3.678-1.046,2.332-6.8-.784-8.134-1.534,1.021.158,4.577,1.493,4.572,2.789-.008,2.038-4.231.336-5.149-.132a6.175,6.175,0,0,0-1.926-.937,7.648,7.648,0,0,0-2.572.455,15.093,15.093,0,0,1-4.476.086c-.876-.081-2.913.1-3.348-.646a3.235,3.235,0,0,1,.565-3.188A6.43,6.43,0,0,1,346.489,476.809Z"/><path class="d" d="M348.257,476.551l-2.25,8.456s-55.292-6.43-56.578-16.234,2.251-55.446,15.592-50.708.16,37.85,2.249,40.421S348.257,476.551,348.257,476.551Z"/><path class="f" d="M317.962,365.917a11.064,11.064,0,0,1,13.463.6c6.873,5.547,6.632,13.865,12.3,13.142,0,0-3.737,9.645-11.936,7.355S315.11,371.7,317.962,365.917Z"/><path class="a" d="M383.628,424.336h-6.552v-6.552h-3.687v6.552h-6.552v3.687h6.552v6.552h3.687v-6.552h6.552Z"/><path class="a" d="M210.357,474.223H203.8v-6.552h-3.687v6.552h-6.556v3.687h6.552v6.552H203.8V477.91h6.552Z"/><path class="a" d="M467.933,543.7h-6.552v-6.552h-3.687V543.7h-6.552v3.687h6.552v6.552h3.687v-6.552h6.552Z"/><path class="z" d="M447.081,478.481c0,5.438-6.84,7.038-6.84,9.157v.84H433.4v-2c0-2.92,5.2-4.6,5.2-7.838a2.625,2.625,0,0,0-2.444-2.794q-.1-.006-.2-.006c-2.161,0-2.6,1.679-2.6,3.359a10.232,10.232,0,0,0,.039,1.08h-7.357c-.041-.521-.12-1-.12-1.52,0-5.2,4.64-8.438,10.919-8.438C442.962,470.322,447.081,473.522,447.081,478.481Zm-6.241,19.835h-7.917v-7.4h7.917Z"/><path class="z" d="M239.68,421.769c0,4.108-5.168,5.317-5.168,6.918v.635h-5.167v-1.511c0-2.206,3.929-3.475,3.929-5.922a1.984,1.984,0,0,0-1.848-2.111c-.049,0-.1,0-.146,0-1.632,0-1.965,1.269-1.965,2.538a7.41,7.41,0,0,0,.03.816h-5.559c-.031-.393-.091-.756-.091-1.148,0-3.928,3.506-6.376,8.25-6.376C236.562,415.6,239.68,418.022,239.68,421.769Zm-4.718,14.985H228.98v-5.589h5.982Z"/><path class="z" d="M462.962,415.219v11.908l-1.282,8.3h-4.294l-1.282-8.3V415.219Zm-.289,25.431a3.285,3.285,0,1,1-3.3-3.269h0a3.146,3.146,0,0,1,3.3,2.982c.005.1.005.191,0,.287Z"/><path class="z" d="M207.356,540.219h-5.4v-5.064h5.4Z"/><path class="z" d="M215.831,540.219h-5.395v-5.064h5.395Z"/><path class="z" d="M224.308,540.219h-5.4v-5.064h5.4Z"/></g><g transform="translate(-141.587 -272.332)"><path class="z" d="M559.489,609.093h-5.4v-5.064h5.4Z"/><path class="z" d="M567.962,609.093h-5.395v-5.064h5.395Z"/><path class="z" d="M576.44,609.093h-5.394v-5.064h5.394Z"/></g><g transform="translate(-141.587 -272.332)"><rect class="b" width="407.192" height="225.265" transform="translate(1232.173 395.532)"/><rect class="aa" width="4.42" height="221.31" transform="translate(1470.953 430.451)"/><rect class="ab" width="233.292" height="145.047" rx="9" transform="translate(1351.976 307.821)"/><rect class="ac" width="206.219" height="113.999" transform="translate(1365.285 317.704)"/><rect class="l" width="53.822" height="68.17" transform="translate(1497.739 346.344)"/><rect class="i" width="43.682" height="6.794" transform="translate(1502.809 352.766)"/><rect class="p" width="43.682" height="6.794" transform="translate(1502.809 365.354)"/><rect class="z" width="43.682" height="6.794" transform="translate(1502.809 377.943)"/><rect class="z" width="43.682" height="6.794" transform="translate(1502.809 390.532)"/><rect class="z" width="43.682" height="6.794" transform="translate(1502.809 403.12)"/><path d="M1415.407,345.752s10.986.064,12.519,7.226.17,15.21,2.043,20.25,7.707,19.1-4.811,19.9-14.562-2.786-17.628-2.918-7.664,7.26-16.733,3.033-5.11-13.733-1.193-14.883,2.39-7.915,1.448-10.169c-1.959-4.687-3.406-19.1,9.964-23.345C1411.823,341.412,1415.407,345.752,1415.407,345.752Z"/><path class="t" d="M1404.862,371.77c-.814,9.643-1.464,21.067-5.433,29.2.445,3.908,2.606,11.337,12.667,11.076,8.528-.221,11.05-5.557,11.744-9.519-3.985-6.774-6.408-15.877-6.958-24.84C1412.985,377.68,1407.574,373.721,1404.862,371.77Z"/><path class="v" d="M1407.7,349.357s13.8.663,16.646,3.515,2.72,8.644,3.515,17.133-4.421,17.862-9.019,19.1-17.244-6.676-19.012-19.874S1402.393,348.91,1407.7,349.357Z"/><path class="s" d="M1511.34,388.172s6.752-7.494,9.37-11.616c2.582-4.064,12.221-17.466,14.228-15.363,1.989,2.085-6.31,13.186-6.31,13.186s8.042-14.383,10.858-12.8c2.778,1.56-7.462,14.2-7.462,14.2s8.725-12.165,10.222-10.464-.282,4.373-7.468,13.253c0,0,6.157-7.651,7.651-5.243s-5.538,9.155-8,10.644c-2.494,1.51-14.566,7.927-17.82,11.079C1516.61,395.049,1510.82,392.065,1511.34,388.172Z"/><path class="ad" d="M1533.773,375.977c-.706-1.83-3.563-1.678-5.278-1.523a7.528,7.528,0,0,0-5.4,2.582c-.722.881-1.292,1.772-2.089,2.6-1.532,1.6-.505,2.956-.026,4.692.14.506,3.494,1.012,6.722-.281a12.531,12.531,0,0,0,5.208-4.469C1533.532,378.308,1534.018,376.611,1533.773,375.977Z"/><path class="s" d="M1522.445,378.11s7.676-5.207,10.059-3.618.265,3.618-7.853,6.97c0,0-2.647,3.971-4.5,4.412C1520.151,385.874,1517.425,380.934,1522.445,378.11Z"/><path d="M1413.837,346.219s3.788,16.5-7.972,18.571a11.012,11.012,0,0,0-1.415,9.323c1.68,5.128,5.439,16.07-1.348,18.6s-11.916-1.6-9.175-12.265,2.741-16.507,4.421-24.288S1403.24,342.644,1413.837,346.219Z"/><path d="M1407.1,345.637s.863,14.9,13.752,15.519,13.01-8.511,11.41-10.731S1424.8,339.491,1407.1,345.637Z"/><path class="ae" d="M1420.135,394.327s-4.63,5.841-6.924,6.723-11.429-6.484-11.429-6.484-12.571,7.014-22.983,8.249c0,0-9.291,3.353-12.763,28.941h83.351s-.588-5.353,0-5.353,4.588,5.353,11.059,5.353H1488.8s23.278-22.562,34.043-38.356l-10.014-9.955s-34.029,36.488-36.852,36.488-24.471-18.177-25.353-18.706S1427.367,400.331,1420.135,394.327Z"/><path class="af" d="M1536.9,431.4h-24.173s57.107-44.654,58.229-45.915v12.807C1564.642,404.849,1536.9,431.4,1536.9,431.4Z"/><path class="af" d="M1570.962,329.4v18.076c-4.3,5.261-101.092,78.307-107,83.977h-43.671C1431.962,422.2,1566.495,332.748,1570.962,329.4Z"/><path class="af" d="M1482.455,317.7H1505.4c-.167.139-.338.274-.5.416-9.541,8.192-103.984,101.866-114.574,113.281l-21.928.053C1382.538,416.788,1456.027,343.261,1482.455,317.7Z"/><path class="af" d="M1365.285,373.99V351.826c11.472-11.4,23.6-23.391,34.51-34.122h22.44C1405.762,333.814,1383.7,355.639,1365.285,373.99Z"/><rect class="ag" width="23.831" height="4.817" transform="translate(1461.247 646.943)"/><path class="c" d="M1639.362,679.508c0,4.663-82.934,8.443-185.238,8.443s-185.237-3.78-185.237-8.443,82.933-8.444,185.237-8.444S1639.362,674.845,1639.362,679.508Z"/><path class="t" d="M1555.535,441.555h-13.314s-1.918,18.138-5.391,20.3c0,0-4.285,21.426,12.048,21.426,19.764,0,12.047-21.426,12.047-21.426C1557.452,459.693,1555.535,441.555,1555.535,441.555Z"/><path class="v" d="M1566.189,445.1c-1.845-2.122-4.059,1.107-4.059,1.107s3.044-11.994,0-17.253-12.916-2.491-12.916-2.491-9.872-2.768-12.917,2.491,0,17.253,0,17.253-2.214-3.229-4.059-1.107,3.044,7.473,4.151,8.119c0,0,7.1,13.285,12.825,13.285s12.824-13.285,12.824-13.285C1563.145,452.579,1568.034,447.228,1566.189,445.1Z"/><path d="M1546.73,431.221s-7.473,1.314-8.3,5.327a15.888,15.888,0,0,0,.4,5.985c.19,1.018.907,6.479.638,6.611a1.151,1.151,0,0,1-.969-.167,13.66,13.66,0,0,1-2.525-3.052c-1.421-2.078-3.459-1.73-4.048-.415,0,0-1.66-19.687,6.574-20.378S1546.73,431.221,1546.73,431.221Z"/><path d="M1551.594,431.221s7.473,1.314,8.3,5.327a15.851,15.851,0,0,1-.4,5.985c-.189,1.018-.907,6.479-.637,6.611a1.151,1.151,0,0,0,.969-.167,13.659,13.659,0,0,0,2.525-3.052c1.421-2.078,3.459-1.73,4.047-.415,0,0,1.661-19.687-6.573-20.378S1551.594,431.221,1551.594,431.221Z"/><path d="M1562.578,426.3a6.017,6.017,0,0,0-3.511-5.247c-3.688-2.007-11.022-2.906-16.835,0s-7.576,3.564-9.272,2.6-.622-1.938-.622-1.938-3.806-.034-3.621,5.87,7.444,13.24,16.928,13.24C1560.131,440.816,1564.817,430.691,1562.578,426.3Z"/><path class="h" d="M1560.925,461.851c-.7,18.215-12.05,16.335-12.05,16.335s-11.346,1.88-12.045-16.335c0,0-18.124,5.01-26.962,10.934a174.977,174.977,0,0,1,4,33.568l10.361,40.132,24.645,1.22,24.644-1.22,10.362-40.132a175.044,175.044,0,0,1,4-33.568C1579.044,466.861,1560.925,461.851,1560.925,461.851Z"/><path class="ah" d="M1582.1,483.309c-11.265,6.005-16.742,19.818-27.683,26.587-11.32,7-19.332-7.145-24.838-14.5a42.772,42.772,0,0,0-18.119-14.423,171.332,171.332,0,0,1,2.413,25.383l10.361,40.132,24.645,1.22,24.644-1.22,10.362-40.132a170.936,170.936,0,0,1,2.35-25C1584.8,481.979,1583.4,482.613,1582.1,483.309Z"/><path class="p" d="M1594.573,562.739c0-14.083-17.468-23.347-17.468-23.347h-58.692s-17.468,9.264-17.468,23.347a70.316,70.316,0,0,0,1.411,10.873h19.5c-.793,1.43-1.511,2.765-2.08,3.891-.174.344-.369.644-.55.974h14.182c1.068,0,3.1.446,2.794-1.131-.428-2.238-1.819-3.512-.455-5.864a8.121,8.121,0,0,1,6.045-3.4c.462-.01.923-.006,1.372,0q4.6.105,9.2,0a16.521,16.521,0,0,1,3.422.565c.993.165,2.3.172,2.857,1.172.673,1.2.779,3.082,1.023,4.416a25.387,25.387,0,0,1-.324,4.238h19.886a52.028,52.028,0,0,1-3.407-4.865h17.341A70.147,70.147,0,0,0,1594.573,562.739Z"/><path class="w" d="M1594.573,562.739c0-14.083-17.468-23.347-17.468-23.347h-58.692s-17.468,9.264-17.468,23.347a70.316,70.316,0,0,0,1.411,10.873h19.5c-.793,1.43-1.511,2.765-2.08,3.891-.174.344-.369.644-.55.974h16.96c.441,0-.689-2.445-.791-2.668a4.4,4.4,0,0,1-.292-2.925,5.957,5.957,0,0,1,1.94-2.61c2.779-2.341,6.636-2.432,10.087-2.332,3.373.1,7.086-.369,10.025,1.607a6.039,6.039,0,0,1,1.51,1.289c2.037,2.523.969,4.835.673,7.639h19.886a51.906,51.906,0,0,1-3.407-4.865h17.345A70.064,70.064,0,0,0,1594.573,562.739Z"/><path class="h" d="M1509.868,472.785s-22.415,48.436-20.785,54.883c.408,1.612,27.671,18.075,40.5,15.713l5.223-.961S1515.762,472.436,1509.868,472.785Z"/><path class="h" d="M1587.839,472.785s22.414,48.436,20.784,54.883c-.407,1.612-27.67,18.075-40.5,15.713l-5.223-.961S1581.946,472.436,1587.839,472.785Z"/><path class="ah" d="M1518.6,489.727a34.021,34.021,0,0,1-.858,7.073c-1.984,8.752-5.106,17.888-1.828,26.777,2.479,6.725,6.452,13.554,10.115,20.01a16.317,16.317,0,0,0,3.553-.206l5.223-.961S1526.075,510.339,1518.6,489.727Z"/><path class="ah" d="M1575.584,543.134a31.477,31.477,0,0,0,2.482-12.906c-.3-8.945-.35-17.888-.207-26.837.062-3.866.162-7.613.389-11.281-7.266,20.608-15.352,50.31-15.352,50.31l5.223.961A21.306,21.306,0,0,0,1575.584,543.134Z"/><path d="M1526.506,646.567s-14.218,16.918-15.88,20.519,2.4,8.125,7.94,6.278,8.771-5.632,8.863-8.032,3.047-3.682,4.339-3.872,8.679-8.592,7.94-10.9-4.445-4.837-4.445-4.837Z"/><path d="M1569.012,646.567s14.218,16.918,15.88,20.519-2.4,8.125-7.94,6.278-8.771-5.632-8.863-8.032-3.047-3.682-4.34-3.872-8.678-8.592-7.939-10.9,4.446-4.837,4.446-4.837Z"/><rect class="aa" width="4.636" height="97.798" transform="translate(1492.398 575.993)"/><rect class="aa" width="4.636" height="97.798" transform="translate(1599.499 575.993)"/><rect class="ag" width="126.851" height="12.53" transform="translate(1483.305 568.112)"/><path class="w" d="M1531.483,562c-1.694-4.028-2.038-12.55-13.441-12.55-21.963,0-16.814,17.6-16.48,20.231,3.325,26.207,19.26,78.485,19.26,78.485h22s-8-64.058-9.235-73.939C1533.413,572.869,1532.646,564.765,1531.483,562Z"/><path class="w" d="M1564.082,562c1.694-4.028,2.038-12.55,13.441-12.55,21.976,0,16.814,17.6,16.48,20.231-3.325,26.207-19.26,78.485-19.26,78.485h-22s8-64.058,9.235-73.939C1562.152,572.869,1562.919,564.765,1564.082,562Z"/><rect class="aa" width="64.591" height="3.829" transform="translate(1516.582 542.974)"/><path class="ai" d="M1590.673,498.194h-83.59s-4.511,0-3.738,5.033,11.31,40.241,13.435,40.241h64.2c1.868,0,12.661-35.206,13.435-40.241S1590.673,498.194,1590.673,498.194Z"/><path class="aj" d="M1552.337,522.567a3.459,3.459,0,1,1-3.459-3.459h0A3.459,3.459,0,0,1,1552.337,522.567Z"/><path d="M1393.411,406.494h-.134c-23.127.084-17.4,21.316-17.4,21.316h1.985c-2.192-18.754,13.844-18.528,15.414-18.461v.006h.134v-.006c1.57-.067,17.606-.293,15.414,18.461h1.985S1416.537,406.578,1393.411,406.494Z"/><path class="m" d="M1421.274,468.776l-8.17,15.489s8.678,42.715,25.19,36.592S1421.274,468.776,1421.274,468.776Z"/><path class="t" d="M1399.2,444.545h-11.921s1.147,16.391-5.387,19.945c0,0,.917,11.576,11.348,11.576s11.348-11.576,11.348-11.576C1398.062,460.936,1399.2,444.545,1399.2,444.545Z"/><path class="v" d="M1407.647,417.952c-2.708-4.126-14.4-1.779-14.4-1.779s-11.694-2.347-14.4,1.779.247,10.431,0,15.245,2.708,23.88,14.4,23.88,14.648-19.066,14.4-23.88S1410.355,422.079,1407.647,417.952Z"/><path d="M1394.162,410.616s-3.4,19.063,13.793,24.565c0,0,5.044-9.893-.611-18.222S1394.162,410.616,1394.162,410.616Z"/><path d="M1402.9,412.459s-3.622,26.469-23.872,21.884c0,0-6.3-14.022,2.865-21.129S1402.9,412.459,1402.9,412.459Z"/><path class="f" d="M1373.771,431.51s-3.915-.754-4.076,2.307.193,8.71,2.273,9.428a5.779,5.779,0,0,0,3.9-.087Z"/><path class="f" d="M1377.2,424.555s-4.157.424-4.319,3.485,1.561,16.755,3.64,17.473a8.309,8.309,0,0,0,4.587-.1Z"/><path class="f" d="M1413.055,431.526s3.922-.711,4.051,2.351-.287,8.707-2.374,9.4a5.775,5.775,0,0,1-3.9-.129Z"/><path class="f" d="M1409.7,424.535s4.152.469,4.28,3.531-1.739,16.735-3.821,17.435a8.314,8.314,0,0,1-4.585-.151Z"/><path class="v" d="M1416.015,445.712a12.33,12.33,0,0,1,1.552,3.219,22.934,22.934,0,0,1,.753,4.94c.112,1.556.2,4.52.432,7.411a15.084,15.084,0,0,1,7.025-2.551c-.527-3.344-1.051-7.238-.76-7.985.527-1.355,2.619-8.713,1.866-10.143a17.773,17.773,0,0,0-2.653-4.348c-1.581-1.863-3.99-5.043-5.232-6.511s-4.065-5.383-5.32-4.046c-1.034,1.1,1.066,4.4,3.607,7.395A25.99,25.99,0,0,1,1421,438.74s-3.63-4.828-4.11-5.618-2.871-4.734-3.7-4.224c-1.406.864-.418,2.982,2.208,6.426a54.515,54.515,0,0,1,3.67,5.279s-3.115-3.859-3.981-5.063-1.594-2.6-2.388-2.623c-1.592-.049-.774,3.3,1.936,6.688,1.223,1.528,1.869,2.292,2.229,2.693a27.8,27.8,0,0,1-2.963-3.276c-.79-1.214-1.526-2.474-2.173-2.259-.678.226-.9,1.694,1.3,4.771S1415.269,444.48,1416.015,445.712Z"/><path class="w" d="M1427.02,570.33c.023-.443.038-.863.038-1.227a34.118,34.118,0,0,0-8.31-21.9h-54.5a36.121,36.121,0,0,0-7.458,21.9c0,.364.016.784.038,1.227Z"/><path class="w" d="M1381.062,583.865c-.183-1.73-.335-3.1-.446-3.988-.7-5.56,3.513-5.836,6.991-5.758q4.315.1,8.627,0c3.478-.078,7.686.2,6.991,5.758-.111.891-.263,2.258-.446,3.988h18.654c-6.72-8.513-1.946-19.106-10.809-26.828-1.233-1.075-10.336-4.205-18.7-4.365-9.161-.177-17.653,2.716-19.1,3.866-.767.612-3.751,19.68-7.155,26.414-.162.322-.346.6-.516.913Z"/><path d="M1371.989,647.734s-13.337,15.87-14.9,19.248,2.252,7.621,7.448,5.889,8.227-5.283,8.314-7.535,2.858-3.453,4.07-3.632,8.141-8.059,7.448-10.224-4.17-4.537-4.17-4.537Z"/><path d="M1411.862,647.734s13.337,15.87,14.9,19.248-2.252,7.621-7.448,5.889-8.227-5.283-8.314-7.535-2.858-3.453-4.07-3.632-8.141-8.059-7.448-10.224,4.171-4.537,4.171-4.537Z"/><rect class="aa" width="4.174" height="91.735" transform="translate(1339.705 581.536)"/><rect class="aa" width="4.174" height="91.735" transform="translate(1436.138 581.536)"/><rect class="ag" width="114.216" height="11.753" transform="translate(1332.9 574.144)"/><path class="w" d="M1385.22,568.408c-.655-6.18.785-17.445-12.322-17.445-19.831,0-15.771,22.182-15.458,24.65,3.118,24.582,9.217,73.619,9.217,73.619h20.633S1385.516,571.208,1385.22,568.408Z"/><path class="w" d="M1398.78,568.408c.656-6.18-.785-17.445,12.322-17.445,19.831,0,15.772,22.182,15.459,24.65-3.119,24.582-9.218,73.619-9.218,73.619h-20.632S1398.484,571.208,1398.78,568.408Z"/><path class="l" d="M1401.647,461.464s-2.813,6.248-7.85,6.248-8.994-5.944-8.994-5.944-10.013,3.844-17.562,4.38c-2.335.166-3.786.687-5.034.67,0,0,3.83,67.819,2.042,80.584h54.9s4.572-75.222,6.5-78.966C1425.645,468.436,1403.508,464.455,1401.647,461.464Z"/><path class="m" d="M1414.34,496.7c-5.611,8.9-12.457,19.9-24.043,20.127-11.18.219-13.877-16.931-15.956-24.467-1.948-7.058-4.448-14.8-8.543-20.955a17.7,17.7,0,0,0-3.541-3.8c.442,6.968,3.659,67.887,1.992,79.792h54.9s2.489-44.961,4.567-65.413C1420.884,487.127,1417.495,491.7,1414.34,496.7Z"/><path class="l" d="M1415.408,455.112l11.82-3.358s26.046,57.7,14.132,67.4-18.462-19.745-20.086-27.4S1415.408,455.112,1415.408,455.112Z"/><path class="p" d="M1397.384,504.382l26.489-.868v37.92s-15.138,2.064-24.809.65Z"/><path class="v" d="M1387.37,529.267s-.6,10.077-.642,9.733,6.549-.015,6.837.214a47.907,47.907,0,0,0,6.9,2.763,12.209,12.209,0,0,0,4.817-.118c.858-.079,2.6-.819,1.748-1.6-.745-.688-2.322.038-3.01,0a13.07,13.07,0,0,1-2.689-1s.915.018,2.66.144c2.121.152,5.235.386,6.021.114.745-.258,1.152-1.4-.344-1.806a21.127,21.127,0,0,0-4.014-.516c-.316-.057-3.383-.373-3.383-.373s2.666.231,3.641.258c1.092.03,4.033.256,5.934.316,1.834.057,2.323-1.806.889-2.38-1.06-.424-5.418-.229-6.049-.315s-3.555-.144-3.555-.144,3.5.086,4.128,0,4.391.252,5.218-.516a1.007,1.007,0,0,0-.545-1.748,18.648,18.648,0,0,0-4.644-.574c-.863.019-6.436-.013-7.454-.458-.918-.4-1.867-.976-1.332-2.123l-.161-3.611s-1.288,0-3.094,2.331C1394.268,529.113,1391.04,529.764,1387.37,529.267Z"/><path class="l" d="M1366.57,466.144s-8.68,0-11.759,7.226c-.87,2.042-18.348,59.839-13.582,64.776s47.564,2.207,47.564,2.207l.778-11.962s-30.712-1.679-30.541-2.87,5.121-21.677,5.121-21.677S1371.614,480.532,1366.57,466.144Z"/><rect class="ak" width="3.102" height="132.162" transform="translate(1322.959 541.629)"/><rect class="ak" width="3.102" height="132.162" transform="translate(1453.955 541.629)"/><rect class="ak" width="143.39" height="3.504" transform="translate(1318.313 541.628)"/><rect class="d" width="52.908" height="35.791" rx="2.405" transform="translate(1439.535 331.442)"/><rect class="e" width="48.098" height="30.089" transform="translate(1441.94 334.293)"/><path class="d" d="M1458.815,343.093v14.739l14.348-7.369Z"/><path class="a" d="M1309.073,441.7h-6.552v-6.552h-3.687V441.7h-6.552v3.687h6.552v6.552h3.687v-6.552h6.552Z"/><path class="a" d="M1626.311,425.966h-6.549v-6.552h-3.687v6.552h-6.552v3.687h6.552V436.2h3.687v-6.552h6.552Z"/><path class="a" d="M1462.524,521.2h-6.552v-6.55h-3.687v6.55h-6.552v3.687h6.552v6.552h3.687v-6.552h6.552Z"/><path class="z" d="M1312.147,499.657c0,4.448-5.6,5.758-5.6,7.491v.688h-5.6V506.2c0-2.388,4.255-3.762,4.255-6.412a2.147,2.147,0,0,0-2-2.285c-.052,0-.105-.005-.158-.005-1.767,0-2.127,1.374-2.127,2.748a8.686,8.686,0,0,0,.031.884h-6.017c-.035-.426-.1-.819-.1-1.244,0-4.253,3.8-6.9,8.933-6.9C1308.776,492.982,1312.147,495.6,1312.147,499.657Zm-5.1,16.227h-6.485v-6.052h6.477Z"/><path class="z" d="M1622.137,465.078v11.908l-1.282,8.3h-4.293l-1.282-8.3V465.078Zm-.289,25.431a3.285,3.285,0,1,1-3.3-3.269h0a3.146,3.146,0,0,1,3.3,2.986c.005.094.005.189,0,.283Z"/><path class="z" d="M1282.7,554.166v9.172l-.987,6.393H1278.4l-.988-6.393v-9.172Zm-.222,19.588a2.53,2.53,0,1,1-2.542-2.518,2.422,2.422,0,0,1,2.541,2.3c0,.073,0,.146,0,.219Z"/><path class="z" d="M1446.943,470.142h-5.4v-5.064h5.4Z"/><path class="z" d="M1455.417,470.142h-5.394v-5.064h5.394Z"/><path class="z" d="M1463.894,470.142H1458.5v-5.064h5.394Z"/><path class="z" d="M1612.137,551.98h-5.4v-5.064h5.4Z"/><path class="z" d="M1620.612,551.98h-5.4v-5.064h5.4Z"/><path class="z" d="M1629.088,551.98h-5.394v-5.064h5.394Z"/></g><g transform="translate(-141.587 -272.332)"><path class="al" d="M1255.01,698.7V348.328c-44.792-32.6-81.745-45.466-114.985-41.517-16.046,1.906-31.384,7.241-47.406,9.495-13.027,1.832-78.026,7.66-122.131-13.735-27.495-13.337-111.6-50.586-218.345-15.77-26.546,8.658-43.259,21.633-67.989,34.42-25.392,13.129-72.464,12.019-106.742,7.47-14.007-1.859-49.324-1.368-59.02,33.412V698.7Z"/><ellipse class="c" cx="314.498" cy="15.681" rx="314.498" ry="15.681" transform="translate(565.267 740.307)"/><path class="am" d="M757.731,510.85,765.662,625.3l87.378,5.449-2.419-116.778Z"/><path class="l" d="M844.962,507.916c-7.065-2.128-23.184,61.6-20.671,71.832,1.723,7.017,61.18,4.471,61.18,4.471l.625-12.229s-37.723-4.274-37.531-7.363,11.148-23.47,11.148-23.47S852.1,510.067,844.962,507.916Z"/><path class="t" d="M817.009,470.329l-16.02,2.495s4.5,14.239-2.4,26.39c0,0,11.516,12.475,19.547,9.176,8.584-3.526,5.383-12.193,5.383-12.193S814.775,489.271,817.009,470.329Z"/><path class="v" d="M798.391,445.758s24.962-2.859,26.691,1.338,2.1,16.017,3.721,18.511,4.542,5.483,3.45,7.092-2.3,1.217-2.987,3.024-.426,12.025-3.723,13.548-20.113.626-26.2-8.954S786.332,446.642,798.391,445.758Z"/><path d="M792.127,448.1l16.554,7.664s-.517,9.636,4.244,18.089c0,0-1.489,2.28-3.05.988s-2.567-1.988-2.932-4.391-1.808-8.855-6.147-5.672.244,6.961,2.453,7.9c0,0,3.508,12.569-3.163,11.675,0,0-6.156-3.9-11.459-19S788,445.271,792.127,448.1Z"/><path d="M832.311,442.61s5.918,8.512-7.838,14.208-33.543-9.3-33.543-9.3.506-7.468,11.48-10.665c8.2-2.388,15.886-2.05,20.071,2.7C829.593,447.619,832.311,442.61,832.311,442.61Z"/><rect class="aa" width="4.774" height="125.751" transform="translate(773.21 636.885)"/><rect class="aa" width="4.774" height="125.751" transform="translate(861.587 636.885)"/><rect class="ag" width="118.764" height="16.454" transform="translate(760.404 625.304)"/><path class="l" d="M800.312,495.019s-22.343,6.219-23.264,6.775c0,0,2.47,32.324,2.1,41.029s-3.875,45.967-3.875,45.967h69.435s-.833-37.912-.465-46.247c0,0-2.227-28.144.718-34.627,0,0-14.588-9.139-21.446-11.719,0,0,.1,9.163-4.773,11.663S800.312,495.019,800.312,495.019Z"/><path class="m" d="M844.245,542.543s-.17-3.87-.246-9.1A84.26,84.26,0,0,1,839,547c-4.53,9.358-15.74,22.3-27.663,20.925-11.966-1.383-21.509-12.014-24.5-23.613-2.248-8.73-1.143-18.26-4.081-26.777a35.419,35.419,0,0,0-5.266-9.623c.693,9.807,1.922,28.583,1.655,34.907-.369,8.705-3.875,45.967-3.875,45.967H844.7S843.877,550.878,844.245,542.543Z"/><path d="M843.385,582.142,827.614,555.4s-3.761-2.212-3.784,2.374l18.2,25.414S846.231,588.373,843.385,582.142Z"/><path class="s" d="M837.187,575.31c-1.219-1.712-2.675-4.557-5.251-5.88s-14.161,3.4-14.971,3.6c-.423.1-7.744,2.309-9.253,1.807a66.5,66.5,0,0,1-1.539,7.952c2.694,1.014,11.4-.677,12.484-.839a8.308,8.308,0,0,1,6,1.688c1.818,1.287,3.549,2.365,4.842,2.107,1.2-.241-.08-1.837-.813-2.7.019.023.044.045.062.068,3.225,3.91,4.9,3.322,5.532,2.5.81-1.042-3.494-4.688-3.91-5.188s-4.04-3.313-4.04-3.313c1.268.221,4.235,2.826,4.641,3.244s4.745,7.005,6.228,5-2.141-5.383-3.587-7.478-4.825-3.911-4.825-3.911c1.771-.235,4.794,3.1,5.8,4.265s3.643,6.693,5.736,5.3S838.406,577.021,837.187,575.31Zm-8.822,7.4a34.384,34.384,0,0,0-3.462-2.578,18.576,18.576,0,0,1,3.459,2.577Z"/><path class="s" d="M836.6,570.629s4.288,1.647,5.036,3.562-.429,3.061-1.446,2.611Z"/><path class="l" d="M777.048,501.794s-7.335,5.14-10.8,11.656-22.34,56.07-19.827,66.3c1.724,7.017,61.181,4.471,61.181,4.471l.624-12.229s-37.723-4.274-37.53-7.363,11.147-23.47,11.147-23.47S787.819,516.081,777.048,501.794Z"/><path d="M873.084,742.507s19.908,5.361,28.143,8c6.844,2.193,5.97,8.339-1.368,11.191s-13.659,1.9-15.568-.348-6.046-1.009-7.577-.111-15.792-1.043-16.74-3.892.431-14.224.431-14.224Z"/><path d="M840.905,743.851s19.4,6.988,27.386,10.3c6.639,2.751,5.259,8.8-2.288,11.039s-13.77.761-15.487-1.632-5.942-1.506-7.541-.738-15.652-2.344-16.361-5.262,2.991-16.645,2.991-16.645Z"/><path class="w" d="M884.321,627.73c-2.194-8.147-42.748-32.779-46.056-40.194H805.514c-3.315,4.843-7.472,13.075-8.67,25.058-2.081,20.807,17.15,13.675,36.212,14.369s26.753,12.42,27.25,17.622-2.906,99.622-2.906,99.622l25.883-.145S885.627,632.58,884.321,627.73Z"/><path class="w" d="M865.886,744.141s8.593-112.778,6.669-115.7c-5.915-8.975-34.641-30.082-44.507-39.877l-22.534-1.031c-3.315,4.843-7.472,13.075-8.67,25.058-2.081,20.807,17.15,13.675,36.212,14.369s26.753,12.42,27.25,17.622S857.4,744.2,857.4,744.2Z"/><path class="w" d="M867.789,630.367c-1.532-7.157-43.836-32.188-52.7-41.759l-34.7-2.386c-4.239,4.746-8.478,12.163-8.408,20.084.176,19.98,15.234,24.8,34.3,25.369,21.984.658,33.274,3.489,33.243,8.714s-13.549,103.383-13.549,103.383l25.641,1.319S868.841,635.279,867.789,630.367Z"/><path class="v" d="M1051.283,473.621s5.891-9.876,8.016-15.207,10.664-23.807,13.391-21.87-4.921,17.436-4.921,17.436,6.746-19.4,10.392-18.324-6.234,19.145-6.234,19.145,8.129-17.031,10.257-15.389.452,5.437-6.54,18.041c0,0,5.966-10.819,8.22-8.283s-5.016,12.466-7.657,14.81-15.115,12.253-18.1,16.435C1058.108,480.415,1051.419,478.083,1051.283,473.621Z"/><path class="s" d="M1063.292,460.892s8.948-5.084,11.443-3.118-.025,4.024-9.3,7.019c0,0-3.277,4.16-5.365,4.485C1060.073,469.278,1057.493,463.575,1063.292,460.892Z"/><path class="v" d="M877.642,465.1s-3.468-6.889-3.468-8.9,1.012-4.178,1.084-6.923,3.757-9.1,2.962-10.908-3.034-1.373-5.2,2.962-1.445,7.007-3.179,5.779-6-6.574-7.368-8.813-5.707-6.646-6.863-5.924-1.481,1.879,6.2,12.708c0,0-8.7-13.037-11.255-10.685-1.788,1.643,6.7,11.186,7.932,12.7,0,0-7.864-9.867-10.207-7.538-2.2,2.187,8.614,10.4,8.614,10.4s-8.073-6.393-9.156-4.515,3.612,6.031,8.235,8.632,5.812,3.287,6.988,5.021a90.512,90.512,0,0,1,4.065,8.668S874.391,469.579,877.642,465.1Z"/><path class="t" d="M974.918,420.476l-16.44,2.508s-.939,30.7-13.942,33.158c0,0-4.623,50.279,12.57,46.089s26.439-47.823,26.439-47.823S968.386,450.214,974.918,420.476Z"/><path class="v" d="M976.2,397.6s-17.738-7.3-24.782-2.869-6.466,19.729-7.516,26.739c-1.642,10.956,3.081,21.651,5.951,22.695s25.043-4.956,28.565-21S980.378,400.336,976.2,397.6Z"/><path d="M949.267,732.338s2.395,14.759.615,18.182c-1.879,3.613-39.24,1.871-41.474-.562s1.49-6.668,3.445-7.647,22.258-9.878,22.258-9.878Z"/><path d="M997.6,732.338H984.562s-.867,10.959,0,13.415,13.184,17.667,19.541,17.667c3.467,0,7.746.017,8.416-3.07.558-2.572-1.98-7.994-4.082-10.9C1003.809,743.049,997.6,732.338,997.6,732.338Z"/><path d="M973.009,425.477s-6.359,3.522-10.467,3.816-6.64-4.58-12.424-3.327-6.523,1.461-6.523,1.461-3.064,20.746,4.762,20.159,21.13-8.8,25.826-14.38a10.274,10.274,0,0,0,8.022-4.794c3.13-4.793,7.336-19.663,4.6-28.663s-14.869-12.521-19.956-8.315c0,0-3.881-3.228-11.25-2.837s-8.9,4.3-12.028,6.652-6.2,2.348-7.239.326c0,0-2.217,3.718,1.761,10.109s8.571,5.413,14.767,3.978,13.891-7.565,13.891-7.565-.326,12.783,2.869,17.478c0,0,1.174.522,1.631,0s.13-7.173,3.717-5.673S976.2,422.967,973.009,425.477Z"/><path class="z" d="M948.748,431.64a19.666,19.666,0,0,0,9.783.457s-2.886,3.8-6.066,3.261A4.157,4.157,0,0,1,948.748,431.64Z"/><path class="z" d="M978.608,449.785,963.4,458.014l-11.826-7.1a107.93,107.93,0,0,0-4.29,38.6c1.734,20.516,5.057,35.253,18.927,16.181S985.229,456.431,978.608,449.785Z"/><path class="aa" d="M978.608,449.785,963.4,458.014l-11.826-7.1a107.93,107.93,0,0,0-4.29,38.6c1.734,20.516,5.057,35.253,18.927,16.181S985.229,456.431,978.608,449.785Z"/><path class="an" d="M960.537,467.412s-8.167,44.229-7.477,45.077c.448-.566,5.422,11.994,8.295,0,2.235-9.334,2.507-44.06,2.865-44.482,0,0,4.266-4.59,6.759-6.853,1.634-1.484,3.217-3,4.744-4.578.4-.723.784-1.451,1.121-2.23q-.335.79-.667,1.581a37.32,37.32,0,0,1,3.215-5.155,6.16,6.16,0,0,0-.784-.987L963.4,458.014l-11.826-7.1s-.351,1.063-.853,2.925c1.243,1.732,2.366,3.484,3.337,5.162C955.3,461.152,960.537,467.412,960.537,467.412Z"/><path class="ao" d="M929.343,532.106l46.675-.88s7.1,11.636,8.687,45.221c1.088,22.994,2.028,29.361,4.314,59.755,1.552,20.634,8.872,99.717,8.872,99.717h-24.8s-10.5-90.244-11.037-95.16c-.19-1.738-6.332-49.452-6.332-49.452s1.005,43.22,1.005,48.246,1.084,93.816,1.084,93.816H931.678s-2.936-75.5-3.184-92.775C928.092,612.62,925.7,541.14,929.343,532.106Z"/><path class="ae" d="M951.571,450.915s-16.426,3.179-22.783,5.287c0,0,2.022,37.938-4.335,47.474l-2.891,82.642s35.975-.434,37.131-45.222,1.083-46.811,1.083-46.811Z"/><path class="ao" d="M956.657,499.453a1.382,1.382,0,1,1-1.356-1.407h0A1.382,1.382,0,0,1,956.657,499.453Z"/><path class="ao" d="M955.775,513.02a1.382,1.382,0,1,1-1.356-1.407h0A1.382,1.382,0,0,1,955.775,513.02Z"/><path class="ao" d="M954.893,526.587a1.381,1.381,0,1,1-1.355-1.406h0A1.381,1.381,0,0,1,954.893,526.587Z"/><path class="ao" d="M954.012,540.155a1.382,1.382,0,1,1-1.356-1.408,1.382,1.382,0,0,1,1.356,1.408Z"/><path class="ae" d="M1001.027,460.272l-22.419-10.487-18.83,44.5-2.2,52.116s-1.343,45.561,37.666,39.917l-3.173-83.839S991.781,471.77,1001.027,460.272Z"/><path class="ae" d="M1063.732,478.825,1050.15,469s-25.139,39.684-26.584,38.48-13.438-42.952-22.539-47.209c0,0-4.6,3.29-7.224,12.918-1.857,6.813-2.127,17.795-1.728,28.623,0,0,23.689,35.093,32.069,33.937S1063.732,478.825,1063.732,478.825Z"/><path class="ae" d="M878.332,460.272,862.955,466.4s21.044,76.052,33.18,69.378,28.258-30.371,28.258-30.371a56.354,56.354,0,0,0,6.241-18.924c1.555-10.159.594-24.085-1.846-30.281,0,0-10.692,6.508-19.649,24.39s-11.7,23-12.495,21.887S878.332,460.272,878.332,460.272Z"/><path class="ae" d="M963.4,456.864,952.82,448.8l-1.825,4.033,3.366,12.826,9.036-6.771,8.139,7.612,7.766-16.713-2.592-4.127Z"/><rect class="ap" width="79.163" height="4.82" transform="translate(850.706 580.392)"/><rect class="aa" width="90.649" height="65.424" rx="4.724" transform="translate(844.963 517.378)"/><path class="ap" d="M847.52,578.079V522.1a4.724,4.724,0,0,1,4.722-4.724h-4.18a4.724,4.724,0,0,0-4.724,4.724v55.977a4.724,4.724,0,0,0,4.724,4.723h4.183a4.723,4.723,0,0,1-4.725-4.721Z"/><path class="aj" d="M894.835,550.09a4.548,4.548,0,1,1-4.549-4.547h0A4.548,4.548,0,0,1,894.835,550.09Z"/><rect class="f" width="59.632" height="8.526" transform="translate(979.874 576.688)"/><path class="f" d="M963.749,521.339l19.319,59.917,3.019-1.108-19.319-59.917Z"/><path d="M1070.62,731.04s-15.876,7.82-24.385,11.342c-7.071,2.926-5.6,9.373,2.432,11.756s14.663.816,16.493-1.732,6.328-1.6,8.031-.782,15.115-2.273,15.871-5.381-2.57-16.8-2.57-16.8Z"/><path class="h" d="M1153.38,583.618l-26.98.355s-66.009,24.624-74.632,31.091,14.171,119.173,14.171,119.173l22.4-2.345s-5.282-100.845-.971-105.156,74.187-10.69,78.59-12.011C1170.262,613.432,1164.119,597.948,1153.38,583.618Z"/><path class="w" d="M1153.38,583.618l-26.98.355s-66.009,24.624-74.632,31.091,14.171,119.173,14.171,119.173l22.4-2.345s-5.282-100.845-.971-105.156,74.187-10.69,78.59-12.011C1170.262,613.432,1164.119,597.948,1153.38,583.618Z"/><path class="am" d="M1208.135,523.475l-27.4,109.553-11.342-2.837,23.567-110.513Z"/><rect class="aa" width="4.539" height="119.572" transform="translate(1083.086 636.217)"/><rect class="aa" width="4.539" height="119.572" transform="translate(1167.12 636.217)"/><rect class="ag" width="112.929" height="15.646" transform="translate(1070.908 625.205)"/><path class="t" d="M1146.195,468.721l-15.484,3.3s4.455,19.041,0,29.532c0,0,8.443,3.316,22.669-7.462C1153.38,494.1,1144.614,486.684,1146.195,468.721Z"/><path class="v" d="M1148.735,446.611s-17.226-6.491-21.845-4.119-10.237,5.867-9.362,9.362,1.529,13.823.405,17.069-3.058,5.492-2.59,6.616,3.183.238,3.932,1.617,4.775,10.46,7.115,11.771,15.7-3.4,21.877-17.911S1152.574,449.076,1148.735,446.611Z"/><path d="M1051.3,732.775s-20.731,7.232-29.274,10.671c-7.1,2.857-5.7,9.317,2.318,11.779s14.654.959,16.508-1.571,6.343-1.539,8.038-.7,15.137-2.126,15.924-5.225-1.121-12.179-1.121-12.179Z"/><path d="M1138.53,441.431s5.9-6.554,12.546-2.716,4.043,9.952,5.43,12.64c3.215,6.23,2.715,11.485-.523,17.2-3.608,6.361-1.439,10.485-7.413,11.141s-7.792-1.092-7.792-1.092a23.041,23.041,0,0,0,2.34-9.363s5.119-2.84,4.432-7.271-6.116-4.994-7.553-.437,1.125,7.677-2.246,9.861c0,0-2,.562-2-4.494a48.437,48.437,0,0,1,.936-9.311s-12.1,6.417-21.418,0-2.88-16.519,3.891-18.826A22.247,22.247,0,0,1,1138.53,441.431Z"/><path class="w" d="M1160.842,579.625l-30.131,6s-68.463,24.727-77.086,31.194-10.163,117.418-10.163,117.418l22.475,2.171s9.621-105.467,14.882-108.547c4.537-2.656,78.193-2.656,82.789-2.656C1170.243,625.2,1175.957,594.879,1160.842,579.625Z"/><path class="v" d="M1035.773,571.829s-4.543.554-5.508.542-13.43-7.563-14.793-6.565-14.2,10.17-13.837,12,3.942.774,10.77-5.142c0,0-9.08,6.582-7.361,8.225s9.651-5.758,9.651-5.758-8.176,6.249-6.261,7.691,9.139-6.04,9.139-6.04-5.66,5.609-4.9,6.565,4.318-.624,8.22-4.362c0,0,.712-.4,2.758.776s14.681-.9,14.681-.9Z"/><path class="d" d="M1032.547,568.115l3.846,14.442s62.352-14.08,68.656-18.753,44.064-45.558,38.523-56.945-12.724-8.585-17.239-2.118-26.063,34.058-29.141,37.291S1032.547,568.115,1032.547,568.115Z"/><path class="v" d="M1042.81,578.562s-4.772.553-5.785.542-14.107-7.563-15.538-6.566-14.919,10.17-14.534,12,4.14.774,11.312-5.143c0,0-9.538,6.583-7.732,8.225s10.137-5.758,10.137-5.758-8.588,6.249-6.577,7.692,9.6-6.041,9.6-6.041-5.945,5.61-5.144,6.565,4.535-.624,8.633-4.362c0,0,.748-.4,2.9.777s15.421-.9,15.421-.9Z"/><path class="d" d="M1152.231,493.007s-13.962,7.072-21.855,6.626c0,0-12.778,26.858-13.641,34.043s1.461,54.061,1.461,54.061,30.921,6.716,49.148-2.481c0,0-4.91-30.6-2.9-45.832S1164.862,504.3,1152.231,493.007Z"/><path class="aq" d="M1146.262,542.931c3.088-7.122,15.178-18.6,9.093-26.6-4.894-6.432-8.4-6.873-13.778-.745-5.038,5.742-9.642,11.929-15.366,17a97.973,97.973,0,0,1-9.661,7.068c0,14.765,1.651,48.075,1.651,48.075a124.792,124.792,0,0,0,22.036,2.352C1133.8,576.066,1139.774,557.88,1146.262,542.931Z"/><path class="d" d="M1039.422,574.847l4.039,14.443s65.493-14.08,72.114-18.754,46.284-45.558,40.464-56.945-13.365-8.585-18.107-2.118-27.376,34.058-30.609,37.292S1039.422,574.847,1039.422,574.847Z"/><path class="v" d="M728.229,499.926s4.318-8.745,5.756-13.394,7.417-20.842,9.852-19.387-2.989,15.07-2.989,15.07,4.4-16.853,7.555-16.189-3.985,16.6-3.985,16.6,5.728-14.943,7.638-13.7.747,4.566-4.317,15.691c0,0,4.317-9.548,6.392-7.555s-3.4,10.875-5.479,13.034-11.955,11.373-14.2,15.109C734.456,505.211,728.645,503.689,728.229,499.926Z"/><path class="v" d="M737.528,488.358s7.222-4.9,9.464-3.4.249,3.4-7.389,6.559c0,0-2.49,3.736-4.234,4.151C735.369,495.664,732.8,491.016,737.528,488.358Z"/><path class="ar" d="M727.5,495.467s-25.63,43.1-26.959,42.8-38.521-11.541-51.282-21.066c-3.618-2.7-3.611,26.784,0,28.59s57.78,11.435,60.187,9.93,29.9-53.228,29.9-53.228Z"/><path class="as" d="M713.2,548.064c-18.489,11.878-61.788-22.388-66.774-23.541-.743,8.071.46,20.08,2.837,21.269,3.611,1.8,57.779,11.435,60.187,9.93.61-.381,2.846-4.016,5.826-9.194A20.494,20.494,0,0,1,713.2,548.064Z"/><path class="t" d="M649.682,498.466c-1.634-.34-9.465-16.86-12.817-20.074-1.606,11.283-8.426,38.04-8.426,38.04,8.275,8.877,24.78,3.438,24.78,3.438C650.511,514,649.211,502.3,649.682,498.466Z"/><path class="v" d="M646.4,454.288s16.06,3.614,19.138,8.3,3.067,16.872,4.768,20.091c1.031,1.952,1.951,3.524,2.466,4.668.452,1-.687,1.592-2.085,2.086a2.438,2.438,0,0,0-1.5,1.554c-.95,2.949-3.6,10.471-6.258,11.516-3.312,1.3-19.673.8-24.591-13.45S636.111,451.231,646.4,454.288Z"/><path class="v" d="M710.662,732.474l-10.787-1.781s-.547,10.25-1.446,12.6c0,0,12.1,5.788,24.5,1.208,0,0-7.906-3.407-9.978-5.824A11.918,11.918,0,0,1,710.662,732.474Z"/><path d="M699.375,738.471s8.2,5.7,20.923,4.783c0,0,15.481,8.285,16.48,10.36,1.4,2.9-5.386,3.085-15.967,2.738-9.027-.3-8.365-.974-10.176-2.745s-4.07-3.741-4.07-3.741-.83,1.115-1.763,6.273l-4.034-.582s.469-4.957-1.476-7.6C697.924,746.1,696.354,741.778,699.375,738.471Z"/><path class="v" d="M667.162,729.825l-8.148-2.225s-4.78,7.973-6.176,10.064c0,0,10.516,8.323,23.624,6.6,0,0-6.955-5.072-8.44-7.889A11.921,11.921,0,0,1,667.162,729.825Z"/><path d="M653.747,735.784s7.637,6.437,20.392,6.693c0,0,14.651,9.677,15.454,11.835,1.123,3.02-5.648,2.576-16.152,1.254-8.961-1.127-8.239-1.741-9.879-3.672s-3.708-4.1-3.708-4.1-.928,1.035-2.334,6.085l-3.963-.953s.925-4.892-.768-7.7C651.6,743.248,650.433,738.8,653.747,735.784Z"/><path class="i" d="M629.589,580.966l21.273,15.055s69,13.3,77.751,19.861-55.7,122.976-55.7,122.976l-20.066-6.664S701,629.123,696.624,624.746s-75.327-10.854-79.8-12.2C612.444,611.238,618.685,595.515,629.589,580.966Z"/><path class="w" d="M629.589,580.966l21.273,15.055s69,13.3,77.751,19.861-55.7,122.976-55.7,122.976l-20.066-6.664S701,629.123,696.624,624.746s-75.327-10.854-79.8-12.2C612.444,611.238,618.685,595.515,629.589,580.966Z"/><path class="w" d="M623.056,587.8l27.8,2.342s71.264,17.968,80.018,24.534-12.77,123-12.77,123l-21.775-5.508s12.277-103.154,6.934-106.282c-4.607-2.7-79.393-2.7-84.06-2.7C612.462,623.191,607.708,603.29,623.056,587.8Z"/><path class="ar" d="M630.9,510.85a202.259,202.259,0,0,0,22.05,8.369s12.968,25.6,13.844,32.746,6.515,46.162,6.515,46.162S633.3,609.644,614.794,600.5c0,0,5.6-27.677,3.559-42.821S618.077,522.076,630.9,510.85Z"/><path class="as" d="M635.868,554.407c.044,12.814,8.285,19.088,16.763,27.375a55.352,55.352,0,0,1,12.694,18.331c4.544-1.335,7.987-1.986,7.987-1.986s-3.022-20.908-4.985-34.916c-8.505-3.8-13.019-11.933-16.054-20.584-1.758-5.01-2.714-8.246-5.889-11.974-9.412.255-9.985,11.269-10.518,21.56C635.862,552.954,635.862,553.692,635.868,554.407Z"/><path class="am" d="M572.949,519.9l27.824,111.236,11.516-2.881L588.362,516.043Z"/><rect class="aa" width="4.609" height="121.408" transform="translate(695.31 634.373)"/><rect class="aa" width="4.609" height="121.408" transform="translate(609.985 634.373)"/><rect class="ag" width="114.663" height="15.886" transform="translate(597.62 623.191)"/><path d="M667.477,467.822c5.19-2.034,2.863-10.082-.692-12.56-6.253-4.359-14.377-7.6-22.077-7.439-9.4.19-18,7.467-23.458,14.515-3.96,5.113-3.689,10.53-6.546,16.031-2.6,5.008-8.222,7.514-11.593,12.023-3.168,4.237-3.188,9.755-1.949,14.746.967,3.894,2.054,7.432,1.413,11.435-.8,4.977-4.783,8.638-6.137,13.44-1.225,4.34-.681,9.228-.232,13.652a18.561,18.561,0,0,0,8.192,13.9c9.869,6.55,23.222-1.388,24.743-12.4.689-4.99-.771-9.36-1.255-14.144-.616-6.082,1.486-9.561,6.6-12.866,4.315-2.791,6.359-4.608,6.026-10-.227-3.672-.643-7.411.048-11.059.791-4.169,2.547-4.971-.725-8.028-2.291-2.14-4.218-4.447-2.4-7.679,1.48-2.628,3.859-3.4,5.913-.931.536.645,3.242,6.082,3.935,3.023.194-.857-.951-2.512-1.056-3.464a3.8,3.8,0,0,1,1.09-3.457c1.62-1.714,4.009-2.635,5.68-4.364,2.092-2.164,2.362-5.022,5.387-6.214a7.835,7.835,0,0,1,4.834-.206C663.93,465.967,666.984,468.015,667.477,467.822Z"/><rect class="f" width="59.632" height="8.526" transform="translate(745.168 576.688)"/><path class="f" d="M820.925,521.339l-19.319,59.917-3.019-1.108,19.319-59.917Z"/><rect class="ak" width="3.968" height="175.306" transform="translate(717.902 585.214)"/><rect class="ak" width="3.968" height="175.306" transform="translate(1111.965 585.214)"/><rect class="ak" width="398.032" height="4.648" transform="translate(717.902 585.212)"/><path class="v" d="M738.028,573.7s5.166-.346,6.239-.557,13.478-10.776,15.19-10,17.805,7.866,17.755,9.881-4.239,1.63-13-3.24c0,0,11.4,5.113,9.8,7.208s-11.873-4.123-11.873-4.123,10.327,4.946,8.477,6.869-11.359-4.528-11.359-4.528,7.4,4.785,6.738,5.955-4.93.225-10.006-2.937c0,0-.871-.275-2.92,1.39s-16.526,2.055-16.526,2.055Z"/><path class="ar" d="M741.411,570.817l-.141,13.766s-48.247,2.936-61.789-1.578-42.09-40.931-44.531-47.033c-2.934-7.336,8.238-25.166,19.3-8.916s31.1,38.119,32.231,38.8S741.411,570.817,741.411,570.817Z"/><path class="r" d="M808.124,376.913h58.917l31.588,25.793-14.2-25.793H898.9a4.539,4.539,0,0,0,4.539-4.539h0V313.9a4.539,4.539,0,0,0-4.539-4.539H808.124a4.54,4.54,0,0,0-4.54,4.538h0v58.473a4.539,4.539,0,0,0,4.539,4.539Z"/><path class="z" d="M867.819,334.1c0,7.565-9.515,9.791-9.515,12.739V348h-9.515v-2.778c0-4.061,7.235-6.4,7.235-10.9a3.653,3.653,0,0,0-3.4-3.892c-.091-.006-.182-.009-.274-.008-3.006,0-3.618,2.337-3.618,4.673a13.919,13.919,0,0,0,.054,1.5H838.554c-.057-.724-.168-1.392-.168-2.115,0-7.232,6.456-11.738,15.191-11.738C862.086,322.748,867.819,327.2,867.819,334.1Zm-8.682,27.59H848.123V351.4h11.014Z"/><path class="e" d="M1110.78,395.352h-21.643L1102.89,414.5l-26.663-19.15h-32.85a3.37,3.37,0,0,1-3.37-3.37V348.566a3.37,3.37,0,0,1,3.37-3.37h67.4a3.37,3.37,0,0,1,3.37,3.37v43.416A3.37,3.37,0,0,1,1110.78,395.352Z"/><path class="f" d="M1067.925,381.884h-8.187V374.2h8.187Z"/><path class="f" d="M1080.787,381.884H1072.6V374.2h8.187Z"/><path class="f" d="M1093.652,381.884h-8.19V374.2h8.187Z"/><path class="e" d="M739.332,424.034H717.689l-28.783,25.309,15.873-25.309h-32.85a3.37,3.37,0,0,1-3.37-3.37V377.248a3.37,3.37,0,0,1,3.37-3.37h67.4a3.37,3.37,0,0,1,3.37,3.37v43.416A3.37,3.37,0,0,1,739.332,424.034Z"/><path class="f" d="M696.477,410.566H688.29v-7.685h8.187Z"/><path class="f" d="M709.339,410.566h-8.187v-7.685h8.187Z"/><path class="f" d="M722.2,410.566h-8.187v-7.685H722.2Z"/><path class="a" d="M776.641,338.812h-6.552V332.26H766.4v6.552H759.85V342.5H766.4v6.55h3.687V342.5h6.552Z"/><path class="a" d="M847.636,399.394h-6.552v-6.552H837.4v6.552h-6.552v3.687H837.4v6.552h3.687v-6.552h6.552Z"/><path class="a" d="M1007.851,369.334H1001.3v-6.552h-3.687v6.552h-6.55v3.687h6.552v6.552h3.687v-6.552h6.552Z"/><path class="a" d="M1178.813,416.238h-6.551v-6.552h-3.687v6.552h-6.552v3.687h6.552v6.552h3.687v-6.552h6.552Z"/><path class="z" d="M639.017,370.255c0,5.438-6.84,7.038-6.84,9.157v.84h-6.839v-2c0-2.92,5.2-4.6,5.2-7.838a2.625,2.625,0,0,0-2.446-2.794c-.064,0-.128-.006-.193-.006-2.161,0-2.6,1.68-2.6,3.36a10.249,10.249,0,0,0,.039,1.08h-7.357c-.041-.521-.121-1-.121-1.52,0-5.2,4.641-8.438,10.92-8.438C634.9,362.1,639.017,365.3,639.017,370.255Zm-6.24,19.835h-7.915v-7.4h7.918Z"/><path class="z" d="M1160.049,343.079v11.908l-1.282,8.3h-4.294l-1.282-8.3V343.079Zm-.289,25.431a3.285,3.285,0,1,1-3.3-3.269h0a3.147,3.147,0,0,1,3.3,2.984c.005.1.005.19,0,.285Z"/><path class="z" d="M1189.517,481.028h-5.4v-5.064h5.4Z"/><path class="z" d="M1197.991,481.028H1192.6v-5.064h5.394Z"/><path class="z" d="M1206.468,481.028h-5.4v-5.064h5.4Z"/><circle class="l" cx="30.172" cy="30.172" r="30.172" transform="translate(1185.491 362.671)"/><path class="f" d="M1215.662,394.9h30.068c.046-.683.1-1.363.1-2.057a30.179,30.179,0,0,0-24.049-29.548Z"/></g></svg>