<svg xmlns="http://www.w3.org/2000/svg" width="367.944" height="285.272" viewBox="0 0 367.944 285.272"><defs><style>.a{fill:#375a64;}.a,.c,.e,.h,.k,.m,.n,.p,.q{stroke:#000;}.a,.c,.e,.k,.n,.p,.q{stroke-miterlimit:10;}.b{fill:#233862;}.c,.l,.m{fill:#ffb27d;}.d{fill:#2b478b;}.e,.g,.n{fill:#1a2e35;}.f{fill:#ed975d;}.h,.i,.k{fill:#fff;}.h,.m{stroke-linecap:round;stroke-linejoin:round;}.j{fill:#ebf3ff;}.n{stroke-width:3px;}.o{fill:#182d4f;}.p{fill:#ce2e41;}.q{fill:#e8505b;}.r{fill:none;stroke:#1a2e35;stroke-width:2px;}</style></defs><g transform="translate(0.531 1)"><g transform="translate(0 101.779)"><g transform="translate(76.114 99.463)"><path class="a" d="M200.155,518.768l.146,0a1.986,1.986,0,0,0,2.008-2.124l-7.981-79.708-6.964.621,11.46,80.137A1.3,1.3,0,0,0,200.155,518.768Z" transform="translate(-187.364 -436.932)"/></g><g transform="translate(9.89 99.463)"><path class="a" d="M76.491,518.768l-.146,0a1.986,1.986,0,0,1-2.008-2.124l7.981-79.708,6.964.621L77.823,517.69A1.3,1.3,0,0,1,76.491,518.768Z" transform="translate(-74.328 -436.932)"/></g><g transform="translate(132.42 99.463)"><path class="a" d="M296.264,518.768l.146,0a1.985,1.985,0,0,0,2.007-2.124l-7.981-79.708-6.965.621,11.461,80.137A1.3,1.3,0,0,0,296.264,518.768Z" transform="translate(-283.472 -436.932)"/></g><path class="a" d="M71.877,355.029,57.71,285.067c-1.819-9.472,6.03-18.134,16.222-17.9l27.322.624a21.584,21.584,0,0,1,20.24,15.58l20.727,71.659Z" transform="translate(-57.447 -267.161)"/><path class="a" d="M86.507,355.029,72.339,285.067c-1.818-9.472,6.031-18.134,16.223-17.9l27.322.624a21.585,21.585,0,0,1,20.24,15.58l20.727,71.659Z" transform="translate(-63.506 -267.161)"/><path class="a" d="M6.38,0H109.616A6.38,6.38,0,0,1,116,6.38v6.38a0,0,0,0,1,0,0H6.38A6.38,6.38,0,0,1,0,6.38v0A6.38,6.38,0,0,1,6.38,0Z" transform="translate(130.426 100.628) rotate(-180)"/><rect class="a" width="75.272" height="12.76" rx="6.38" transform="translate(141.198 100.628) rotate(-180)"/></g><g transform="translate(5.878 31.418)"><g transform="translate(0 0)"><path class="b" d="M211.852,390.971c-5.848,10.178-13.2,14.107-13.2,14.107h-30.6S216.313,383.207,211.852,390.971Z" transform="translate(-109.129 -247.384)"/><path class="c" d="M306.155,548.64c-.331,3.211,4.135,4.04,9.313,4.354s3.6,1.358,10.69,2.721,9.954-.551,10.478-1.505c.467-.846-2.82-2.213-6.323-3.755-.441-.192-.882-.391-1.323-.589-3.941-1.783-6.125-5.359-9.177-8.685-2.891-3.15-5.561-13.166-5.561-13.166l-9.628-2.164s2.613,9.016,3.512,12.864c.529,2.263-.314,4.777-1.059,6.69A12.6,12.6,0,0,0,306.155,548.64Z" transform="translate(-165.69 -303.932)"/><path d="M316.538,566.815c5.18.313,3.6,1.358,10.69,2.721s9.954-.551,10.478-1.505c.467-.846-2.82-2.213-6.323-3.755l-.056.06a20.225,20.225,0,0,1-10.758.013c-4.684-1.326-9.2-4.182-12.423-5.123a12.6,12.6,0,0,0-.923,3.237C306.894,565.672,311.36,566.5,316.538,566.815Z" transform="translate(-166.76 -317.754)"/><path class="b" d="M216.7,354.011c-5.181-3.638-39.451-10.123-56.94-12l-19.33-16.78s-16.454,24.37-16.584,43.014c-.061,8.693,3.943,9.556,3.944,9.558s61.967.459,64.683.739c4.446.459,10.311,11.534,11.776,21.623s27.305,51.12,27.305,51.12,5.389,1.727,7.881,1.58a7.869,7.869,0,0,0,3.921-1.055S228.385,362.215,216.7,354.011Z" transform="translate(-90.824 -220.849)"/><path class="c" d="M278.8,548.64c-.331,3.211,4.134,4.04,9.314,4.354s3.6,1.358,10.689,2.721,9.954-.551,10.479-1.505c.467-.846-2.82-2.213-6.323-3.755-.441-.192-.882-.391-1.323-.589-3.942-1.783-6.125-5.359-9.178-8.685-2.891-3.15-5.56-13.166-5.56-13.166l-9.628-2.164s2.614,9.016,3.513,12.864c.529,2.263-.315,4.777-1.06,6.69A12.627,12.627,0,0,0,278.8,548.64Z" transform="translate(-154.36 -303.932)"/><path d="M289.18,566.815c5.179.313,3.6,1.358,10.689,2.721s9.954-.551,10.479-1.505c.467-.846-2.82-2.213-6.323-3.755l-.055.06a20.225,20.225,0,0,1-10.758.013c-4.685-1.326-9.2-4.182-12.423-5.123a12.624,12.624,0,0,0-.922,3.237C279.536,565.672,284,566.5,289.18,566.815Z" transform="translate(-155.43 -317.754)"/><path class="d" d="M189.1,354.011c-4.5-3.16-18.038-5.61-32.981-7.429a10.052,10.052,0,0,1-8.533-7.545h0l-34.757-13.805S96.377,349.6,96.247,368.246c-.06,8.693,3.943,9.556,3.945,9.558s61.967.459,64.683.739c4.446.459,10.311,11.534,11.777,21.623s27.305,51.12,27.305,51.12,5.389,1.727,7.881,1.58a7.873,7.873,0,0,0,3.921-1.055S200.784,362.215,189.1,354.011Z" transform="translate(-79.393 -220.849)"/><path class="e" d="M130.679,150.193c-4.777-2.508-12.044-2.847-13.225-3.006-14.128-1.9-22.631,18.631-23.132,24.852-.922,11.466-6.988,13.214-15.525,20.4-17.119,14.4-12.1,31.13-2.738,37.347,5.616,3.73,15.516,0,15.516,0,.14.1,27.074-15.057,40.351-22.367C151.83,204.583,142.85,156.584,130.679,150.193Z" transform="translate(-67.48 -147.063)"/><path class="c" d="M156.969,224.2c.062.032-6.278,2.915-10.854,1.4-4.3-1.419-8.1-7.9-8.036-7.91,1.869-.271,3.768-2.114,4.3-13.037l.827.208,13.913,3.517s-.55,4.407-.777,8.575C156.148,220.455,156.188,223.786,156.969,224.2Z" transform="translate(-96.717 -170.915)"/><path class="f" d="M160.464,209.2s0,.907-.52,5.007c-7.869-1.985-11.339-4.594-13.785-7.58Z" transform="translate(-100.064 -171.729)"/><path class="c" d="M160.143,190.44s-18.4,3-20.088-8.491-5.2-18.836,6.474-21.233,14.608,1.648,16.1,5.345S164.885,189.365,160.143,190.44Z" transform="translate(-96.775 -152.419)"/><path class="g" d="M156.631,158.952s-8.355,13.188-15.814,16.312-11.123,1.538-11.123,1.538a31.419,31.419,0,0,0,4.278-12.054,5.655,5.655,0,0,1,3.493-4.546C142.817,158.059,153.171,154.679,156.631,158.952Z" transform="translate(-93.245 -151.136)"/><path class="g" d="M163.145,160.087s4.9,2.511,6.914,4.864c1.946,2.271,4.194,8.432,4.034,11.2,0,0,2.416-13.26-2.616-17.819C166.142,153.5,163.145,160.087,163.145,160.087Z" transform="translate(-107.098 -150.996)"/><path class="h" d="M169.179,227.075s15.985,2.71,17.872,9.629,12.993,47.6,12.993,47.6-8.17,1.468-11.944-2.307-13.133-35.017-13.133-35.017Z" transform="translate(-109.597 -180.199)"/><path class="h" d="M156.219,242.745A41.246,41.246,0,0,1,160.4,260.48c-.559,37.4-.154,29.583-4.244,33.132-.986.854-3.757,1.363-7.4,1.6-11.468.762-31.626-1.128-32.392-3.247-2.645-7.333-.778-9.611-2.985-20.838-.23-1.193-.514-2.486-.849-3.894-1.84-7.711-3.631-10.333,2.9-22.721,5.92-11.221,12.882-20.337,13.435-20.008,15.618,9.271,16.153,1.5,16.153,1.5" transform="translate(-85.43 -179.133)"/><path class="i" d="M169.179,227.075a67.661,67.661,0,0,1,11.207,16.736" transform="translate(-109.597 -180.199)"/><path class="j" d="M150.557,317.169c-11.468.762-31.626-1.128-32.392-3.247-2.645-7.333-.778-9.611-2.985-20.838l5.531-15.575s-.915,17.344,4.2,21.905,20.941,8.806,23.428,12.618A13.958,13.958,0,0,1,150.557,317.169Z" transform="translate(-87.234 -201.086)"/><path class="c" d="M153.138,331.515S164.452,329,166.277,330s6.286,4.66,6.845,5.932-4.064-.966-5.567-1.369c-.974-.261-3.537.63-4.806,1.053-5.34,1.78-8.611.864-8.611.864Z" transform="translate(-102.954 -222.726)"/><path class="k" d="M115.121,224.515s-16.012.936-21.271,8.271c-7.4,10.324-22.088,54.326-13.671,60.194,9.478,6.609,43.135,1.729,43.135,1.729s1.12-5.235-.438-7.767-26.883-6.624-28.052-7.793,14.61-22.792,14.61-26.3" transform="translate(-71.693 -179.139)"/><path class="i" d="M131.9,252.85c0-3.506,5.686-28.335,5.686-28.335" transform="translate(-94.16 -179.139)"/><path class="l" d="M176.5,335.542s2.371,3.058,3.148,3.423a2.317,2.317,0,0,0,1.279.274l-1.6-2.875Z" transform="translate(-112.629 -225.119)"/><path class="m" d="M175.565,330.168l6.891,3.346a1.227,1.227,0,0,1-1.141.441,16.432,16.432,0,0,1-2.99-.821Z" transform="translate(-112.242 -222.894)"/></g></g><g transform="translate(62.58 111.765)"><path class="n" d="M196.273,341.906H164.264a2.552,2.552,0,0,1,2.551-2.551h29.457Z" transform="translate(-164.264 -307.045)"/><path class="n" d="M210.125,284.207h49.488l-11.87,34.861H197.933Z" transform="translate(-178.208 -284.207)"/><path class="n" d="M260.856,284.206l-11.87,34.861H199.177l12.192-34.861Z" transform="translate(-178.723 -284.206)"/><path class="i" d="M255.46,311.7a3.217,3.217,0,0,1-2.969,2.412,1.857,1.857,0,0,1-1.855-2.412,3.218,3.218,0,0,1,2.969-2.411A1.857,1.857,0,0,1,255.46,311.7Z" transform="translate(-200.008 -294.595)"/></g><g transform="translate(45.327 146.627)"><rect class="o" width="220.061" height="7.843" rx="3.921" transform="translate(8.792)"/><g transform="translate(204.289 3.99)"><path class="o" d="M578.633,483.565l.11-.012a2.091,2.091,0,0,0,2.066-2.215L558.086,350.521l-8.319.2L576.5,482.249A1.9,1.9,0,0,0,578.633,483.565Z" transform="translate(-549.767 -350.521)"/></g><g transform="translate(0 3.99)"><path class="o" d="M137.01,483.565l-.11-.012a2.091,2.091,0,0,1-2.066-2.215l22.723-130.818,8.319.2L139.141,482.249A1.9,1.9,0,0,1,137.01,483.565Z" transform="translate(-134.816 -350.521)"/></g><g transform="translate(44.206 3.99)"><path class="o" d="M226.8,483.565l-.109-.012a2.091,2.091,0,0,1-2.066-2.215l22.723-130.818,8.319.2L228.932,482.249A1.9,1.9,0,0,1,226.8,483.565Z" transform="translate(-224.606 -350.521)"/></g></g><g transform="translate(182.052)"><g transform="translate(0 18.664)"><path d="M473.961,563.568h38.35c1.844-2.251,1.165-10.557.885-13.269-.057-.546-.1-.865-.1-.865s-13.1-10.475-14.9-2.454c-.054.252-.121.5-.194.74-2.266,7.5-12.431,10.911-18.3,11.861C475.893,560.2,474.483,562.185,473.961,563.568Z" transform="translate(-457.012 -298.678)"/><path class="e" d="M594.3,364.733c-1.384,0-65.691,12.074-76.328,25.241-5.314,6.578-6.1,82.544-6.1,82.544s6.574,8.151,20.772,3.418c0,0,10.41-51.975,9.641-67.739-.213-4.359,43.938-.631,52.018-2.723s27.824-19.67,23.474-28.233S594.3,364.733,594.3,364.733Z" transform="translate(-472.712 -224.454)"/><path class="c" d="M505.836,332.981s-12.972.175-16.039,1.49-9.291,4.332-7.625,4.8,9.612-.191,11.328.072a28.994,28.994,0,0,0,4.887-.072h5.957Z" transform="translate(-460.297 -211.305)"/><path class="c" d="M478.276,267.637s-4.423-3.161-8.717-3.774a37.721,37.721,0,0,1-6.27-1.294c-3.963-1.4-11.891-8.526-11.291-9.362,1.923-2.68,11.18,2.992,12.8,2.383s-3.106-3.966-1.463-5.147c.858-.616,2.864,2.474,4.5,2.785,2.219.419,3.954,3.553,4.621,3.717,1.3.318,7,4.553,7,4.553Z" transform="translate(-447.903 -177.089)"/><path class="p" d="M591.353,216.854s-9.874,3.061-19.6,29.85-13.423,28.236-16.96,29.288-34.577,7.231-34.577,7.231v7.951h47.828s17.934-17.06,23.311-28.545S591.353,216.854,591.353,216.854Z" transform="translate(-476.167 -163.212)"/><path d="M445.031,563.568H483.38c1.845-2.251,1.165-10.557.886-13.269-.057-.546-.1-.865-.1-.865s-13.1-10.475-14.9-2.454c-.054.252-.121.5-.194.74-2.266,7.5-12.432,10.911-18.3,11.861C446.963,560.2,445.553,562.185,445.031,563.568Z" transform="translate(-445.031 -298.678)"/><path class="e" d="M561.958,364.733c-1.385,0-65.691,12.074-76.328,25.241-5.314,6.578-6.1,82.544-6.1,82.544s6.575,8.151,20.772,3.418c0,0,10.41-51.975,9.642-67.739-.213-4.359,43.937-.631,52.018-2.723s27.824-19.67,23.474-28.233S561.958,364.733,561.958,364.733Z" transform="translate(-459.317 -224.454)"/><path class="c" d="M624.252,207.033a62.417,62.417,0,0,0,13.669-2.976c5.24-1.7,9.464-4.185,6.742-8.975-2.509-4.415-6.569-14.276-6.294-22.444l-9.751,7.858-6.624,5.337a79.379,79.379,0,0,0,.752,8.661c.132,1.005.287,2.091.47,3.25a2.362,2.362,0,0,1-1.089,2.372l-.149.094A3.7,3.7,0,0,0,624.252,207.033Z" transform="translate(-517.586 -144.901)"/><path class="f" d="M623.173,190.044s-.339,1.142.244,5.361c5.9-.963,11.425-5.673,11.425-5.673-3.007-.825-4.1-4.074-6.34-3.771Z" transform="translate(-518.765 -150.41)"/><path class="c" d="M610.786,168.022s22.715,3.774,24.848-10.408,6.5-23.246-7.913-26.255-18.05,1.978-19.914,6.538S604.933,166.675,610.786,168.022Z" transform="translate(-511.841 -127.427)"/><path class="e" d="M602.988,129.489c-.976,3.415,1.635,7.575,6.018,8.944,6.5,2.033,5.067,10.012,7.995,9.9s4.107-4.586,6.722-1.008c2.23,3.051-1.856,6.669-1.575,8.343.482,2.873,4.983,8.751,9.038,8.456s11.645-19.568,10.127-25.531-7.589-12.251-13.335-13.118-13.726,1.613-15.568,1.613S603.515,127.644,602.988,129.489Z" transform="translate(-510.362 -125.294)"/><path class="q" d="M653.027,231.316c-3.283-13.214-12.358-27.08-18.493-27.068-10.455.02-25.485,2.779-31.553,17.749-4.47,11.025-10.431,74.446-3.693,78.957,15.4,10.311,51.1,31.36,57.444,9.895C662.543,291.18,658.725,254.25,653.027,231.316Z" transform="translate(-507.659 -157.992)"/><path class="q" d="M580.988,222.385a12.383,12.383,0,0,0-19.163-5.337,117.2,117.2,0,0,0-13.142,12.281c-19.511,20.777-23.476,20.648-27.141,20.219s-34.624-7-34.624-7a9.358,9.358,0,0,0-2.519,3.06,5.767,5.767,0,0,0-.619,4.246c-1.212-.784,10.974,7.617,17.041,10.967,8.011,4.423,20.082,8.57,24.89,10.145a6.426,6.426,0,0,0,4.182-.062c7.136-2.572,31.1-11.945,50.609-28.209C585.642,238.409,583.754,229.579,580.988,222.385Z" transform="translate(-461.013 -162.21)"/><path class="k" d="M644.221,200.7l-2.367-5.333s-21.188,1.728-24.749,13.787C617.1,209.15,633.529,200.954,644.221,200.7Z" transform="translate(-516.293 -154.312)"/></g><g transform="translate(59.002 102.156)"><g transform="translate(107.575 99.086)"><path class="a" d="M742.15,518.768l.146,0a1.986,1.986,0,0,0,2.008-2.124l-7.981-79.708-6.964.621,11.46,80.137A1.3,1.3,0,0,0,742.15,518.768Z" transform="translate(-729.359 -436.932)"/></g><g transform="translate(66.494 99.086)"><path class="a" d="M672.03,518.768l.146,0a1.986,1.986,0,0,0,2.008-2.124L666.2,436.932l-6.964.621L670.7,517.69A1.3,1.3,0,0,0,672.03,518.768Z" transform="translate(-659.239 -436.932)"/></g><g transform="translate(0 99.086)"><path class="a" d="M547.9,518.768l-.146,0a1.986,1.986,0,0,1-2.007-2.124l7.981-79.708,6.964.621-11.46,80.137A1.3,1.3,0,0,1,547.9,518.768Z" transform="translate(-545.741 -436.932)"/></g><path class="a" d="M697.8,355.6l7.575-66.573c.994-9.594-2.217-18.988-16.061-19.715l-24.356-1.484c-14.435-.6-20.953,11.419-22.78,20.668l-14.459,73.181Z" transform="translate(-579.692 -267.805)"/><path class="a" d="M6.38,0H116a0,0,0,0,1,0,0V6.38a6.38,6.38,0,0,1-6.38,6.38H6.38A6.38,6.38,0,0,1,0,6.38v0A6.38,6.38,0,0,1,6.38,0Z" transform="translate(1.994 87.491)"/><path class="a" d="M6.38,0H69.961a0,0,0,0,1,0,0V6.38a6.38,6.38,0,0,1-6.38,6.38H6.38A6.38,6.38,0,0,1,0,6.38v0A6.38,6.38,0,0,1,6.38,0Z" transform="translate(48.029 87.491)"/></g><g transform="translate(4.59)"><g transform="translate(15.89 25.28)"><g transform="translate(19.226)"><path class="g" d="M512.8,138.951a2.366,2.366,0,1,0,2.366-2.366h0a2.366,2.366,0,0,0-2.365,2.365Z" transform="translate(-512.804 -136.585)"/></g><g transform="translate(9.76 0)"><ellipse class="g" cx="2.366" cy="2.366" rx="2.366" ry="2.366"/></g><g transform="translate(0 0)"><path class="g" d="M480.3,137.769a2.365,2.365,0,1,0,3.231-.865h0a2.365,2.365,0,0,0-3.23.865Z" transform="translate(-479.987 -136.586)"/></g></g><path class="r" d="M480.732,93.451a2.708,2.708,0,0,0-.478-.008l-1.406.04c-.308.014-.656.014-1.036.046l-1.24.176-1.447.208-1.617.4a26.174,26.174,0,0,0-7.836,3.417,27.657,27.657,0,0,0-12.7,20.785,28.765,28.765,0,0,0-.076,3.788c.045.641.032,1.292.125,1.939s.2,1.3.293,1.952a27.8,27.8,0,0,0,2.633,7.711,29.669,29.669,0,0,0,5.038,6.93,29.107,29.107,0,0,0,7.255,5.214,26.36,26.36,0,0,0,8.847,2.715,17.466,17.466,0,0,0,2.359.2,21.169,21.169,0,0,0,2.385.043,28.287,28.287,0,0,0,4.775-.6,27.924,27.924,0,0,0,9.51-4l-.289.029,9.687,3.887.573.23-.163-.6q-1.465-5.332-2.847-10.354l-.049.255a27.793,27.793,0,0,0,5.168-11.834,25.2,25.2,0,0,0,.377-6.061,19.572,19.572,0,0,0-.276-2.912q-.11-.713-.22-1.417c-.087-.466-.228-.917-.339-1.372a27.7,27.7,0,0,0-10.806-15.753,26.49,26.49,0,0,0-6.431-3.393l-1.449-.518-1.375-.352-1.258-.311c-.4-.078-.793-.117-1.158-.176-.732-.093-1.376-.219-1.94-.247l-1.423-.048-.87-.019a1.29,1.29,0,0,0-.293.011,1.3,1.3,0,0,0,.293.04l.866.069,1.414.1c.559.043,1.2.185,1.922.293a27.546,27.546,0,0,1,22.024,20.431c.106.446.244.89.326,1.347l.209,1.392a19.068,19.068,0,0,1,.256,2.859,24.74,24.74,0,0,1-.392,5.943,27.3,27.3,0,0,1-5.1,11.575l-.087.117.038.141q1.369,5.018,2.826,10.36l.41-.365-9.681-3.9-.152-.059-.137.091a27.365,27.365,0,0,1-9.3,3.908,27.828,27.828,0,0,1-4.669.591,20.9,20.9,0,0,1-2.331-.042,17.179,17.179,0,0,1-2.307-.2,25.81,25.81,0,0,1-8.65-2.645,28.548,28.548,0,0,1-7.108-5.086,29.176,29.176,0,0,1-4.946-6.771,27.3,27.3,0,0,1-2.6-7.545q-.148-.963-.293-1.912c-.095-.633-.083-1.272-.13-1.9a27.306,27.306,0,0,1,12.432-24.255,26.337,26.337,0,0,1,7.708-3.475l1.6-.425,1.432-.234,1.23-.2c.377-.042.722-.052,1.028-.077l1.4-.1A2.613,2.613,0,0,0,480.732,93.451Z" transform="translate(-452.865 -93.436)"/></g></g></g></svg>