<svg xmlns="http://www.w3.org/2000/svg" width="54.683" height="54.683" viewBox="0 0 54.683 54.683"><path d="M27.342.562A27.342,27.342,0,1,0,54.683,27.9,27.337,27.337,0,0,0,27.342.562Zm0,10.584a9.7,9.7,0,1,1-9.7,9.7A9.7,9.7,0,0,1,27.342,11.146Zm0,37.926A21.127,21.127,0,0,1,11.19,41.553,12.292,12.292,0,0,1,22.05,34.96a2.7,2.7,0,0,1,.783.121,14.6,14.6,0,0,0,4.509.761,14.542,14.542,0,0,0,4.509-.761,2.7,2.7,0,0,1,.783-.121,12.292,12.292,0,0,1,10.86,6.593A21.127,21.127,0,0,1,27.342,49.072Z" transform="translate(0 -0.562)"/></svg>