<svg id="Icon_ionic-ios-notifications" data-name="Icon ionic-ios-notifications" xmlns="http://www.w3.org/2000/svg" width="23.305" height="29.148" viewBox="0 0 23.305 29.148">
  <g id="Group_2695" data-name="Group 2695">
    <path id="Path_3457" data-name="Path 3457" d="M18.115,32.2c2.266,0,3.5-1.6,3.5-3.861H14.6C14.6,30.594,15.842,32.2,18.115,32.2Z" transform="translate(-6.477 -3.049)"/>
    <path id="Path_3458" data-name="Path 3458" d="M29.771,25.517c-1.122-1.479-3.329-2.346-3.329-8.968,0-6.8-3-9.529-5.8-10.185-.262-.066-.452-.153-.452-.43V5.723a1.778,1.778,0,1,0-3.555,0v.211c0,.27-.189.364-.452.43-2.8.663-5.8,3.388-5.8,10.185,0,6.622-2.207,7.482-3.329,8.968a1.446,1.446,0,0,0,1.158,2.317H28.62A1.446,1.446,0,0,0,29.771,25.517Z" transform="translate(-6.761 -3.93)"/>
  </g>
</svg>
