<svg id="Interview-rafiki" xmlns="http://www.w3.org/2000/svg" width="167.35" height="140.715" viewBox="0 0 167.35 140.715">
  <g id="freepik--Shadow--inject-2" transform="translate(0 130.944)">
    <ellipse id="freepik--path--inject-2" cx="83.675" cy="4.885" rx="83.675" ry="4.885" fill="#f5f5f5"/>
  </g>
  <g id="freepik--character-2--inject-2" transform="translate(84.074 35.484)">
    <path id="Path_4249" data-name="Path 4249" d="M365.048,383.99h-.462a.4.4,0,0,1-.367-.375l-2.84-19.774h2.158l1.882,19.645a.431.431,0,0,1-.371.5Z" transform="translate(-313.713 -286.109)" fill="#2e1543"/>
    <path id="Path_4250" data-name="Path 4250" d="M365.048,383.99h-.462a.4.4,0,0,1-.367-.375l-2.84-19.774h2.158l1.882,19.645a.431.431,0,0,1-.371.5Z" transform="translate(-313.713 -286.109)" opacity="0.3"/>
    <path id="Path_4251" data-name="Path 4251" d="M378.768,383.99h-.462a.4.4,0,0,1-.367-.375L375.1,363.84h2.158l1.886,19.645a.432.432,0,0,1-.375.5Z" transform="translate(-321.512 -286.109)" fill="#2e1543"/>
    <path id="Path_4252" data-name="Path 4252" d="M378.768,383.99h-.462a.4.4,0,0,1-.367-.375L375.1,363.84h2.158l1.886,19.645a.432.432,0,0,1-.375.5Z" transform="translate(-321.512 -286.109)" opacity="0.3"/>
    <path id="Path_4253" data-name="Path 4253" d="M306.662,383.99h.462a.4.4,0,0,0,.367-.375l2.84-19.774h-2.158l-1.882,19.645a.432.432,0,0,0,.371.5Z" transform="translate(-282.394 -286.109)" fill="#2e1543"/>
    <path id="Path_4254" data-name="Path 4254" d="M306.662,383.99h.462a.4.4,0,0,0,.367-.375l2.84-19.774h-2.158l-1.882,19.645a.432.432,0,0,0,.371.5Z" transform="translate(-282.394 -286.109)" opacity="0.3"/>
    <path id="Path_4255" data-name="Path 4255" d="M292.942,383.99h.462a.4.4,0,0,0,.367-.375l2.84-19.774h-2.158l-1.882,19.645a.432.432,0,0,0,.371.5Z" transform="translate(-274.595 -286.109)" fill="#2e1543"/>
    <path id="Path_4256" data-name="Path 4256" d="M292.942,383.99h.462a.4.4,0,0,0,.367-.375l2.84-19.774h-2.158l-1.882,19.645a.432.432,0,0,0,.371.5Z" transform="translate(-274.595 -286.109)" opacity="0.3"/>
    <path id="Path_4257" data-name="Path 4257" d="M272.792,288.409h14.535c2.589-8.955,11.859-16.019,21.362-16.019h4.721c9.926,0,16.365,7.738,14.336,17.288a19.267,19.267,0,0,1-1.851,5.036L323.6,308.607c-.293,1.8-1.726,3.25-3.194,3.25H276.658c-1.467,0-2.9-1.454-3.194-3.25l-2.8-16.965C270.37,289.864,271.324,288.409,272.792,288.409Z" transform="translate(-262.118 -234.125)" fill="#2e1543"/>
    <path id="Path_4258" data-name="Path 4258" d="M272.792,288.409h14.535c2.589-8.955,11.859-16.019,21.362-16.019h4.721c9.926,0,16.365,7.738,14.336,17.288a19.267,19.267,0,0,1-1.851,5.036L323.6,308.607c-.293,1.8-1.726,3.25-3.194,3.25H276.658c-1.467,0-2.9-1.454-3.194-3.25l-2.8-16.965C270.37,289.864,271.324,288.409,272.792,288.409Z" transform="translate(-262.118 -234.125)" fill="#fff" opacity="0.5"/>
    <path id="Path_4259" data-name="Path 4259" d="M257.963,397.279l3.6,1.649a.255.255,0,0,1,.138.328l-1.135,2.93a.621.621,0,0,1-.82.311c-1.243-.6-1.808-.945-3.392-1.67a42.362,42.362,0,0,1-4.842-2.805c-1.174-.863-.311-2.028.272-1.769,2.633,1.161,4.316,1.264,5.537.971a.962.962,0,0,1,.643.056Z" transform="translate(-250.927 -304.512)" fill="#263238"/>
    <path id="Path_4260" data-name="Path 4260" d="M292.387,296.43s-23.015.285-23.373,9.356c-.509,13.042-2.434,34.693-2.434,34.693l3.884,1.726s6.8-21.725,7.043-31.91c6.473-1.605,23.119,0,25.074-5.291a17.448,17.448,0,0,0,.738-8.575Z" transform="translate(-259.825 -247.791)" fill="#2e1543"/>
    <path id="Path_4261" data-name="Path 4261" d="M292.387,296.43s-23.015.285-23.373,9.356c-.509,13.042-2.434,34.693-2.434,34.693l3.884,1.726s6.8-21.725,7.043-31.91c6.473-1.605,23.119,0,25.074-5.291a17.448,17.448,0,0,0,.738-8.575Z" transform="translate(-259.825 -247.791)" opacity="0.2"/>
    <path id="Path_4262" data-name="Path 4262" d="M306.279,236.8c-.2.837-.406,1.592-.634,2.378s-.466,1.549-.716,2.317c-.5,1.536-1.062,3.064-1.7,4.575a37.39,37.39,0,0,1-2.223,4.488,21.853,21.853,0,0,1-1.459,2.205,12.514,12.514,0,0,1-2.007,2.115l-.065.056-.138.1a3.3,3.3,0,0,1-1.45.518,4.034,4.034,0,0,1-.98,0,5.964,5.964,0,0,1-1.325-.319,14.153,14.153,0,0,1-1.929-.863,32.543,32.543,0,0,1-3.206-2.037c-1-.721-1.968-1.467-2.909-2.244s-1.843-1.571-2.736-2.425a1.321,1.321,0,0,1,1.554-2.106h.022c1.018.565,2.046,1.165,3.077,1.726s2.05,1.126,3.073,1.653,2.05,1.027,3.021,1.433a8.833,8.833,0,0,0,1.377.457,1.36,1.36,0,0,0,.432.056h-.091a1.36,1.36,0,0,0-.613.229l-.207.155a7.593,7.593,0,0,0,1.118-1.377,18.636,18.636,0,0,0,1.04-1.765,41.269,41.269,0,0,0,1.774-4c.531-1.39,1.027-2.814,1.489-4.255s.893-2.922,1.295-4.316V235.5a2.641,2.641,0,1,1,5.114,1.321Z" transform="translate(-268.818 -212.029)" fill="#263238"/>
    <path id="Path_4263" data-name="Path 4263" d="M307.613,403h4.316a.272.272,0,0,1,.285.263l.211,3.414a.686.686,0,0,1-.673.686c-1.5-.026-2.222-.117-4.121-.117-1.165,0-3.522.121-5.136.121s-1.567-1.592-.885-1.726a11.042,11.042,0,0,0,5.338-2.4A1.113,1.113,0,0,1,307.613,403Z" transform="translate(-279.482 -308.369)" fill="#263238"/>
    <path id="Path_4264" data-name="Path 4264" d="M313.919,296.424s-20.875,1.761-20.361,10.828c.561,9.926,9.727,35.172,9.727,35.172h4.221s-3.612-23.119-4.885-33.23c5.886,0,19.532,1.1,21.492-4.2a17.413,17.413,0,0,0,.734-8.575Z" transform="translate(-275.155 -247.785)" fill="#2e1543"/>
    <path id="Path_4265" data-name="Path 4265" d="M284.377,260.5a7.022,7.022,0,0,0-1.174-1.441c-.863.8-1.333,3.137-1.333,3.137l1.178.1A1.949,1.949,0,0,0,284.377,260.5Z" transform="translate(-268.516 -226.548)" fill="#2e1543"/>
    <path id="Path_4266" data-name="Path 4266" d="M273.589,256.688l-1.342-.583a.785.785,0,0,0-.984.315l-.639,1.053a.79.79,0,0,0,.108.949l1.843,1.92,3.073-.125a.971.971,0,0,0,.833-.531l.354-.695a.962.962,0,0,0-.306-1.247A10.782,10.782,0,0,0,273.589,256.688Z" transform="translate(-262.06 -224.832)" fill="#ffc3bd"/>
    <path id="Path_4267" data-name="Path 4267" d="M324.938,234.5c-.613,3.884-1.411,12.269.216,24.914l17.111-.16c-.1-8.765,1.269-16.99,2.611-25.03a2.391,2.391,0,0,0-2.033-2.766,63.581,63.581,0,0,0-14.772,0A3.681,3.681,0,0,0,324.938,234.5Z" transform="translate(-292.574 -210.61)" fill="#263238"/>
    <path id="Path_4268" data-name="Path 4268" d="M357.163,233.71c.5,1.247.906,2.443,1.321,3.677s.768,2.473,1.109,3.729.639,2.538.863,3.845a31.528,31.528,0,0,1,.522,4.044c.026.35.03.712.035,1.075v.552a3.388,3.388,0,0,1-.432,1.618,2.965,2.965,0,0,1-.716.837,2.821,2.821,0,0,1-.432.285,2.627,2.627,0,0,1-.432.19,3.582,3.582,0,0,1-1.269.224,5.766,5.766,0,0,1-1.51-.237,13.42,13.42,0,0,1-2.089-.824c-.626-.311-1.213-.634-1.787-.971a47.262,47.262,0,0,1-6.331-4.527,1.316,1.316,0,0,1,1.411-2.2h.03c2.231,1.062,4.5,2.158,6.711,3.068.552.224,1.1.432,1.64.617a8.88,8.88,0,0,0,1.472.4c.2.035.375.03.354,0a.652.652,0,0,0-.341.06,1.768,1.768,0,0,0-.2.091,1.451,1.451,0,0,0-.233.155,1.851,1.851,0,0,0-.432.479,1.593,1.593,0,0,0-.224.708l-.022-.393c-.026-.268-.047-.531-.086-.807a46.011,46.011,0,0,0-1.614-6.9c-.691-2.317-1.485-4.682-2.292-6.931v-.022a2.641,2.641,0,0,1,4.933-1.882Z" transform="translate(-304.706 -211.193)" fill="#263238"/>
    <path id="Path_4269" data-name="Path 4269" d="M346.153,211.91l-2.067,1.726-2.822,2.343a8.148,8.148,0,0,1,.181,1.135,2.767,2.767,0,0,1-1.817,3.25,2.158,2.158,0,0,0-1.364,1.333c-.224.721.039,1.528,2.309,1.528a7.43,7.43,0,0,0,5.731-2.214.591.591,0,0,0,.03-.738C345.018,218.392,345.614,214.249,346.153,211.91Z" transform="translate(-300.536 -199.746)" fill="#ffc3bd"/>
    <path id="Path_4270" data-name="Path 4270" d="M342.345,236.41a1.294,1.294,0,0,1,.289.587,2.369,2.369,0,0,1,.626-.587,2.235,2.235,0,0,1,1.2,1.4,6.305,6.305,0,0,1-1.8-.665,3.069,3.069,0,0,1-1.2.371C341.486,236.768,342.345,236.41,342.345,236.41Z" transform="translate(-302.39 -213.673)" fill="#2e1543"/>
    <path id="Path_4271" data-name="Path 4271" d="M345.63,232.539a5.247,5.247,0,0,1,1.144,2.516s5.524-1.381,5.265-4.985a5.611,5.611,0,0,0-1.532-.47S349.32,231.758,345.63,232.539Z" transform="translate(-304.76 -209.802)" fill="#2e1543"/>
    <path id="Path_4272" data-name="Path 4272" d="M340.221,232.795A5.809,5.809,0,0,0,339,235.311s-2.831-2.589-.073-4.954a7.38,7.38,0,0,1,1.463-.306S338.559,231.539,340.221,232.795Z" transform="translate(-300.266 -210.058)" fill="#2e1543"/>
    <path id="Path_4273" data-name="Path 4273" d="M345.3,218.229a8.318,8.318,0,0,1,.181,1.139,3.543,3.543,0,0,0,2.589-2.4,4.956,4.956,0,0,0,.039-1.075Z" transform="translate(-304.572 -202.008)" opacity="0.2"/>
    <path id="Path_4274" data-name="Path 4274" d="M336.477,194.282c-2.589,1.843-1.148,6.163,1.07,4.51S338.591,192.78,336.477,194.282Z" transform="translate(-298.77 -189.549)" fill="#263238"/>
    <path id="Path_4275" data-name="Path 4275" d="M345.333,196.391c-.721,3.306-.971,5.274-2.926,6.784a4.4,4.4,0,0,1-7.121-3.168c-.259-3.081.962-7.975,4.441-8.912a4.454,4.454,0,0,1,5.606,5.3Z" transform="translate(-298.861 -187.809)" fill="#ffc3bd"/>
    <path id="Path_4276" data-name="Path 4276" d="M343.388,189.85c-1.834-.5-6.564.7-8.243-1.092-1.8-1.92.824-2.857,1.6-2.188-.98-1.122-.617-2.322.773-2.214a1.676,1.676,0,0,1,1.333,1.2s-.168-1.964,1.575-1.825c1.58.121,1.584,2.253,1.584,2.253s3.772-1.066,5.032,2.533c2.374-.052,2.322,4.946-2.456,6.724C342.65,194.282,342.56,190.873,343.388,189.85Z" transform="translate(-298.449 -183.724)" fill="#263238"/>
    <path id="Path_4277" data-name="Path 4277" d="M361.681,192.635a.479.479,0,0,1-.086-.954.691.691,0,0,0,.281-.35,1.131,1.131,0,0,0,.052-.9.479.479,0,1,1,.863-.4,2.1,2.1,0,0,1-.1,1.8,1.39,1.39,0,0,1-.928.79A.281.281,0,0,1,361.681,192.635Z" transform="translate(-313.595 -187.121)" fill="#263238"/>
    <path id="Path_4278" data-name="Path 4278" d="M356.16,208.128a3.021,3.021,0,0,1-1.817,1.122c-.937.168-1.221-.695-.807-1.528.371-.755,1.295-1.748,2.158-1.532S356.712,207.386,356.16,208.128Z" transform="translate(-309.149 -196.478)" fill="#ffc3bd"/>
    <path id="Path_4279" data-name="Path 4279" d="M344.617,203.632c-.043.272-.22.475-.4.453s-.289-.259-.25-.531.22-.475.4-.432S344.656,203.36,344.617,203.632Z" transform="translate(-303.812 -194.747)" fill="#263238"/>
    <path id="Path_4280" data-name="Path 4280" d="M337.477,202.73c-.043.272-.22.475-.4.432s-.289-.259-.25-.531.22-.475.4-.453S337.52,202.458,337.477,202.73Z" transform="translate(-299.753 -194.213)" fill="#263238"/>
    <path id="Path_4281" data-name="Path 4281" d="M338.815,203.71a8.76,8.76,0,0,1-1.295,1.938,1.329,1.329,0,0,0,1.1.263Z" transform="translate(-300.15 -195.085)" fill="#ed847e"/>
    <path id="Path_4282" data-name="Path 4282" d="M342.5,210.951a2.382,2.382,0,0,0,1.726-.708.082.082,0,0,0-.121-.108,2.266,2.266,0,0,1-1.895.634.086.086,0,0,0-.091.069.082.082,0,0,0,.073.091A2.707,2.707,0,0,0,342.5,210.951Z" transform="translate(-302.764 -198.727)" fill="#263238"/>
    <path id="Path_4283" data-name="Path 4283" d="M346.483,199.615a.151.151,0,0,0,.069-.035.16.16,0,0,0,0-.229,1.541,1.541,0,0,0-1.351-.535.162.162,0,0,0,.052.319,1.234,1.234,0,0,1,1.062.432.16.16,0,0,0,.168.047Z" transform="translate(-304.439 -192.298)" fill="#263238"/>
    <path id="Path_4284" data-name="Path 4284" d="M335.64,199.363a.164.164,0,0,0,.147-.03,1.334,1.334,0,0,1,1.152-.311.164.164,0,0,0,.2-.112.16.16,0,0,0-.112-.2h0a1.653,1.653,0,0,0-1.441.375.16.16,0,0,0-.022.224A.155.155,0,0,0,335.64,199.363Z" transform="translate(-299.016 -192.222)" fill="#263238"/>
    <path id="Path_4285" data-name="Path 4285" d="M343.619,255.155l-1.89-1.174a1.2,1.2,0,0,0-1.657.4l-.22.371a1.191,1.191,0,0,0,.121,1.4l1.295,1.5s1.135,2.645,2.451,1.946l1-1.726Z" transform="translate(-301.377 -223.558)" fill="#ffc3bd"/>
    <path id="Path_4286" data-name="Path 4286" d="M349.727,262.461a8.111,8.111,0,0,0-1-1.761c-.949.811-1.726,3.4-1.726,3.4l1.161.25a2.158,2.158,0,0,0,1.567-1.89Z" transform="translate(-305.539 -227.48)" fill="#2e1543"/>
    <path id="Path_4287" data-name="Path 4287" d="M354.45,309.51H332.043c-1.467,0-2.417,1.454-2.123,3.25l2.8,16.947c.3,1.8,1.726,3.25,3.2,3.25h15.761Z" transform="translate(-295.799 -255.226)" fill="#2e1543"/>
    <path id="Path_4288" data-name="Path 4288" d="M354.45,309.51H332.043c-1.467,0-2.417,1.454-2.123,3.25l2.8,16.947c.3,1.8,1.726,3.25,3.2,3.25h15.761Z" transform="translate(-295.799 -255.226)" fill="#fff" opacity="0.5"/>
  </g>
  <g id="freepik--Table--inject-2" transform="translate(28.771 79.83)">
    <path id="Path_4289" data-name="Path 4289" d="M146.723,342.9h.647a.432.432,0,0,0,.432-.432L151.349,289h-2.671L146.3,342.41a.432.432,0,0,0,.419.492Z" transform="translate(-136.15 -287.912)" fill="#2e1543"/>
    <path id="Path_4290" data-name="Path 4290" d="M146.723,342.9h.647a.432.432,0,0,0,.432-.432L151.349,289h-2.671L146.3,342.41a.432.432,0,0,0,.419.492Z" transform="translate(-136.15 -287.912)" fill="#fff" opacity="0.3"/>
    <path id="Path_4291" data-name="Path 4291" d="M129.723,342.9h.647a.432.432,0,0,0,.432-.432L134.349,289h-2.676L129.3,342.41a.432.432,0,0,0,.419.492Z" transform="translate(-126.486 -287.912)" fill="#2e1543"/>
    <path id="Path_4292" data-name="Path 4292" d="M129.723,342.9h.647a.432.432,0,0,0,.432-.432L134.349,289h-2.676L129.3,342.41a.432.432,0,0,0,.419.492Z" transform="translate(-126.486 -287.912)" fill="#fff" opacity="0.3"/>
    <path id="Path_4293" data-name="Path 4293" d="M333.836,342.9h-.647a.432.432,0,0,1-.432-.432L329.21,289h2.671l2.374,53.41a.432.432,0,0,1-.419.492Z" transform="translate(-240.123 -287.912)" fill="#2e1543"/>
    <path id="Path_4294" data-name="Path 4294" d="M333.836,342.9h-.647a.432.432,0,0,1-.432-.432L329.21,289h2.671l2.374,53.41a.432.432,0,0,1-.419.492Z" transform="translate(-240.123 -287.912)" fill="#fff" opacity="0.3"/>
    <path id="Path_4295" data-name="Path 4295" d="M350.836,342.9h-.647a.432.432,0,0,1-.432-.432L346.21,289h2.676l2.369,53.41a.432.432,0,0,1-.419.492Z" transform="translate(-249.787 -287.912)" fill="#2e1543"/>
    <path id="Path_4296" data-name="Path 4296" d="M350.836,342.9h-.647a.432.432,0,0,1-.432-.432L346.21,289h2.676l2.369,53.41a.432.432,0,0,1-.419.492Z" transform="translate(-249.787 -287.912)" fill="#fff" opacity="0.3"/>
    <rect id="Rectangle_925" data-name="Rectangle 925" width="104.135" height="1.1" transform="translate(0 0)" fill="#2e1543"/>
  </g>
  <g id="freepik--character-1--inject-2" transform="translate(11.029 31.791)">
    <path id="Path_4297" data-name="Path 4297" d="M111.211,246.193l-.984,7.237c-.311,2.408-.634,4.825-.863,7.2-.03.3-.052.587-.078.863l-.035.432a1.087,1.087,0,0,0,0-.216.932.932,0,0,0-.047-.2,1.053,1.053,0,0,0-.065-.151.663.663,0,0,0-.06-.1c-.078-.1-.086-.086-.065-.065a.864.864,0,0,0,.147.125,4.551,4.551,0,0,0,.57.332,23.109,23.109,0,0,0,3.172,1.178c2.261.686,4.639,1.295,6.987,1.86l-.268,2.059a51.7,51.7,0,0,1-7.483-.772,21.81,21.81,0,0,1-3.845-1.014,8.307,8.307,0,0,1-1.066-.5,4.686,4.686,0,0,1-.6-.41,3.379,3.379,0,0,1-.686-.734,2.852,2.852,0,0,1-.328-.66,3.319,3.319,0,0,1-.1-.432,4.318,4.318,0,0,1-.026-.432v-.479c0-.319,0-.639.026-.954.1-2.52.332-4.98.6-7.44s.578-4.9.962-7.337Z" transform="translate(-95.203 -215.192)" fill="#7f3e3b"/>
    <path id="Path_4298" data-name="Path 4298" d="M141.326,291.626l-1.584,1.446a1.23,1.23,0,0,1-1.359.2l-1.748-.842s-2.589-.108-2.965-1.692l.673-1.23,4.018-.432a1.89,1.89,0,0,1,1.182.263l1.657,1.014a.811.811,0,0,1,.125,1.273Z" transform="translate(-111.227 -239.91)" fill="#7f3e3b"/>
    <path id="Path_4299" data-name="Path 4299" d="M128.108,212.56c.432,2.486.76,7.021-1.018,8.631a23.469,23.469,0,0,1,7.177,6.232c3.021-2.408.5-6,.5-6-2.736-.738-2.589-2.779-2.067-4.682Z" transform="translate(-107.487 -196.422)" fill="#7f3e3b"/>
    <path id="Path_4300" data-name="Path 4300" d="M133.949,231.785a5.747,5.747,0,0,0-1.377-3.146c-.962-.863-6.042-.388-7.626-.211a.885.885,0,0,0-.69.492l-1.157,2.417Z" transform="translate(-105.219 -205.277)" fill="#2e1543"/>
    <path id="Path_4301" data-name="Path 4301" d="M133.949,231.785a5.747,5.747,0,0,0-1.377-3.146c-.962-.863-6.042-.388-7.626-.211a.885.885,0,0,0-.69.492l-1.157,2.417Z" transform="translate(-105.219 -205.277)" fill="#fff" opacity="0.8"/>
    <path id="Path_4302" data-name="Path 4302" d="M111.025,233.872c-3.124,1.018-3.8,5.209-3.513,8.467l6.305,3.884s1.532-4.747,1.519-7.3C115.323,236.219,113.148,233.19,111.025,233.872Z" transform="translate(-96.324 -208.481)" fill="#2e1543"/>
    <path id="Path_4303" data-name="Path 4303" d="M117.777,258.878a.6.6,0,0,1-.432-.168.63.63,0,0,1-.069-.091.4.4,0,0,1-.056-.1.787.787,0,0,1-.035-.108.5.5,0,0,1,0-.112.591.591,0,0,1,.173-.432.6.6,0,0,1,.829,0,.591.591,0,0,1,.173.432.5.5,0,0,1,0,.112.431.431,0,0,1-.035.108.388.388,0,0,1-.052.1l-.073.091A.587.587,0,0,1,117.777,258.878Z" transform="translate(-101.855 -222.081)" fill="#fff"/>
    <path id="Path_4304" data-name="Path 4304" d="M111.508,256.16h0a.587.587,0,0,1-.375-.527h0a.578.578,0,0,1-.634.095h0a.591.591,0,0,1-.341-.544h0a.574.574,0,0,1-.639.056h0a.583.583,0,0,1-.306-.561h0a.587.587,0,0,1-.643.022h0a.587.587,0,0,1-.2-.8h0a.591.591,0,0,1,.807-.2h0a.6.6,0,0,1,.281.548h0a.578.578,0,0,1,.613-.039h0a.591.591,0,0,1,.311.531h0a.583.583,0,0,1,.609-.073h0a.587.587,0,0,1,.341.509h0a.6.6,0,0,1,.6-.108h0a.587.587,0,0,1,.328.76h0a.583.583,0,0,1-.544.371h0a.635.635,0,0,1-.211-.039Z" transform="translate(-96.798 -219.76)" fill="#fff"/>
    <path id="Path_4305" data-name="Path 4305" d="M106.826,253.475a.535.535,0,0,1-.117,0,.432.432,0,0,1-.108-.035.389.389,0,0,1-.1-.052l-.086-.073a.457.457,0,0,1-.073-.086c0-.035-.039-.069-.056-.1a1.04,1.04,0,0,1-.035-.108,1.052,1.052,0,0,1,0-.117.909.909,0,0,1,0-.112,1.11,1.11,0,0,1,.035-.112.432.432,0,0,1,.056-.1.677.677,0,0,1,.073-.091l.086-.073a.578.578,0,0,1,.1-.052l.108-.035a.6.6,0,0,1,.527.16.677.677,0,0,1,.073.091.736.736,0,0,1,.056.1.539.539,0,0,1,.03.112.471.471,0,0,1,0,.112.535.535,0,0,1,0,.117.5.5,0,0,1-.03.108c0,.035-.035.069-.056.1a.457.457,0,0,1-.073.086A.591.591,0,0,1,106.826,253.475Z" transform="translate(-95.638 -219.022)" fill="#fff"/>
    <path id="Path_4306" data-name="Path 4306" d="M133.185,239.2A183.321,183.321,0,0,1,130.164,259l-16.891-.5c.432-6.236-.229-10.884-1.756-21.8a3.552,3.552,0,0,1,3.155-4.018c1.083-.112,2.317-.2,3.556-.229a53.946,53.946,0,0,1,7.673.229c.82.1,1.67.233,2.481.371A5.792,5.792,0,0,1,133.185,239.2Z" transform="translate(-98.615 -207.707)" fill="#2e1543"/>
    <path id="Path_4307" data-name="Path 4307" d="M149.692,201.139c.039.332.25.583.466.552s.363-.315.324-.647-.25-.583-.466-.557S149.653,200.794,149.692,201.139Z" transform="translate(-120.331 -189.558)" fill="#263238"/>
    <path id="Path_4308" data-name="Path 4308" d="M150.23,200.108l.772-.328S150.666,200.453,150.23,200.108Z" transform="translate(-120.64 -189.157)" fill="#263238"/>
    <path id="Path_4309" data-name="Path 4309" d="M150,203.17a9,9,0,0,0,1.441,1.985,1.437,1.437,0,0,1-1.161.367Z" transform="translate(-120.51 -191.084)" fill="#630f0f"/>
    <path id="Path_4310" data-name="Path 4310" d="M147.963,194.8a.2.2,0,0,0,0-.2.2.2,0,0,0-.263-.091,1.951,1.951,0,0,0-1.122,1.407.2.2,0,1,0,.388.052h0a1.571,1.571,0,0,1,.9-1.1A.164.164,0,0,0,147.963,194.8Z" transform="translate(-118.563 -186.153)" fill="#263238"/>
    <path id="Path_4311" data-name="Path 4311" d="M122.924,192.962c.742,4.061.971,5.8,3.288,7.652,3.487,2.788,8.316.988,8.8-3.215.432-3.785-.863-9.792-5.049-10.94a5.636,5.636,0,0,0-7.043,6.5Z" transform="translate(-105.06 -181.467)" fill="#7f3e3b"/>
    <path id="Path_4312" data-name="Path 4312" d="M125.212,187.8c.682,2.231,2.313,7.626-1.295,8.83-2.818.941-11.652,1.692-12.666-3.483-1.049-5.347,3.72-9.158,3.72-9.158s-3.78-3.1-1.359-6.473c3.12-4.35,10.595-1.89,12.809,1.182C128.583,181.688,125.212,187.8,125.212,187.8Z" transform="translate(-98.398 -175.165)" fill="#263238"/>
    <path id="Path_4313" data-name="Path 4313" d="M117.2,208.76a12.623,12.623,0,0,1-4.747-.932c-2-.863-3.172-2.2-3.383-3.858-.708-5.64,4.54-8.739,4.6-8.769l.207.358c-.052.03-5.062,3-4.389,8.359a4.714,4.714,0,0,0,3.137,3.526c2.563,1.1,5.874,1.1,6.676.509l.246.337A4.381,4.381,0,0,1,117.2,208.76Z" transform="translate(-97.208 -186.554)" fill="#263238"/>
    <path id="Path_4314" data-name="Path 4314" d="M116.184,193.024c-.047.721-.643,1.726,1.856,2.084s5.977.337,6.693-.263,1.416-2.041-.078-1.912S116.266,191.79,116.184,193.024Z" transform="translate(-101.233 -185.008)" fill="#2e1543"/>
    <path id="Path_4315" data-name="Path 4315" d="M140.366,202.987a3.258,3.258,0,0,0,1.916,1.567c1.088.319,1.649-.652,1.359-1.687-.263-.932-1.148-2.223-2.244-2.089A1.451,1.451,0,0,0,140.366,202.987Z" transform="translate(-114.919 -189.719)" fill="#7f3e3b"/>
    <path id="Path_4316" data-name="Path 4316" d="M199.088,390.293l4-.078-1.938-9.995-4,.073Z" transform="translate(-147.312 -291.727)" fill="#7f3e3b"/>
    <path id="Path_4317" data-name="Path 4317" d="M204.6,393.47c1.057,3.992,4.954,8.2,4.954,8.2L204,400.254l-2.43-3.452.432-.915Z" transform="translate(-149.824 -299.258)" fill="#7f3e3b"/>
    <path id="Path_4318" data-name="Path 4318" d="M199.447,396.713a8.476,8.476,0,0,0,.082,1.4c.237,1.649.962,6.042.962,6.042h.38a39.021,39.021,0,0,1-.306-4.031c.052-1.083.751.833,1.6,1.92a6.092,6.092,0,0,0,4.833,2.158c2.883.091,4.035-.03,3.112-.751a9.617,9.617,0,0,0-2.891-1.187A8.765,8.765,0,0,1,203.331,399a10.167,10.167,0,0,0-3.578-3.094C199.511,395.923,199.464,396.38,199.447,396.713Z" transform="translate(-148.616 -300.645)" fill="#263238"/>
    <path id="Path_4319" data-name="Path 4319" d="M229.047,361.1l5.11.16-5.718-8.5-3.539,3.025Z" transform="translate(-163.086 -276.117)" fill="#7f3e3b"/>
    <path id="Path_4320" data-name="Path 4320" d="M237.32,363.73c3.716,1.726,9.663,1.39,9.663,1.39L242.149,369,238,368.693l-.432-.919Z" transform="translate(-170.146 -282.353)" fill="#7f3e3b"/>
    <path id="Path_4321" data-name="Path 4321" d="M234.908,368.9a8.55,8.55,0,0,0,1.079.889c1.355.945,5.019,3.366,5.019,3.366l.233-.3a39.051,39.051,0,0,1-3.146-2.516c-.768-.785,1.075-.022,2.4.056a5.5,5.5,0,0,0,4.562-2.33c1.851-2.205,2.469-3.194,1.372-2.96a8.89,8.89,0,0,0-2.658,1.459,7.768,7.768,0,0,1-4.795.837,8.989,8.989,0,0,0-4.484.695C234.368,368.313,234.658,368.649,234.908,368.9Z" transform="translate(-168.519 -283.116)" fill="#263238"/>
    <path id="Path_4322" data-name="Path 4322" d="M125.318,291.826s27.344-4.035,30.166,2.965c4.928,12.2,11.881,26.17,11.881,26.17l-3.358,2.779s-11.924-11.039-16.162-23.3c-5.067,1.64-21.185,6.9-27.089,6.9-6.305,0-8.882-5.373-6.6-14.3a1.8,1.8,0,0,1,1.726-1.342C119.88,291.735,125.318,291.826,125.318,291.826Z" transform="translate(-99.669 -240.822)" fill="#263238"/>
    <path id="Path_4323" data-name="Path 4323" d="M130.781,296.649s22.441-.673,22.635,7.276c.311,13.15,4.018,31.992,4.018,31.992l-4.1.38s-6.693-14.988-8.463-27.823c-7.992.518-15.364.16-21.267.16-6.616,0-7.164-7.263-.725-15.743C126.824,292.881,130.781,296.649,130.781,296.649Z" transform="translate(-102.513 -242.085)" fill="#263238"/>
    <path id="Path_4324" data-name="Path 4324" d="M114.449,290.377l-.47,1.489c-.065.117.069.237.268.246l17.383.514c.151,0,.281-.065.293-.16l.2-1.506c0-.108-.117-.2-.285-.2l-17.1-.509a.306.306,0,0,0-.285.129Z" transform="translate(-100.024 -240.581)" fill="#fff"/>
    <path id="Path_4325" data-name="Path 4325" d="M119.478,292.286h-.457c-.091,0-.16-.052-.151-.108l.272-1.959c0-.056.091-.1.181-.1h.457c.091,0,.16.052.151.108l-.272,1.955C119.65,292.248,119.568,292.291,119.478,292.286Z" transform="translate(-102.813 -240.51)" fill="#263238"/>
    <path id="Path_4326" data-name="Path 4326" d="M151.088,293.236h-.457c-.091,0-.16-.052-.151-.108l.276-1.959c0-.056.086-.1.177-.1h.457c.095,0,.16.052.155.108l-.276,1.959C151.26,293.2,151.182,293.236,151.088,293.236Z" transform="translate(-120.782 -241.05)" fill="#263238"/>
    <path id="Path_4327" data-name="Path 4327" d="M135.287,292.756h-.457c-.095,0-.16-.052-.151-.108l.272-1.959c0-.056.091-.1.181-.1h.457c.091,0,.16.052.151.108l-.272,1.959C135.46,292.718,135.378,292.761,135.287,292.756Z" transform="translate(-111.8 -240.777)" fill="#263238"/>
    <path id="Path_4328" data-name="Path 4328" d="M178.263,251.61h10.914a.526.526,0,0,1,.5.669l-4.083,14a.518.518,0,0,1-.5.375H174.181a.518.518,0,0,1-.5-.669l4.078-14A.522.522,0,0,1,178.263,251.61Z" transform="translate(-133.958 -218.619)" fill="#2e1543"/>
    <path id="Path_4329" data-name="Path 4329" d="M179.27,252.8l10.612.25-4.19,13.21-10.612-.255Z" transform="translate(-134.766 -219.296)" fill="#e0e0e0"/>
    <path id="Path_4330" data-name="Path 4330" d="M178.842,252.5l10.612.043-3.932,13.288-10.612-.043Z" transform="translate(-134.67 -219.125)" fill="#fff"/>
    <path id="Path_4331" data-name="Path 4331" d="M156.337,253.14c0,.432.065.941.1,1.42s.1.98.164,1.467q.181,1.463.483,2.883a20.63,20.63,0,0,0,.768,2.719,12.653,12.653,0,0,0,.527,1.243c.095.2.2.384.3.574l.16.263h0a1.916,1.916,0,0,0,.686.4,8.471,8.471,0,0,0,1.243.375,24.505,24.505,0,0,0,2.887.432c1.994.194,4.078.289,6.115.332l.207,2.067a39.06,39.06,0,0,1-6.435.729,23.413,23.413,0,0,1-3.362-.138,11.8,11.8,0,0,1-1.808-.367,5.365,5.365,0,0,1-2.063-1.066,3.746,3.746,0,0,1-.544-.583l-.276-.388c-.177-.259-.35-.518-.5-.781a13.268,13.268,0,0,1-.816-1.6,20.8,20.8,0,0,1-1.113-3.263,28.317,28.317,0,0,1-.643-3.3c-.073-.548-.129-1.1-.177-1.657s-.078-1.088-.086-1.726Z" transform="translate(-121.738 -219.489)" fill="#7f3e3b"/>
    <path id="Path_4332" data-name="Path 4332" d="M151.349,237.884c2.719,2.559,2.063,9.227,2.063,9.227l-5.2.911s-3.215-4.782-2.084-6.784C147.3,239.148,149.881,236.5,151.349,237.884Z" transform="translate(-118.169 -210.598)" fill="#2e1543"/>
    <path id="Path_4333" data-name="Path 4333" d="M162.572,259.547a.6.6,0,0,1-.432-.173.516.516,0,0,1-.073-.091.721.721,0,0,1-.052-.1.864.864,0,0,1-.017-.125.911.911,0,0,1,0-.112.587.587,0,0,1,.168-.432.749.749,0,0,1,.091-.073.432.432,0,0,1,.1-.052.557.557,0,0,1,.112-.035.587.587,0,0,1,.7.574.469.469,0,0,1,0,.112.483.483,0,0,1-.035.112.432.432,0,0,1-.052.1.519.519,0,0,1-.073.091A.591.591,0,0,1,162.572,259.547Z" transform="translate(-127.329 -222.448)" fill="#fff"/>
    <path id="Path_4334" data-name="Path 4334" d="M152.367,260.3a.587.587,0,0,1,.535-.634h0a.578.578,0,0,1,.548.276h0a.6.6,0,0,1,.47-.4h0a.6.6,0,0,1,.565.246h0a.578.578,0,0,1,.432-.432h0a.583.583,0,0,1,.578.211h0a.587.587,0,0,1,.432-.432h0a.583.583,0,0,1,.716.432h0a.587.587,0,0,1-.432.716h0a.591.591,0,0,1-.609-.2h0a.591.591,0,0,1-.457.453h0a.6.6,0,0,1-.6-.242h0a.583.583,0,0,1-.479.432h0a.587.587,0,0,1-.583-.272h0a.591.591,0,0,1-.5.4h-.047A.591.591,0,0,1,152.367,260.3Z" transform="translate(-121.854 -222.886)" fill="#fff"/>
    <path id="Path_4335" data-name="Path 4335" d="M150.51,261.713a.535.535,0,0,1-.117,0l-.108-.035a.777.777,0,0,1-.1-.052l-.086-.073a.375.375,0,0,1-.073-.091.737.737,0,0,1-.056-.1.539.539,0,0,1-.03-.112.471.471,0,0,1,0-.112.537.537,0,0,1,0-.117.5.5,0,0,1,.03-.108c0-.035.035-.069.056-.1a.457.457,0,0,1,.073-.086l.086-.073a.466.466,0,0,1,.1-.052.433.433,0,0,1,.108-.035.578.578,0,0,1,.527.16.456.456,0,0,1,.073.086c.022.035.039.069.056.1a1.043,1.043,0,0,1,.035.108,1.06,1.06,0,0,1,0,.117.915.915,0,0,1,0,.112,1.112,1.112,0,0,1-.035.112.737.737,0,0,1-.056.1.482.482,0,0,1-.073.091A.591.591,0,0,1,150.51,261.713Z" transform="translate(-120.471 -223.703)" fill="#fff"/>
    <path id="Path_4336" data-name="Path 4336" d="M195.759,276.054l-1.8-.121a2.011,2.011,0,0,0-1.269.341l-3.31,2.223-.026,1.4c1.062,1.234,3.409.129,3.409.129l2.179-.073a.863.863,0,0,0,.79-.57l.79-2.158a.863.863,0,0,0-.76-1.174Z" transform="translate(-142.878 -232.443)" fill="#7f3e3b"/>
    <path id="Path_4337" data-name="Path 4337" d="M117.084,390.352h.488a.432.432,0,0,0,.388-.4l3.021-20.9H118.7l-1.989,20.767a.453.453,0,0,0,.375.535Z" transform="translate(-101.581 -285.377)" fill="#2e1543"/>
    <path id="Path_4338" data-name="Path 4338" d="M117.084,390.352h.488a.432.432,0,0,0,.388-.4l3.021-20.9H118.7l-1.989,20.767a.453.453,0,0,0,.375.535Z" transform="translate(-101.581 -285.377)" opacity="0.3"/>
    <path id="Path_4339" data-name="Path 4339" d="M102.584,390.352h.488a.432.432,0,0,0,.388-.4l3.021-20.9H104.2l-1.989,20.767a.453.453,0,0,0,.375.535Z" transform="translate(-93.338 -285.377)" fill="#2e1543"/>
    <path id="Path_4340" data-name="Path 4340" d="M102.584,390.352h.488a.432.432,0,0,0,.388-.4l3.021-20.9H104.2l-1.989,20.767a.453.453,0,0,0,.375.535Z" transform="translate(-93.338 -285.377)" opacity="0.3"/>
    <path id="Path_4341" data-name="Path 4341" d="M178.757,390.352h-.492a.432.432,0,0,1-.384-.4l-3.021-20.9h2.279l1.989,20.767a.453.453,0,0,1-.371.535Z" transform="translate(-134.641 -285.377)" fill="#2e1543"/>
    <path id="Path_4342" data-name="Path 4342" d="M178.757,390.352h-.492a.432.432,0,0,1-.384-.4l-3.021-20.9h2.279l1.989,20.767a.453.453,0,0,1-.371.535Z" transform="translate(-134.641 -285.377)" opacity="0.3"/>
    <path id="Path_4343" data-name="Path 4343" d="M193.257,390.352h-.492a.432.432,0,0,1-.384-.4l-3.021-20.9h2.279l1.989,20.767a.453.453,0,0,1-.371.535Z" transform="translate(-142.884 -285.377)" fill="#2e1543"/>
    <path id="Path_4344" data-name="Path 4344" d="M193.257,390.352h-.492a.432.432,0,0,1-.384-.4l-3.021-20.9h2.279l1.989,20.767a.453.453,0,0,1-.371.535Z" transform="translate(-142.884 -285.377)" opacity="0.3"/>
    <path id="Path_4345" data-name="Path 4345" d="M140.148,289.324H124.785c-2.727-9.468-12.515-16.934-22.579-16.934H97.217c-10.513,0-17.3,8.2-15.156,18.272a20.793,20.793,0,0,0,1.955,5.325l2.425,14.673c.311,1.895,1.826,3.431,3.375,3.431h46.246c1.549,0,3.064-1.536,3.375-3.431l2.956-17.918C142.707,290.861,141.7,289.324,140.148,289.324Z" transform="translate(-81.666 -230.432)" fill="#2e1543"/>
    <path id="Path_4346" data-name="Path 4346" d="M140.148,289.324H124.785c-2.727-9.468-12.515-16.934-22.579-16.934H97.217c-10.513,0-17.3,8.2-15.156,18.272a20.793,20.793,0,0,0,1.955,5.325l2.425,14.673c.311,1.895,1.826,3.431,3.375,3.431h46.246c1.549,0,3.064-1.536,3.375-3.431l2.956-17.918C142.707,290.861,141.7,289.324,140.148,289.324Z" transform="translate(-81.666 -230.432)" fill="#fff" opacity="0.5"/>
  </g>
  <g id="freepik--bubble-speech--inject-2" transform="translate(50.584)">
    <rect id="Rectangle_926" data-name="Rectangle 926" width="3.526" height="0.432" transform="translate(13.4 21.858)" fill="#2e1543"/>
    <path id="Path_4347" data-name="Path 4347" d="M173.752,157.228h-.432V155.1a2.965,2.965,0,0,1,2.965-2.96h7.867v.432h-7.867a2.533,2.533,0,0,0-2.533,2.529Z" transform="translate(-173.32 -130.286)" fill="#2e1543"/>
    <path id="Path_4348" data-name="Path 4348" d="M178.274,155.65H217.62a1.45,1.45,0,0,1,1.45,1.45v15.428a1.454,1.454,0,0,1-1.454,1.454H178.274a1.454,1.454,0,0,1-1.454-1.454V157.1A1.45,1.45,0,0,1,178.274,155.65Z" transform="translate(-175.31 -132.281)" fill="#2e1543"/>
    <path id="Path_4349" data-name="Path 4349" d="M218.841,176.581H183.215a.975.975,0,0,1-.975-.975h0a.975.975,0,0,1,.975-.975h35.625a.975.975,0,0,1,.975.975h0A.975.975,0,0,1,218.841,176.581Z" transform="translate(-178.391 -143.07)" fill="#fff"/>
    <path id="Path_4350" data-name="Path 4350" d="M211.215,185.959h-28a.975.975,0,0,1-.975-.975h0a.975.975,0,0,1,.975-.984h28a.975.975,0,0,1,.975.975h0a.975.975,0,0,1-.975.984Z" transform="translate(-178.39 -148.396)" fill="#fff"/>
    <path id="Path_4351" data-name="Path 4351" d="M195.23,167.191H183.215a.975.975,0,0,1-.975-.975h0a.975.975,0,0,1,.975-.975H195.23a.975.975,0,0,1,.975.975h0A.975.975,0,0,1,195.23,167.191Z" transform="translate(-178.391 -137.732)" fill="#fff"/>
    <path id="Path_4352" data-name="Path 4352" d="M232.13,167.191H220.115a.975.975,0,0,1-.975-.975h0a.975.975,0,0,1,.975-.975H232.13a.975.975,0,0,1,.975.975h0A.975.975,0,0,1,232.13,167.191Z" transform="translate(-199.366 -137.732)" fill="#fff"/>
    <path id="Path_4353" data-name="Path 4353" d="M182.24,195.414v4.674a1.079,1.079,0,0,0,1.726.863l7.164-5.541Z" transform="translate(-178.391 -154.882)" fill="#2e1543"/>
    <path id="Path_4354" data-name="Path 4354" d="M269.07,102H229.724a1.454,1.454,0,0,0-1.454,1.454v15.428a1.454,1.454,0,0,0,1.454,1.454H260.8l5.636,4.359a1.079,1.079,0,0,0,1.726-.863v-3.5h.885a1.454,1.454,0,0,0,1.454-1.454v-15.42A1.454,1.454,0,0,0,269.069,102Z" transform="translate(-204.556 -101.784)" fill="#fff"/>
    <path id="Path_4355" data-name="Path 4355" d="M266.818,124.856a1.321,1.321,0,0,1-.794-.272l-5.576-4.316H229.44a1.674,1.674,0,0,1-1.67-1.67V103.17a1.674,1.674,0,0,1,1.67-1.67h39.345a1.674,1.674,0,0,1,1.67,1.67V118.6a1.674,1.674,0,0,1-1.67,1.67h-.669v3.288a1.3,1.3,0,0,1-1.295,1.295ZM229.44,101.932a1.243,1.243,0,0,0-1.239,1.239V118.6a1.243,1.243,0,0,0,1.239,1.239H260.6l5.679,4.4a.863.863,0,0,0,1.4-.682v-3.716h1.1a1.243,1.243,0,0,0,1.239-1.239V103.17a1.243,1.243,0,0,0-1.239-1.239Z" transform="translate(-204.272 -101.5)" fill="#2e1543"/>
    <path id="Path_4356" data-name="Path 4356" d="M274,122.946h18.652a.975.975,0,0,0,.975-.975h0a.98.98,0,0,0-.975-.971H274a.98.98,0,0,0-.975.98h0A.975.975,0,0,0,274,122.946Z" transform="translate(-229.994 -112.585)" fill="#2e1543"/>
    <path id="Path_4357" data-name="Path 4357" d="M243.815,122.946h9.235a.975.975,0,0,0,.975-.975h0a.98.98,0,0,0-.975-.971h-9.235a.98.98,0,0,0-.975.98h0A.975.975,0,0,0,243.815,122.946Z" transform="translate(-212.838 -112.585)" fill="#2e1543"/>
    <rect id="Rectangle_927" data-name="Rectangle 927" width="29.955" height="1.951" rx="0.975" transform="translate(63.629 14.414) rotate(180)" fill="#2e1543"/>
    <path id="Path_4358" data-name="Path 4358" d="M234.715,113.545h35.6a.975.975,0,0,0,.975-.975h0a.98.98,0,0,0-.975-.98h-35.6a.98.98,0,0,0-.975.98h0A.975.975,0,0,0,234.715,113.545Z" transform="translate(-207.665 -107.236)" fill="#2e1543"/>
  </g>
</svg>
