<svg xmlns="http://www.w3.org/2000/svg" width="393.934" height="310.992" viewBox="0 0 393.934 310.992">
  <g id="internship" transform="translate(0 0.503)">
    <g id="Group_37" data-name="Group 37" transform="translate(16.73)">
      <g id="Group_32" data-name="Group 32">
        <g id="Group_29" data-name="Group 29" transform="translate(40.956 277.482)">
          <path id="Path_98" data-name="Path 98" d="M154.446,1331.66l-.327,15.943,10.294-.706,1.916-16.343Z" transform="translate(-154.12 -1330.554)" fill="#ffb27d" stroke="#000" stroke-width="1"/>
        </g>
        <path id="Path_99" data-name="Path 99" d="M166.068,1354.852c-.551-.877-2.476-2.677-3.456-2.663-6.4.087-4.77,2.4-6.5,2.781-2.642.574-3.609-.134-4.082-1.281a.942.942,0,0,0-1.32.934c-.063,1.363-1.456,1.327-1.615,3.837s2.614,4.945,6.033,5.441,6.713,3.329,12.059,3.568c6.619.3,9.712-1.028,10.5-2.888s-1.751-3.79-6.8-6.23C166.739,1356.349,166.672,1355.814,166.068,1354.852Z" transform="translate(-111.104 -1061.927)"/>
        <path id="Path_100" data-name="Path 100" d="M132.471,1116.812s5.468,39.578,5.956,47.978c.236,4.06,3.1,14.433,3.98,32.448.942,19.255,2.518,45.033,2.518,45.033s11.46,1.531,11.46,1.245c0-.164,6.233-31.772,9.748-52.384,2.709-15.889,2.6-29.99,3.515-40.842,1.735-20.684-.4-51.521-.4-51.521l-20.227-7.406Z" transform="translate(-104.304 -955.179)" fill="#1a2e35" stroke="#000" stroke-width="1"/>
        <path id="Path_101" data-name="Path 101" d="M147.542,1223.635c1.356-13.9,3.559-27.448,1.356-41.4-2.321-14.7,4.01-42.2.08-56.544-.968-3.533-15.077,6.912-15.535,3.371l-.973,1.5s5.468,39.578,5.956,47.978c.236,4.061,3.1,14.433,3.98,32.448.942,19.255,2.518,45.032,2.518,45.032s.616.082,1.557.2A213.054,213.054,0,0,1,147.542,1223.635Z" transform="translate(-104.304 -968.926)" fill="#1a2e35" stroke="#000" stroke-width="1"/>
        <g id="Group_30" data-name="Group 30" transform="translate(4.725 281.044)">
          <path id="Path_102" data-name="Path 102" d="M93.115,1337.691l-.327,15.943,10.294-.706L105,1336.585Z" transform="translate(-92.788 -1336.585)" fill="#ffb27d" stroke="#000" stroke-width="1"/>
        </g>
        <path id="Path_103" data-name="Path 103" d="M137.255,1081.674s-1.577,6.085-3.806,14.633c-3.65,14.038-9.06,34.7-12.094,45.9-2.118,7.813-6.132,26.695-10,45.565-5.038,24.6-9.823,49.186-9.823,49.186l-8.416.269-5.028.384s.564-33.039-.269-70.763c-.382-17.464-3.078-39.825-3.034-48.689.113-27.994,9.987-44.344,9.987-44.344Z" transform="translate(-84.789 -947.997)" fill="#1a2e35" stroke="#000" stroke-width="1"/>
        <path id="Path_104" data-name="Path 104" d="M137.255,1081.674s-1.577,6.085-3.806,14.633c-13.316,1.77-27.993,3.3-33.1,3.3-7.967,0-4.283,29.809-1.838,46.317s-1.222,38.326-4.9,52.7c-2.774,10.86-1.361,29.922-.494,38.6l-5.028.384s.564-33.039-.269-70.763c-.382-17.464-3.078-39.825-3.034-48.689.113-27.994,9.987-44.344,9.987-44.344Z" transform="translate(-84.789 -947.997)" fill="#1a2e35" stroke="#000" stroke-width="1"/>
        <path id="Path_105" data-name="Path 105" d="M104.736,1360.882c-.551-.876-2.476-2.676-3.456-2.663-6.4.087-4.77,2.405-6.5,2.781-2.642.573-3.61-.135-4.082-1.281a.942.942,0,0,0-1.32.933c-.063,1.364-1.456,1.327-1.616,3.837s2.615,4.945,6.034,5.441,6.713,3.329,12.058,3.568c6.619.3,9.712-1.028,10.5-2.888s-1.752-3.789-6.8-6.23C105.408,1362.38,105.341,1361.845,104.736,1360.882Z" transform="translate(-86.003 -1064.395)"/>
        <path id="Path_106" data-name="Path 106" d="M220.511,962.139c1.4-2.613,2.589-8.908,2.589-8.908l10.1,3.69c2.416,7.933,20.262,38.925,23.9,43.815,1.686,2.266,37.349,19.293,37.349,19.293l-1.83,9.951s-33.535-4.9-49.269-14.193c-4.412-2.606-5.688-6.326-8.458-9.812-4.723-5.942-15.97-16.344-18.432-26.274S217.113,968.477,220.511,962.139Z" transform="translate(-138.318 -898.648)" fill="#196491" stroke="#000" stroke-width="1"/>
        <path id="Path_107" data-name="Path 107" d="M192.317,902.473a29.015,29.015,0,0,1-2.622,4.7c-2.245,3.575-6.631,7.459-8.188,8.225a60.97,60.97,0,0,1-11.074,3s7.15,20.689,18.039,25.049c20.834,8.339,18.613-13.527,18.613-13.527s-5.353-5.729-6.772-8.712c-.844-1.774,1.62-8.564,1.62-8.564Z" transform="translate(-119.84 -877.874)" fill="#ffb27d" stroke="#000" stroke-width="1"/>
        <path id="Path_108" data-name="Path 108" d="M197.406,933.947s-.664,9.232-11.282,7.958c-12.833-1.539-13.6-15.122-13.6-15.122l-13.163,2.145,9.063,26.919,27.137,7.311,9.113-23.272Z" transform="translate(-115.307 -887.824)" fill="#fff" stroke="#000" stroke-linecap="round" stroke-linejoin="round" stroke-width="1"/>
        <path id="Path_109" data-name="Path 109" d="M162.776,1001.362c2.648-6.435,19.037-55.449,19.037-55.449l-12.077-13.579s-.832,24.885-12.95,25.128C140.254,951.2,139.5,927.4,139.5,927.4l-21.135,4.124s-11.542,34.246-16.267,47.333-11.217,45.067-11.217,45.067c29.345,11.114,57.33,9.389,63.868,5.761C154.745,1029.681,160.128,1007.8,162.776,1001.362Z" transform="translate(-87.281 -888.075)" fill="#196491" stroke="#000" stroke-width="1"/>
        <g id="Group_31" data-name="Group 31" transform="translate(65.661)">
          <path id="Path_110" data-name="Path 110" d="M227.56,881.565c1.513,1.67,3.967,4.989,3.556,6.812s-1.338,7.241-2.536,10.229-3.738,10.861-5.357,14.284-2.551,4.514-3.641,4.9-10.619-2.615-12.209-4.029-8.56-8.4-5.831-15.945c0,0-4.01.608-4.706-7.065-.181-2,8.176-7.131,9.586-9.015,3.428-4.579,13.774-.158,16.816.279S227.56,881.565,227.56,881.565Z" transform="translate(-196.306 -868.544)" fill="#ffb27d" stroke="#000" stroke-width="1"/>
          <path id="Path_111" data-name="Path 111" d="M230.751,880.664s-.326-2.722-2.765-2.3-7.155-.2-10.535-1.428a25.164,25.164,0,0,1-6.279-3.554s-1.435,4.716-2.755,5.731-3.913,1.95-4.512,3.444a21.3,21.3,0,0,0-.932,3.062s-1.313-3.276-3.2-3.25-2.738,2.833-1.4,4.594a29.179,29.179,0,0,0,2.8,3.137l.792,11.691s-4.582-13.984-5.541-19.032c-1.346-7.089.126-14.507,4.085-15.139a10.138,10.138,0,0,1,11.136-6.713c8.805.944,22.628,9.728,23,14.059C234.948,878.458,230.751,880.664,230.751,880.664Z" transform="translate(-195.941 -860.832)" fill="#1a2e35" stroke="#000" stroke-width="1"/>
          <path id="Path_112" data-name="Path 112" d="M226.042,914.612a10.85,10.85,0,0,0-5.47-1.875c-3.16-.4-6.152.33-8.3.281s-5.492-4.4-5.314-8.776.717-8.523.717-8.523l-1.89.994s-1.321,7.661-2.509,12.036a13.575,13.575,0,0,0,4.337,13.683c4.41,4,12.34,4.98,14.23,3.986s3.321-3.748,4.153-6.32a28.242,28.242,0,0,0,1.144-3.778C227.189,915.89,226.448,914.931,226.042,914.612Z" transform="translate(-198.761 -875.11)" fill="#1a2e35" stroke="#000" stroke-width="1"/>
        </g>
        <path id="Path_113" data-name="Path 113" d="M215.168,901.37c-.028.316.733.674.848.79.25.249.091.238.486,2.7.291,1.815,2.229,3.215,5.922,3.5,2.82.216,3.46-1.818,4.1-2.657s.929-.909,1.349-.817.589.257.68,1.253-.9,3.443,1.883,3.924c.825.142,1.8-.376,2.674-1.551.6-.8,1.164-1.814,1.35-2.122a4.881,4.881,0,0,0,.8-1.822c.1-.564-.745-.968-2.414-1.247a5.091,5.091,0,0,0-2.312,0c-.646.194-1.125.726-2.309.4-.47-.128-.38-.472-1.228-1.11s-5.7-1.853-7.34-2.206-4-.653-4.224-.116A3.94,3.94,0,0,0,215.168,901.37Zm14.456,3.878c.192-.779.623-1.192,2.343-.9,2.652.453,2.5,1.057,1.069,3.3-.984,1.549-1.455,2.065-2.307,1.993-1.356-.114-1.476-1.28-1.408-2.5A7.128,7.128,0,0,1,229.624,905.248Zm-11.784-3.966c.445-.273,3.616.683,5.64,1.218s2.7.714,2.708,1.453a6.689,6.689,0,0,1-.908,2.324c-.627,1.1-1.19,2.013-4.423,1.333-2.281-.48-3.679-1.706-3.812-3.472C216.928,902.6,217.4,901.554,217.84,901.282Zm-9.339-1.37,7.1,1.973,1.855-1.835s-6.189-1.379-6.863-1.647a23.7,23.7,0,0,0-4.021-.255Z" transform="translate(-134.631 -876.103)" fill="#1a2e35" stroke="#000" stroke-width="1"/>
      </g>
      <g id="Group_36" data-name="Group 36" transform="translate(22.101 43.452)">
        <g id="Group_35" data-name="Group 35" transform="translate(46.386 71.248)">
          <g id="Group_33" data-name="Group 33" transform="translate(13.776)">
            <path id="Path_114" data-name="Path 114" d="M226.024,1090.954l9.837,7.737a4.886,4.886,0,0,0,5.9-.082l34.586-29.779a2.946,2.946,0,0,0-.162-4.755l-9.643-7.74c-3.222-1.685-5.179-1.74-6.788-.377l-34.5,29.48C223.627,1086.812,223.418,1088.154,226.024,1090.954Z" transform="translate(-224.044 -1054.997)" fill="#f9f0ed" stroke="#000" stroke-width="1"/>
            <path id="Path_115" data-name="Path 115" d="M227.919,1092.432l9.912,7.808a4.907,4.907,0,0,0,5.926-.074l34.73-29.916a2.959,2.959,0,0,0-.174-4.777l-9.732-7.8a5.05,5.05,0,0,0-6.111,0l-34.807,29.757A3.088,3.088,0,0,0,227.919,1092.432Z" transform="translate(-225.053 -1055.673)" fill="#e5d6d1" stroke="#000" stroke-width="1"/>
          </g>
          <g id="Group_34" data-name="Group 34" transform="translate(0 15.999)">
            <path id="Path_116" data-name="Path 116" d="M235.392,1095.6l-.847-.325,2.2-1.262.6-1.447-.666-.388,1.786-1.767.743-2.016s-4.823-.09-7.739-.2a30.26,30.26,0,0,1-5.653-.805,30.864,30.864,0,0,0,3.14-2.561,11.738,11.738,0,0,1,2.553-1.631l-3.475-1.124s-8.451,3.4-9.325,3.44a16.571,16.571,0,0,1-12.367-1.106q-2.765,3.851-5.621,7.642c6,1.785,11.093,3.243,13.256,3.867,6.95,2,13.205,3.324,14.176,3.491s6.994-2.459,6.933-2.495A9.172,9.172,0,0,1,235.392,1095.6Z" transform="translate(-200.724 -1082.08)" fill="#ffb27d" stroke="#000" stroke-width="1"/>
          </g>
        </g>
        <path id="Path_117" data-name="Path 117" d="M129.155,935.157c-10.932,6.854-6.161,40.7-4.338,49.023,2.162,9.873,4.912,19.007,11.088,26.361,13.98,16.649,35.872,23.23,35.872,23.23l6.062-9.579s-21.357-14.783-23.534-30.446c-1.284-9.234-5.083-35.417-6.349-42.4C146.027,940.707,134.758,931.644,129.155,935.157Z" transform="translate(-122.201 -934.388)" fill="#196491" stroke="#000" stroke-width="1"/>
      </g>
    </g>
    <g id="Group_57" data-name="Group 57" transform="translate(168.069 31.741)">
      <g id="Group_41" data-name="Group 41" transform="translate(0 54.884)">
        <g id="Group_39" data-name="Group 39" transform="translate(26.522 119.872)">
          <g id="Group_38" data-name="Group 38" transform="translate(0 0)">
            <rect id="Rectangle_40" data-name="Rectangle 40" width="5.616" height="37.329" transform="translate(32.242 64.735) rotate(180)" fill="#375a64" stroke="#000" stroke-width="1"/>
            <rect id="Rectangle_41" data-name="Rectangle 41" width="9.028" height="7.923" transform="translate(33.948 27.406) rotate(180)" fill="#375a64" stroke="#000" stroke-width="1"/>
            <rect id="Rectangle_42" data-name="Rectangle 42" width="9.028" height="7.923" transform="translate(33.948 68.697) rotate(180)" fill="#375a64" stroke="#000" stroke-width="1"/>
            <rect id="Rectangle_43" data-name="Rectangle 43" width="21.885" height="14.999" transform="translate(40.377 19.483) rotate(180)" fill="#375a64" stroke="#000" stroke-width="1"/>
            <path id="Rectangle_44" data-name="Rectangle 44" d="M1.281,0H59.775a1.28,1.28,0,0,1,1.28,1.28v8.67a1.28,1.28,0,0,1-1.28,1.28H1.281A1.281,1.281,0,0,1,0,9.951V1.281A1.281,1.281,0,0,1,1.281,0Z" transform="translate(61.055 11.231) rotate(180)" fill="#375a64" stroke="#000" stroke-width="1"/>
            <path id="Path_118" data-name="Path 118" d="M395.138,1344.8l17.236-8.546v-5.96l-19.5,13.07Z" transform="translate(-387.455 -1268.536)" fill="#375a64" stroke="#000" stroke-width="1"/>
            <path id="Path_119" data-name="Path 119" d="M385.93,1355.217a4.038,4.038,0,1,0,4.039-4.038A4.038,4.038,0,0,0,385.93,1355.217Z" transform="translate(-384.547 -1277.277)" fill="#375a64" stroke="#000" stroke-width="1"/>
            <path id="Path_120" data-name="Path 120" d="M427.231,1364.608a4.038,4.038,0,1,0,4.039-4.038A4.038,4.038,0,0,0,427.231,1364.608Z" transform="translate(-401.835 -1281.208)" fill="#375a64" stroke="#000" stroke-width="1"/>
            <path id="Path_121" data-name="Path 121" d="M459.177,1344.8l-17.236-8.546v-5.96l19.5,13.07Z" transform="translate(-407.993 -1268.536)" fill="#375a64" stroke="#000" stroke-width="1"/>
            <path id="Path_122" data-name="Path 122" d="M476.608,1355.217a4.038,4.038,0,1,1-4.038-4.038A4.038,4.038,0,0,1,476.608,1355.217Z" transform="translate(-419.123 -1277.277)" fill="#375a64" stroke="#000" stroke-width="1"/>
            <rect id="Rectangle_45" data-name="Rectangle 45" width="2.187" height="18.615" transform="translate(30.528 83.35) rotate(180)" fill="#375a64" stroke="#000" stroke-width="1"/>
          </g>
        </g>
        <path id="Path_123" data-name="Path 123" d="M350.962,1144.027s-5.083-13.537-5.166-52.741-8.553-66.008-7.815-69.378l4.145-4.01h56.76s22.365,40.006,25.3,53.716,7.032,69.9,7.032,69.9Z" transform="translate(-337.936 -1017.898)" fill="#375a64" stroke="#000" stroke-width="1"/>
        <path id="Path_124" data-name="Path 124" d="M359.068,1144.027s-5.082-13.537-5.166-52.741-9.525-70.018-8.788-73.388h61.878s22.366,40.006,25.3,53.716,7.031,69.9,7.031,69.9Z" transform="translate(-340.923 -1017.898)" fill="#375a64" stroke="#000" stroke-width="1"/>
        <g id="Group_40" data-name="Group 40" transform="translate(13.027 110.63)">
          <path id="Path_125" data-name="Path 125" d="M360.34,1223.675l13.5,8.935v-15.5l-13.5-8.935Z" transform="translate(-360.34 -1208.175)" fill="#375a64" stroke="#000" stroke-width="1"/>
          <rect id="Rectangle_46" data-name="Rectangle 46" width="84.924" height="15.499" transform="translate(98.419 24.434) rotate(180)" fill="#375a64" stroke="#000" stroke-width="1"/>
          <path id="Path_126" data-name="Path 126" d="M360.34,1208.175h84.924l13.5,8.935H373.836Z" transform="translate(-360.34 -1208.175)" fill="#375a64" stroke="#000" stroke-width="1"/>
          <path id="Path_127" data-name="Path 127" d="M400.188,1217.11h71.266l-13.5-8.935H390.666C392.944,1211.638,396.764,1214.6,400.188,1217.11Z" transform="translate(-373.034 -1208.175)" fill="#375a64" stroke="#000" stroke-width="1"/>
        </g>
      </g>
      <g id="Group_44" data-name="Group 44" transform="translate(17.796 23.108)">
        <path id="Path_128" data-name="Path 128" d="M530.5,1345.758l1.726,10.739a7.268,7.268,0,0,0,6.683,3.839c2.508-.107,6.911-1.564,5.937-2.335a9.085,9.085,0,0,1-3.033-3.613l-.767-12.848Z" transform="translate(-436.338 -1121.594)" fill="#ffb27d" stroke="#000" stroke-width="1"/>
        <path id="Path_129" data-name="Path 129" d="M553.386,1375.971a4.359,4.359,0,0,1,4.081,1.257c.722.916,1.315,3.182-3.011,4.74s-8.462.388-10.865-.006c-4.078-.669-5.8-2.517-8.4-2.285s-4.712-.878-4.738-2.855,1.613-3.614,2.322-3.687S553.386,1375.971,553.386,1375.971Z" transform="translate(-436.316 -1134.82)" fill="#fff"/>
        <path id="Path_130" data-name="Path 130" d="M544.346,1364.987c-1.541-1.13-3.854.6-5.373.992-2.318.6-5.027-.31-5.579-1.392-.56-1.1-1.355-.892-1.262.407s-.99,1.8-.858,4.191,2.9,4.653,6.034,5.057,6.413,3.034,11.256,3.155c6,.15,8.789-1.06,9.3-2.845s-2.731-3.715-7.012-5.88A49.694,49.694,0,0,1,544.346,1364.987Z" transform="translate(-436.656 -1130.945)"/>
        <path id="Path_131" data-name="Path 131" d="M483.682,1355.336l1.726,10.738a7.269,7.269,0,0,0,6.683,3.839c2.476-.105,7.445-.928,6.444-1.635-3.494-2.466-3.539-4.313-3.539-4.313l-.768-12.847Z" transform="translate(-416.739 -1125.603)" fill="#ffb27d" stroke="#000" stroke-width="1"/>
        <g id="Group_42" data-name="Group 42" transform="translate(15.732)">
          <path id="Path_132" data-name="Path 132" d="M418.134,963.245s-.008,7.49.742,10.944A15.3,15.3,0,0,0,421.968,981c.844.827,9.661,7.309,9.661,7.309s-9.191,9.4-15.768,9.466-20.258-7.439-20.258-7.439,7.116-5.74,8.156-8.615,1.555-11.176,1.555-11.176Z" transform="translate(-395.603 -963.245)" fill="#ffb27d" stroke="#000" stroke-width="1"/>
        </g>
        <path id="Path_133" data-name="Path 133" d="M436.661,1075.91c-1.754-6.2-3.272-12.2-3.272-14.912,0-6.833-3.332-57.564-3.332-57.564l-13.2-6.276-6.217-3.894s5.055,11.46-2.551,12.726c-12.088,2.012-15.77-13.453-15.77-13.453l-3.077,1.584a1.126,1.126,0,0,0-.055-.15l-20.645,10.178s7.269,11.922,7.851,18.61-5.234,25.008-4.652,38.675S374,1098.025,374,1098.025c3.735,0,59.829-5.356,59.829-5.356S434.769,1076.169,436.661,1075.91Z" transform="translate(-368.544 -975.506)" fill="#e8505b" stroke="#000" stroke-width="1"/>
        <path id="Path_134" data-name="Path 134" d="M491.437,1262.624l-9.947,1.592-3.476.555s-6.425-35.991-10.893-48.822-9.464-24.943-9.464-24.943-13.414-8.682-21.668-11.6a21.355,21.355,0,0,0-2.184-.665c-31.6-7.607-25.125-27.381-24.7-40.031,0,0,31.969,2.375,40.413,8.29,24.807,17.363,32.76,30.467,34.881,37.4,2.8,9.154,2.994,25.753,4.113,38.939C490.4,1245.324,491.437,1262.624,491.437,1262.624Z" transform="translate(-385.177 -1036.691)" fill="#1a2e35" stroke="#000" stroke-width="1"/>
        <path id="Path_135" data-name="Path 135" d="M492.477,1280.136l-3.476.555s-6.425-35.99-10.893-48.822-9.464-24.943-9.464-24.943-13.414-8.682-21.668-11.6a107.429,107.429,0,0,0-12.449-18.583s21.367,9.255,31.34,14.242,15.67,9.264,17.809,24.935C485.625,1230.158,491.686,1256.758,492.477,1280.136Z" transform="translate(-396.164 -1052.612)" fill="#1a2e35" stroke="#000" stroke-width="1"/>
        <g id="Group_43" data-name="Group 43" transform="translate(4.899 113.956)">
          <path id="Path_136" data-name="Path 136" d="M450.084,1276.534l-10.447,2.311-1.665.373s-12.94-64.875-26.664-79.062c-4.586-4.741-17.863-9.055-24.934-12.822-11.166-5.96-9.61-13.877-8.909-24.806.064-1.065.127-2.157.164-3.285h34.917s23.341,25.653,26.418,32.624a81.2,81.2,0,0,1,7.644,25.507C450.084,1242.827,450.084,1276.534,450.084,1276.534Z" transform="translate(-376.971 -1159.243)" fill="#1a2e35" stroke="#000" stroke-width="1"/>
        </g>
        <path id="Path_137" data-name="Path 137" d="M439.637,1281.21l-1.665.373s-12.94-64.875-26.664-79.061c-4.586-4.741-17.863-9.055-24.934-12.823-11.166-5.96-9.61-13.877-8.909-24.806,0,0,3.666,10.18,4.3,13.718,2.508,14.046,20.882,1.625,34.751,15.911s19.565,39.94,20.275,59.887A264.235,264.235,0,0,0,439.637,1281.21Z" transform="translate(-372.071 -1047.652)" fill="#1a2e35" stroke="#000" stroke-width="1"/>
        <path id="Path_138" data-name="Path 138" d="M505.091,1386.738a4.359,4.359,0,0,1,4.081,1.257c.722.916-.364,3.927-3.966,4.813a20.8,20.8,0,0,1-9.346.5c-4.077-.668-6.359-3.092-8.966-2.86s-4.712-.878-4.738-2.856,1.613-3.613,2.321-3.686S505.091,1386.738,505.091,1386.738Z" transform="translate(-416.1 -1139.326)" fill="#fff"/>
        <path id="Path_139" data-name="Path 139" d="M496.386,1375.865c-1.336-1.13-4.189.488-5.709.88-2.318.6-5.027-.31-5.579-1.392-.56-1.1-1.355-.892-1.262.407s-.99,1.8-.858,4.19,2.9,4.654,6.034,5.057,6.413,3.034,11.256,3.155c6,.15,8.637-1.171,9.146-2.956s-1.994-3.572-6.815-5.793C498.646,1377.593,497.236,1376.584,496.386,1375.865Z" transform="translate(-416.44 -1135.451)"/>
      </g>
      <g id="Group_45" data-name="Group 45" transform="translate(70.815 51.036)">
        <path id="Path_140" data-name="Path 140" d="M562.572,1127.852l10.883,5.83,4.534,7.948h-4.534l-5.857-3.561-1.889,3.561-3.137.113-4.011-3.179-10.8-8.807Z" transform="translate(-496.581 -1060.075)" fill="#ffbcaa"/>
        <path id="Path_141" data-name="Path 141" d="M500.077,1073.786c-.907-1.624-4.34-13.094-7.625-22.593-4.465,1.83-8.953,3.59-13.507,5.143.172,4.237.588,8.546.837,12.848,3.763,8.266,7.909,16.313,11.166,18.755,5.9,4.429,36.113,16.04,36.113,16.04l4.168-8.336S501.417,1076.187,500.077,1073.786Z" transform="translate(-467.775 -1027.986)" fill="#ffb27d" stroke="#000" stroke-width="1"/>
        <path id="Path_142" data-name="Path 142" d="M468.228,1011.279s-5.094,7.068-6.621,9.535c-6.125,9.9,4.454,21.958,7.658,26.378.522,0,1.123-.026,1.782-.071" transform="translate(-459.734 -1011.279)" fill="#e8505b"/>
        <path id="Path_143" data-name="Path 143" d="M477.163,1047.121c6.15-.426,17.393-2.626,17.393-2.626s-6.683-17.765-8.349-20.994c-3.741-7.255-11.863-12.222-11.863-12.222" transform="translate(-465.849 -1011.279)" fill="#e8505b" stroke="#000" stroke-width="1"/>
      </g>
      <path id="Path_144" data-name="Path 144" d="M477.378,1033.439l1.009,21.852c.336,7.4.336,21.516,1.345,25.214" transform="translate(-396.304 -969.519)" fill="none" stroke="#000" stroke-width="1"/>
      <g id="Group_52" data-name="Group 52" transform="translate(12.365 45.251)">
        <path id="Path_145" data-name="Path 145" d="M454.294,1139.728h65.181l-31.624-10.086H422.67Z" transform="translate(-385.769 -1055.04)" fill="#1a2e35" stroke="#000" stroke-width="3"/>
        <path id="Path_146" data-name="Path 146" d="M422.67,1129.641l31.624,10.086v3.8l-31.624-10.086Z" transform="translate(-385.769 -1055.04)" fill="#1a2e35" stroke="#000" stroke-width="3"/>
        <g id="Group_48" data-name="Group 48" transform="translate(0 5.987)">
          <path id="Path_147" data-name="Path 147" d="M453.168,1120.985l9.544.276,10.7-2.262,11.159,6.188,4.853,3.926-2.55,1.118-3.033-2.021.73,2.251-4.216-.23-1.7-1.118v1.348l-3.233.867-3.262-2.215-6.966-1.186-7.538-.709Z" transform="translate(-398.535 -1056.572)" fill="#ffb27d" stroke="#080808" stroke-width="1"/>
          <g id="Group_46" data-name="Group 46" transform="translate(0.03 22.298)">
            <path id="Path_148" data-name="Path 148" d="M383.531,1075.987c-1.973-2.861-2.759-8.963-3.551-20.416-6.093-1.855-14.757-3.5-20.727-5.592.47,20.187,6.413,38.148,12.566,42.542,8.5,6.07,49.825,5.859,49.825,5.859l1.756-6.011C408.351,1090.29,387,1081.016,383.531,1075.987Z" transform="translate(-359.253 -1049.979)" fill="#ffb27d" stroke="#000" stroke-width="1"/>
          </g>
          <g id="Group_47" data-name="Group 47">
            <path id="Path_149" data-name="Path 149" d="M386.022,1047.509a149.976,149.976,0,0,1-.527-19.3c.752-7.923-8.374-16.567-13.645-16.577" transform="translate(-364.497 -1011.628)" fill="#e8505b"/>
            <path id="Path_150" data-name="Path 150" d="M366.556,1011.628a3.476,3.476,0,0,0-1.923.512c-6.826,4.4-6.09,23.089-3.861,39.8,6.019-1.723,14.02-1.874,20.074-3.194-.041-.4-.081-.813-.119-1.241" transform="translate(-359.202 -1011.628)" fill="#e8505b" stroke="#000" stroke-width="1"/>
          </g>
        </g>
        <rect id="Rectangle_47" data-name="Rectangle 47" width="65.181" height="3.8" transform="translate(133.707 88.488) rotate(180)" fill="#1a2e35" stroke="#000" stroke-width="3"/>
        <g id="Group_51" data-name="Group 51" transform="translate(94.582)">
          <g id="Group_49" data-name="Group 49">
            <path id="Path_151" data-name="Path 151" d="M521.878,1079.346l5.331,1.653,11.331-76.826-3.158,1.653Z" transform="translate(-521.878 -1002.52)" fill="#1a2e35" stroke="#000" stroke-width="3"/>
            <path id="Path_152" data-name="Path 152" d="M531.048,1079.809l97.765-3.306,14.011-75.173-100.444,1.653Z" transform="translate(-525.716 -1001.331)" fill="#1a2e35" stroke="#000" stroke-width="3"/>
          </g>
          <g id="Group_50" data-name="Group 50" transform="translate(40.8 86.993)">
            <path id="Path_153" data-name="Path 153" d="M602.406,1152.816h15.377l-10.354-1.862H592.052Z" transform="translate(-592.052 -1150.954)" fill="#1a2e35" stroke="#000" stroke-width="3"/>
            <rect id="Rectangle_48" data-name="Rectangle 48" width="15.377" height="3.41" transform="translate(10.353 1.862)" fill="#1a2e35" stroke="#000" stroke-width="3"/>
            <path id="Path_154" data-name="Path 154" d="M602.406,1156.226l-10.353-1.862v-3.41l10.353,1.862Z" transform="translate(-592.052 -1150.954)" fill="#1a2e35" stroke="#000" stroke-width="3"/>
          </g>
          <path id="Path_155" data-name="Path 155" d="M603.811,1128.012l3.683.907,13.114-.261,2.1-35.418h-17.03Z" transform="translate(-556.174 -1039.802)" fill="#1a2e35" stroke="#000" stroke-width="3"/>
          <path id="Path_156" data-name="Path 156" d="M610.026,1128.918l15.211-.261v-35.418H609.859Z" transform="translate(-558.706 -1039.802)" fill="#1a2e35" stroke="#000" stroke-width="3"/>
        </g>
        <path id="Path_157" data-name="Path 157" d="M361.9,1062.381l20.074-3.194s.306-18.2.306-22.623" transform="translate(-360.333 -1016.079)" fill="none" stroke="#000" stroke-width="1"/>
      </g>
      <g id="Group_55" data-name="Group 55" transform="translate(31.669)">
        <path id="Path_158" data-name="Path 158" d="M395.872,934.18c-2.56,4.676-1.732,9.54-1.133,12.611s1.285,4.956,1.045,8.956.867,9.8,5.753,12.952,14.1-1.016,16.724-6.269a72.784,72.784,0,0,0,4.754-13.188c.455-2.682,1.977-11.663-1.605-15.322s-9.785-3.64-16.074-2.435S396.954,932.205,395.872,934.18Z" transform="translate(-393.122 -926.54)" fill="#ffb27d" stroke="#000" stroke-width="1"/>
        <path id="Path_159" data-name="Path 159" d="M408.736,934.8s2.547,4.41,5.574,5.574c2.593,1,2.549,7.144,2.549,7.144l3.844.837c.686,2.2-1.661,7.385-1.661,7.385a10.43,10.43,0,0,0,3.719-5.464c.961-3.567,3.5-6.674,2.333-14.269-1.1-7.134-7.068-7.289-7.068-7.289s-.616-3.962-8.162-5.06-15.916,3.842-17.013,8.232a20.037,20.037,0,0,0,.176,8.99S408.187,938.226,408.736,934.8Z" transform="translate(-392.405 -923.5)" fill="#1a2e35" stroke="#000" stroke-width="1"/>
        <g id="Group_54" data-name="Group 54" transform="translate(26.535 18.64)">
          <g id="Group_53" data-name="Group 53">
            <path id="Path_160" data-name="Path 160" d="M438.508,957.223c1.567-2.3,4.889-2.329,5.144.656.212,2.488-.962,3.13-2.57,5.412a2.23,2.23,0,0,1-2.689.854S437.534,958.654,438.508,957.223Z" transform="translate(-438.043 -955.56)" fill="#ffbcaa"/>
          </g>
          <path id="Path_161" data-name="Path 161" d="M440.767,958.627c.842-.852,1.78-.2,2.157.675s-.023.4-.791-.045-1.365,1-1.2,1.875c.233,1.2-.048,2.758-1.1,2.948s-.536-.231-.522-1.531-.061,0,.136-1.293A4.105,4.105,0,0,1,440.767,958.627Z" transform="translate(-438.52 -956.678)" fill="#e38168"/>
        </g>
      </g>
      <g id="Group_56" data-name="Group 56" transform="translate(40.083 40.841)">
        <path id="Path_162" data-name="Path 162" d="M406.877,995.063a198.76,198.76,0,0,0,9.112,30.24c3.227,7.173,9.863,8.249,12.014-1.793,2.892-13.5-.538-29.766-.538-29.766" transform="translate(-406.877 -993.744)" fill="none" stroke="#2e315b" stroke-linecap="round" stroke-linejoin="round" stroke-width="1"/>
        <rect id="Rectangle_49" data-name="Rectangle 49" width="13.813" height="20.669" transform="translate(8.518 38.576)" fill="#2e315b"/>
        <rect id="Rectangle_50" data-name="Rectangle 50" width="9.199" height="10.475" transform="translate(10.187 49.625) rotate(-90)" fill="#fff"/>
        <path id="Path_163" data-name="Path 163" d="M432.844,1059.321h0a.692.692,0,0,1-.691-.691v-1.936a.692.692,0,0,1,.691-.691h0a.692.692,0,0,1,.691.691v1.936A.691.691,0,0,1,432.844,1059.321Z" transform="translate(-417.457 -1019.804)" fill="#2e315b"/>
      </g>
      <text id="INTERN" transform="translate(51.249 84.97)" fill="#2e315b" font-size="1" font-family="Raleway-Bold, Raleway" font-weight="700"><tspan x="0" y="0">INTERN</tspan></text>
    </g>
    <g id="Group_60" data-name="Group 60" transform="translate(0 156.65)">
      <rect id="Rectangle_51" data-name="Rectangle 51" width="349.088" height="6.208" transform="translate(387.077 21.596) rotate(180)" fill="#182d4f"/>
      <path id="Path_164" data-name="Path 164" d="M56.468,1138.711H405.557l37.989,15.387H94.457Z" transform="translate(-56.468 -1138.711)" fill="#182d4f"/>
      <path id="Path_165" data-name="Path 165" d="M94.457,1160.307l-37.989-15.388v-6.208L94.457,1154.1Z" transform="translate(-56.468 -1138.711)" fill="#182d4f"/>
      <g id="Group_58" data-name="Group 58" transform="translate(53.043 21.596)">
        <path id="Path_166" data-name="Path 166" d="M146.26,1307.512H151.4l45.516-132.244H186.3Z" transform="translate(-146.26 -1175.268)" fill="#182d4f"/>
        <path id="Path_167" data-name="Path 167" d="M657.515,1303.4h-5.136l-51.891-128.13H611.1Z" transform="translate(-332.159 -1175.268)" fill="#182d4f"/>
      </g>
      <g id="Group_59" data-name="Group 59" transform="translate(29.289 21.596)">
        <path id="Path_168" data-name="Path 168" d="M106.048,1293.077h5.136l41.881-117.809H142.457Z" transform="translate(-106.048 -1175.268)" fill="#182d4f"/>
        <path id="Path_169" data-name="Path 169" d="M599.747,1284.063h-5.136l-40.489-108.8h10.609Z" transform="translate(-289.429 -1175.268)" fill="#182d4f"/>
      </g>
    </g>
  </g>
</svg>
