<svg xmlns="http://www.w3.org/2000/svg" width="162.815" height="48" viewBox="0 0 162.815 48"><defs><style>.a{fill:#fff;}</style></defs><path class="a" d="M21.043,107.013a1.379,1.379,0,0,1-.712,1.227,11.96,11.96,0,0,1-7.821,2.78,12.067,12.067,0,0,1-8.852-3.643,12.5,12.5,0,0,1,0-17.677c.132-.129.266-.255.4-.378s.238-.216.361-.317c.224-.179.457-.35.695-.513a2.191,2.191,0,0,1,.709-.333,2.217,2.217,0,0,1,.869,0,2.116,2.116,0,0,1,.614.322,2.833,2.833,0,0,1,.51.476,1.852,1.852,0,0,1,.258.605,1.6,1.6,0,0,1,0,.709L8,90.511a1.653,1.653,0,0,1-.336.6A9.092,9.092,0,0,0,6.544,92c-.087.078-.174.163-.258.247a8.85,8.85,0,0,0,0,12.543,8.539,8.539,0,0,0,6.271,2.581,8.625,8.625,0,0,0,5.6-1.962,1.7,1.7,0,0,1,1.056-.418h.247a1.85,1.85,0,0,1,1.267.748H20.71v.05a1.605,1.605,0,0,1,.28.541A2.752,2.752,0,0,1,21.043,107.013Z" transform="translate(0.006 -63.416)"/><path class="a" d="M14.46,91.593c.12-.1.247-.2.373-.3-.123.1-.244.207-.361.317Z" transform="translate(-10.406 -65.7)"/><path class="a" d="M115.36,84.025a12.413,12.413,0,0,1,0,17.708,12.442,12.442,0,0,1-17.682,0A12,12,0,0,1,94,92.881a12.591,12.591,0,0,1,12.54-12.543A12.05,12.05,0,0,1,115.36,84.025Zm-8.83,17.73a8.865,8.865,0,1,0,0-17.73,8.555,8.555,0,0,0-6.294,2.584,8.906,8.906,0,0,0,0,12.591,8.553,8.553,0,0,0,6.294,2.581Z" transform="translate(-67.653 -57.816)"/><path class="a" d="M210.141,80.868A10.284,10.284,0,0,1,220.369,91.1v13.033a2.111,2.111,0,0,1-.1.715,1.334,1.334,0,0,1-.392.541,1.834,1.834,0,0,1-3.15-1.255V91.1a6.333,6.333,0,0,0-1.942-4.7,6.566,6.566,0,0,0-11.209,4.7v13.033a1.564,1.564,0,0,1-.518,1.255,1.732,1.732,0,0,1-1.328.541,1.923,1.923,0,0,1-.664-.1,1.331,1.331,0,0,1-.56-.443,1.5,1.5,0,0,1-.518-1.255V90.959a10.3,10.3,0,0,1,10.2-10.091Z" transform="translate(-143.941 -58.198)"/><path class="a" d="M307.28,95.639a5.975,5.975,0,0,1,.616,2.9v.493a3.028,3.028,0,0,1-.025.49,4.993,4.993,0,0,1-.392,1.5,6.518,6.518,0,0,1-.886,1.474,8.8,8.8,0,0,1-3.59,2.729,13.213,13.213,0,0,1-5.165.911,11.049,11.049,0,0,1-7.894-3.1,9.112,9.112,0,0,1-1.7-2.214h.031a1.681,1.681,0,0,1-.28-.933v-.28a.883.883,0,0,1,.073-.294,2.291,2.291,0,0,1,.3-.591,1.519,1.519,0,0,1,.56-.443l-.022.025a1.583,1.583,0,0,1,.885-.28,1.44,1.44,0,0,1,.589.123v-.025a1.766,1.766,0,0,1,.591.345,2.243,2.243,0,0,1,.443.516,8.918,8.918,0,0,0,1.107,1.426A6.167,6.167,0,0,0,294,101.535a8.774,8.774,0,0,0,1.821.737,7.35,7.35,0,0,0,1.962.247,9.264,9.264,0,0,0,3.466-.591,5.675,5.675,0,0,0,2.337-1.622,2.619,2.619,0,0,0,.541-1.034v-.146a2.091,2.091,0,0,0,.048-.37v-.294a4.29,4.29,0,0,0-.025-.591,1.162,1.162,0,0,0-.146-.443,4.178,4.178,0,0,0-1.23-1.23,5.23,5.23,0,0,0-1.917-.687,14.09,14.09,0,0,0-2.9-.247,16.549,16.549,0,0,1-4.066-.437,8.126,8.126,0,0,1-2.828-1.253,11.443,11.443,0,0,1-1.477-1.306,5.625,5.625,0,0,1-.958-1.325,5.557,5.557,0,0,1-.468-2.657l.025-.639a4.346,4.346,0,0,1,.37-1.477,7.21,7.21,0,0,1,.885-1.5,8.788,8.788,0,0,1,3.59-2.729,13.1,13.1,0,0,1,5.131-.947,11.24,11.24,0,0,1,3.836.664,12,12,0,0,1,3.343,1.858,2.584,2.584,0,0,1,.518.518,1.6,1.6,0,0,1,.221.81,2.675,2.675,0,0,1-.076.664,1.272,1.272,0,0,1-.294.53,1.569,1.569,0,0,1-.541.468,1.793,1.793,0,0,1-.813.2,1.833,1.833,0,0,1-1.155-.345.115.115,0,0,1-.064-.039,7.348,7.348,0,0,0-4.87-1.771,9.085,9.085,0,0,0-3.466.591,5.936,5.936,0,0,0-2.312,1.623v-.025a2.191,2.191,0,0,0-.516,1.034v.28a4.48,4.48,0,0,0,.1,1.253v-.048a3.923,3.923,0,0,0,1.253,1.23,5.916,5.916,0,0,0,1.92.712,13.75,13.75,0,0,0,2.853.28,17.766,17.766,0,0,1,4.032.418A8.614,8.614,0,0,1,305,93.075a10.839,10.839,0,0,1,1.351,1.155,6.1,6.1,0,0,1,.958,1.23h-.022Z" transform="translate(-207.293 -58.288)"/><path class="a" d="M394.368,77.371a1.961,1.961,0,0,1,.468,1.328,2.24,2.24,0,0,1-.174.664,1.785,1.785,0,0,1-.984.908,1.516,1.516,0,0,1-.614.076,1.622,1.622,0,0,1-.715-.123,2.241,2.241,0,0,1-.56-.418L380.58,67.88l-.689.49-.639.493-.933.689-1.034.759v8.272a1.78,1.78,0,0,1-.465,1.278,1.653,1.653,0,0,1-1.328.541,1.7,1.7,0,0,1-1.328-.516,1.235,1.235,0,0,1-.37-.56,2.336,2.336,0,0,1-.123-.737V47.174a1.992,1.992,0,0,1,.56-1.328,2.933,2.933,0,0,1,.56-.37,1.819,1.819,0,0,1,1.426,0,4.77,4.77,0,0,1,.56.345,1.81,1.81,0,0,1,.541,1.328V65.694l3.564-2.606,3.542-2.584,3.713-2.729,3.738-2.755a1.681,1.681,0,0,1,1.056-.319h.28a1.34,1.34,0,0,1,.639.221,2.8,2.8,0,0,1,.49.443,2.211,2.211,0,0,1,.417,1.18v.28a2.566,2.566,0,0,1-.219.664,1.625,1.625,0,0,1-.468.541l-2.729,1.992-2.558,1.892-2.435,1.821-2.631,1.917,10.929,11.559Z" transform="translate(-268.956 -32.619)"/><path class="a" d="M467.249,78.5a2.049,2.049,0,0,1,1.527.762A4.06,4.06,0,0,1,469,79.7a1.729,1.729,0,0,1,.1.664v22.009a1.748,1.748,0,0,1-.1.664,2.006,2.006,0,0,1-.247.443,2.049,2.049,0,0,1-1.477.737,1.836,1.836,0,0,1-1.253-.56,1.7,1.7,0,0,1-.591-1.3V80.344a1.648,1.648,0,0,1,.591-1.278,1.836,1.836,0,0,1,1.253-.56Z" transform="translate(-335.002 -56.494)"/><path class="a" d="M516,68.125a12.179,12.179,0,0,1-3.738,8.925,12.61,12.61,0,0,1-17.828,0,12.527,12.527,0,0,1,0-17.853,12.151,12.151,0,0,1,8.9-3.749,12.484,12.484,0,0,1,6.591,1.821,9.725,9.725,0,0,1,1.278.886,14.453,14.453,0,0,1,1.121.984V47.346a1.993,1.993,0,0,1,.56-1.328,1.8,1.8,0,0,1,1.278-.518,1.883,1.883,0,0,1,1.328.518,1.771,1.771,0,0,1,.507,1.3ZM503.341,77.05a8.942,8.942,0,0,0,8.951-8.967,8.785,8.785,0,0,0-2.606-6.37,8.533,8.533,0,0,0-6.344-2.631,8.967,8.967,0,0,0,0,17.935Z" transform="translate(-353.191 -32.741)"/><g transform="translate(11.158)"><path class="a" d="M39.948,23.056A220.092,220.092,0,0,1,69.848,10.7c2.57-.841,5.128-1.7,7.729-2.441,1.295-.384,2.589-.771,3.89-1.135s2.612-.706,3.923-1.059c.653-.177,1.306-.35,1.962-.516s1.309-.339,1.962-.49l3.954-.936c1.317-.311,2.651-.56,3.979-.841l2.026-.415c.664-.137,1.328-.28,2-.387l4.021-.695c.67-.123,1.348-.207,2.02-.314s1.348-.2,2.023-.294c1.348-.2,2.713-.345,4.072-.5l2.04-.23c.684-.07,1.373-.1,2.057-.157l2.06-.149c.684-.056,1.382-.059,2.074-.092S123.007,0,123.7-.021s1.4,0,2.1.017,1.4,0,2.1.045,1.424.09,2.133.149c.353.031.717.053,1.056.09L132.1.394c.687.081,1.37.163,2.065.261s1.4.207,2.079.325,1.387.252,2.079.418l1.037.235c.345.084.689.177,1.034.28.689.165,1.368.4,2.046.616A35.673,35.673,0,0,1,150.211,6.1c.591.406,1.191.787,1.763,1.216s1.121.86,1.681,1.325,1.062.939,1.566,1.429.97,1.028,1.438,1.547a29.019,29.019,0,0,1,2.469,3.363A26.276,26.276,0,0,1,161,18.648v.028a.21.21,0,0,1-.115.28.207.207,0,0,1-.258-.087A28.488,28.488,0,0,0,149.152,8.106a34.14,34.14,0,0,0-7.434-2.8,49.349,49.349,0,0,0-7.869-1.295c-.661-.064-1.328-.109-2-.157l-1-.064c-.333-.022-.664-.025-1-.036l-2-.064c-.664,0-1.331.022-2,.034s-1.331.014-2,.056l-2,.129c-.664.05-1.331.07-2,.143l-2,.2c-.664.07-1.328.129-1.992.2l-1.987.258c-1.325.171-2.651.336-3.971.56s-2.643.4-3.96.631l-3.948.712c-5.257.986-10.5,2.071-15.693,3.326S75.932,12.53,70.77,13.945c-2.578.715-5.145,1.477-7.72,2.211l-7.684,2.337L47.71,20.92l-7.625,2.522a.207.207,0,0,1-.263-.132.213.213,0,0,1,.1-.255Z" transform="translate(-39.811 0.029)"/></g></svg>