<svg xmlns="http://www.w3.org/2000/svg" xmlns:xlink="http://www.w3.org/1999/xlink" width="931.298" height="704.53" viewBox="0 0 931.298 704.53"><defs><style>.a{fill:#a0daea;}.ab,.ah,.ai,.al,.aq,.as,.at,.au,.ax,.ay,.az,.b,.bb,.be,.bf,.bg,.bh,.bi,.bj,.bl,.bm,.bn,.bo,.bq,.bs,.bt,.bu,.bv,.bw,.by,.bz,.ca,.cb,.q,.r,.s,.v,.z{isolation:isolate;}.ab,.ac,.ad,.ae,.af,.ag,.ai,.aj,.ak,.am,.an,.ao,.ap,.ar,.as,.at,.aw,.ax,.ba,.bk,.bl,.bn,.bo,.bp,.bq,.br,.bs,.bt,.bw,.bx,.c,.d,.e,.f,.g,.h,.i,.j,.k,.l,.m,.n,.o,.p,.q,.r,.s,.t,.u,.v{fill-rule:evenodd;}.c{fill:url(#a);}.d{fill:url(#b);}.e{fill:url(#c);}.f{fill:url(#d);}.g{fill:url(#e);}.h{fill:url(#f);}.i{fill:url(#g);}.j{fill:url(#h);}.k{fill:url(#i);}.l{fill:url(#j);}.m{fill:url(#k);}.n{fill:url(#l);}.o{fill:url(#m);}.p{fill:url(#n);}.q,.r,.s{fill:#167878;}.ab,.ah,.ai,.al,.aq,.as,.at,.ax,.ay,.az,.be,.bf,.bg,.bh,.bl,.bm,.bn,.q,.r,.s,.v{mix-blend-mode:multiply;}.al,.aq,.at,.be,.bf,.bg,.bh,.bl,.bn,.ca,.cb,.r{opacity:0.5;}.s{opacity:0.2;}.t{fill:#794463;}.u{fill:#d9514d;}.v{fill:#b7758e;}.as,.v{opacity:0.8;}.w,.z{fill:#1c1e2b;}.x{fill:url(#o);}.y{fill:#a9224e;}.aa{fill:#666;}.ab{fill:#a583a1;}.ab,.bb,.bi,.bj,.bt,.bu,.bw,.by{opacity:0.7;}.ac{fill:#e85b48;}.ad{fill:url(#q);}.ae{fill:#b82557;}.af{fill:#b33748;}.ag{fill:url(#r);}.ah,.ai{fill:#935b9d;}.ah,.ai,.ax,.ay,.az,.bm{opacity:0.91;}.aj{fill:url(#s);}.ak{fill:url(#u);}.al,.bn,.br{fill:url(#v);}.am{fill:#581124;}.an{fill:#2b1548;}.ao{fill:url(#x);}.ap{fill:url(#y);}.aq{fill:url(#aa);}.ar{fill:url(#ab);}.as{fill:url(#ac);}.at{fill:url(#ae);}.au,.bo,.bq,.bs{mix-blend-mode:soft-light;}.av{fill:url(#af);}.aw{fill:url(#ag);}.ax,.bm{fill:url(#ah);}.ay{fill:url(#ai);}.az{fill:url(#aj);}.bb,.bw{fill:#490800;}.bb,.bi,.bj,.bt,.bu,.bv,.bw,.by,.bz,.ca,.cb{mix-blend-mode:screen;}.bc{fill:url(#ak);}.bd{fill:url(#al);}.be{fill:url(#am);}.bf{fill:url(#an);}.bh{fill:url(#ao);}.bi{fill:#972a3d;}.bk{fill:url(#ap);}.bl{fill:url(#ar);}.bo,.bs{fill:#ecd6e0;}.bo,.bq{opacity:0.33;}.bp{fill:#4b1124;}.bq{fill:#ddb6c8;}.bs{opacity:0.57;}.bt{fill:url(#az);}.bu{fill:url(#ba);}.bv{fill:url(#bb);}.bx{fill:url(#bd);}.by{fill:url(#bg);}.bz{fill:url(#bh);}.ca{fill:url(#bi);}.cb{fill:url(#bj);}</style><linearGradient id="a" x1="-96.612" y1="1" x2="-96.612" gradientUnits="objectBoundingBox"><stop offset="0.017" stop-color="#4f9fa4"/><stop offset="1" stop-color="#a6d0e5"/></linearGradient><linearGradient id="b" x1="-44.499" y1="1" x2="-44.499" gradientUnits="objectBoundingBox"><stop offset="0.017" stop-color="#469c66"/><stop offset="1" stop-color="#77bfb2"/></linearGradient><linearGradient id="c" x1="0.488" y1="0.827" x2="0.602" y2="-6.96" gradientUnits="objectBoundingBox"><stop offset="0" stop-color="#30a8af"/><stop offset="1" stop-color="#328766"/></linearGradient><linearGradient id="d" x1="0.471" y1="3.055" x2="0.618" y2="-10.071" xlink:href="#c"/><linearGradient id="e" x1="0.449" y1="6.276" x2="0.627" y2="-13.968" xlink:href="#c"/><linearGradient id="f" x1="0.429" y1="8.31" x2="0.639" y2="-14.874" xlink:href="#c"/><linearGradient id="g" x1="0.411" y1="11.997" x2="0.647" y2="-18.555" xlink:href="#c"/><linearGradient id="h" x1="0.355" y1="1.698" x2="0.587" y2="-0.082" xlink:href="#c"/><linearGradient id="i" x1="-10.652" y1="0.5" x2="-9.652" y2="0.5" gradientUnits="objectBoundingBox"><stop offset="0.017" stop-color="#5da3df"/><stop offset="1" stop-color="#fff"/></linearGradient><linearGradient id="j" x1="-13.778" y1="0.5" x2="-12.778" y2="0.5" xlink:href="#i"/><linearGradient id="k" x1="-16.748" y1="0.5" x2="-15.748" y2="0.5" xlink:href="#i"/><linearGradient id="l" x1="-22.11" y1="0.5" x2="-21.11" y2="0.5" xlink:href="#i"/><linearGradient id="m" x1="-24.79" y1="0.5" x2="-23.79" y2="0.5" xlink:href="#i"/><linearGradient id="n" x1="-19.624" y1="0.5" x2="-18.624" y2="0.5" xlink:href="#i"/><linearGradient id="o" y1="0.5" x2="1" y2="0.5" gradientUnits="objectBoundingBox"><stop offset="0.006" stop-color="#570e33"/><stop offset="1" stop-color="#842f40"/></linearGradient><linearGradient id="q" x1="0.5" y1="1" x2="0.5" y2="0" xlink:href="#o"/><linearGradient id="r" x1="0.5" y1="1" x2="0.5" gradientUnits="objectBoundingBox"><stop offset="0" stop-color="#4b3272"/><stop offset="0.989" stop-color="#432160"/></linearGradient><linearGradient id="s" x1="0.5" y1="1" x2="0.5" gradientUnits="objectBoundingBox"><stop offset="0" stop-color="#f4867c"/><stop offset="0.984" stop-color="#ff9f68"/></linearGradient><linearGradient id="u" x1="0.5" y1="1" x2="0.5" gradientUnits="objectBoundingBox"><stop offset="0" stop-color="#543c79"/><stop offset="0.989" stop-color="#432160"/></linearGradient><linearGradient id="v" y1="0.5" x2="1" y2="0.5" gradientUnits="objectBoundingBox"><stop offset="0.011" stop-color="#be6888"/><stop offset="1" stop-color="#8e81f4"/></linearGradient><linearGradient id="x" x1="0.5" y1="1" x2="0.5" gradientUnits="objectBoundingBox"><stop offset="0.017" stop-color="#e1dbeb"/><stop offset="0.174" stop-color="#e6e1f1"/><stop offset="0.562" stop-color="#efecfa"/><stop offset="1" stop-color="#f3f0fe"/></linearGradient><radialGradient id="y" cx="0.193" cy="0.315" r="0.37" gradientTransform="translate(-0.447) scale(1.895 1)" xlink:href="#r"/><linearGradient id="aa" x1="0.451" y1="1.041" x2="0.536" y2="0.017" xlink:href="#v"/><radialGradient id="ab" cx="0.193" cy="0.315" r="0.495" gradientTransform="translate(0.018) scale(0.965 1)" xlink:href="#u"/><linearGradient id="ac" x1="0.5" y1="1" x2="0.5" gradientUnits="objectBoundingBox"><stop offset="0.006" stop-color="#b060f4"/><stop offset="1" stop-color="#ffeadb"/></linearGradient><linearGradient id="ae" x1="0.5" y1="1" x2="0.5" gradientUnits="objectBoundingBox"><stop offset="0.016" stop-color="#d1a1d6"/><stop offset="0.994" stop-color="#bd89c4"/></linearGradient><linearGradient id="af" x1="-0.357" y1="0.982" x2="1.339" y2="0.018" xlink:href="#ac"/><linearGradient id="ag" x1="0.5" y1="1" x2="0.5" gradientUnits="objectBoundingBox"><stop offset="0.006" stop-color="#792244"/><stop offset="1" stop-color="#893100"/></linearGradient><linearGradient id="ah" x1="0" y1="0.5" x2="1" y2="0.5" xlink:href="#ae"/><linearGradient id="ai" x1="0.325" y1="1.02" x2="0.622" y2="-0.042" xlink:href="#ae"/><linearGradient id="aj" x1="0.348" y1="0.953" x2="0.71" y2="0.034" xlink:href="#ae"/><linearGradient id="ak" x1="-0.005" y1="1" x2="1.081" y2="0.002" gradientUnits="objectBoundingBox"><stop offset="0.006" stop-color="#8e2a3b"/><stop offset="1" stop-color="#ba4324"/></linearGradient><linearGradient id="al" x1="0.172" y1="1.006" x2="1.078" y2="0.003" xlink:href="#ak"/><linearGradient id="am" x1="0.276" y1="1.008" x2="1.36" y2="0.014" xlink:href="#v"/><linearGradient id="an" x1="0.381" y1="1.054" x2="0.602" y2="-0.063" xlink:href="#v"/><linearGradient id="ao" x1="0.425" y1="0.904" x2="0.573" y2="0.097" xlink:href="#v"/><linearGradient id="ap" x1="0.5" y1="1" x2="0.5" gradientUnits="objectBoundingBox"><stop offset="0.006" stop-color="#721d3b"/><stop offset="1" stop-color="#a63624"/></linearGradient><linearGradient id="ar" x1="0.5" y1="1" x2="0.5" y2="0" xlink:href="#v"/><linearGradient id="az" y1="0.5" x2="1" y2="0.5" gradientUnits="objectBoundingBox"><stop offset="0" stop-color="#4af4ff"/><stop offset="0.086" stop-color="#46e9f4"/><stop offset="0.234" stop-color="#3ecfd8"/><stop offset="0.426" stop-color="#31a3aa"/><stop offset="0.657" stop-color="#1f666b"/><stop offset="0.916" stop-color="#081a1b"/><stop offset="1"/></linearGradient><linearGradient id="ba" x1="-0.205" y1="0.986" x2="1.526" y2="0.009" xlink:href="#az"/><linearGradient id="bb" x1="0.121" y1="0.973" x2="1.075" y2="0.027" gradientUnits="objectBoundingBox"><stop offset="0" stop-color="#984072"/><stop offset="0.148" stop-color="#ab4373"/><stop offset="0.532" stop-color="#d84a76"/><stop offset="0.828" stop-color="#f44f78"/><stop offset="1" stop-color="#ff5179"/></linearGradient><linearGradient id="bd" x1="0.5" y1="1" x2="0.5" gradientUnits="objectBoundingBox"><stop offset="0" stop-color="#6d2822"/><stop offset="0.994" stop-color="#570e33"/></linearGradient><linearGradient id="bg" x1="-0.44" y1="0.99" x2="0.934" y2="0.014" xlink:href="#az"/><linearGradient id="bh" x1="0.388" y1="0.928" x2="0.612" y2="0.072" gradientUnits="objectBoundingBox"><stop offset="0" stop-color="#ff5179"/><stop offset="0.086" stop-color="#f44d74"/><stop offset="0.234" stop-color="#d84466"/><stop offset="0.426" stop-color="#aa3651"/><stop offset="0.657" stop-color="#6b2232"/><stop offset="0.916" stop-color="#1b080d"/><stop offset="1"/></linearGradient><linearGradient id="bi" x1="-0.027" y1="0.981" x2="1.067" y2="0.002" xlink:href="#bh"/><linearGradient id="bj" x1="-0.64" y1="0.983" x2="1.134" y2="0.019" xlink:href="#bh"/></defs><g transform="translate(-1352.896 -378.322)"><path class="a" d="M1946.94,404.874c-.014.033-.416-.093-1.164-.223a10.929,10.929,0,0,0-3.2-.073,9.4,9.4,0,0,0-4.277,1.611,7.644,7.644,0,0,0-3.013,4.129l-.014.046-.183.611-.273-.58a8.681,8.681,0,0,0-3.613-3.764,10.389,10.389,0,0,0-4.421-1.291,14.158,14.158,0,0,0-4.329.473,4.04,4.04,0,0,1,1.1-.411,10.7,10.7,0,0,1,3.251-.353,10.551,10.551,0,0,1,4.639,1.263,8.952,8.952,0,0,1,3.818,3.929l-.456.032.014-.049a7.9,7.9,0,0,1,3.2-4.33,9.6,9.6,0,0,1,4.512-1.605,10.043,10.043,0,0,1,3.283.206A3.958,3.958,0,0,1,1946.94,404.874Z"/><path class="a" d="M1797.627,444.666c-.014.033-.416-.093-1.164-.223a10.925,10.925,0,0,0-3.2-.073,9.412,9.412,0,0,0-4.278,1.611,7.643,7.643,0,0,0-3.013,4.129l-.013.046-.183.611-.273-.58a8.692,8.692,0,0,0-3.613-3.764,10.389,10.389,0,0,0-4.421-1.291,14.17,14.17,0,0,0-4.33.473,4.064,4.064,0,0,1,1.1-.411,10.7,10.7,0,0,1,3.251-.353,10.547,10.547,0,0,1,4.639,1.263,8.941,8.941,0,0,1,3.818,3.929l-.456.032.015-.049a7.9,7.9,0,0,1,3.2-4.33,9.593,9.593,0,0,1,4.511-1.605,10.042,10.042,0,0,1,3.283.206A3.958,3.958,0,0,1,1797.627,444.666Z"/><path class="a" d="M2101.606,484.2a12.318,12.318,0,0,1-1.059,1.052,23.432,23.432,0,0,0-2.6,3.037,19.948,19.948,0,0,0-3.865,11.792v.149l-.477.033a19.024,19.024,0,0,0-6.312-10.821,31.494,31.494,0,0,0-4.611-3.215,1.477,1.477,0,0,1,.379.149c.236.116.6.263,1.033.512a20.3,20.3,0,0,1,3.438,2.349,20,20,0,0,1,3.956,4.46,17.591,17.591,0,0,1,2.592,6.507l-.477.034v-.152a19.594,19.594,0,0,1,4.057-11.953,20.55,20.55,0,0,1,2.749-2.989c.355-.332.669-.556.868-.718A1.394,1.394,0,0,1,2101.606,484.2Z"/><path class="a" d="M2128.954,647.469c-.207.037-.411.083-.617.123.078.137.161.272.237.411Z"/><g class="b"><path class="a" d="M1929.531,608.057c.592-3.693-5.469-6.732-10.023-7.047-2.172-.151-4.428.135-6.485-.482-4.458-1.336-6.239-6.289-10.588-7.867-3.252-1.18-7-.13-10.148,1.235s-6.268,3.082-9.79,3.276c-3.064.168-6.391-.809-9.071.478-2,.959-3.044,2.939-4.885,4.107-1.8,1.142-4.15,1.384-6.385,1.489a20.646,20.646,0,0,0-6.583.925c-2.035.8-3.718,2.652-3.3,4.542Z"/></g><g class="b"><path class="a" d="M2145.969,400.3c.7-4.393-6.5-8.006-11.921-8.381-2.583-.179-5.265.16-7.712-.573-5.3-1.589-7.419-7.479-12.592-9.356-3.867-1.4-8.319-.154-12.068,1.469s-7.454,3.665-11.643,3.9c-3.643.2-7.6-.962-10.787.569-2.375,1.14-3.619,3.494-5.809,4.883-2.142,1.359-4.936,1.646-7.593,1.771s-5.409.147-7.829,1.1-4.421,3.154-3.919,5.4Z"/></g><g class="b"><path class="a" d="M2236.659,660.855c.7-4.392-6.5-8.005-11.921-8.381-2.583-.179-5.265.161-7.712-.573-5.3-1.589-7.419-7.479-12.592-9.356-3.867-1.4-8.319-.154-12.068,1.469s-7.454,3.665-11.642,3.9c-3.644.2-7.6-.962-10.788.569-2.375,1.141-3.619,3.495-5.809,4.884-2.142,1.358-4.936,1.646-7.593,1.77s-5.409.148-7.829,1.1-4.421,3.154-3.919,5.4Z"/></g><g class="b"><path class="a" d="M2164.194,553.611c1-6.24-9.241-11.373-16.935-11.907-3.67-.254-7.481.228-10.957-.814-7.532-2.257-10.54-10.626-17.889-13.292-5.494-1.992-11.819-.218-17.146,2.087s-10.589,5.207-16.54,5.535c-5.176.285-10.8-1.366-15.326.809-3.374,1.62-5.142,4.964-8.252,6.937-3.044,1.931-7.013,2.339-10.788,2.516s-7.685.209-11.123,1.563-6.281,4.48-5.568,7.674Z"/></g><g class="b"><path class="a" d="M2103.9,393.249c.5-3.466-4.587-6.317-8.406-6.613-1.822-.141-3.713.127-5.439-.452-3.738-1.254-5.232-5.9-8.879-7.382-2.727-1.107-5.867-.122-8.511,1.159s-5.256,2.892-8.21,3.074c-2.569.158-5.359-.759-7.607.449-1.675.9-2.553,2.757-4.1,3.853a10.059,10.059,0,0,1-5.354,1.4,15.615,15.615,0,0,0-5.521.868c-1.706.752-3.118,2.488-2.764,4.262Z"/></g><g class="b"><path class="a" d="M1875.809,509.272c.9-5.65-8.366-10.3-15.332-10.78-3.322-.23-6.772.207-9.919-.737-6.818-2.043-9.542-9.619-16.195-12.033-4.974-1.8-10.7-.2-15.522,1.889s-9.587,4.714-14.975,5.011c-4.686.258-9.774-1.237-13.874.732-3.055,1.467-4.655,4.495-7.471,6.281-2.755,1.747-6.349,2.117-9.767,2.277s-6.956.19-10.069,1.415-5.687,4.057-5.041,6.948Z"/></g></g><g transform="translate(-1352.896 -378.322)"><path class="c" d="M1971.114,484.858l.311,277.178,62.47,11.342,37.6-226.168Z"/><path class="d" d="M2123.206,1029.983l-32.4-470.229-52.31,34.4-126.64,108.571-5,32.315Z"/><path class="e" d="M1402.487,1003.859l7.41,63.614,860.267,13.608,14.031-77.191Z"/><path class="f" d="M2183.478,971.052l.875-45.778H1502.646l6.452,39.159Z"/><path class="g" d="M2126.637,906.978l.5-27.442-561.182-2.226,3.471,29.668Z"/><path class="h" d="M2083.491,870.827l-.067-24.234L1604.736,847.6l2.335,24.9Z"/><path class="i" d="M2059.635,845.272v-17.21L1634.5,825.623l.593,19.649Z"/><path class="j" d="M1656.19,824.055l378.5,1.568V807.317l-20.753.109v-15.5l-12.127.039-.925-10.781-18.053-.114-.324-13.121h-11.664l-.609-9.551-11.129-.076-.536-9.084-12.719-.078V739.118h-11.87l.18-4.078v-7.424h0l156.651-167.863L1981.7,485.583l-10.583-.725,74.214,61.806L1756.049,739.118h-9.393v8.827l-11.32-.069v8.911l-11.739-.081v11.247h-14.464l.314,11.4-14.569-.092.12,13.7-17.939.058.545,16.164-21.927.115Z"/><path class="k" d="M2284.194,1003.89l-100.716-32.838-674.38-6.619-106.611,39.425Z"/><path class="l" d="M1502.646,925.274l67.015-18.3h556.977l57.715,18.3Z"/><path class="m" d="M1565.954,877.309l44.13-4.881,473.407-1.6,43.645,8.708Z"/><path class="n" d="M2059.635,828.062l-24.946-2.439-378.422-1.568-21.763,1.568Z"/><path class="o" d="M1655.676,809.3l21.9-2.15,336.356-2.321,20.753,2.487Z"/><path class="p" d="M2083.424,846.593l-23.789-2.858-429.028,1.537-25.871,2.332Z"/><path class="q" d="M1409.1,1060.622l-56.2,20.459h917.267l14.03-77.191-881.708-.031Z"/><path class="q" d="M1509.1,964.433l-21.222,7.848,695.6-1.229.875-45.778H1502.646Z"/><path class="r" d="M2126.637,906.978l-570.688,3.743,13.477-3.743-3.471-29.669,561.182,2.226Z"/><path class="s" d="M1607.071,872.506l-8.448,1.19,487.952-2.253-3.084-.615-.067-24.234L1604.736,847.6Z"/></g><g transform="translate(-1352.896 -378.322)"><path class="t" d="M1982.344,491.841l-3.092-63.447,1.546,2.118,2.359,61.384Z"/><path class="u" d="M2056.9,464.278s-14.651,4.483-24.853,4.942a28.913,28.913,0,0,1-3.918-.035c-9.144-.812-9.708-10.626-14.474-14.58a6.523,6.523,0,0,0-.953-.671c-5.684-3.354-31.489,5.3-31.489,5.3l-1.977-30.819s20.086-3.6,29.794-3.248a11.028,11.028,0,0,1,5.507,1.518c4.837,2.824,6.214,8.826,9.532,10.838,1.377.847,4.942,1.165,9.143,1.2,8.9.035,20.616-1.2,20.616-1.2Z"/><path class="v" d="M2033.214,438.719l-1.165,30.5a28.913,28.913,0,0,1-3.918-.035c-9.144-.812-9.708-10.626-14.474-14.58.247-9.073.847-21.075.882-27.924,4.837,2.824,6.214,8.826,9.532,10.838C2025.448,438.366,2029.013,438.684,2033.214,438.719Z"/></g><g transform="translate(-1352.896 -378.322)"><path class="w" d="M1904.6,583.018l-2.276-.437-.4,24.782,1.431-.114Z"/><path class="x" d="M1948.758,568.422l-8.783-8.027-.532,4.553L1904.6,583.018l-1.242,24.232,33.943-23.012.237-3.024-.8,6.882Z"/><path class="y" d="M1902.328,582.581l36.356-17.848.509-4.379.782.04-.532,4.553L1904.6,583.018Z"/><path class="z" d="M1938.683,564.733l.759.214L1904.6,583.018l-2.276-.437Z"/><path class="y" d="M1936.738,588.1l-.675-.035.509-3.326.733-.5Z"/></g><g class="b" transform="translate(-1352.896 -378.322)"><path class="w" d="M2261.513,821.092l7.56-1.054L2266.2,901.62l-4.688-.615Z"/><path class="x" d="M2118.739,765.64l30.243-24.924.983,15.065,111.549,65.311V901l-107.768-81.413-.271-9.987,1.485,22.773Z"/><path class="w" d="M2269.073,820.038,2152.5,755.206l-.938-14.49h-2.579l.983,15.065,111.549,65.311Z"/><path class="aa" d="M2152.5,755.206l-2.534.575,111.549,65.311,7.56-1.054Z"/><path class="w" d="M2154.959,832.377h2.227l-1.114-11.027-2.328-1.759Z"/></g><g transform="translate(-1352.896 -378.322)"><path class="ab" d="M1771.98,986.053l-56.233,31.742-4.781,61.2,247.405,3.855-8.863-65.056-53.765-29.7-4.8-41.119-17.283-4.707-4.292-8.4h-10.81l-8.348,6.5-73.36,6.607Z"/><path class="ac" d="M1861.1,810.208s1.117,12.986,0,21.919c0,0,5.749-6.451,13.11-3.722,0,0-1.985-2.812-1.9-4.3s1.323-9.843,1.323-9.843Z"/><path class="ad" d="M1879.174,870.421l-20.928.577-1.231-1.153c2.226-11.5,4.086-38.857,4.086-38.857s3.745-6.443,7.635-6.443a6.246,6.246,0,0,1,5.474,3.2c1.9,3.641,3.314,11.748,3.314,11.748s-1.742,12.9-.079,18.78A53.948,53.948,0,0,1,1879.174,870.421Z"/><path class="ae" d="M1879.174,870.421l-20.928.577s1.244-20.51,4.636-27.791,12.4-6.863,14.642-3.719c0,0-1.742,12.9-.079,18.78A53.948,53.948,0,0,1,1879.174,870.421Z"/><path class="af" d="M1861.294,817.624s8.194,6.921,11.753.694l.365-2.54-12.633-4.265S1861.287,816.248,1861.294,817.624Z"/><path class="ag" d="M1883.179,778.336c0,6.733-8.358,36.687-8.358,36.687-6.763,4.2-11.74-.791-14.042-3.51-.49-.576-.849-1.05-1.094-1.309a7.983,7.983,0,0,0-3.41-2.043c.691-16.085-1.9-51.161-1.9-51.161,4.273-5.51,23.9-3.4,23.9-3.4-.259,2.057.274,4.891,1.065,8.013C1880.82,767.33,1883.179,773.977,1883.179,778.336Z"/><path class="ah" d="M1867.656,771.4s-7.036,24.731-6.547,38.8l-.33,1.309c-.49-.576-.849-1.05-1.094-1.309a7.983,7.983,0,0,0-3.41-2.043c.691-16.085-1.9-51.161-1.9-51.161,4.273-5.51,23.9-3.4,23.9-3.4-.259,2.057.274,4.891,1.065,8.013Z"/><path class="ai" d="M1878.49,801.221s-5.309,10.714-7.49,11.8-5.543-.727-5.543-.727,2.636,2.908,4.771,2.908,5.644-4.025,5.644-4.025Z"/><path class="aj" d="M1811.388,940.536a39.689,39.689,0,0,1,1.413,8.833s8.586.137,12.4,5.316V929.742Z"/><path class="ad" d="M1832.379,1006.573h-28.257s-.82-3.726,0-10.991,1.18-25.178,1.094-27.9c-.087-2.734,7.582-18.315,7.582-18.315,7.222-4.043,12.4,5.309,12.4,5.309s.461,5.323,1.18,13.812c.777,8.977,1.007,21.911,3.453,28.357S1832.379,1006.573,1832.379,1006.573Z"/><path class="ae" d="M1805.213,967.679s10.944-6.049,16.447,2.953,7.36,35.937,7.36,35.937h-24.9s-.733-2.936-.151-9.487S1805.213,967.679,1805.213,967.679Z"/><path class="af" d="M1811.871,942.441s4.188,6.622,13.333-1.828V929.742l-15.925,4.381S1811.582,940.663,1811.871,942.441Z"/><path class="ak" d="M1897.034,736.2c-.676,7.223-10.5,19.768-18.128,21.667-7.639,1.914-12.718,0-19.9-.8a22.588,22.588,0,0,0-12.4,2.043,351.133,351.133,0,0,0-8.733,45.923c-2.719,23.854-3.035,48.528-3.309,50.441s-3.179,5.54-3.179,5.54c-3.813,27.263-1.554,66.6-1.554,66.6s-.619.518-1.381,1.223a19.367,19.367,0,0,0-2.432,2.6c-1.021,1.439-.92,5.194-.906,5.669v.043c-4.992,5.827-15.178,3.093-15.178,3.093-9.079-17.624-12.359-55.059-11.625-59.965.719-4.906,11.078-20.358,11.078-23.077,0-2.331-8.057-68.253-8.747-95.588a53.108,53.108,0,0,1,.388-10.186c2.734-12.905,13.941-33.364,13.941-33.364l23.868-11.567,45.521.949.317.518c1.841,3.022,11.193,18.689,12.272,26.343A7.912,7.912,0,0,1,1897.034,736.2Z"/><path class="ah" d="M1884.676,707.954v5.856s-17.625,21.163-32.76,25.652-41.981-3.669-41.981-3.669-7.813,14.575-9.28,25.753a.089.089,0,0,1-.014.058,53.108,53.108,0,0,1,.388-10.186c2.734-12.905,13.941-33.364,13.941-33.364l23.868-11.567,45.521.949Z"/><path class="al" d="M1897.034,736.2c-.676,7.223-10.5,19.768-18.128,21.667-7.639,1.914-12.718,0-19.9-.8a22.588,22.588,0,0,0-12.4,2.043s-1.755,6.459-3.8,16.185c-1.741,8.229-3.683,18.79-4.935,29.738-2.719,23.854-3.035,48.528-3.309,50.441s-3.179,5.54-3.179,5.54c-11.683,15.883-5.079,56.512-2.935,67.82a19.367,19.367,0,0,0-2.432,2.6c-1.021,1.439-.92,5.194-.906,5.669l-1.712-44.3,1.8-32.889-11.984,2.777,13.488-5.729,4.956-29.117-4.719,13.711c4.446-16.89,6.834-48.24,6.834-48.24l-1.583-13.035-1.553-12.732c-11.755.547-19.466-2.316-19.466-2.316a40.9,40.9,0,0,0,17.034,0S1847.284,753.5,1849.6,753.2s11.035,1.122,25.9,0c13.782-1.036,20.544-16.646,21.451-18.905A7.912,7.912,0,0,1,1897.034,736.2Z"/><path class="am" d="M1920.308,746.785s5.756,38.617,18.478,60.606l5.452-5.452s-17.334-31.633-19.48-54.434l-.288-3.356Z"/><path class="af" d="M1916.993,733.586s.784,2.566-.115,7.473a65.026,65.026,0,0,1-2.171,8.587,2.278,2.278,0,0,0,1.391,1.272c.926.182,3.016-1.817,3.924-3.18s-.545-4.952-.408-5.861a8.433,8.433,0,0,1,.709-2.05S1919.069,734.953,1916.993,733.586Z"/><path class="an" d="M1916.07,722.159s12.994-3.271,17.446-12.539c0,0-6.451-2.908-12.54,1.09S1916.07,722.159,1916.07,722.159Z"/><path class="aj" d="M1938.786,740.325c0,1.194-5.266,4.187-5.266,4.187l-10.359,2.273-4-9.812s-2.46-3.007-2.273-4.359c.187-1.367,3.266-12.359,3.266-12.905s-2.014-3.482-2.014-3.482a15.913,15.913,0,0,1,2.388-3.065,10.556,10.556,0,0,1,7.482-3.495s.46.4,1.151,1.15a26.9,26.9,0,0,1,3.021,3.813l.489.748c.3.489.576.993.849,1.511,1.323,2.6,2.992,10.3,4.086,16.185C1938.311,736.844,1938.786,739.865,1938.786,740.325Z"/><path class="ao" d="M1917.779,716.891l2.38,2.815s4.712-5.608,11.477-5.888l-3.037-4.241A10.56,10.56,0,0,0,1917.779,716.891Z"/><path class="an" d="M1808.439,716.162s3.044,6.179,12.131,8.723,17.806-6.376,17.806-6.376S1821.115,714.345,1808.439,716.162Z"/><path class="ap" d="M1816.117,622.752s-3.431,4.38-3.8,7.978,12.291,41.466,20.494,46.911,8.75-31.991,8.75-31.991Z"/><path class="ao" d="M1887.15,710.817s-18.516,24.43-39.521,27.12a48.642,48.642,0,0,1-26.8-4.661,51.06,51.06,0,0,1-10.373-6.359l-.518-1.036,2.373-5.021,1.454-3.065,16.386-11.337,8.23-5.7,20.573,2.992,25.408,3.683Z"/><path class="aq" d="M1865.656,728.816c-.4.431-7.309,7.682-23.681,6.977-16.891-.719-24.228-6.992-24.228-6.992l3.079,4.475a51.06,51.06,0,0,1-10.373-6.359l-.518-1.036,3.827-8.086,24.616-17.034,45.981,6.675s-14.732,13.093-28.213,14.719c0,0,9.51-3.64,11.668-8.575-.849.287-28.343,10.128-37.176,9.639,0,0,6.172,8.316,15.941,10.373C1856.074,735.578,1865.167,729.161,1865.656,728.816Z"/><path class="ai" d="M1884.359,707.436a275.238,275.238,0,0,1-42.8,14.172c-22.357,5.179-29.249-.748-29.249-.748l1.454-3.065,16.386-11.337,28.8-2.705,12.028-1.136Z"/><path class="ar" d="M1933.52,709.623s-14.718-2.733-17.452,12.532a1.28,1.28,0,0,1-.187-.2,1.259,1.259,0,0,1-.129-.144c-.331-.374-.921-1.05-1.712-1.971-.072-.086-.144-.187-.216-.288-4.748-5.683-15.682-19.911-20.2-35.277,0,0-.82-12.344-4.229-22.458a49.221,49.221,0,0,0-9.4-16.531s-9.136,18.818-9.136,30.127l2.532,2.446-1.856,2.589s8.043,15.812,14.589,26.861c0,0-22.358,1.223-35.162,10.085l-2.029-3.079-2.2-3.337-4.086,4.244-2.993,3.122s-18.947,2.863-31.22-2.187c0,0,8.964-8.834,16.229-17.509,3.525-4.216,6.661-8.388,8.172-11.51l-1.77-1.367,2.863-3.28s-3.827-19.581-15.638-46.83l-2.173-12.9s25.077-12.718,49.967-16.905l6.186-2s2.762-1.309,4.748-1.985a5.44,5.44,0,0,1,1.683-.4c1.3.072,12.1,8.388,18.833,27.652,3.51,10.057,8.4,26.055,14.761,41.924h.014C1918.126,685.568,1925.175,699.984,1933.52,709.623Z"/><path class="as" d="M1938.786,740.325c0,1.194-5.266,4.187-5.266,4.187l-10.359,2.273-4-9.812s-2.46-3.007-2.273-4.359c.187-1.367,3.266-12.359,3.266-12.905s-2.014-3.482-2.014-3.482a15.913,15.913,0,0,1,2.388-3.065l8.633-2.345a26.9,26.9,0,0,1,3.021,3.813s-5.928,3.438-7.482,6.891c-1.539,3.453.51,11.187.51,11.187s4.762,2.354,11.792.179l.6.187C1938.311,736.844,1938.786,739.865,1938.786,740.325Z"/><path class="aj" d="M1937,742.253c-2.964,4.158-5.367,4.532-5.367,4.532l-.475.043-.014.015-6.388.662h-.058l-1.539-.72-.014.015-2.13.705c-2.877-2.6-3.208-7.539-3.237-9.136v-.518l1.022-2,1.525.345,7.006-.777,2.187-1.4,1.223.259c.36,1.554-.791,4.474-.791,4.474l2.287,2.921,1.871-.979C1935.534,740.7,1937,742.253,1937,742.253Z"/><path class="at" d="M1931.16,746.828l-.014.015-6.388.662-1.6-.72-.014.015-2.13.705c-2.877-2.6-3.208-7.539-3.237-9.136v-.518l1.022-2,1.525.345,7.006-.777,2.187-1.4s-3.87,3.438-3.971,3.913S1930.2,746.354,1931.16,746.828Z"/><g class="au"><path class="av" d="M1847.166,711.014l-.859-.077,2.3-25.391-2.083-1.634,1.556-1.745c-.539-2.5-5.574-26.023-6.943-36.461-1.451-11.067,2.473-21.372,2.514-21.475l.8.312c-.038.1-3.883,10.208-2.461,21.05,1.434,10.942,6.921,36.352,6.976,36.607l.047.214-1.236,1.386,1.729,1.357Z"/></g><path class="aw" d="M1997.125,825.382s-7.812-.719-12.718.734-9.553,6.445-9.553,6.445-10.517-12.862-20.444-46.513c-.2-.7-.417-1.4-.619-2.072l-.014-.015c-10.157-33.421-20.6-42.772-20.6-42.772l-.936.489-2.287-2.921.762-2.69,3.324-.691a19.806,19.806,0,0,1,5.222,4.1c6.877,7.366,11.74,21.091,23.466,40.341C1977.17,803.528,1997.125,825.382,1997.125,825.382Z"/><path class="ax" d="M1830.2,668.144s2.186,2.205,5.932.419,9.848-5.57,15.769-15.673,10.5-30.136,10.5-30.136l14.618-20.89-4.748,1.985-6.186,2-29.957,29.713-10.013,33,1.749,3.078,2.763-2.045Z"/><path class="am" d="M1953.793,783.971c-.369-1.173-6.465,14.652-18.051,26.237,0,0-2.18,32.167,12.267,48.931h1.5l2.317-3.134,6.952,10.449,16.083-33.893S1965.319,820.7,1953.793,783.971Z"/><path class="af" d="M1929.52,734.024s-3.6-.717-4.31-1.316-2.678-6.459-2.416-8.709a18.775,18.775,0,0,0,1.363,9.587l-4.285,2.507,7.461-.674Z"/><path class="af" d="M1920.154,719.709l-.863,3.5s6.445-7.323,12.891-8.582l-.546-.812S1925.647,713.487,1920.154,719.709Z"/><path class="af" d="M1923.161,746.785s-3.059-6.26-3.093-7.657a16.156,16.156,0,0,1,.259-2.932,20.719,20.719,0,0,0-.668,3.069C1919.557,740.423,1923.161,746.785,1923.161,746.785Z"/><path class="af" d="M1927.832,747.186s-4.766-6.115-4.936-7.785a13.229,13.229,0,0,1,.265-3.6,18.537,18.537,0,0,0,.348,3.843C1923.918,741.624,1927.832,747.186,1927.832,747.186Z"/><path class="af" d="M1927.333,735.419l-1.784,2.518.187-2.374Z"/><path class="ay" d="M1872.274,603.849s2.762-1.309,4.748-1.985l-14.618,20.89s-6.675,25.926-13.077,34.385-13.193,11.424-13.193,11.424V684.82l14.142-1.237,23.12-5.726-1.856,2.589s-16.214,1.511-22.487,4.906l-24.386,13.294c3.525-4.216,6.661-8.388,8.172-11.51l-1.77-1.367,2.863-3.28s-3.827-19.581-15.638-46.83l-2.173-12.9s25.077-12.718,49.967-16.905Z"/><path class="az" d="M1901.839,700.128c.475.877,7.079,13.078,11.985,19.422-4.748-5.683-15.682-19.911-20.2-35.277,0,0-.82-12.344-4.229-22.458a49.221,49.221,0,0,0-9.4-16.531s-9.136,18.818-9.136,30.127c0,0-.4-23.725,1.64-33.119,0,0-7.064-10.82-8.5-17.869.317.705,5.453,12,10.129,16.1l2.805-1.784s-4.129-26.875.087-36.874a5.44,5.44,0,0,1,1.683-.4s-4.158,19.149,0,34.831l6.057,10.359s16.185,20.818,12.3,21.912c-3.985,1.122-1.4,13.8,3.784,24.429,5.093,10.459,15.7,18.948,16.013,19.207C1916.414,712.026,1909.364,708.933,1901.839,700.128Z"/><path class="ba" d="M1872.274,603.849l-6.186,2c-.144.374-.274.734-.418,1.094-1.064,2.762-2.143,5.438-3.266,8.013-17.466,40.37-41.017,58.858-41.017,58.858-1.439,2.2-1.856,5.927-1.942,7.093a3.206,3.206,0,0,0-.029.359h-.892c-.13-5.481,2.431-13.394,2.575-13.869a50.586,50.586,0,0,0-4.345,13.6,23.671,23.671,0,0,1-10.632,7.093l.547-9.956a17.526,17.526,0,0,1-7.812,2.043s7.812-6.906,9.265-12.172,4.273-41.521,5.093-44.11,6.5-7.194,6.5-7.194l.043-1.985c.734-24.89,7.352-48.212,7.352-48.212a37.5,37.5,0,0,1,19.149-14.6.053.053,0,0,0,.029-.014h1.453s4.877-2.273,9.495-1.467c9.769,1.726,15.035,10.732,15.035,10.732A199.651,199.651,0,0,1,1872.274,603.849Z"/><path class="bb" d="M1847.739,551.876a10.919,10.919,0,0,1,7.632-.908c4.544,1,9.541,7.542,11.359,10.449s2.151,34.027-5.172,55.473-43.169,51.295-44.8,53.339-8.314,16.972-8.314,16.972l-2.317.883s.136-8.587,1.5-12.4,11.217-7.905,28.507-27.668,27.785-49.613,29.42-68.968-8.822-25.528-11.858-26.851A8.957,8.957,0,0,0,1847.739,551.876Z"/><path class="bc" d="M1810.8,672.025s4.048-6.157,4.048-18.969-1.609-27.188,0-30.3,8.56-6.776,8.56-6.776-1.6-23.552.94-37.843c0,0-4.584,14.542-4.184,37.645,0,0-5.861,5.52-6.951,8.109s.267,19.463-4.365,49.963Z"/><path class="bd" d="M1832.023,560.655s-3.9,6.123-5.089,24.933-.367,27.8-1.458,29.167-7.391,3.185-9.359,8,2.31,20.617,1.318,32.621-7.5,18.477-7.5,18.477l12.849-12.038a171.382,171.382,0,0,1-4.807-20.41c-2.325-12.8-1.427-16.675-.341-19.423s12.88-7.428,13.7-8.723-1.958-13.819-2.389-29.689S1832.023,560.655,1832.023,560.655Z"/><path class="be" d="M1872.272,561.145s-1.135,26.8-6.178,44.706l6.178-2S1874.635,577.182,1872.272,561.145Z"/><path class="bf" d="M1821.842,659.189s15.476-11.121,23.867-24.143a128.18,128.18,0,0,1-22.922,26.766Z"/><path class="bg" d="M1862.4,614.956c-17.466,40.37-41.017,58.858-41.017,58.858-1.439,2.2-1.856,5.927-1.942,7.093l-.591.359h-.33c-.13-5.481,2.431-13.394,2.575-13.869a50.586,50.586,0,0,0-4.345,13.6,23.671,23.671,0,0,1-10.632,7.093l.547-9.956a17.526,17.526,0,0,1-7.812,2.043s7.812-6.906,9.265-12.172,4.273-41.521,5.093-44.11a58.307,58.307,0,0,0,1.05,11.15l1.338-9.05s1.4,11.093,2.921,18.286c0,0,1.6-11.682,3.323-16.372a40.95,40.95,0,0,1,2.5-5.971,21.971,21.971,0,0,0,0,6.546s22.515-2.532,28.86-7.136c0,0-6.992,12.718-10.531,18.372.589-.561,10.171-9.653,16.6-19.322A52.027,52.027,0,0,0,1862.4,614.956Z"/><path class="bh" d="M1860.333,557.393a2.586,2.586,0,0,0-.331-.345A2.715,2.715,0,0,1,1860.333,557.393Z"/><path class="bg" d="M1872.274,603.849l-6.186,2c-.144.374-.274.734-.418,1.094a58.042,58.042,0,0,0,2.158-8.259s-2.028-7.97-4.014-8.258a137.009,137.009,0,0,1-5.985,21.423s-9.452,3.726-17.307,3.812c-7.87.1-20.358.115-20.358.115l-.4-1.064c.734-24.89,7.352-48.212,7.352-48.212s-.5,7.007.647,10.4l2.259-9.222.086,5.554,2.82,1.812s.95-9.9,3.209-13.9c2.1-3.755,9.193-8.618,10.07-9.207-.748.633-6.359,5.4-8.071,9.207-1.841,4.086-2,10.359-2,10.359s5.51,1.453,9.236-.547l2.316-18.5c-.187,2.648-.906,13.611-.043,18.143,0,0,9.179-.274,14.819-3.64,0,0,.719-6.316-2.115-9.553,1.021,1.136,3.582,4.791,5.179,13.739l2.3-4.819,4.446-5.18A199.651,199.651,0,0,1,1872.274,603.849Z"/><path class="bi" d="M1832.023,560.655l-2.117,3.125h5.136a65.344,65.344,0,0,0-1.515,6.74l-3.734-.879-2.68-3.141A60.281,60.281,0,0,1,1832.023,560.655Z"/><path class="bb" d="M1836.975,564.8h9.166l-.771,6.155s-5.03,1.911-9.236.547Z"/><path class="bb" d="M1847.232,564.8s9.671.562,15.175-1.958l.055,4.114a26.521,26.521,0,0,1-14.819,3.64Z"/><path class="bi" d="M1865.41,559.478l3.617-2.43,3.247,4.1-4.446,5.18S1866.875,561.366,1865.41,559.478Z"/><path class="bi" d="M1816.595,621.788l1.044.191s.618-1.828,7.005-4.935l-2.105-.419S1817.765,618.905,1816.595,621.788Z"/><path class="bi" d="M1822.4,621.842a154.845,154.845,0,0,0,20.791-.374l2.079-4.215s-8.246.043-18.3,0C1826.969,617.253,1822.775,619.642,1822.4,621.842Z"/><path class="bj" d="M1856.982,612.693l7-4.35-3.5,9.5-8.838,6.542S1856.139,617.263,1856.982,612.693Z"/><path class="bk" d="M1827.113,566.5s-5.588,21.254-10.518,41.843-10.473,25.313-12.018,30.31,3.527,24.491,2.181,29.441-5.366,9.629-5.366,9.629,3.977-2.084,6.08-8.037-3.359-22.627-.532-31.941,8.041-19.082,10.813-25.67,5.724-25.215,5.724-25.215Z"/><path class="bk" d="M1865.67,606.943s-7.482,26.084-14.024,41.486-24.533,20.133-24.533,20.133l2.18-2.2a46.454,46.454,0,0,0,20.354-18.536c8.087-13.63,10.837-29.986,10.837-29.986Z"/><path class="bl" d="M1846.912,614.956s14.729-16.556,18.636-35.911c0,0-2.381,18.267-8.323,33.032A95.654,95.654,0,0,1,1846.912,614.956Z"/><path class="bm" d="M1897.034,736.2c-.676,7.223-10.5,19.768-18.128,21.667-7.639,1.914-12.718,0-19.9-.8a22.588,22.588,0,0,0-12.4,2.043s-1.755,6.459-3.8,16.185l-10.618,4.992-1.553-12.732c-11.755.547-19.466-2.316-19.466-2.316a40.9,40.9,0,0,0,17.034,0S1847.284,753.5,1849.6,753.2s11.035,1.122,25.9,0c13.782-1.036,20.544-16.646,21.451-18.905A7.912,7.912,0,0,1,1897.034,736.2Z"/><path class="ax" d="M1801.982,783.909s7.317,53.014,12.271,66.644C1814.253,850.553,1804.383,832.847,1801.982,783.909Z"/><path class="bn" d="M1801.156,909.853s4.33,17.754,7.056,22.479,9.189,6.452,9.189,6.452-5.009.363-7.19-.455-3.781-6.6-3.781-6.6S1802.556,919.036,1801.156,909.853Z"/><path class="bo" d="M1798.31,880.269s4.709-12.956,9.807-15.269,13.816-2.907,13.816-2.907.908,8.9,0,35.074-7.68,34.711-7.68,34.711S1799.039,923.524,1798.31,880.269Z"/><path class="bp" d="M1949.508,859.139s12.267-24.124,18.673-31.212c0,0-16.219-33.938-16.083-36.119a62.713,62.713,0,0,1,1.695-7.837l.816,2.568a25.315,25.315,0,0,0-.875,5.4c0,2.249,16.4,35.71,16.4,35.71l-17.751,29.19Z"/><path class="bq" d="M1974.86,832.561s-1.363-18.991,0-22.353,22.262,15.175,22.262,15.175S1982.947,818.295,1974.86,832.561Z"/><path class="bp" d="M1997.122,825.383l-27.623,38.89-10.722,2.181s9.813-22.716,16.083-33.893C1974.86,832.561,1979.131,819.022,1997.122,825.383Z"/><path class="bn" d="M1974.86,810.208a62.9,62.9,0,0,1-13.731-25.284l.1-6.065s23.013,34.94,31,42.322C1992.227,821.181,1978.949,809.39,1974.86,810.208Z"/><path class="br" d="M1949.508,852.1l-2.181-4.326,11.449-18.754,2.352,3.544Z"/><path class="ax" d="M1880,645.284l-3.065-6.546-2.805,1.784a57.378,57.378,0,0,1-7.215-10.264s3.367,8.585,5.589,12.034l.032,22.718S1877.005,650.643,1880,645.284Z"/><path class="ax" d="M1831.069,685.769l19.207-2.186v1.183s-13.618,4.057-17.437,2.37Z"/><path class="bo" d="M1873.411,704.027a69.427,69.427,0,0,1-24.473,10.286l-2.2-3.337-4.086,4.244c-.748.072-1.511.129-2.288.158-18.43.777-26.112-2.086-26.112-2.086s13.351-15.581,25.407-22.818c12.071-7.251,31.321-8.517,31.321-8.517S1875.54,697.078,1873.411,704.027Z"/><path class="an" d="M1808.438,716.155a89.5,89.5,0,0,0,29.938,1.1l8.52-8.039,4.682,6.49a60.373,60.373,0,0,1,34.551-8.4l-.811,1.291-.959-1.162s-15.535.419-33.392,9.956l-4.23-6.416-7.079,7.366S1819.478,721.873,1808.438,716.155Z"/><path class="bs" d="M1878.7,601.461l-.914,5.482a82,82,0,0,1,15.835,19.048,113.974,113.974,0,0,1,9.418,19.518S1894.258,610.75,1878.7,601.461Z"/><path class="bt" d="M1910.976,667.681s4.832,20.676,9.347,28.854,13.2,13.088,13.2,13.088A210.829,210.829,0,0,1,1910.976,667.681Z"/><path class="bu" d="M1831.386,861.005s-6,6.332-6.682,27.071a186.174,186.174,0,0,0,3.747,40.749l1.381-1.223S1827.453,893.691,1831.386,861.005Z"/><path class="bv" d="M1832.379,1006.573l-3.353-9.092s-5.726-25.437-5.726-29.983,1.9-12.819,1.9-12.819.461,5.323,1.18,13.812c.777,8.977,1.007,21.911,3.453,28.357S1832.379,1006.573,1832.379,1006.573Z"/><path class="am" d="M1953.791,783.976l-.014-.015c-10.157-33.421-20.6-42.772-20.6-42.772l-.936.489-2.287-2.921.762-2.69,3.324-.691a19.806,19.806,0,0,1,5.222,4.1l-3.107,2.776S1950.166,763.115,1953.791,783.976Z"/><path class="bw" d="M1849.053,551.6s3.2-2.245,10.621.345c8.154,2.844,11.142,10.906,11.142,10.906s3.234,20.7,1.777,38.008c0,0,2.317-24.165-.319-39.707,0,0-4.666-7.75-12.272-10.022S1849.053,551.6,1849.053,551.6Z"/><path class="bm" d="M1825.646,981.665l-21.124,3.959.6-15.029,16.535.037A37.7,37.7,0,0,1,1825.646,981.665Z"/><path class="bx" d="M1805.125,970.595s4.632,21.89,5.631,35.974h4.725s1.545-24.352,6.179-35.937c0,0-2.542-6.043-8.267-5.952s-8.268,2.363-8.268,2.363Z"/><path class="bm" d="M1876.856,846.758l-17.2,10.326s1.118-8.961,2.651-12.447,15.222-5.149,15.222-5.149Z"/><path class="bx" d="M1862.3,844.637s4.467,8.839,5.356,26.1l4.628-.127s1.931-26.41,5.238-31.123c0,0-1.739-3.225-7.368-2.6C1863.994,837.563,1862.3,844.637,1862.3,844.637Z"/><path class="by" d="M1879.915,763.75a76.012,76.012,0,0,1,.7,16.528c-.636,8.85-2.129,20.943-2.129,20.943s4.524-17,4.689-22.885S1879.915,763.75,1879.915,763.75Z"/><path class="bz" d="M1940.384,740.764a237.655,237.655,0,0,1,16.675,33.021c7.156,17.8,40.063,51.6,40.063,51.6s-22.99-25.9-35.993-48.223C1957.186,770.389,1946.094,748.064,1940.384,740.764Z"/><path class="ca" d="M1809.388,857.192s-5.553,13.806-7.406,26.986c-1.948,13.851,3.4,44.256,3.4,44.256s-8.546-31.449-7.076-48.165C1799.748,873.633,1808.9,860.23,1809.388,857.192Z"/><path class="cb" d="M1854.376,757s9.625,26.976,1.9,51.161C1856.275,808.161,1856.03,764.308,1854.376,757Z"/></g></svg>