<svg xmlns="http://www.w3.org/2000/svg" width="122" height="122" viewBox="0 0 122 122"><defs><style>.a,.e{fill:none;}.a{stroke:#35495e;stroke-width:3px;}.b{fill:#47ae99;}.c{fill:#304051;}.d{stroke:none;}</style></defs><g class="a"><circle class="d" cx="61" cy="61" r="61"/><circle class="e" cx="61" cy="61" r="59.5"/></g><g transform="translate(13.303 29.495)"><path class="b" d="M1552.523,625.991l.992,13.637c2.039.138,4.008.272,5.977.4s3.955.238,5.929.4a3.263,3.263,0,0,1,3.254,2.846q1.722,8.931,3.37,17.876a3.079,3.079,0,0,1-2.311,3.59,2.6,2.6,0,0,1-3.447-1.757c-.8-2.281-1.369-4.647-1.986-6.989-.561-2.128-1.063-4.272-1.572-6.413a.906.906,0,0,0-1.055-.8c-3.964.03-7.927.024-11.891,0a15.378,15.378,0,0,1-2.671-.2,5.816,5.816,0,0,1-5.079-5.549c-.317-3.755-.5-7.522-.76-11.283-.186-2.677-.434-5.349-.61-8.026-.317-4.82,2.889-7.7,7.655-6.78a13.868,13.868,0,0,1,3.727,1.407c1.807.948,3.48,2.153,5.292,3.09a7.215,7.215,0,0,0,2.893.747c2.233.107,4.474.009,6.711.038,2.444.032,4.022,2.071,3.224,4.158a3.082,3.082,0,0,1-3.068,2.053c-3.132.014-6.273.049-9.392-.178a11.644,11.644,0,0,1-3.439-1.347C1553.721,626.673,1553.208,626.356,1552.523,625.991Z" transform="translate(-1530.773 -601.885)"/><path class="b" d="M1788.248,659.559c-2.141,0-4.283.038-6.423-.021a1.047,1.047,0,0,0-1.252.936q-1.227,5.265-2.505,10.517a16.905,16.905,0,0,1-.738,2.371c-.722,1.772-2.02,2.468-3.609,2.009a3.027,3.027,0,0,1-2.251-3.768c.31-1.662.662-3.316.974-4.977.754-4.013,1.511-8.025,2.234-12.044a3.632,3.632,0,0,1,3.805-3.424c3.411-.215,6.822-.448,10.236-.609.964-.046,1.249-.377,1.3-1.352.263-4.684.535-9.371.979-14.041a5.45,5.45,0,0,1,5.937-5.119,5.6,5.6,0,0,1,5.322,5.515c.058,2.513-.246,5.035-.377,7.553-.176,3.381-.248,6.771-.534,10.143-.352,4.144-2.69,6.218-6.871,6.288-2.077.035-4.154.006-6.231.006Z" transform="translate(-1717.165 -612.596)"/><path class="c" d="M1661.472,690.267q7.96,0,15.92,0a2.444,2.444,0,0,1,2.591,2.079,2.347,2.347,0,0,1-1.6,2.453,4.662,4.662,0,0,1-1.324.144c-3.037.013-6.073.009-9.11.01-.831,0-1.664.034-2.493-.011-.8-.043-1.023.282-1.02,1.066.026,6.713.014,13.426.013,20.139,0,1.151.018,2.3-.01,3.452-.025,1.008-.409,1.374-1.412,1.392-.927.017-1.854.007-2.781.009-1.43,0-1.765-.316-1.768-1.721q-.009-4.028,0-8.056c0-4.987-.019-9.974.02-14.961.007-.9-.222-1.208-1.165-1.2-3.931.05-7.864.028-11.8.016a2.367,2.367,0,0,1-2.618-2.6,2.412,2.412,0,0,1,2.635-2.216c4.475-.012,8.951-.007,13.426-.009h2.493Z" transform="translate(-1613.385 -661.247)"/><path class="c" d="M1508.874,696.292a21.011,21.011,0,0,1-7.727-1.12,14.261,14.261,0,0,1-9.544-11.924q-1.125-7.32-2.257-14.639a2.741,2.741,0,0,1,2.23-3.26,2.693,2.693,0,0,1,2.951,2.383c.776,4.874,1.587,9.744,2.282,14.631.708,4.977,4.169,8.306,9.206,8.447,3.31.092,6.628-.07,9.942-.149,1.28-.03,2.439.143,3.135,1.382a2.56,2.56,0,0,1-2.086,3.855C1514.3,696.051,1511.585,696.162,1508.874,696.292Z" transform="translate(-1489.306 -641.096)"/><path class="c" d="M1840.878,696.163c-3.351-.168-5.868-.3-8.386-.417a2.7,2.7,0,0,1-2.762-2.6,2.745,2.745,0,0,1,2.757-2.646c1.785,0,3.571.243,5.354.221a39.338,39.338,0,0,0,7.323-.389,8.437,8.437,0,0,0,6.946-7.283c.885-5.017,1.582-10.067,2.335-15.107.223-1.493.973-2.545,2.1-2.782a2.612,2.612,0,0,1,3.108,2.917c-.5,3.465-1.056,6.923-1.61,10.38a62.351,62.351,0,0,1-1.182,6.765c-1.557,5.633-5.418,8.966-11.037,10.25A47.968,47.968,0,0,1,1840.878,696.163Z" transform="translate(-1764.289 -640.926)"/><path class="b" d="M1543.878,551.2a5.775,5.775,0,0,1-5.9-5.878,5.915,5.915,0,1,1,11.828.045A5.732,5.732,0,0,1,1543.878,551.2Z" transform="translate(-1528.621 -539.332)"/><path class="b" d="M1879.809,553.1a5.793,5.793,0,0,1,5.815,5.952,5.882,5.882,0,0,1-11.764-.119A5.812,5.812,0,0,1,1879.809,553.1Z" transform="translate(-1799.936 -550.452)"/><path class="c" d="M1720.119,619.138q-3.211,0-6.423,0c-1.388,0-1.984-.457-1.988-1.5s.717-1.615,2.047-1.618c3.675-.008,7.35-.025,11.024.016a1.591,1.591,0,0,0,1.586-.908c1.681-2.826,3.412-5.624,5.159-8.41.257-.41.67-.958,1.056-1a2.565,2.565,0,0,1,1.792.473c.578.508.366,1.288-.032,1.936-1.857,3.019-3.805,5.987-5.528,9.081a3.2,3.2,0,0,1-3.521,1.966A51.707,51.707,0,0,0,1720.119,619.138Z" transform="translate(-1668.956 -592.948)"/></g></svg>