<svg xmlns="http://www.w3.org/2000/svg" width="391.086" height="373.848" viewBox="0 0 391.086 373.848"><defs><style>.a{fill:#00a1a4;}.b,.h,.k{fill:#fff;}.b{opacity:0.7;}.c{opacity:0.3;}.d,.e,.i,.n{fill:none;}.d{stroke:#000;}.d,.e,.f,.i,.j,.k,.l,.m,.n{stroke-linecap:round;stroke-linejoin:round;}.e{stroke:#adadad;}.f{fill:#1a2e35;}.f,.i,.j,.k,.l,.m{stroke:#1a2e35;}.g{opacity:0.47;}.j{fill:#8c8c8c;}.l{fill:#dbdbdb;}.m{fill:#9e9e9e;}.n{stroke:#fff;}</style></defs><g transform="translate(0.5 0.5)"><g transform="translate(6.86 13.965)"><path class="a" d="M418.45,425.876s13.88-91.483-24.606-146.374c-66.8-95.28-181.074-83.282-231.547-56.782s-56.783,97.161-48.581,131.231-15.773,52.366-33.439,83.281-8.833,67.509,8.2,87.067,103.47,54.259,217.036,22.713S418.45,425.876,418.45,425.876Z" transform="translate(-70.613 -203.819)"/><path class="b" d="M418.45,425.876s13.88-91.483-24.606-146.374c-66.8-95.28-181.074-83.282-231.547-56.782s-56.783,97.161-48.581,131.231-15.773,52.366-33.439,83.281-8.833,67.509,8.2,87.067,103.47,54.259,217.036,22.713S418.45,425.876,418.45,425.876Z" transform="translate(-70.613 -203.819)"/></g><g class="c" transform="translate(13.789 156.488)"><rect class="d" width="145.844" height="198.548" transform="translate(0 17.811)"/><g transform="translate(4.089 25.535)"><rect class="d" width="10.265" height="11.813"/><rect class="d" width="10.265" height="11.813" transform="translate(15.641)"/><rect class="d" width="10.265" height="11.813" transform="translate(31.282)"/><rect class="d" width="10.265" height="11.813" transform="translate(46.924)"/><rect class="d" width="10.265" height="11.813" transform="translate(62.565)"/><rect class="d" width="10.265" height="11.813" transform="translate(78.206)"/><rect class="d" width="10.265" height="11.813" transform="translate(93.847)"/><rect class="d" width="10.265" height="11.813" transform="translate(109.488)"/><rect class="d" width="10.265" height="11.813" transform="translate(125.13)"/></g><g transform="translate(4.089 45.526)"><rect class="d" width="10.265" height="11.813"/><rect class="d" width="10.265" height="11.813" transform="translate(15.641)"/><rect class="d" width="10.265" height="11.813" transform="translate(31.282)"/><rect class="d" width="10.265" height="11.813" transform="translate(46.924)"/><rect class="d" width="10.265" height="11.813" transform="translate(62.565)"/><rect class="d" width="10.265" height="11.813" transform="translate(78.206)"/><rect class="d" width="10.265" height="11.813" transform="translate(93.847)"/><rect class="d" width="10.265" height="11.813" transform="translate(109.488)"/><rect class="d" width="10.265" height="11.813" transform="translate(125.13)"/></g><g transform="translate(4.089 65.517)"><rect class="d" width="10.265" height="11.813"/><rect class="d" width="10.265" height="11.813" transform="translate(15.641)"/><rect class="d" width="10.265" height="11.813" transform="translate(31.282)"/><rect class="d" width="10.265" height="11.813" transform="translate(46.924)"/><rect class="d" width="10.265" height="11.813" transform="translate(62.565)"/><rect class="d" width="10.265" height="11.813" transform="translate(78.206)"/><rect class="d" width="10.265" height="11.813" transform="translate(93.847)"/><rect class="d" width="10.265" height="11.813" transform="translate(109.488)"/><rect class="d" width="10.265" height="11.813" transform="translate(125.13)"/></g><g transform="translate(4.089 85.508)"><rect class="d" width="10.265" height="11.813"/><rect class="d" width="10.265" height="11.813" transform="translate(15.641)"/><rect class="d" width="10.265" height="11.813" transform="translate(31.282)"/><rect class="d" width="10.265" height="11.813" transform="translate(46.924)"/><rect class="d" width="10.265" height="11.813" transform="translate(62.565)"/><rect class="d" width="10.265" height="11.813" transform="translate(78.206)"/><rect class="d" width="10.265" height="11.813" transform="translate(93.847)"/><rect class="d" width="10.265" height="11.813" transform="translate(109.488)"/><rect class="d" width="10.265" height="11.813" transform="translate(125.13)"/></g><g transform="translate(4.089 105.499)"><rect class="d" width="10.265" height="11.813"/><rect class="d" width="10.265" height="11.813" transform="translate(15.641)"/><rect class="d" width="10.265" height="11.813" transform="translate(31.282)"/><rect class="d" width="10.265" height="11.813" transform="translate(46.924)"/><rect class="d" width="10.265" height="11.813" transform="translate(62.565)"/><rect class="d" width="10.265" height="11.813" transform="translate(78.206)"/><rect class="d" width="10.265" height="11.813" transform="translate(93.847)"/><rect class="d" width="10.265" height="11.813" transform="translate(109.488)"/><rect class="d" width="10.265" height="11.813" transform="translate(125.13)"/></g><g transform="translate(4.089 125.491)"><rect class="d" width="10.265" height="11.813"/><rect class="d" width="10.265" height="11.813" transform="translate(15.641)"/><rect class="d" width="10.265" height="11.813" transform="translate(31.282)"/><rect class="d" width="10.265" height="11.813" transform="translate(46.924)"/><rect class="d" width="10.265" height="11.813" transform="translate(62.565)"/><rect class="d" width="10.265" height="11.813" transform="translate(78.206)"/><rect class="d" width="10.265" height="11.813" transform="translate(93.847)"/><rect class="d" width="10.265" height="11.813" transform="translate(109.488)"/><rect class="d" width="10.265" height="11.813" transform="translate(125.13)"/></g><g transform="translate(4.089 145.482)"><rect class="d" width="10.265" height="11.813"/><rect class="d" width="10.265" height="11.813" transform="translate(15.641)"/><rect class="d" width="10.265" height="11.813" transform="translate(31.282)"/><rect class="d" width="10.265" height="11.813" transform="translate(46.924)"/><rect class="d" width="10.265" height="11.813" transform="translate(62.565)"/><rect class="d" width="10.265" height="11.813" transform="translate(78.206)"/><rect class="d" width="10.265" height="11.813" transform="translate(93.847)"/><rect class="d" width="10.265" height="11.813" transform="translate(109.488)"/><rect class="d" width="10.265" height="11.813" transform="translate(125.13)"/></g><g transform="translate(4.089 165.473)"><rect class="d" width="10.265" height="11.813"/><rect class="d" width="10.265" height="11.813" transform="translate(15.641)"/><rect class="d" width="10.265" height="11.813" transform="translate(31.282)"/><rect class="d" width="10.265" height="11.813" transform="translate(46.924)"/><rect class="d" width="10.265" height="11.813" transform="translate(62.565)"/><rect class="d" width="10.265" height="11.813" transform="translate(78.206)"/><rect class="d" width="10.265" height="11.813" transform="translate(93.847)"/><rect class="d" width="10.265" height="11.813" transform="translate(109.488)"/><rect class="d" width="10.265" height="11.813" transform="translate(125.13)"/></g><g transform="translate(4.089 185.464)"><rect class="d" width="10.265" height="11.813"/><rect class="d" width="10.265" height="11.813" transform="translate(15.641)"/><rect class="d" width="10.265" height="11.813" transform="translate(31.282)"/><rect class="d" width="10.265" height="11.813" transform="translate(46.924)"/><rect class="d" width="10.265" height="11.813" transform="translate(62.565)"/><rect class="d" width="10.265" height="11.813" transform="translate(78.206)"/><rect class="d" width="10.265" height="11.813" transform="translate(93.847)"/><rect class="d" width="10.265" height="11.813" transform="translate(109.488)"/><rect class="d" width="10.265" height="11.813" transform="translate(125.13)"/></g><rect class="d" width="81.159" height="12.428" transform="translate(14.416 5.273)"/><rect class="d" width="2.26" height="18.077" transform="translate(100.095)"/></g><g class="c" transform="translate(101.438 42.288)"><path class="d" d="M183.024,356.623V245.5H336.836v74.637h115.9V561.945" transform="translate(-183.024 -238.755)"/><line class="d" y2="192.558" transform="translate(153.095 88.734)"/><line class="d" y2="192.558" transform="translate(184.484 88.734)"/><line class="d" y2="192.558" transform="translate(192.331 88.734)"/><line class="d" y2="192.558" transform="translate(233.378 88.734)"/><line class="d" y2="192.558" transform="translate(241.225 88.734)"/><line class="d" y2="269.823" transform="translate(125.931 13.883)"/><line class="d" x2="21.127" transform="translate(126.535 31.992)"/><line class="d" x2="21.127" transform="translate(126.535 64.588)"/><line class="d" x2="21.127" transform="translate(126.535 97.185)"/><line class="d" x2="21.127" transform="translate(126.535 129.781)"/><line class="d" x2="21.127" transform="translate(126.535 162.377)"/><line class="d" x2="21.127" transform="translate(126.535 194.973)"/><line class="d" x2="21.127" transform="translate(126.535 227.569)"/><g transform="translate(5.809 29.578)"><rect class="d" width="20.523" height="6.64"/><rect class="d" width="20.523" height="6.64" transform="translate(28.974)"/><rect class="d" width="20.523" height="6.64" transform="translate(57.949)"/><rect class="d" width="20.523" height="6.64" transform="translate(86.923)"/></g><g transform="translate(5.809 46.178)"><rect class="d" width="20.523" height="6.64"/><rect class="d" width="20.523" height="6.64" transform="translate(28.974)"/><rect class="d" width="20.523" height="6.64" transform="translate(57.949)"/><rect class="d" width="20.523" height="6.64" transform="translate(86.923)"/></g><g transform="translate(5.809 62.778)"><rect class="d" width="20.523" height="6.64"/><rect class="d" width="20.523" height="6.64" transform="translate(28.974)"/><rect class="d" width="20.523" height="6.64" transform="translate(57.949)"/><rect class="d" width="20.523" height="6.64" transform="translate(86.923)"/></g><g transform="translate(5.809 79.377)"><rect class="d" width="20.523" height="6.64"/><rect class="d" width="20.523" height="6.64" transform="translate(28.974)"/><rect class="d" width="20.523" height="6.64" transform="translate(57.949)"/><rect class="d" width="20.523" height="6.64" transform="translate(86.923)"/></g><g transform="translate(5.809 95.977)"><rect class="d" width="20.523" height="6.64"/><rect class="d" width="20.523" height="6.64" transform="translate(28.974)"/><rect class="d" width="20.523" height="6.64" transform="translate(57.949)"/><rect class="d" width="20.523" height="6.64" transform="translate(86.923)"/></g><g transform="translate(34.783 112.577)"><rect class="d" width="20.523" height="6.64"/><rect class="d" width="20.523" height="6.64" transform="translate(28.974)"/><rect class="d" width="20.523" height="6.64" transform="translate(57.949)"/></g><g transform="translate(63.757 131.592)"><rect class="d" width="20.523" height="6.64"/><rect class="d" width="20.523" height="6.64" transform="translate(28.974)"/></g><g transform="translate(63.757 149.701)"><rect class="d" width="20.523" height="6.64"/><rect class="d" width="20.523" height="6.64" transform="translate(28.974)"/></g><g transform="translate(63.757 167.809)"><rect class="d" width="20.523" height="6.64"/><rect class="d" width="20.523" height="6.64" transform="translate(28.974)"/></g><g transform="translate(63.757 185.918)"><rect class="d" width="20.523" height="6.64"/><rect class="d" width="20.523" height="6.64" transform="translate(28.974)"/></g><g transform="translate(63.757 204.027)"><rect class="d" width="20.523" height="6.64"/><rect class="d" width="20.523" height="6.64" transform="translate(28.974)"/></g><g transform="translate(63.757 222.136)"><rect class="d" width="20.523" height="6.64"/><rect class="d" width="20.523" height="6.64" transform="translate(28.974)"/></g><g transform="translate(63.757 240.245)"><rect class="d" width="20.523" height="6.64"/><rect class="d" width="20.523" height="6.64" transform="translate(28.974)"/></g><g transform="translate(63.757 258.354)"><rect class="d" width="20.523" height="6.64"/><rect class="d" width="20.523" height="6.64" transform="translate(28.974)"/></g><g transform="translate(63.757 276.463)"><rect class="d" width="20.523" height="6.64"/><rect class="d" width="20.523" height="6.64" transform="translate(28.974)"/></g><path class="d" d="M366.42,307.075h59.156V329.41" transform="translate(-212.118 -248.523)"/><path class="d" d="M191.363,244.123v-6.64H304.845v6.64" transform="translate(-184.347 -237.483)"/></g><path class="e" d="M131.132,306.121s-1.6-8.273-8.807-11.209-11.743.8-12.811,3.47-1.334,7.206-5.338,5.338-5.6-4-10.675-1.868-3.47,6.672-7.206,7.473-2.4-1.334-6.405-.8-3.736,2.936-4.8,4.27-1.067.268-4.8.8a11.788,11.788,0,0,0-6.139,2.936h82.467s2.135-4.27-3.47-7.473S132.733,309.324,131.132,306.121Z" transform="translate(-62.727 -204.135)"/><path class="e" d="M173.249,208.973s-.691-3.568-3.8-4.834-5.065.345-5.525,1.5-.576,3.108-2.3,2.3-2.417-1.726-4.6-.806-1.5,2.877-3.108,3.223-1.037-.576-2.763-.346-1.611,1.266-2.071,1.842-.461.115-2.072.346a5.09,5.09,0,0,0-2.648,1.266h35.569s.92-1.842-1.5-3.223S173.939,210.355,173.249,208.973Z" transform="translate(-75.452 -189.832)"/><path class="e" d="M371.333,228.19s-.691-3.568-3.8-4.834-5.065.346-5.525,1.5-.576,3.108-2.3,2.3-2.417-1.726-4.6-.806-1.5,2.878-3.108,3.223-1.036-.576-2.762-.345-1.612,1.266-2.072,1.842-.46.114-2.072.345a5.086,5.086,0,0,0-2.647,1.266h35.568s.921-1.842-1.5-3.223S372.024,229.572,371.333,228.19Z" transform="translate(-106.876 -192.88)"/><g transform="translate(289.771)"><g transform="translate(2.382)"><g transform="translate(5.662 75.792)"><path class="f" d="M468.393,284.352h-48.44a3.524,3.524,0,0,1,0-7.048h48.44a3.524,3.524,0,0,1,0,7.048Z" transform="translate(-416.429 -277.304)"/></g><g transform="translate(0 80.614)"><path class="f" d="M469.173,347.492l-57.12-57.12c-2.294-2.3-3.039-5.271-1.663-6.647s4.352-.632,6.648,1.663l57.119,57.12c2.3,2.294,3.04,5.27,1.663,6.647S471.468,349.787,469.173,347.492Z" transform="translate(-409.7 -283.035)"/></g><g transform="translate(0 80.614)"><path class="f" d="M412.053,342.509l57.12-57.12c2.3-2.3,5.271-3.04,6.647-1.663s.632,4.351-1.663,6.647l-57.119,57.12c-2.3,2.294-5.271,3.04-6.648,1.663S409.759,344.8,412.053,342.509Z" transform="translate(-409.7 -283.035)"/></g><g transform="translate(5.662 8.009)"><path class="f" d="M468.393,203.788h-48.44a3.524,3.524,0,0,1,0-7.048h48.44a3.524,3.524,0,0,1,0,7.048Z" transform="translate(-416.429 -196.74)"/></g><g transform="translate(0 12.83)"><path class="f" d="M469.173,266.928l-57.12-57.12c-2.294-2.3-3.039-5.271-1.663-6.647s4.352-.632,6.648,1.663l57.119,57.119c2.3,2.3,3.04,5.271,1.663,6.648S471.468,269.223,469.173,266.928Z" transform="translate(-409.7 -202.471)"/></g><g transform="translate(0 12.83)"><path class="f" d="M412.053,261.944l57.12-57.119c2.3-2.3,5.271-3.04,6.647-1.663s.632,4.352-1.663,6.647l-57.119,57.12c-2.3,2.294-5.271,3.039-6.648,1.663S409.759,264.239,412.053,261.944Z" transform="translate(-409.7 -202.471)"/></g><g transform="translate(5.662 143.03)"><path class="f" d="M468.393,364.267h-48.44a3.524,3.524,0,1,1,0-7.047h48.44a3.524,3.524,0,0,1,0,7.047Z" transform="translate(-416.429 -357.22)"/></g><g transform="translate(0 147.851)"><path class="f" d="M469.173,427.407l-57.12-57.119c-2.294-2.3-3.039-5.271-1.663-6.648s4.352-.631,6.648,1.663l57.119,57.12c2.3,2.3,3.04,5.271,1.663,6.647S471.468,429.7,469.173,427.407Z" transform="translate(-409.7 -362.951)"/></g><g transform="translate(0 147.851)"><path class="f" d="M412.053,422.424l57.12-57.12c2.3-2.294,5.271-3.039,6.647-1.663s.632,4.352-1.663,6.648l-57.119,57.119c-2.3,2.3-5.271,3.04-6.648,1.663S409.759,424.719,412.053,422.424Z" transform="translate(-409.7 -362.951)"/></g><g transform="translate(5.662 210.267)"><path class="f" d="M468.393,444.183h-48.44a3.524,3.524,0,0,1,0-7.048h48.44a3.524,3.524,0,0,1,0,7.048Z" transform="translate(-416.429 -437.135)"/></g><g transform="translate(0 215.089)"><path class="f" d="M469.173,507.323l-57.12-57.12c-2.294-2.3-3.039-5.271-1.663-6.647s4.352-.632,6.648,1.663l57.119,57.119c2.3,2.3,3.04,5.271,1.663,6.648S471.468,509.618,469.173,507.323Z" transform="translate(-409.7 -442.866)"/></g><g transform="translate(0 215.089)"><path class="f" d="M412.053,502.339l57.12-57.119c2.3-2.3,5.271-3.04,6.647-1.663s.632,4.352-1.663,6.647l-57.119,57.12c-2.3,2.294-5.271,3.04-6.648,1.663S409.759,504.634,412.053,502.339Z" transform="translate(-409.7 -442.866)"/></g><g transform="translate(5.662 277.505)"><path class="f" d="M468.393,524.1h-48.44a3.524,3.524,0,1,1,0-7.047h48.44a3.524,3.524,0,0,1,0,7.047Z" transform="translate(-416.429 -517.051)"/></g><g transform="translate(0 282.326)"><path class="f" d="M469.173,587.238l-57.12-57.12c-2.294-2.294-3.039-5.27-1.663-6.647s4.352-.631,6.648,1.663l57.119,57.12c2.3,2.3,3.04,5.271,1.663,6.647S471.468,589.534,469.173,587.238Z" transform="translate(-409.7 -522.781)"/></g><g transform="translate(0 282.326)"><path class="f" d="M412.053,582.255l57.12-57.12c2.3-2.294,5.271-3.04,6.647-1.663s.632,4.352-1.663,6.647l-57.119,57.12c-2.3,2.3-5.271,3.04-6.648,1.663S409.759,584.55,412.053,582.255Z" transform="translate(-409.7 -522.781)"/></g><rect class="f" width="10.845" height="372.847" transform="translate(56.903)"/></g><rect class="f" width="10.845" height="372.847"/></g><g transform="translate(98.906 56.916)"><g transform="translate(0 58.749)"><g transform="translate(3.858)"><path class="f" d="M276.452,556.442l10.434,51.4h46.128l-5.367-77-2.472-39.688-94.056-2.8-2.267,39.169-.63,80.315h44.644Z" transform="translate(-191.52 -350.658)"/><path class="a" d="M247.9,328.383s-26.291,13.876-32.377,16.8-13.389,5.356-14.849,9.251S187.045,394.11,185.1,398.979s2.434,11.442,2.678,12.9-.974,5.112-.487,6.086a9.178,9.178,0,0,1,1.217,3.895c0,1.461,11.928-6.329,19.474-1.7s12.9,13.389,13.633,15.336a63.216,63.216,0,0,1,2.677,15.579c.244,6.573-2.921,11.442-.73,14.606a13.1,13.1,0,0,0,6.33,4.382s55.26,3.651,67.431,1.7,19.718-2.678,20.935-6.573.973-9.008,1.217-9.981,2.434-19.718,3.407-26.048,7.547-10.954,8.277-11.685,6.329-2.434,13.632-2.921,16.067,5.356,16.067,5.356,4.139.243,5.356-6.329-.974-12.9-3.165-19.961-11.685-23.857-11.685-23.857-.973-5.112-6.816-17.284-8.033-12.9-12.658-13.876-28.7-7.666-35.785-10.224-19.98-3.673-19.98-3.673S253.5,324.246,247.9,328.383Z" transform="translate(-184.6 -324.694)"/><g class="g" transform="translate(0.446 0)"><path class="h" d="M189.171,439.366h2.722c.627-.236,1.339-.506,2.122-.783h-5A6.043,6.043,0,0,1,189.171,439.366Z" transform="translate(-185.747 -342.762)"/><path class="h" d="M234.724,335.35v7.044h-7.249V339.13l-.783.406v2.857h-5.537q-1.093.56-2.055,1.048v6.543h-7.249V346.9l-.783.349v2.737h-5.608a20.38,20.38,0,0,0-1.983,1.279v6.754h-3.987c-.088.252-.178.512-.273.783h4.261v6.809h-6.618q-.134.387-.271.782h6.889v7.25h-7.25v-6.2q-.384,1.113-.783,2.269v3.934h-1.357q-.135.391-.271.783h1.628v6.808h-3.981l-.272.783h4.253v7.249h-6.775l-.274.783h7.049v6.808h-9.465c-.1.282-.2.542-.288.783h9.753v7.25H185.13q.1.4.224.782h10.089v6.809h-7.555c-.007.239-.031.5-.066.783h7.62v6.573q.386-.117.783-.229v-6.345h7.25v5.458c.262.022.523.052.782.091v-5.549h6.809v7.249h-2.459c.39.252.774.511,1.15.783h1.309v1q.4.319.783.65V421.3H219.1v6.808h-2.251c.215.263.431.525.634.783H219.1v2.186c.284.408.542.8.783,1.168V428.89h6.808v7.25h-4.778c.072.231.15.491.232.783h4.546v6.808h-3.085c.041.257.081.521.12.783h2.965v7.25h-2.313c0,.263,0,.525-.01.782h2.323v6.809h-3.352c-.054.267-.1.528-.153.783h3.505v7.25h-1.5a12,12,0,0,0,1,.783h.5v.335c.267.17.528.323.783.463v-.8h7.249v2.187l.783.048v-2.235h6.809V470.8l.783.044v-2.673h7.25v3.057l.783.04v-3.1h6.808v3.419l.783.034v-3.454h7.25v3.747l.783.029v-3.776h6.808v3.992l.783.02v-4.012h7.25v4.147l.783.007v-4.154h6.808V472.3c.263-.005.527-.01.783-.017v-4.108h7.25v3.62c.06-.009.125-.017.182-.026l.6-.1v-3.5h6.809V470.6c.26-.042.53-.085.782-.127v-2.3h7.25v.8q.405-.117.783-.241v-.554H315.1a9.055,9.055,0,0,0,1.448-.783H313.63v-7.25h5.6c.024-.266.044-.528.061-.783H313.63v-6.809h6.305c.032-.248.066-.507.1-.782H313.63v-7.25h6.808v4.07c.239-1.907.507-4.064.783-6.262v-5.4h.684q.052-.4.1-.783h-.786v-7.25h1.8c.048-.263.1-.526.165-.783h-1.965V421.3h5.906c.247-.273.492-.535.735-.783h-6.642v-7.249h7.249v6.648c.272-.261.534-.5.783-.729v-5.92h6.808v2.554c.254-.058.513-.115.783-.172v-2.382h7.249v1.353c.259-.02.515-.043.778-.061h.005v-1.292h6.809v2.274q.4.122.783.253v-2.527h7.25v5.9c.32.188.583.349.782.473v-6.369h5.842c.044-.262.087-.523.12-.783H360.5v-6.809h5.818c-.04-.261-.077-.522-.123-.782h-5.7v-7.25h3.873c-.078-.26-.159-.522-.24-.783H360.5V390.05h1.276q-.163-.386-.337-.783h-.94v-2.083q-.379-.818-.782-1.659v3.742h-7.25v-7.249h5.52c-.132-.263-.265-.522-.4-.783H352.47v-6.808h1.541l-.425-.783H352.47v-2.036c-.337-.609-.607-1.095-.783-1.409v3.445h-6.809v-7.25h5.589c-.083-.249-.169-.5-.267-.782h-5.322V358.8h2.637c-.109-.253-.227-.52-.342-.783h-2.294v-5.009c-.085-.178-.161-.344-.248-.526q-.273-.568-.535-1.1v6.637h-7.249v-7.249h6.946q-.2-.4-.393-.783h-6.553v-6.808h2.56q-.31-.42-.611-.783h-1.949v-1.909a8.2,8.2,0,0,0-.783-.52v2.429h-6.808v-4.436l-.783-.2v4.636h-7.249v-6.572l-.783-.215v6.787H313.63v-7.25h5.136c-.92-.255-1.856-.517-2.8-.782H313.63v-.66l-.783-.223v.883H305.6v-2.994l-.782-.235v3.229H298v-5.353c-.274-.091-.534-.179-.783-.263v5.616h-7.25v-7.652q-.39-.082-.783-.16v7.812h-6.808v-8.937l-.783-.106v9.043h-7.25v-9.666c-.241,0-.5,0-.783,0v9.666h-6.808v-9.5l-.783.038v9.465h-7.25v-8.882q-.394.045-.783.1v8.787h-6.808v-7.423c-.272.085-.532.173-.783.265v7.158H243.1v-3.4l-.783.412v2.992h-5.7Zm.783-.206h6.809v7.25h-6.809Zm61.714,46.09h-7.25v-6.808h7.25Zm.783-6.808h6.809v6.808H298ZM243.1,382.017h7.25v7.249H243.1Zm-.783,7.249h-6.809v-7.249h6.809Zm24.44,31.249v-7.249h6.808v7.249Zm6.808.783v6.808h-6.808V421.3Zm-6.808-8.816v-6.809h6.808v6.809Zm-8.032-30.466h7.25v7.249h-7.25Zm-.783,7.249h-6.808v-7.249h6.808Zm8.816-7.249h6.808v7.249h-6.808Zm-.783,8.033v6.808h-7.25V390.05Zm.783,0h6.808v6.808h-6.808Zm6.808,7.592v7.25h-6.808v-7.25Zm.783,8.032h7.25v6.809h-7.25Zm0-.782v-7.25h7.25v7.25Zm0-8.033V390.05h7.25v6.808Zm0-7.592v-7.249h7.25v7.249Zm0-8.032v-6.808h7.25v6.808Zm-.783,0h-6.808v-6.808h6.808Zm-7.591,0h-7.25v-6.808h7.25Zm-8.033,0h-6.808v-6.808h6.808Zm-7.592,0H243.1v-6.808h7.25Zm0,8.816v6.808H243.1V390.05Zm.783,0h6.808v6.808h-6.808Zm6.808,7.592v7.25h-6.808v-7.25Zm.783,0h7.25v7.25h-7.25Zm7.25,8.032v6.809h-7.25v-6.809Zm0,7.592v7.249h-7.25v-7.249Zm0,8.032v6.808h-7.25V421.3Zm0,7.591v7.25h-7.25v-7.25Zm.783,0h6.808v7.25h-6.808Zm7.592,0h7.25v7.25h-7.25Zm0-.783V421.3h7.25v6.808Zm0-7.592v-7.249h7.25v7.249Zm8.033-7.249h6.808v7.249h-6.808Zm0-.783v-6.809h6.808v6.809Zm0-7.592v-7.25h6.808v7.25Zm0-8.033V390.05h6.808v6.808Zm0-7.592v-7.249h6.808v7.249Zm7.591-7.249h7.25v7.249h-7.25Zm-.783-.783h-6.808v-6.808h6.808Zm-6.808-7.591v-7.25h6.808v7.25Zm-.783,0h-7.25v-7.25h7.25Zm-8.033,0h-6.808v-7.25h6.808Zm-7.591,0h-7.25v-7.25h7.25Zm-8.033,0h-6.808v-7.25h6.808Zm-7.592,0H243.1v-7.25h7.25Zm-8.032,0h-6.809v-7.25h6.809Zm0,.783v6.808h-6.809v-6.808Zm-7.592,6.808h-7.249v-6.808h7.249Zm0,.783v7.249h-7.249v-7.249Zm0,8.033v6.808h-7.249V390.05Zm.783,0h6.809v6.808h-6.809Zm6.809,7.592v7.25h-6.809v-7.25Zm.783,0h7.25v7.25H243.1Zm7.25,8.032v6.809H243.1v-6.809Zm.783,0h6.808v6.809h-6.808Zm6.808,7.592v7.249h-6.808v-7.249Zm0,8.032v6.808h-6.808V421.3Zm0,7.591v7.25h-6.808v-7.25Zm0,8.033v6.808h-6.808v-6.808Zm.783,0h7.25v6.808h-7.25Zm8.032,0h6.808v6.808h-6.808Zm7.592,0h7.25v6.808h-7.25Zm8.033,0h6.808v6.808h-6.808Zm0-.783v-7.25h6.808v7.25Zm0-8.033V421.3h6.808v6.808Zm7.591-6.808h7.25v6.808h-7.25Zm0-.783v-7.249h7.25v7.249Zm0-8.033v-6.809h7.25v6.809Zm0-7.592v-7.25h7.25v7.25Zm0-8.033V390.05h7.25v6.808ZM298,390.05h6.809v6.808H298Zm0-.783v-7.249h6.809v7.249Zm7.592-7.249h7.25v7.249H305.6Zm8.033,0h6.808v7.249H313.63Zm0-.783v-6.808h6.808v6.808Zm-.783,0H305.6v-6.808h7.25Zm-7.25-7.591v-7.25h7.25v7.25Zm-.782,0H298v-7.25h6.809Zm-7.592,0h-7.25v-7.25h7.25Zm-7.25-8.033V358.8h7.25v6.809Zm-.783,0h-6.808V358.8h6.808Zm-7.592,0h-7.25V358.8h7.25Zm-8.033,0h-6.808V358.8h6.808Zm-7.591,0h-7.25V358.8h7.25Zm-8.033,0h-6.808V358.8h6.808Zm-7.592,0H243.1V358.8h7.25Zm-8.032,0h-6.809V358.8h6.809Zm-7.592,0h-7.249V358.8h7.249Zm0,.782v7.25h-7.249v-7.25Zm-8.032,7.25h-6.808v-7.25h6.808Zm0,.783v6.808h-6.808v-6.808Zm0,7.592v7.249h-6.808v-7.249Zm-7.592,7.249h-7.249v-7.249H219.1Zm0,.783v6.808h-7.249V390.05Zm.783,0h6.808v6.808h-6.808Zm6.808,7.592v7.25h-6.808v-7.25Zm.783,0h7.249v7.25h-7.249Zm7.249,8.032v6.809h-7.249v-6.809Zm.783,0h6.809v6.809h-6.809Zm6.809,7.592v7.249h-6.809v-7.249Zm.783,0h7.25v7.249H243.1Zm7.25,8.032v6.808H243.1V421.3Zm0,7.591v7.25H243.1v-7.25Zm0,8.033v6.808H243.1v-6.808Zm0,7.592v7.25H243.1v-7.25Zm.783,0h6.808v7.25h-6.808Zm7.592,0h7.25v7.25h-7.25Zm8.032,0h6.808v7.25h-6.808Zm7.592,0h7.25v7.25h-7.25Zm8.033,0h6.808v7.25h-6.808Zm7.591,0h7.25v7.25h-7.25Zm0-.783v-6.808h7.25v6.808Zm0-7.591v-7.25h7.25v7.25ZM298,428.89h6.809v7.25H298Zm0-.783V421.3h6.809v6.808Zm0-7.592v-7.249h6.809v7.249Zm0-8.033v-6.809h6.809v6.809Zm0-7.592v-7.25h6.809v7.25Zm7.592-7.25h7.25v7.25H305.6Zm0-.783V390.05h7.25v6.808Zm8.033-6.808h6.808v6.808H313.63Zm7.592,0h7.249v6.808h-7.249Zm8.032,0h6.808v6.808h-6.808Zm0-.783v-7.249h6.808v7.249Zm-.783,0h-7.249v-7.249h7.249Zm-7.249-8.032v-6.808h7.249v6.808Zm0-7.591v-7.25h7.249v7.25Zm-.783,0H313.63v-7.25h6.808Zm-6.808-8.033V358.8h6.808v6.809Zm-.783,0H305.6V358.8h7.25Zm-8.032,0H298V358.8h6.809ZM298,358.018v-7.249h6.809v7.249Zm-.783,0h-7.25v-7.249h7.25Zm-8.032,0h-6.808v-7.249h6.808Zm-7.592,0h-7.25v-7.249h7.25Zm-8.033,0h-6.808v-7.249h6.808Zm-7.591,0h-7.25v-7.249h7.25Zm-8.033,0h-6.808v-7.249h6.808Zm-7.592,0H243.1v-7.249h7.25Zm-8.032,0h-6.809v-7.249h6.809Zm-7.592,0h-7.249v-7.249h7.249Zm-8.032,0h-6.808v-7.249h6.808Zm0,.783v6.809h-6.808V358.8ZM219.1,365.61h-7.249V358.8H219.1Zm0,.782v7.25h-7.249v-7.25Zm0,8.033v6.808h-7.249v-6.808Zm-8.032,6.808h-6.809v-6.808h6.809Zm0,.783v7.249h-6.809v-7.249Zm0,8.033v6.808h-6.809V390.05Zm0,7.592v7.25h-6.809v-7.25Zm.783,0H219.1v7.25h-7.249Zm7.249,8.032v6.809h-7.249v-6.809Zm.783,0h6.808v6.809h-6.808Zm6.808,7.592v7.249h-6.808v-7.249Zm.783,0h7.249v7.249h-7.249Zm7.249,8.032v6.808h-7.249V421.3Zm.783,0h6.809v6.808h-6.809Zm6.809,7.591v7.25h-6.809v-7.25Zm0,8.033v6.808h-6.809v-6.808Zm0,7.592v7.25h-6.809v-7.25Zm0,8.032v6.809h-6.809v-6.809Zm.783,0h7.25v6.809H243.1Zm8.033,0h6.808v6.809h-6.808Zm7.592,0h7.25v6.809h-7.25Zm8.032,0h6.808v6.809h-6.808Zm7.592,0h7.25v6.809h-7.25Zm8.033,0h6.808v6.809h-6.808Zm7.591,0h7.25v6.809h-7.25Zm8.033,0h6.809v6.809H298Zm0-.782v-7.25h6.809v7.25Zm0-8.033v-6.808h6.809v6.808Zm7.592-6.808h7.25v6.808H305.6Zm0-.783v-7.25h7.25v7.25Zm0-8.033V421.3h7.25v6.808Zm0-7.592v-7.249h7.25v7.249Zm0-8.033v-6.809h7.25v6.809Zm8.033-6.809h6.808v6.809H313.63Zm0-.782v-7.25h6.808v7.25Zm7.592-7.25h7.249v7.25h-7.249Zm8.032,0h6.808v7.25h-6.808Zm7.592,0h7.249v7.25h-7.249Zm8.032,0h6.809v7.25h-6.809Zm0-.783V390.05h6.809v6.808Zm-.783,0h-7.249V390.05h7.249Zm-7.249-7.592v-7.249h7.249v7.249Zm0-8.032v-6.808h7.249v6.808Zm-.783,0h-6.808v-6.808h6.808Zm-6.808-7.591v-7.25h6.808v7.25Zm0-8.033V358.8h6.808v6.809Zm-.783,0h-7.249V358.8h7.249Zm-7.249-7.592v-7.249h7.249v7.249Zm-.783,0H313.63v-7.249h6.808Zm-7.592,0H305.6v-7.249h7.25Zm-7.25-8.032v-6.808h7.25v6.808Zm-.782,0H298v-6.808h6.809Zm-7.592,0h-7.25v-6.808h7.25Zm-8.032,0h-6.808v-6.808h6.808Zm-7.592,0h-7.25v-6.808h7.25Zm-8.033,0h-6.808v-6.808h6.808Zm-7.591,0h-7.25v-6.808h7.25Zm-8.033,0h-6.808v-6.808h6.808Zm-7.592,0H243.1v-6.808h7.25Zm-8.032,0h-6.809v-6.808h6.809Zm-7.592-6.808v6.808h-7.249v-6.808Zm-14.841,0h6.808v6.808h-6.808Zm-.783,7.592v7.249h-7.249v-7.249Zm-14.842,0h6.809v7.249h-6.809Zm0,8.032h6.809v6.809h-6.809Zm0,7.592h6.809v7.25h-6.809Zm-8.032,8.033h7.25v6.808h-7.25Zm0,7.592h7.25v7.249h-7.25Zm0,8.033h7.25v6.808h-7.25Zm0,7.592h7.25v7.25h-7.25Zm0,14.841v-6.809h7.25v6.809Zm8.032,0v-6.809h6.809v6.809Zm7.592,8.033v-7.249H219.1v7.249Zm8.032,7.592V421.3h6.808v6.808Zm7.592.783h7.249v7.25h-7.249Zm0,8.033h7.249v6.808h-7.249Zm0,7.592h7.249v7.25h-7.249Zm0,8.032h7.249v6.809h-7.249Zm0,14.842v-7.25h7.249v7.25Zm8.032,0v-7.25h6.809v7.25Zm7.592,0v-7.25h7.25v7.25Zm8.033,0v-7.25h6.808v7.25Zm7.592,0v-7.25h7.25v7.25Zm8.032,0v-7.25h6.808v7.25Zm7.592,0v-7.25h7.25v7.25Zm8.033,0v-7.25h6.808v7.25Zm7.591,0v-7.25h7.25v7.25Zm8.033,0v-7.25h6.809v7.25Zm14.842,0H305.6v-7.25h7.25Zm0-8.033H305.6v-6.809h7.25Zm0-7.592H305.6v-7.25h7.25Zm7.592-8.033H313.63v-6.808h6.808Zm0-7.591H313.63v-7.25h6.808Zm0-8.033H313.63V421.3h6.808Zm0-7.592H313.63v-7.249h6.808Zm.783-8.033v-6.809h7.249v6.809Zm8.032,0v-6.809h6.808v6.809Zm7.592,0v-6.809h7.249v6.809Zm8.032,0v-6.809h6.809v6.809Zm14.842,0h-7.25v-6.809h7.25Zm0-7.592h-7.25v-7.25h7.25Zm0-14.841v6.808h-7.25V390.05Zm-8.033-.783h-6.809v-7.249h6.809Zm0-14.841v6.808h-6.809v-6.808Zm-7.592-.783h-7.249v-7.25h7.249Zm0-14.842v6.809h-7.249V358.8Zm-8.032-.783h-6.808v-7.249h6.808Zm0-14.841v6.808h-6.808v-6.808Zm-7.592,0v6.808h-7.249v-6.808Zm-8.032,0v6.808H313.63v-6.808Zm-7.592-8.033v7.25H305.6v-7.25Zm-8.032,0v7.25H298v-7.25Zm-7.592,0v7.25h-7.25v-7.25Zm-8.032,0v7.25h-6.808v-7.25Zm-7.592,0v7.25h-7.25v-7.25Zm-8.033,0v7.25h-6.808v-7.25Zm-7.591,0v7.25h-7.25v-7.25Zm-8.033,0v7.25h-6.808v-7.25Zm-7.592,0v7.25H243.1v-7.25Z" transform="translate(-185.13 -324.695)"/></g><g transform="translate(28.005 33.263)"><path class="i" d="M229.57,433.606s-1.461-15.093-3.895-19.718-7.06-12.9-7.79-13.633" transform="translate(-217.885 -369.944)"/><path class="i" d="M222.119,386.954a31.757,31.757,0,0,0-1.051-4.06" transform="translate(-218.39 -367.19)"/><path class="i" d="M357.53,364.229s-1.208,1.518-2.815,3.825" transform="translate(-239.592 -364.229)"/><path class="i" d="M349.513,424.991s-5.964-4.207-4.977-8.479,9.443-20.655,9.6-21.98" transform="translate(-237.96 -369.036)"/><path class="i" d="M370.689,413.233a37.574,37.574,0,0,1,5.26-1.28" transform="translate(-242.126 -371.8)"/><path class="i" d="M356.806,422.126s1.81-4.13,8.5-7.19" transform="translate(-239.924 -372.273)"/><line class="i" x2="0.238" y2="5.561" transform="translate(58.327 76.306)"/><line class="i" x2="2.018" y2="47.091" transform="translate(56.211 26.94)"/></g><path class="i" d="M247.9,328.383s-26.291,13.876-32.377,16.8-13.389,5.356-14.849,9.251S187.045,394.11,185.1,398.979s2.434,11.442,2.678,12.9-.974,5.112-.487,6.086a9.178,9.178,0,0,1,1.217,3.895c0,1.461,11.928-6.329,19.474-1.7s12.9,13.389,13.633,15.336a63.216,63.216,0,0,1,2.677,15.579c.244,6.573-2.921,11.442-.73,14.606a13.1,13.1,0,0,0,6.33,4.382s55.26,3.651,67.431,1.7,19.718-2.678,20.935-6.573.973-9.008,1.217-9.981,2.434-19.718,3.407-26.048,7.547-10.954,8.277-11.685,6.329-2.434,13.632-2.921,16.067,5.356,16.067,5.356,4.139.243,5.356-6.329-.974-12.9-3.165-19.961-11.685-23.857-11.685-23.857-.973-5.112-6.816-17.284-8.033-12.9-12.658-13.876-28.7-7.666-35.785-10.224-19.98-3.673-19.98-3.673S253.5,324.246,247.9,328.383Z" transform="translate(-184.6 -324.694)"/><path class="j" d="M267.94,351.354s3.895,12.171,6.33,18.744,7.546,13.876,7.546,13.876,8.764-22.152,9.494-25.56,1.217-5.355,1.217-5.355Z" transform="translate(-197.821 -328.924)"/><path class="a" d="M259.426,341.953s-2.191,11.685-2.191,16.31.243,8.764.243,8.764a4.059,4.059,0,0,0,3.895-1.7c1.7-2.191,5.321-4.781,9.6-6.894s14.015-1.382,14.015-1.382,7.546,5.355,10.467,7.546,5.6,2.921,5.6.487-1.948-13.389-3.408-19.718a44.563,44.563,0,0,0-2.678-8.764l-34.324,1.461Z" transform="translate(-196.123 -326.583)"/></g><g transform="translate(0 79.696)"><g transform="translate(44.944)"><path class="a" d="M347.923,437.293s.6-3.729,1.044-5.518,1.043-4.922,1.342-5.667,10.887-8.2,22.819-6.413,22.967,13.87,23.266,16.406-3.878,12.379-4.623,15.51-4.624,4.922-6.711,5.37a17.549,17.549,0,0,1-5.37-.149s3.281-16.853-3.43-21.775-16.555.448-20.432,1.79S348.52,438.784,347.923,437.293Z" transform="translate(-251.596 -419.417)"/><g transform="translate(0 10.185)"><path class="k" d="M262.177,486.194l15.171,24.848s-3.923,5.755-13.078,8.893-22.755,3.4-27.464,2.354-4.447-2.616.523-14.124S255.115,490.379,262.177,486.194Z" transform="translate(-233.433 -440.196)"/><path class="f" d="M275.883,493.5s-3.923,1.569-4.708,3.138-5.754,8.893-5.754,8.893l30.6-20.663-1.569-2.092Z" transform="translate(-238.507 -439.654)"/><path class="k" d="M333.724,464.712s22.2.085,33.926-3.052,17.646-5.215,18.735-8.589-8.593-19.111-14.009-20.92-17.014.556-23.651,3.754-23.558,12.706-23.558,12.706Z" transform="translate(-247.986 -431.523)"/><g transform="translate(34.821 11.569)"><path class="l" d="M310.217,480.723s14.656-3.959,15.457-5.216,1.929-10.019-.582-17.456-12.333-12.672-14.885-12.776-9.968,6.593-9.968,6.593L288.768,466.2s-12.1,6.156-13.424,8.352.267,11.347.437,13.578.11,5.376.91,8.008,2.706,6.075,4.056,6.123,2.607.848,3.843-.592.621-3.637.1-4.644-.235-7.012.143-7.938-.562,2.437.729,3.684,2.64,3.238,3.737,3.9,1.911-.445,6.052-1.059,5.641-.58,7.368-1.459,2.517-.342,3.811-2.983a32.471,32.471,0,0,0,2.362-8.257l.069-1.053Z" transform="translate(-274.82 -445.274)"/><path class="i" d="M307.911,488.625s-.1,6.589.051,8.521a29.189,29.189,0,0,1,0,3.89" transform="translate(-280.065 -452.151)"/><path class="i" d="M297.6,488.332s-1.664,7.605-.408,10.351,1.633,3.765,1.633,3.765" transform="translate(-278.294 -452.104)"/><line class="i" x1="0.933" y2="9.345" transform="translate(10.008 34.471)"/><path class="i" d="M288.427,498.5s3.216-2.938,7.093-1.139" transform="translate(-276.979 -453.444)"/><path class="i" d="M301.059,496.427s3.868-2.24,5.834,0c0,0,2.471-.936,3.8,2.7" transform="translate(-278.983 -453.231)"/><path class="i" d="M296.116,469.079s11.254,2.433,15.227,13.349" transform="translate(-278.198 -449.05)"/></g></g></g><path class="m" d="M268.511,529.743s1.308-1.5-3.138-4.514a6.819,6.819,0,0,0-8.108,0s-1.308-3.01-3.662-3.311l-2.354-.3s-.261-5.719-3.138-6.32-4.185,2.708-4.185,2.708-3.923-3.611-6.277-2.708a4.738,4.738,0,0,0-2.877,3.01s-3.138-4.515-5.231-3.311-2.616,4.816-2.616,4.816-2.615-1.505-4.447.6a5.313,5.313,0,0,0-1.569,3.912s-2.616-3.31-4.969-.9a6.448,6.448,0,0,0-2.092,4.816s-2.616-.9-2.877.6l-.262,1.505h61.2Z" transform="translate(-184.883 -434.548)"/><g transform="translate(0 6.513)"><path class="a" d="M201.035,427.159s-19.639,4.777-20.7,7.7.8,15.924,1.593,18.578,5.042,3.716,9.023,5.042,16.454,4.246,20.436,4.512,8.227.8,10.085-2.389,1.593-6.37,2.654-12.208,5.307-4.777-2.92-12.208S204.485,427.159,201.035,427.159Z" transform="translate(-180.014 -427.159)"/><path class="k" d="M187.649,449.894l7.431,32.643,20.7,1.327,4.246-26.008s-2.389-8.493-13.27-11.943S187.649,449.894,187.649,449.894Z" transform="translate(-181.225 -429.989)"/><g transform="translate(3.746 38.747)"><path class="l" d="M219.257,501.61s-.531-20.436-.266-22.028-1.858-6.37-14.331-6.37-20.7,9.024-20.17,11.147,3.98,15.658,3.98,15.658a39.862,39.862,0,0,0-.531,6.37c0,3.45-2.919,6.1-1.858,10.085s6.1,12.208,9.289,10.881,4.246-1.592,3.185-5.573-1.858-6.9-1.858-6.9,3.185,10.35,4.776,13a5.83,5.83,0,0,0,5.839,2.919l1.593-.266a6.11,6.11,0,0,0,5.838.8c3.185-1.327,3.715-3.45,3.715-3.45s2.389,1.327,3.45-3.981,2.389-11.412.8-16.189S219.257,501.61,219.257,501.61Z" transform="translate(-184.466 -473.212)"/><path class="i" d="M189.226,503.891s.8-5.042,11.943-6.1,15.658,3.715,15.658,3.715" transform="translate(-185.221 -477.086)"/><path class="i" d="M195.826,515.006s-5.838-2.919-8.492,2.124" transform="translate(-184.921 -479.709)"/><path class="k" d="M213,538.229s-2.071-14.256-2.722-16.533" transform="translate(-188.561 -480.904)"/><path class="k" d="M224.61,535.269s-1.218-12.741-1.381-15.5" transform="translate(-190.616 -480.597)"/></g></g></g></g><g transform="translate(55.853 42.896)"><path class="k" d="M246.4,314.739s.613,7.361,3.068,9.508,2.8,3.662,2.8,3.662l-.044-13.171Z" transform="translate(-246.399 -307.263)"/><path class="k" d="M252.006,318.075s2.147,16.663,5.419,21.545,8.108,14.641,11.462,15.76,10.477,3.815,18.417-1.649S297.755,334.277,299,328.576l1.244-5.7s7.211-1.519,8.2-9.118-.708-7.9-.708-7.9-3.572,2.988-24.069,3.312-26.4.6-29.437.2a13.44,13.44,0,0,0-5.072.2Z" transform="translate(-246.837 -305.853)"/><path class="f" d="M251.221,317.42s.8,4.936,1.815,10.38,2.236,11.392,3.08,13.417c1.688,4.05,5.232,11.983,9.114,14.683s9.62,5.738,15.865,3.882,11.983-5.907,14.177-10.3,2.7-4.726,3.882-11.308,2.194-16.2,2.194-16.2l1.35-7.932-5.062,1.35a23,23,0,0,1,1.519,6.245c0,2.362-2.7,14.177-3.206,16.2a5.166,5.166,0,0,1-3.207,3.882c-1.35.337-2.7.506-5.907-1.519s-7.932-1.856-10.97-1.688-2.87-1.519-7.258-.168-8.439,3.038-8.439,3.038-2.869-.844-4.557-7.257-2.363-16.371-2.363-16.371Z" transform="translate(-247.164 -307.152)"/><path class="k" d="M282.917,338.324a10.572,10.572,0,0,1-3.376,2.87c-2.025,1.012-5.063.337-5.739-1.013s.676-13,.676-13l-2.194-3.713" transform="translate(-250.505 -308.648)"/><path class="f" d="M268.1,326.922c0,1.351-.68,2.447-1.519,2.447s-1.519-1.1-1.519-2.447.68-2.448,1.519-2.448S268.1,325.57,268.1,326.922Z" transform="translate(-249.36 -308.807)"/><path class="f" d="M291.169,327.724c0,1.351-.68,2.448-1.519,2.448s-1.519-1.1-1.519-2.448.681-2.447,1.519-2.447S291.169,326.373,291.169,327.724Z" transform="translate(-253.019 -308.934)"/><path class="n" d="M269.275,347.544s2.025,3.037,7.932,3.544a18.89,18.89,0,0,0,10.8-2.7" transform="translate(-250.028 -312.467)"/><path class="i" d="M286.928,333.1s3.375,2.025,5.907,1.35" transform="translate(-252.829 -310.176)"/><path class="i" d="M269.756,330.292s-2.362,2.532-4.894,2.869" transform="translate(-249.328 -309.73)"/></g><g transform="translate(51.947)"><path class="k" d="M266.95,257.324s-9.253,2.684-13.7,8.838-7,18.619-7,18.619-2.661,1.158-2.747,2.778a18.881,18.881,0,0,0,.05,3.143c.068.762-2.361,3.666-1.685,5.218s.253,5.429,1.7,8.756,3.492,5.6,9.4,6.457,27.417,1.782,32.21,1.279,10.751-2.57,13.123-4.394,12.194-11.375,11.672-13.786-.475-5.333-1.5-6.47-2.238-2.718-2.238-2.718-2.755-15.419-7.8-20.344a40.076,40.076,0,0,0-9.694-7.123,7.763,7.763,0,0,0-4.678-1.657c-2.6.078-4.263-1.309-6.77-1.01l-2.507.3S268.4,254.585,266.95,257.324Z" transform="translate(-241.756 -254.868)"/><path class="i" d="M247.1,290.421l-.024,12.671s8.19,4.876,25.721,5.158,25.458-2.113,27.8-3.4,5.032-2.983,5.032-2.983a32.785,32.785,0,0,1-.292-6.731,13.212,13.212,0,0,1,1.753-4.456" transform="translate(-242.6 -260.509)"/><path class="i" d="M256.07,301.212s-.292-6.731.738-9.817,7.251-3.948,9.418-8.057,2.481-16.115,2.847-18.912" transform="translate(-244.021 -256.385)"/><path class="i" d="M297.507,300.057s1.772-6.838-2.541-11.292-9.817-.738-12.627-9.011-.616-18.988,1.649-22.875" transform="translate(-247.984 -255.188)"/></g></g><line class="i" x1="390.086" transform="translate(0 372.847)"/><g transform="translate(64.957 270.245)"><path class="m" d="M263.866,526.394a8.725,8.725,0,0,0-.169,3.573l-35.447-.633-60.124,17.971c.566,2.957-2.433.206-1.933,2.957l.5,2.75L139.7,568.545l-.034,3.268v17.972l.034,3.267v17.972H450.366v-102.6h-186.5Z" transform="translate(-139.664 -508.422)"/><g transform="translate(0 0)"><rect class="k" width="60.124" height="17.972" transform="translate(124.202 0)"/><rect class="k" width="60.124" height="17.972" transform="translate(187.593 0)"/><rect class="k" width="60.124" height="17.972" transform="translate(28.462 20.913)"/><rect class="k" width="60.124" height="17.972" transform="translate(91.853 20.913)"/><rect class="k" width="60.124" height="17.972" transform="translate(155.571 20.913)"/><rect class="k" width="60.124" height="17.972" transform="translate(218.962 20.913)"/><rect class="k" width="29.066" height="17.972" transform="translate(281.636 20.913)"/><rect class="k" width="60.124" height="17.972" transform="translate(0.034 42.152)"/><rect class="k" width="60.124" height="17.972" transform="translate(63.425 42.152)"/><rect class="k" width="60.124" height="17.972" transform="translate(127.143 42.152)"/><rect class="k" width="60.124" height="17.972" transform="translate(190.534 42.152)"/><rect class="k" width="60.124" height="17.972" transform="translate(28.462 63.391)"/><rect class="k" width="25.689" height="17.972" transform="translate(0 63.391)"/><rect class="k" width="60.124" height="17.972" transform="translate(91.853 63.391)"/><rect class="k" width="60.124" height="17.972" transform="translate(155.571 63.391)"/><rect class="k" width="60.124" height="17.972" transform="translate(218.962 63.391)"/><rect class="k" width="29.066" height="17.972" transform="translate(281.636 63.391)"/><rect class="k" width="60.124" height="17.972" transform="translate(0.034 84.631)"/><rect class="k" width="60.124" height="17.972" transform="translate(63.425 84.631)"/><rect class="k" width="60.124" height="17.972" transform="translate(127.143 84.631)"/><rect class="k" width="60.124" height="17.972" transform="translate(190.534 84.631)"/><rect class="k" width="59.994" height="17.972" transform="translate(250.708)"/><rect class="k" width="57.053" height="17.972" transform="translate(253.649 42.152)"/><rect class="k" width="57.053" height="17.972" transform="translate(253.649 84.631)"/></g></g></g></svg>