<svg xmlns="http://www.w3.org/2000/svg" width="162.824" height="48.003" viewBox="0 0 162.824 48.003"><defs><style>.a{fill:#fff;}.b{fill:#00a1a4;}</style></defs><path d="M21.045,107.014a1.379,1.379,0,0,1-.712,1.227,11.961,11.961,0,0,1-7.822,2.78,12.067,12.067,0,0,1-8.853-3.643,12.5,12.5,0,0,1,0-17.678c.132-.129.266-.255.4-.378s.238-.216.362-.317c.224-.179.457-.35.7-.513a2.191,2.191,0,0,1,.709-.333,2.216,2.216,0,0,1,.869,0,2.116,2.116,0,0,1,.614.322,2.833,2.833,0,0,1,.51.476,1.852,1.852,0,0,1,.258.605,1.6,1.6,0,0,1,0,.709L8,90.511a1.653,1.653,0,0,1-.336.6A9.093,9.093,0,0,0,6.545,92c-.087.078-.174.163-.258.247a8.85,8.85,0,0,0,0,12.544,8.539,8.539,0,0,0,6.272,2.581,8.626,8.626,0,0,0,5.6-1.962,1.7,1.7,0,0,1,1.057-.418h.247a1.85,1.85,0,0,1,1.267.748h-.022v.05a1.606,1.606,0,0,1,.28.541,2.752,2.752,0,0,1,.053.684Z" transform="translate(0.006 -63.414)"/><path class="a" d="M14.46,91.593c.121-.1.247-.2.373-.3-.123.1-.244.207-.362.317Z" transform="translate(-10.406 -65.698)"/><path d="M115.361,84.026a12.413,12.413,0,0,1,0,17.709,12.443,12.443,0,0,1-17.683,0A12,12,0,0,1,94,92.881a12.591,12.591,0,0,1,12.541-12.544A12.05,12.05,0,0,1,115.361,84.026Zm-8.83,17.731a8.866,8.866,0,1,0,0-17.731,8.556,8.556,0,0,0-6.294,2.584,8.906,8.906,0,0,0,0,12.591,8.553,8.553,0,0,0,6.294,2.581Z" transform="translate(-67.651 -57.815)"/><path d="M210.141,80.868A10.285,10.285,0,0,1,220.37,91.1v13.034a2.11,2.11,0,0,1-.1.715,1.334,1.334,0,0,1-.392.541,1.834,1.834,0,0,1-3.15-1.255V91.1a6.333,6.333,0,0,0-1.942-4.7,6.566,6.566,0,0,0-11.21,4.7v13.034a1.564,1.564,0,0,1-.518,1.255,1.732,1.732,0,0,1-1.328.541,1.923,1.923,0,0,1-.664-.1,1.331,1.331,0,0,1-.56-.443,1.5,1.5,0,0,1-.518-1.255V90.959a10.3,10.3,0,0,1,10.2-10.092Z" transform="translate(-143.938 -58.196)"/><path d="M307.281,95.64a5.975,5.975,0,0,1,.617,2.9v.493a3.032,3.032,0,0,1-.025.49,4.991,4.991,0,0,1-.392,1.5,6.515,6.515,0,0,1-.886,1.474,8.805,8.805,0,0,1-3.59,2.73,13.213,13.213,0,0,1-5.165.911,11.05,11.05,0,0,1-7.895-3.1,9.113,9.113,0,0,1-1.7-2.214h.031a1.681,1.681,0,0,1-.28-.933v-.28a.885.885,0,0,1,.073-.294,2.293,2.293,0,0,1,.3-.591,1.519,1.519,0,0,1,.56-.443l-.022.025a1.583,1.583,0,0,1,.886-.28,1.441,1.441,0,0,1,.589.123v-.025a1.766,1.766,0,0,1,.591.345,2.242,2.242,0,0,1,.443.516,8.916,8.916,0,0,0,1.107,1.426A6.164,6.164,0,0,0,294,101.536a8.775,8.775,0,0,0,1.822.737,7.351,7.351,0,0,0,1.962.247,9.265,9.265,0,0,0,3.467-.591,5.675,5.675,0,0,0,2.337-1.623,2.62,2.62,0,0,0,.541-1.034v-.146a2.089,2.089,0,0,0,.048-.37v-.294a4.276,4.276,0,0,0-.025-.591,1.163,1.163,0,0,0-.146-.443,4.178,4.178,0,0,0-1.23-1.23,5.23,5.23,0,0,0-1.917-.687,14.091,14.091,0,0,0-2.9-.247,16.551,16.551,0,0,1-4.066-.437,8.127,8.127,0,0,1-2.828-1.253,11.44,11.44,0,0,1-1.477-1.306,5.624,5.624,0,0,1-.958-1.326,5.557,5.557,0,0,1-.468-2.657l.025-.639a4.346,4.346,0,0,1,.37-1.477,7.2,7.2,0,0,1,.886-1.5,8.789,8.789,0,0,1,3.59-2.73,13.1,13.1,0,0,1,5.131-.947,11.24,11.24,0,0,1,3.837.664,12,12,0,0,1,3.343,1.858,2.583,2.583,0,0,1,.518.518,1.6,1.6,0,0,1,.221.81,2.668,2.668,0,0,1-.076.664,1.272,1.272,0,0,1-.294.53,1.569,1.569,0,0,1-.541.468,1.794,1.794,0,0,1-.813.2,1.833,1.833,0,0,1-1.155-.345.115.115,0,0,1-.064-.039,7.348,7.348,0,0,0-4.871-1.771,9.086,9.086,0,0,0-3.467.591,5.936,5.936,0,0,0-2.312,1.623v-.025a2.192,2.192,0,0,0-.516,1.034v.28a4.484,4.484,0,0,0,.1,1.253v-.048a3.924,3.924,0,0,0,1.253,1.23,5.916,5.916,0,0,0,1.92.712,13.752,13.752,0,0,0,2.853.28,17.768,17.768,0,0,1,4.033.418A8.614,8.614,0,0,1,305,93.076a10.837,10.837,0,0,1,1.351,1.155,6.108,6.108,0,0,1,.958,1.23h-.022Z" transform="translate(-207.288 -58.287)"/><path d="M394.369,77.373a1.962,1.962,0,0,1,.468,1.328,2.241,2.241,0,0,1-.174.664,1.785,1.785,0,0,1-.984.908,1.516,1.516,0,0,1-.614.076,1.623,1.623,0,0,1-.715-.123,2.242,2.242,0,0,1-.56-.418l-11.21-11.927-.689.49-.639.493-.933.689-1.034.759v8.273a1.78,1.78,0,0,1-.465,1.278,1.654,1.654,0,0,1-1.328.541,1.7,1.7,0,0,1-1.328-.516,1.236,1.236,0,0,1-.37-.56,2.334,2.334,0,0,1-.123-.737V47.174a1.993,1.993,0,0,1,.561-1.328,2.934,2.934,0,0,1,.56-.37,1.819,1.819,0,0,1,1.426,0,4.768,4.768,0,0,1,.56.345,1.81,1.81,0,0,1,.541,1.328V65.7l3.565-2.606,3.542-2.584,3.713-2.73,3.738-2.755a1.681,1.681,0,0,1,1.057-.319h.28a1.34,1.34,0,0,1,.639.221,2.8,2.8,0,0,1,.49.443,2.211,2.211,0,0,1,.418,1.18v.28a2.565,2.565,0,0,1-.219.664,1.625,1.625,0,0,1-.468.541l-2.73,1.993-2.559,1.892-2.435,1.822-2.631,1.917,10.93,11.56Z" transform="translate(-268.95 -32.619)"/><path d="M467.249,78.5a2.049,2.049,0,0,1,1.527.762,4.055,4.055,0,0,1,.221.443,1.728,1.728,0,0,1,.1.664v22.01a1.748,1.748,0,0,1-.1.664,2.006,2.006,0,0,1-.247.443,2.049,2.049,0,0,1-1.477.737,1.836,1.836,0,0,1-1.253-.56,1.7,1.7,0,0,1-.591-1.3V80.344a1.648,1.648,0,0,1,.591-1.278,1.836,1.836,0,0,1,1.253-.56Z" transform="translate(-334.994 -56.493)"/><path d="M516.006,68.126a12.18,12.18,0,0,1-3.739,8.926,12.611,12.611,0,0,1-17.829,0,12.528,12.528,0,0,1,0-17.854,12.152,12.152,0,0,1,8.9-3.75,12.485,12.485,0,0,1,6.591,1.822,9.723,9.723,0,0,1,1.278.886,14.488,14.488,0,0,1,1.121.984V47.346a1.993,1.993,0,0,1,.56-1.328,1.8,1.8,0,0,1,1.278-.518,1.883,1.883,0,0,1,1.328.518,1.772,1.772,0,0,1,.507,1.3Zm-12.664,8.926a8.943,8.943,0,0,0,8.951-8.968,8.785,8.785,0,0,0-2.606-6.37,8.533,8.533,0,0,0-6.345-2.631,8.968,8.968,0,0,0,0,17.936Z" transform="translate(-353.183 -32.74)"/><g transform="translate(11.158)"><path class="b" d="M39.948,23.057A220.106,220.106,0,0,1,69.85,10.7c2.57-.841,5.128-1.7,7.729-2.441,1.295-.384,2.589-.771,3.89-1.135s2.612-.706,3.923-1.059c.653-.177,1.306-.35,1.962-.516s1.309-.339,1.962-.49l3.954-.936c1.317-.311,2.651-.56,3.979-.841l2.026-.415c.664-.137,1.328-.28,2-.387l4.021-.7c.67-.123,1.348-.207,2.021-.314s1.348-.2,2.023-.294c1.348-.2,2.713-.345,4.072-.5l2.04-.23c.684-.07,1.373-.1,2.057-.157l2.06-.149c.684-.056,1.382-.059,2.074-.092S123.012,0,123.7-.021s1.4,0,2.1.017,1.4,0,2.1.045,1.424.09,2.133.149c.353.031.717.053,1.057.09l1.012.115c.687.081,1.37.163,2.065.261s1.4.207,2.079.325,1.387.252,2.079.418l1.037.235c.345.084.689.177,1.034.28.689.165,1.368.4,2.046.617A35.675,35.675,0,0,1,150.218,6.1c.591.406,1.191.787,1.763,1.216s1.121.86,1.681,1.326,1.062.939,1.567,1.429.97,1.028,1.438,1.547a29.022,29.022,0,0,1,2.469,3.363,26.277,26.277,0,0,1,1.875,3.666v.028a.21.21,0,0,1-.115.28.207.207,0,0,1-.258-.087A28.49,28.49,0,0,0,149.159,8.106a34.143,34.143,0,0,0-7.435-2.8,49.352,49.352,0,0,0-7.869-1.295c-.661-.064-1.328-.109-2-.157l-1-.064c-.333-.022-.664-.025-1-.036l-2-.064c-.664,0-1.331.022-2,.034s-1.331.014-2,.056l-2,.129c-.664.05-1.331.07-2,.143l-2,.2c-.664.07-1.328.129-1.993.2l-1.987.258c-1.326.171-2.651.336-3.971.56s-2.643.4-3.96.631l-3.949.712c-5.257.986-10.5,2.071-15.694,3.326s-10.389,2.592-15.551,4.007c-2.578.715-5.145,1.477-7.721,2.211l-7.684,2.337-7.656,2.427-7.625,2.522a.207.207,0,0,1-.263-.132.213.213,0,0,1,.1-.255Z" transform="translate(-39.811 0.029)"/></g></svg>